<?xml version="1.0" encoding="UTF-8" standalone="no"?>
<!DOCTYPE svg PUBLIC "-//W3C//DTD SVG 1.1//EN" "http://www.w3.org/Graphics/SVG/1.1/DTD/svg11.dtd">
<svg width="100%" height="100%" viewBox="0 0 550 690" version="1.1" xmlns="http://www.w3.org/2000/svg" xmlns:xlink="http://www.w3.org/1999/xlink" xml:space="preserve" xmlns:serif="http://www.serif.com/" style="fill-rule:evenodd;clip-rule:evenodd;stroke-linecap:round;stroke-linejoin:round;stroke-miterlimit:1.5;">
    <g transform="matrix(1.00096,0.000757902,-0.000757902,1.00096,549.679,557.156)">
        <path d="M0,-423.389L-119.031,-556.314C-173.847,-517.542 -236.619,-501.343 -274.707,-501.343C-312.795,-501.343 -375.626,-517.542 -430.441,-556.314L-549.473,-423.389C-483.143,-330.956 -442.49,-241.946 -541.768,-80.186C-541.768,-80.186 -468.162,16.529 -274.736,132.925C-81.311,16.529 -7.705,-80.186 -7.705,-80.186C-106.982,-241.946 -66.33,-330.956 0,-423.389Z" style="fill:white;fill-rule:nonzero;"/>
        <path d="M-429.798,-555.861L-429.155,-555.409L-428.511,-554.96L-427.866,-554.513L-427.22,-554.068L-426.574,-553.625L-425.927,-553.184L-425.28,-552.745L-424.631,-552.308L-423.983,-551.873L-423.333,-551.441L-422.683,-551.01L-422.033,-550.581L-421.381,-550.154L-420.73,-549.73L-420.077,-549.307L-419.424,-548.887L-418.771,-548.468L-418.117,-548.052L-417.463,-547.637L-416.808,-547.225L-416.152,-546.814L-415.496,-546.406L-414.84,-545.999L-414.183,-545.595L-413.526,-545.192L-412.868,-544.792L-412.21,-544.394L-411.551,-543.997L-410.893,-543.603L-410.233,-543.211L-409.574,-542.82L-408.914,-542.432L-408.253,-542.045L-407.592,-541.661L-406.931,-541.279L-406.27,-540.898L-405.608,-540.52L-404.947,-540.143L-404.284,-539.769L-403.622,-539.396L-402.959,-539.026L-402.296,-538.657L-401.633,-538.29L-400.97,-537.926L-400.306,-537.563L-399.642,-537.202L-398.978,-536.843L-398.314,-536.487L-397.65,-536.132L-396.985,-535.779L-396.32,-535.428L-395.656,-535.079L-394.991,-534.732L-394.326,-534.387L-393.661,-534.044L-392.996,-533.702L-392.331,-533.363L-391.665,-533.026L-391,-532.69L-390.335,-532.357L-389.669,-532.025L-389.004,-531.696L-388.339,-531.368L-387.673,-531.042L-387.008,-530.718L-386.343,-530.396L-385.678,-530.076L-385.012,-529.758L-384.347,-529.442L-383.682,-529.127L-383.017,-528.815L-382.353,-528.504L-381.688,-528.196L-381.023,-527.889L-380.359,-527.584L-379.695,-527.281L-379.031,-526.98L-378.367,-526.681L-377.703,-526.384L-377.04,-526.089L-376.376,-525.795L-375.713,-525.503L-375.051,-525.214L-374.388,-524.926L-373.726,-524.64L-373.064,-524.356L-372.402,-524.073L-371.741,-523.793L-371.08,-523.515L-370.419,-523.238L-369.758,-522.963L-369.098,-522.69L-368.438,-522.419L-367.779,-522.15L-367.12,-521.882L-366.461,-521.617L-365.803,-521.353L-365.145,-521.091L-364.488,-520.831L-363.831,-520.573L-363.174,-520.317L-362.518,-520.062L-361.863,-519.81L-361.208,-519.559L-360.553,-519.31L-359.899,-519.062L-359.245,-518.817L-358.592,-518.574L-357.94,-518.332L-357.288,-518.092L-356.637,-517.854L-355.986,-517.618L-355.336,-517.383L-354.686,-517.15L-354.037,-516.92L-353.389,-516.69L-352.741,-516.463L-352.094,-516.238L-351.447,-516.014L-350.802,-515.792L-350.157,-515.572L-349.512,-515.354L-348.869,-515.137L-348.226,-514.923L-347.584,-514.71L-346.942,-514.498L-346.301,-514.289L-345.661,-514.081L-345.022,-513.876L-344.384,-513.671L-343.746,-513.469L-343.11,-513.269L-342.474,-513.07L-341.839,-512.873L-341.204,-512.678L-340.571,-512.484L-339.938,-512.292L-339.307,-512.102L-338.676,-511.914L-338.046,-511.728L-337.417,-511.543L-336.789,-511.36L-336.162,-511.179L-335.536,-510.999L-334.911,-510.821L-334.287,-510.645L-333.664,-510.471L-333.041,-510.298L-332.42,-510.127L-331.8,-509.958L-331.181,-509.791L-330.563,-509.625L-329.946,-509.461L-329.33,-509.299L-328.715,-509.138L-328.101,-508.979L-327.489,-508.822L-326.877,-508.667L-326.267,-508.513L-325.658,-508.361L-325.05,-508.211L-324.443,-508.062L-323.837,-507.915L-323.232,-507.77L-322.629,-507.626L-322.027,-507.485L-321.426,-507.344L-320.826,-507.206L-320.228,-507.069L-319.63,-506.934L-319.035,-506.8L-318.44,-506.669L-317.846,-506.539L-317.254,-506.41L-316.664,-506.283L-316.074,-506.158L-315.486,-506.035L-314.899,-505.913L-314.314,-505.793L-313.73,-505.674L-313.148,-505.558L-312.566,-505.442L-311.987,-505.329L-311.408,-505.217L-310.831,-505.107L-310.256,-504.998L-309.682,-504.891L-309.109,-504.786L-308.538,-504.682L-307.969,-504.58L-307.4,-504.48L-306.834,-504.381L-306.269,-504.284L-305.705,-504.188L-305.143,-504.095L-304.583,-504.002L-304.024,-503.912L-303.467,-503.823L-302.911,-503.735L-302.357,-503.649L-301.805,-503.565L-301.254,-503.483L-300.705,-503.402L-300.158,-503.322L-299.612,-503.244L-299.068,-503.168L-298.525,-503.094L-297.984,-503.02L-297.445,-502.949L-296.908,-502.879L-296.373,-502.811L-295.839,-502.744L-295.307,-502.679L-294.776,-502.616L-294.248,-502.554L-293.721,-502.493L-293.196,-502.435L-292.673,-502.377L-292.152,-502.322L-291.633,-502.268L-291.115,-502.215L-290.6,-502.164L-290.086,-502.115L-289.574,-502.067L-289.064,-502.021L-288.556,-501.976L-288.05,-501.933L-287.546,-501.891L-287.043,-501.851L-286.543,-501.812L-286.045,-501.775L-285.548,-501.74L-285.054,-501.706L-284.562,-501.674L-284.071,-501.643L-283.583,-501.613L-283.097,-501.585L-282.613,-501.559L-282.13,-501.534L-281.65,-501.511L-281.172,-501.489L-280.697,-501.469L-280.223,-501.45L-279.751,-501.433L-279.282,-501.418L-278.814,-501.403L-278.349,-501.391L-277.886,-501.379L-277.425,-501.37L-276.967,-501.362L-276.51,-501.355L-276.056,-501.35L-275.604,-501.346L-275.154,-501.344L-274.707,-501.343L-274.26,-501.344L-273.81,-501.346L-273.358,-501.35L-272.904,-501.355L-272.447,-501.362L-271.989,-501.37L-271.528,-501.379L-271.065,-501.391L-270.6,-501.403L-270.133,-501.418L-269.663,-501.433L-269.192,-501.45L-268.718,-501.469L-268.242,-501.489L-267.764,-501.511L-267.284,-501.534L-266.802,-501.559L-266.318,-501.585L-265.832,-501.613L-265.344,-501.643L-264.853,-501.674L-264.361,-501.706L-263.867,-501.74L-263.371,-501.775L-262.873,-501.812L-262.372,-501.851L-261.87,-501.891L-261.366,-501.933L-260.86,-501.976L-260.352,-502.021L-259.842,-502.067L-259.331,-502.115L-258.817,-502.164L-258.302,-502.215L-257.784,-502.268L-257.265,-502.322L-256.744,-502.377L-256.221,-502.435L-255.696,-502.493L-255.17,-502.554L-254.642,-502.616L-254.111,-502.679L-253.58,-502.744L-253.046,-502.811L-252.511,-502.879L-251.974,-502.949L-251.435,-503.02L-250.894,-503.094L-250.352,-503.168L-249.808,-503.244L-249.263,-503.322L-248.715,-503.402L-248.166,-503.483L-247.616,-503.565L-247.064,-503.649L-246.51,-503.735L-245.955,-503.823L-245.398,-503.912L-244.839,-504.002L-244.279,-504.095L-243.717,-504.188L-243.154,-504.284L-242.589,-504.381L-242.023,-504.48L-241.455,-504.58L-240.886,-504.682L-240.315,-504.786L-239.742,-504.891L-239.169,-504.998L-238.594,-505.107L-238.017,-505.217L-237.439,-505.329L-236.859,-505.442L-236.278,-505.558L-235.696,-505.674L-235.112,-505.793L-234.527,-505.913L-233.941,-506.035L-233.353,-506.158L-232.764,-506.283L-232.174,-506.41L-231.582,-506.539L-230.989,-506.669L-230.394,-506.8L-229.799,-506.934L-229.202,-507.069L-228.604,-507.206L-228.004,-507.344L-227.404,-507.485L-226.802,-507.626L-226.199,-507.77L-225.594,-507.915L-224.989,-508.062L-224.382,-508.211L-223.775,-508.361L-223.166,-508.513L-222.556,-508.667L-221.944,-508.822L-221.332,-508.979L-220.719,-509.138L-220.104,-509.299L-219.489,-509.461L-218.872,-509.625L-218.254,-509.791L-217.635,-509.958L-217.016,-510.127L-216.395,-510.298L-215.773,-510.471L-215.15,-510.645L-214.526,-510.821L-213.902,-510.999L-213.276,-511.179L-212.649,-511.36L-212.021,-511.543L-211.393,-511.728L-210.763,-511.914L-210.133,-512.102L-209.502,-512.292L-208.869,-512.484L-208.236,-512.678L-207.602,-512.873L-206.968,-513.07L-206.332,-513.269L-205.696,-513.469L-205.058,-513.671L-204.42,-513.876L-203.782,-514.081L-203.142,-514.289L-202.502,-514.498L-201.861,-514.71L-201.219,-514.923L-200.576,-515.137L-199.933,-515.354L-199.289,-515.572L-198.644,-515.792L-197.999,-516.014L-197.353,-516.238L-196.706,-516.463L-196.058,-516.69L-195.41,-516.92L-194.762,-517.15L-194.113,-517.383L-193.463,-517.618L-192.812,-517.854L-192.161,-518.092L-191.51,-518.332L-190.857,-518.574L-190.205,-518.817L-189.551,-519.062L-188.898,-519.31L-188.243,-519.559L-187.589,-519.81L-186.933,-520.062L-186.278,-520.317L-185.622,-520.573L-184.965,-520.831L-184.308,-521.091L-183.65,-521.353L-182.993,-521.617L-182.334,-521.882L-181.675,-522.15L-181.016,-522.419L-180.357,-522.69L-179.697,-522.963L-179.037,-523.238L-178.376,-523.515L-177.716,-523.793L-177.055,-524.073L-176.393,-524.356L-175.731,-524.64L-175.069,-524.926L-174.407,-525.214L-173.745,-525.503L-173.082,-525.795L-172.419,-526.089L-171.756,-526.384L-171.092,-526.681L-170.429,-526.98L-169.765,-527.281L-169.101,-527.584L-168.437,-527.889L-167.773,-528.196L-167.108,-528.504L-166.444,-528.815L-165.779,-529.127L-165.115,-529.442L-164.45,-529.758L-163.785,-530.076L-163.12,-530.396L-162.455,-530.718L-161.79,-531.042L-161.125,-531.368L-160.46,-531.696L-159.795,-532.025L-159.129,-532.357L-158.464,-532.69L-157.799,-533.026L-157.134,-533.363L-156.469,-533.702L-155.804,-534.044L-155.14,-534.387L-154.475,-534.732L-153.81,-535.079L-153.146,-535.428L-152.481,-535.779L-151.817,-536.132L-151.153,-536.487L-150.489,-536.843L-149.825,-537.202L-149.162,-537.563L-148.498,-537.926L-147.835,-538.29L-147.172,-538.657L-146.509,-539.026L-145.847,-539.396L-145.184,-539.769L-144.522,-540.143L-143.86,-540.52L-143.199,-540.898L-142.538,-541.279L-141.877,-541.661L-141.216,-542.045L-140.556,-542.432L-139.896,-542.82L-139.237,-543.211L-138.577,-543.603L-137.919,-543.997L-137.26,-544.394L-136.602,-544.792L-135.945,-545.192L-135.288,-545.595L-134.631,-545.999L-133.975,-546.406L-133.319,-546.814L-132.663,-547.225L-132.009,-547.637L-131.354,-548.052L-130.7,-548.468L-130.047,-548.887L-129.394,-549.307L-128.742,-549.73L-128.09,-550.154L-127.439,-550.581L-126.789,-551.01L-126.139,-551.441L-125.489,-551.873L-124.84,-552.308L-124.192,-552.745L-123.545,-553.184L-122.898,-553.625L-122.252,-554.068L-121.606,-554.513L-120.961,-554.96L-120.317,-555.409L-119.674,-555.861L-119.031,-556.314L0,-423.389L-0.776,-422.306L-1.55,-421.223L-2.321,-420.141L-3.09,-419.058L-3.856,-417.976L-4.62,-416.894L-5.381,-415.813L-6.14,-414.731L-6.896,-413.65L-7.649,-412.568L-8.399,-411.487L-9.147,-410.405L-9.891,-409.324L-10.633,-408.242L-11.372,-407.161L-12.108,-406.079L-12.841,-404.998L-13.571,-403.916L-14.298,-402.834L-15.021,-401.751L-15.742,-400.669L-16.459,-399.586L-17.173,-398.503L-17.884,-397.42L-18.238,-396.878L-18.592,-396.336L-18.944,-395.794L-19.296,-395.252L-19.646,-394.71L-19.996,-394.167L-20.345,-393.625L-20.693,-393.083L-21.041,-392.54L-21.387,-391.997L-21.733,-391.454L-22.077,-390.911L-22.421,-390.368L-22.764,-389.825L-23.106,-389.282L-23.447,-388.738L-23.787,-388.195L-24.126,-387.651L-24.465,-387.107L-24.802,-386.563L-25.138,-386.019L-25.474,-385.474L-25.808,-384.93L-26.142,-384.385L-26.474,-383.84L-26.806,-383.295L-27.137,-382.75L-27.467,-382.205L-27.795,-381.659L-28.123,-381.113L-28.45,-380.567L-28.776,-380.021L-29.1,-379.475L-29.424,-378.928L-29.747,-378.382L-30.069,-377.835L-30.39,-377.288L-30.709,-376.74L-31.028,-376.193L-31.346,-375.645L-31.662,-375.097L-31.978,-374.549L-32.292,-374L-32.606,-373.451L-32.918,-372.903L-33.23,-372.353L-33.54,-371.804L-33.849,-371.254L-34.157,-370.704L-34.465,-370.154L-34.77,-369.604L-35.075,-369.053L-35.379,-368.502L-35.682,-367.951L-35.983,-367.4L-36.284,-366.848L-36.583,-366.296L-36.881,-365.744L-37.179,-365.191L-37.475,-364.638L-37.769,-364.085L-38.063,-363.532L-38.356,-362.978L-38.647,-362.424L-38.937,-361.87L-39.226,-361.315L-39.514,-360.76L-39.801,-360.205L-40.086,-359.649L-40.371,-359.093L-40.654,-358.537L-40.936,-357.98L-41.216,-357.424L-41.496,-356.866L-41.774,-356.309L-42.051,-355.751L-42.327,-355.193L-42.602,-354.634L-42.875,-354.075L-43.148,-353.516L-43.419,-352.956L-43.688,-352.396L-43.957,-351.836L-44.224,-351.275L-44.49,-350.714L-44.755,-350.153L-45.018,-349.591L-45.28,-349.028L-45.541,-348.466L-45.801,-347.903L-46.059,-347.339L-46.316,-346.776L-46.572,-346.211L-46.826,-345.647L-47.079,-345.082L-47.331,-344.516L-47.581,-343.95L-47.83,-343.384L-48.078,-342.818L-48.324,-342.25L-48.569,-341.683L-48.813,-341.115L-49.055,-340.547L-49.296,-339.978L-49.536,-339.409L-49.774,-338.839L-50.011,-338.269L-50.247,-337.698L-50.481,-337.127L-50.714,-336.556L-50.945,-335.984L-51.175,-335.411L-51.403,-334.838L-51.631,-334.265L-51.856,-333.691L-52.081,-333.117L-52.303,-332.542L-52.525,-331.967L-52.745,-331.391L-52.963,-330.815L-53.181,-330.238L-53.396,-329.661L-53.61,-329.083L-53.823,-328.505L-54.034,-327.926L-54.244,-327.347L-54.453,-326.767L-54.659,-326.187L-54.865,-325.606L-55.069,-325.025L-55.271,-324.443L-55.472,-323.86L-55.671,-323.277L-55.869,-322.694L-56.065,-322.11L-56.26,-321.525L-56.454,-320.94L-56.645,-320.355L-56.836,-319.769L-57.024,-319.182L-57.211,-318.594L-57.397,-318.007L-57.581,-317.418L-57.763,-316.829L-57.944,-316.239L-58.124,-315.649L-58.301,-315.058L-58.477,-314.467L-58.652,-313.875L-58.825,-313.283L-58.996,-312.689L-59.166,-312.096L-59.334,-311.501L-59.501,-310.906L-59.666,-310.311L-59.829,-309.715L-59.991,-309.118L-60.151,-308.521L-60.309,-307.923L-60.466,-307.324L-60.621,-306.725L-60.774,-306.125L-60.926,-305.524L-61.076,-304.923L-61.225,-304.321L-61.372,-303.719L-61.517,-303.116L-61.66,-302.512L-61.802,-301.907L-61.942,-301.302L-62.08,-300.696L-62.217,-300.09L-62.352,-299.483L-62.485,-298.875L-62.616,-298.267L-62.746,-297.657L-62.874,-297.048L-63,-296.437L-63.125,-295.826L-63.247,-295.214L-63.369,-294.601L-63.488,-293.988L-63.605,-293.374L-63.721,-292.759L-63.835,-292.144L-63.947,-291.528L-64.058,-290.911L-64.166,-290.293L-64.273,-289.675L-64.378,-289.056L-64.481,-288.436L-64.583,-287.816L-64.682,-287.195L-64.78,-286.573L-64.876,-285.95L-64.97,-285.326L-65.062,-284.702L-65.153,-284.077L-65.241,-283.452L-65.328,-282.825L-65.413,-282.198L-65.496,-281.57L-65.577,-280.941L-65.657,-280.311L-65.734,-279.681L-65.81,-279.05L-65.883,-278.418L-65.955,-277.785L-66.025,-277.152L-66.093,-276.517L-66.159,-275.882L-66.223,-275.246L-66.286,-274.61L-66.346,-273.972L-66.404,-273.334L-66.461,-272.694L-66.515,-272.054L-66.568,-271.414L-66.619,-270.772L-66.667,-270.13L-66.714,-269.486L-66.759,-268.842L-66.802,-268.197L-66.842,-267.551L-66.881,-266.905L-66.918,-266.257L-66.953,-265.609L-66.986,-264.959L-67.017,-264.309L-67.046,-263.658L-67.073,-263.007L-67.098,-262.354L-67.12,-261.7L-67.141,-261.046L-67.16,-260.39L-67.177,-259.734L-67.192,-259.077L-67.204,-258.419L-67.215,-257.76L-67.224,-257.1L-67.23,-256.44L-67.235,-255.778L-67.237,-255.115L-67.237,-254.452L-67.236,-253.788L-67.232,-253.122L-67.226,-252.456L-67.218,-251.789L-67.208,-251.121L-67.196,-250.452L-67.181,-249.782L-67.165,-249.111L-67.146,-248.44L-67.126,-247.767L-67.103,-247.093L-67.078,-246.418L-67.051,-245.743L-67.021,-245.066L-66.99,-244.389L-66.957,-243.71L-66.921,-243.031L-66.883,-242.35L-66.843,-241.669L-66.801,-240.986L-66.756,-240.303L-66.71,-239.619L-66.661,-238.933L-66.61,-238.247L-66.557,-237.56L-66.501,-236.871L-66.444,-236.182L-66.384,-235.492L-66.322,-234.8L-66.258,-234.108L-66.191,-233.414L-66.123,-232.72L-66.052,-232.024L-65.978,-231.328L-65.903,-230.63L-65.825,-229.932L-65.745,-229.232L-65.663,-228.532L-65.578,-227.83L-65.492,-227.127L-65.402,-226.423L-65.311,-225.719L-65.217,-225.013L-65.121,-224.306L-65.023,-223.598L-64.923,-222.889L-64.82,-222.178L-64.714,-221.467L-64.607,-220.755L-64.497,-220.041L-64.385,-219.327L-64.27,-218.611L-64.153,-217.895L-64.034,-217.177L-63.913,-216.458L-63.789,-215.738L-63.662,-215.017L-63.534,-214.295L-63.402,-213.572L-63.269,-212.847L-63.133,-212.122L-62.995,-211.395L-62.854,-210.667L-62.711,-209.938L-62.566,-209.208L-62.418,-208.477L-62.268,-207.745L-62.115,-207.011L-61.96,-206.277L-61.802,-205.541L-61.643,-204.804L-61.48,-204.066L-61.315,-203.326L-61.148,-202.586L-60.978,-201.844L-60.806,-201.102L-60.631,-200.358L-60.454,-199.613L-60.274,-198.866L-60.092,-198.119L-59.908,-197.37L-59.721,-196.62L-59.531,-195.869L-59.339,-195.117L-59.144,-194.364L-58.947,-193.609L-58.747,-192.853L-58.545,-192.096L-58.341,-191.338L-58.133,-190.578L-57.924,-189.818L-57.711,-189.056L-57.496,-188.292L-57.279,-187.528L-57.059,-186.762L-56.836,-185.995L-56.611,-185.227L-56.384,-184.458L-56.153,-183.687L-55.92,-182.915L-55.685,-182.142L-55.447,-181.368L-55.206,-180.592L-54.963,-179.815L-54.717,-179.037L-54.469,-178.258L-54.218,-177.477L-53.964,-176.695L-53.708,-175.911L-53.449,-175.127L-53.187,-174.341L-52.923,-173.554L-52.656,-172.765L-52.386,-171.975L-52.114,-171.184L-51.839,-170.392L-51.562,-169.598L-51.281,-168.803L-50.998,-168.007L-50.713,-167.209L-50.424,-166.41L-50.133,-165.61L-49.84,-164.808L-49.543,-164.005L-49.244,-163.201L-48.942,-162.395L-48.638,-161.588L-48.33,-160.78L-48.02,-159.97L-47.708,-159.159L-47.392,-158.347L-47.074,-157.533L-46.753,-156.718L-46.429,-155.901L-46.103,-155.083L-45.773,-154.264L-45.441,-153.443L-45.106,-152.621L-44.769,-151.798L-44.428,-150.973L-44.085,-150.147L-43.739,-149.319L-43.39,-148.49L-43.039,-147.66L-42.684,-146.828L-42.327,-145.995L-41.967,-145.16L-41.604,-144.324L-41.238,-143.487L-40.869,-142.648L-40.498,-141.808L-40.124,-140.966L-39.746,-140.123L-39.366,-139.278L-38.984,-138.432L-38.598,-137.585L-38.209,-136.736L-37.818,-135.885L-37.423,-135.033L-37.026,-134.18L-36.626,-133.325L-36.223,-132.469L-35.817,-131.611L-35.408,-130.752L-34.996,-129.892L-34.581,-129.03L-34.164,-128.166L-33.743,-127.301L-33.32,-126.434L-32.893,-125.566L-32.464,-124.697L-32.031,-123.826L-31.596,-122.953L-31.158,-122.079L-30.716,-121.203L-30.272,-120.326L-29.825,-119.448L-29.375,-118.568L-28.922,-117.686L-28.465,-116.803L-28.006,-115.918L-27.544,-115.032L-27.079,-114.144L-26.611,-113.255L-26.139,-112.364L-25.665,-111.471L-25.188,-110.578L-24.708,-109.682L-24.224,-108.785L-23.738,-107.886L-23.248,-106.986L-22.756,-106.084L-22.26,-105.181L-21.762,-104.276L-21.26,-103.37L-20.755,-102.462L-20.247,-101.552L-19.736,-100.641L-19.222,-99.728L-18.705,-98.814L-18.185,-97.898L-17.662,-96.98L-17.135,-96.061L-16.606,-95.14L-16.073,-94.218L-15.537,-93.294L-14.998,-92.368L-14.456,-91.441L-13.911,-90.512L-13.363,-89.581L-12.811,-88.649L-12.257,-87.716L-11.699,-86.78L-11.138,-85.843L-10.574,-84.904L-10.006,-83.964L-9.436,-83.022L-8.862,-82.078L-8.285,-81.133L-7.705,-80.186L-7.759,-80.115L-7.922,-79.905L-8.195,-79.556L-8.373,-79.331L-8.579,-79.071L-8.813,-78.778L-9.075,-78.452L-9.365,-78.092L-9.684,-77.699L-10.031,-77.274L-10.407,-76.816L-10.812,-76.325L-11.246,-75.803L-11.708,-75.249L-12.2,-74.662L-12.722,-74.045L-13.272,-73.396L-13.853,-72.716L-14.463,-72.006L-15.103,-71.265L-15.773,-70.493L-16.119,-70.096L-16.473,-69.692L-16.834,-69.28L-17.203,-68.86L-17.58,-68.433L-17.964,-67.999L-18.356,-67.557L-18.755,-67.108L-19.162,-66.652L-19.577,-66.189L-20,-65.718L-20.43,-65.24L-20.868,-64.754L-21.314,-64.262L-21.767,-63.762L-22.228,-63.256L-22.697,-62.742L-23.174,-62.221L-23.659,-61.693L-24.151,-61.158L-24.652,-60.616L-25.16,-60.067L-25.676,-59.512L-26.2,-58.949L-26.732,-58.379L-27.272,-57.803L-27.82,-57.22L-28.376,-56.63L-28.94,-56.033L-29.512,-55.429L-30.092,-54.819L-30.68,-54.202L-31.276,-53.579L-31.88,-52.949L-32.492,-52.312L-33.112,-51.669L-33.741,-51.019L-34.377,-50.362L-35.022,-49.7L-35.675,-49.03L-36.336,-48.355L-37.005,-47.672L-37.683,-46.984L-38.369,-46.289L-39.063,-45.588L-39.765,-44.88L-40.476,-44.167L-41.195,-43.447L-41.922,-42.721L-42.657,-41.988L-43.401,-41.25L-44.154,-40.505L-44.914,-39.754L-45.684,-38.997L-46.461,-38.235L-47.247,-37.466L-48.041,-36.691L-48.844,-35.91L-49.656,-35.123L-50.476,-34.33L-51.304,-33.532L-52.141,-32.728L-52.987,-31.917L-53.841,-31.101L-54.704,-30.279L-55.575,-29.452L-56.455,-28.619L-57.343,-27.78L-58.241,-26.935L-59.146,-26.085L-60.061,-25.229L-60.984,-24.368L-61.916,-23.501L-62.857,-22.628L-63.807,-21.75L-64.765,-20.867L-65.732,-19.978L-66.708,-19.084L-67.693,-18.184L-68.686,-17.279L-69.689,-16.369L-70.7,-15.453L-71.72,-14.532L-72.749,-13.606L-73.787,-12.675L-74.834,-11.738L-75.89,-10.796L-76.955,-9.849L-78.028,-8.897L-79.111,-7.94L-80.203,-6.978L-81.304,-6.011L-82.414,-5.039L-83.533,-4.062L-84.661,-3.08L-85.798,-2.093L-86.944,-1.101L-88.1,-0.104L-89.264,0.897L-90.438,1.904L-91.621,2.915L-92.813,3.931L-94.015,4.951L-95.225,5.977L-96.445,7.007L-97.674,8.041L-98.913,9.08L-100.16,10.124L-101.417,11.173L-102.684,12.226L-103.959,13.283L-105.245,14.345L-106.539,15.411L-107.843,16.482L-109.156,17.557L-110.479,18.636L-111.811,19.72L-113.153,20.808L-114.504,21.901L-115.864,22.997L-117.234,24.098L-118.614,25.203L-120.003,26.313L-121.402,27.426L-122.81,28.544L-124.228,29.665L-125.656,30.791L-127.093,31.921L-128.54,33.054L-129.996,34.192L-131.462,35.334L-132.938,36.479L-134.424,37.629L-135.919,38.782L-137.424,39.939L-138.939,41.1L-140.464,42.265L-141.998,43.433L-143.542,44.606L-144.318,45.193L-145.096,45.782L-145.877,46.371L-146.66,46.961L-147.446,47.552L-148.234,48.144L-149.025,48.737L-149.818,49.331L-150.613,49.926L-151.411,50.522L-152.212,51.118L-153.015,51.716L-153.82,52.314L-154.628,52.913L-155.438,53.514L-156.251,54.115L-157.067,54.716L-157.885,55.319L-158.705,55.923L-159.528,56.527L-160.353,57.133L-161.181,57.739L-162.012,58.346L-162.844,58.954L-163.68,59.562L-164.518,60.172L-165.358,60.782L-166.201,61.393L-167.046,62.005L-167.894,62.618L-168.745,63.232L-169.598,63.846L-170.453,64.462L-171.311,65.078L-172.172,65.695L-173.035,66.313L-173.901,66.931L-174.769,67.55L-175.64,68.171L-176.513,68.792L-177.389,69.413L-178.267,70.036L-179.148,70.659L-180.031,71.283L-180.917,71.908L-181.806,72.534L-182.697,73.16L-183.59,73.787L-184.487,74.415L-185.385,75.044L-186.287,75.673L-187.19,76.303L-188.097,76.934L-189.006,77.566L-189.917,78.198L-190.832,78.831L-191.748,79.465L-192.668,80.1L-193.589,80.735L-194.514,81.371L-195.441,82.008L-196.37,82.645L-197.303,83.283L-198.237,83.922L-199.175,84.562L-200.115,85.202L-201.057,85.843L-202.002,86.485L-202.95,87.127L-203.9,87.77L-204.853,88.414L-205.809,89.059L-206.767,89.704L-207.728,90.35L-208.691,90.996L-209.657,91.643L-210.626,92.291L-211.597,92.939L-212.571,93.588L-213.547,94.238L-214.526,94.889L-215.508,95.54L-216.492,96.191L-217.479,96.844L-218.469,97.497L-219.461,98.15L-220.456,98.805L-221.454,99.459L-222.454,100.115L-223.456,100.771L-224.462,101.428L-225.47,102.085L-226.481,102.743L-227.494,103.402L-228.51,104.061L-229.529,104.721L-230.55,105.381L-231.574,106.042L-232.601,106.703L-233.63,107.365L-234.662,108.028L-235.696,108.691L-236.734,109.355L-237.774,110.02L-238.816,110.685L-239.862,111.35L-240.91,112.016L-241.96,112.683L-243.014,113.35L-244.07,114.018L-245.128,114.686L-246.19,115.355L-247.254,116.025L-248.321,116.694L-249.39,117.365L-250.462,118.036L-251.537,118.707L-252.615,119.38L-253.695,120.052L-254.778,120.725L-255.864,121.399L-256.952,122.073L-258.043,122.747L-259.137,123.423L-260.233,124.098L-261.333,124.774L-262.435,125.451L-263.539,126.128L-264.647,126.806L-265.757,127.484L-266.87,128.162L-267.985,128.841L-269.103,129.521L-270.225,130.201L-271.348,130.881L-272.475,131.562L-273.604,132.243L-274.736,132.925L-275.868,132.243L-276.997,131.562L-278.124,130.881L-279.248,130.201L-280.369,129.521L-281.487,128.841L-282.602,128.162L-283.715,127.484L-284.825,126.806L-285.933,126.128L-287.037,125.451L-288.139,124.774L-289.239,124.098L-290.335,123.423L-291.429,122.747L-292.52,122.073L-293.608,121.399L-294.694,120.725L-295.777,120.052L-296.857,119.38L-297.935,118.707L-299.01,118.036L-300.082,117.365L-301.151,116.694L-302.218,116.025L-303.282,115.355L-304.344,114.686L-305.402,114.018L-306.459,113.35L-307.512,112.683L-308.563,112.016L-309.611,111.35L-310.656,110.685L-311.698,110.02L-312.738,109.355L-313.776,108.691L-314.81,108.028L-315.842,107.365L-316.872,106.703L-317.898,106.042L-318.922,105.381L-319.944,104.721L-320.962,104.061L-321.978,103.402L-322.992,102.743L-324.002,102.085L-325.01,101.428L-326.016,100.771L-327.019,100.115L-328.019,99.459L-329.016,98.805L-330.011,98.15L-331.003,97.497L-331.993,96.844L-332.98,96.191L-333.964,95.54L-334.946,94.889L-335.925,94.238L-336.901,93.588L-337.875,92.939L-338.846,92.291L-339.815,91.643L-340.781,90.996L-341.744,90.35L-342.705,89.704L-343.663,89.059L-344.619,88.414L-345.572,87.77L-346.522,87.127L-347.47,86.485L-348.415,85.843L-349.358,85.202L-350.298,84.562L-351.235,83.922L-352.17,83.283L-353.102,82.645L-354.032,82.008L-354.959,81.371L-355.883,80.735L-356.805,80.1L-357.724,79.465L-358.641,78.831L-359.555,78.198L-360.467,77.566L-361.376,76.934L-362.282,76.303L-363.186,75.673L-364.087,75.044L-364.986,74.415L-365.882,73.787L-366.776,73.16L-367.667,72.534L-368.555,71.908L-369.441,71.283L-370.325,70.659L-371.205,70.036L-372.084,69.413L-372.96,68.792L-373.833,68.171L-374.704,67.55L-375.572,66.931L-376.437,66.313L-377.3,65.695L-378.161,65.078L-379.019,64.462L-379.875,63.846L-380.728,63.232L-381.578,62.618L-382.426,62.005L-383.271,61.393L-384.114,60.782L-384.955,60.172L-385.793,59.562L-386.628,58.954L-387.461,58.346L-388.291,57.739L-389.119,57.133L-389.945,56.527L-390.768,55.923L-391.588,55.319L-392.406,54.716L-393.221,54.115L-394.034,53.514L-394.845,52.913L-395.652,52.314L-396.458,51.716L-397.261,51.118L-398.061,50.522L-398.859,49.926L-399.655,49.331L-400.448,48.737L-401.239,48.144L-402.027,47.552L-402.812,46.961L-403.595,46.371L-404.376,45.782L-405.154,45.193L-405.93,44.606L-407.474,43.433L-409.009,42.265L-410.533,41.1L-412.048,39.939L-413.553,38.782L-415.049,37.629L-416.534,36.479L-418.01,35.334L-419.476,34.192L-420.933,33.054L-422.38,31.921L-423.817,30.791L-425.244,29.665L-426.662,28.544L-428.071,27.426L-429.47,26.313L-430.859,25.203L-432.238,24.098L-433.608,22.997L-434.969,21.901L-436.32,20.808L-437.662,19.72L-438.994,18.636L-440.317,17.557L-441.63,16.482L-442.934,15.411L-444.228,14.345L-445.513,13.283L-446.789,12.226L-448.055,11.173L-449.312,10.124L-450.56,9.08L-451.799,8.041L-453.028,7.007L-454.248,5.977L-455.458,4.951L-456.659,3.931L-457.852,2.915L-459.035,1.904L-460.208,0.897L-461.373,-0.104L-462.528,-1.101L-463.675,-2.093L-464.812,-3.08L-465.94,-4.062L-467.059,-5.039L-468.169,-6.011L-469.27,-6.978L-470.362,-7.94L-471.444,-8.897L-472.518,-9.849L-473.583,-10.796L-474.639,-11.738L-475.686,-12.675L-476.724,-13.606L-477.753,-14.532L-478.773,-15.453L-479.784,-16.369L-480.787,-17.279L-481.78,-18.184L-482.765,-19.084L-483.741,-19.978L-484.708,-20.867L-485.666,-21.75L-486.616,-22.628L-487.557,-23.501L-488.489,-24.368L-489.412,-25.229L-490.326,-26.085L-491.232,-26.935L-492.13,-27.78L-493.018,-28.619L-493.898,-29.452L-494.769,-30.279L-495.632,-31.101L-496.486,-31.917L-497.332,-32.728L-498.169,-33.532L-498.997,-34.33L-499.817,-35.123L-500.629,-35.91L-501.431,-36.691L-502.226,-37.466L-503.012,-38.235L-503.789,-38.997L-504.559,-39.754L-505.319,-40.505L-506.072,-41.25L-506.816,-41.988L-507.551,-42.721L-508.278,-43.447L-508.997,-44.167L-509.708,-44.88L-510.41,-45.588L-511.104,-46.289L-511.79,-46.984L-512.468,-47.672L-513.137,-48.355L-513.798,-49.03L-514.451,-49.7L-515.096,-50.362L-515.732,-51.019L-516.361,-51.669L-516.981,-52.312L-517.593,-52.949L-518.197,-53.579L-518.793,-54.202L-519.381,-54.819L-519.961,-55.429L-520.533,-56.033L-521.097,-56.63L-521.653,-57.22L-522.201,-57.803L-522.741,-58.379L-523.273,-58.949L-523.797,-59.512L-524.313,-60.067L-524.821,-60.616L-525.322,-61.158L-525.814,-61.693L-526.299,-62.221L-526.776,-62.742L-527.245,-63.256L-527.706,-63.762L-528.159,-64.262L-528.605,-64.754L-529.043,-65.24L-529.473,-65.718L-529.896,-66.189L-530.311,-66.652L-530.718,-67.108L-531.117,-67.557L-531.509,-67.999L-531.893,-68.433L-532.27,-68.86L-532.639,-69.28L-533,-69.692L-533.354,-70.096L-533.7,-70.493L-534.37,-71.265L-535.01,-72.006L-535.62,-72.716L-536.201,-73.396L-536.751,-74.045L-537.273,-74.662L-537.765,-75.249L-538.227,-75.803L-538.661,-76.325L-539.066,-76.816L-539.442,-77.274L-539.789,-77.699L-540.108,-78.092L-540.398,-78.452L-540.66,-78.778L-540.894,-79.071L-541.1,-79.331L-541.278,-79.556L-541.551,-79.905L-541.714,-80.115L-541.768,-80.186L-541.188,-81.133L-540.611,-82.078L-540.037,-83.022L-539.467,-83.964L-538.899,-84.904L-538.335,-85.843L-537.774,-86.78L-537.216,-87.716L-536.662,-88.649L-536.11,-89.581L-535.562,-90.512L-535.017,-91.441L-534.475,-92.368L-533.936,-93.294L-533.4,-94.218L-532.867,-95.14L-532.338,-96.061L-531.811,-96.98L-531.288,-97.898L-530.768,-98.814L-530.25,-99.728L-529.736,-100.641L-529.226,-101.552L-528.718,-102.462L-528.213,-103.37L-527.711,-104.276L-527.213,-105.181L-526.717,-106.084L-526.224,-106.986L-525.735,-107.886L-525.249,-108.785L-524.765,-109.682L-524.285,-110.578L-523.808,-111.471L-523.333,-112.364L-522.862,-113.255L-522.394,-114.144L-521.929,-115.032L-521.467,-115.918L-521.007,-116.803L-520.551,-117.686L-520.098,-118.568L-519.648,-119.448L-519.201,-120.326L-518.756,-121.203L-518.315,-122.079L-517.877,-122.953L-517.442,-123.826L-517.009,-124.697L-516.58,-125.566L-516.153,-126.434L-515.73,-127.301L-515.309,-128.166L-514.891,-129.03L-514.477,-129.892L-514.065,-130.752L-513.656,-131.611L-513.25,-132.469L-512.847,-133.325L-512.447,-134.18L-512.049,-135.033L-511.655,-135.885L-511.263,-136.736L-510.875,-137.585L-510.489,-138.432L-510.106,-139.278L-509.726,-140.123L-509.349,-140.966L-508.975,-141.808L-508.603,-142.648L-508.235,-143.487L-507.869,-144.324L-507.506,-145.16L-507.146,-145.995L-506.789,-146.828L-506.434,-147.66L-506.083,-148.49L-505.734,-149.319L-505.388,-150.147L-505.044,-150.973L-504.704,-151.798L-504.366,-152.621L-504.032,-153.443L-503.699,-154.264L-503.37,-155.083L-503.044,-155.901L-502.72,-156.718L-502.399,-157.533L-502.081,-158.347L-501.765,-159.159L-501.452,-159.97L-501.142,-160.78L-500.835,-161.588L-500.53,-162.395L-500.228,-163.201L-499.929,-164.005L-499.633,-164.808L-499.339,-165.61L-499.048,-166.41L-498.76,-167.209L-498.474,-168.007L-498.191,-168.803L-497.911,-169.598L-497.633,-170.392L-497.359,-171.184L-497.086,-171.975L-496.817,-172.765L-496.55,-173.554L-496.286,-174.341L-496.024,-175.127L-495.765,-175.911L-495.509,-176.695L-495.255,-177.477L-495.004,-178.258L-494.755,-179.037L-494.509,-179.815L-494.266,-180.592L-494.026,-181.368L-493.788,-182.142L-493.552,-182.915L-493.319,-183.687L-493.089,-184.458L-492.861,-185.227L-492.636,-185.995L-492.414,-186.762L-492.194,-187.528L-491.976,-188.292L-491.761,-189.056L-491.549,-189.818L-491.339,-190.578L-491.132,-191.338L-490.927,-192.096L-490.725,-192.853L-490.525,-193.609L-490.328,-194.364L-490.134,-195.117L-489.942,-195.869L-489.752,-196.62L-489.565,-197.37L-489.38,-198.119L-489.198,-198.866L-489.018,-199.613L-488.841,-200.358L-488.667,-201.102L-488.494,-201.844L-488.325,-202.586L-488.157,-203.326L-487.992,-204.066L-487.83,-204.804L-487.67,-205.541L-487.513,-206.277L-487.357,-207.011L-487.205,-207.745L-487.055,-208.477L-486.907,-209.208L-486.761,-209.938L-486.618,-210.667L-486.478,-211.395L-486.339,-212.122L-486.204,-212.847L-486.07,-213.572L-485.939,-214.295L-485.81,-215.017L-485.684,-215.738L-485.56,-216.458L-485.438,-217.177L-485.319,-217.895L-485.202,-218.611L-485.088,-219.327L-484.976,-220.041L-484.866,-220.755L-484.758,-221.467L-484.653,-222.178L-484.55,-222.889L-484.449,-223.598L-484.351,-224.306L-484.255,-225.013L-484.161,-225.719L-484.07,-226.423L-483.981,-227.127L-483.894,-227.83L-483.81,-228.532L-483.727,-229.232L-483.647,-229.932L-483.57,-230.63L-483.494,-231.328L-483.421,-232.024L-483.35,-232.72L-483.281,-233.414L-483.215,-234.108L-483.151,-234.8L-483.089,-235.492L-483.029,-236.182L-482.971,-236.871L-482.916,-237.56L-482.863,-238.247L-482.812,-238.933L-482.763,-239.619L-482.716,-240.303L-482.672,-240.986L-482.63,-241.669L-482.59,-242.35L-482.552,-243.031L-482.516,-243.71L-482.482,-244.389L-482.451,-245.066L-482.422,-245.743L-482.395,-246.418L-482.37,-247.093L-482.347,-247.767L-482.326,-248.44L-482.308,-249.111L-482.291,-249.782L-482.277,-250.452L-482.265,-251.121L-482.255,-251.789L-482.247,-252.456L-482.241,-253.122L-482.237,-253.788L-482.235,-254.452L-482.236,-255.115L-482.238,-255.778L-482.242,-256.44L-482.249,-257.1L-482.258,-257.76L-482.268,-258.419L-482.281,-259.077L-482.296,-259.734L-482.312,-260.39L-482.331,-261.046L-482.352,-261.7L-482.375,-262.354L-482.4,-263.007L-482.427,-263.658L-482.456,-264.309L-482.487,-264.959L-482.52,-265.609L-482.554,-266.257L-482.591,-266.905L-482.63,-267.551L-482.671,-268.197L-482.714,-268.842L-482.759,-269.486L-482.805,-270.13L-482.854,-270.772L-482.905,-271.414L-482.957,-272.054L-483.012,-272.694L-483.068,-273.334L-483.127,-273.972L-483.187,-274.61L-483.249,-275.246L-483.314,-275.882L-483.38,-276.517L-483.448,-277.152L-483.517,-277.785L-483.589,-278.418L-483.663,-279.05L-483.739,-279.681L-483.816,-280.311L-483.895,-280.941L-483.976,-281.57L-484.059,-282.198L-484.144,-282.825L-484.231,-283.452L-484.32,-284.077L-484.41,-284.702L-484.503,-285.326L-484.597,-285.95L-484.693,-286.573L-484.79,-287.195L-484.89,-287.816L-484.991,-288.436L-485.095,-289.056L-485.2,-289.675L-485.306,-290.293L-485.415,-290.911L-485.525,-291.528L-485.638,-292.144L-485.752,-292.759L-485.867,-293.374L-485.985,-293.988L-486.104,-294.601L-486.225,-295.214L-486.348,-295.826L-486.472,-296.437L-486.599,-297.048L-486.727,-297.657L-486.856,-298.267L-486.988,-298.875L-487.121,-299.483L-487.256,-300.09L-487.393,-300.696L-487.531,-301.302L-487.671,-301.907L-487.813,-302.512L-487.956,-303.116L-488.101,-303.719L-488.248,-304.321L-488.396,-304.923L-488.547,-305.524L-488.698,-306.125L-488.852,-306.725L-489.007,-307.324L-489.164,-307.923L-489.322,-308.521L-489.482,-309.118L-489.644,-309.715L-489.807,-310.311L-489.972,-310.906L-490.138,-311.501L-490.307,-312.096L-490.476,-312.689L-490.648,-313.283L-490.821,-313.875L-490.995,-314.467L-491.171,-315.058L-491.349,-315.649L-491.528,-316.239L-491.709,-316.829L-491.892,-317.418L-492.076,-318.007L-492.261,-318.594L-492.449,-319.182L-492.637,-319.769L-492.827,-320.355L-493.019,-320.94L-493.212,-321.525L-493.407,-322.11L-493.604,-322.694L-493.801,-323.277L-494.001,-323.86L-494.202,-324.443L-494.404,-325.025L-494.608,-325.606L-494.813,-326.187L-495.02,-326.767L-495.229,-327.347L-495.438,-327.926L-495.65,-328.505L-495.862,-329.083L-496.077,-329.661L-496.292,-330.238L-496.509,-330.815L-496.728,-331.391L-496.948,-331.967L-497.169,-332.542L-497.392,-333.117L-497.617,-333.691L-497.842,-334.265L-498.069,-334.838L-498.298,-335.411L-498.528,-335.984L-498.759,-336.556L-498.992,-337.127L-499.226,-337.698L-499.462,-338.269L-499.699,-338.839L-499.937,-339.409L-500.176,-339.978L-500.417,-340.547L-500.66,-341.115L-500.903,-341.683L-501.149,-342.25L-501.395,-342.818L-501.643,-343.384L-501.892,-343.95L-502.142,-344.516L-502.394,-345.082L-502.647,-345.647L-502.901,-346.211L-503.157,-346.776L-503.414,-347.339L-503.672,-347.903L-503.932,-348.466L-504.193,-349.028L-504.455,-349.591L-504.718,-350.153L-504.983,-350.714L-505.249,-351.275L-505.516,-351.836L-505.784,-352.396L-506.054,-352.956L-506.325,-353.516L-506.597,-354.075L-506.871,-354.634L-507.145,-355.193L-507.421,-355.751L-507.698,-356.309L-507.977,-356.866L-508.256,-357.424L-508.537,-357.98L-508.819,-358.537L-509.102,-359.093L-509.387,-359.649L-509.672,-360.205L-509.959,-360.76L-510.247,-361.315L-510.536,-361.87L-510.826,-362.424L-511.117,-362.978L-511.41,-363.532L-511.704,-364.085L-511.998,-364.638L-512.294,-365.191L-512.591,-365.744L-512.89,-366.296L-513.189,-366.848L-513.489,-367.4L-513.791,-367.951L-514.094,-368.502L-514.398,-369.053L-514.702,-369.604L-515.008,-370.154L-515.315,-370.704L-515.624,-371.254L-515.933,-371.804L-516.243,-372.353L-516.555,-372.903L-516.867,-373.451L-517.18,-374L-517.495,-374.549L-517.811,-375.097L-518.127,-375.645L-518.445,-376.193L-518.764,-376.74L-519.083,-377.288L-519.404,-377.835L-519.726,-378.382L-520.049,-378.928L-520.373,-379.475L-520.697,-380.021L-521.023,-380.567L-521.35,-381.113L-521.678,-381.659L-522.006,-382.205L-522.336,-382.75L-522.667,-383.295L-522.998,-383.84L-523.331,-384.385L-523.665,-384.93L-523.999,-385.474L-524.335,-386.019L-524.671,-386.563L-525.008,-387.107L-525.347,-387.651L-525.686,-388.195L-526.026,-388.738L-526.367,-389.282L-526.709,-389.825L-527.052,-390.368L-527.396,-390.911L-527.74,-391.454L-528.086,-391.997L-528.432,-392.54L-528.779,-393.083L-529.128,-393.625L-529.477,-394.167L-529.827,-394.71L-530.177,-395.252L-530.529,-395.794L-530.881,-396.336L-531.235,-396.878L-531.589,-397.42L-532.3,-398.503L-533.014,-399.586L-533.731,-400.669L-534.452,-401.751L-535.175,-402.834L-535.902,-403.916L-536.632,-404.998L-537.365,-406.079L-538.101,-407.161L-538.84,-408.242L-539.582,-409.324L-540.326,-410.405L-541.074,-411.487L-541.824,-412.568L-542.577,-413.65L-543.333,-414.731L-544.092,-415.813L-544.853,-416.894L-545.617,-417.976L-546.383,-419.058L-547.152,-420.141L-547.923,-421.223L-548.697,-422.306L-549.473,-423.389L-430.441,-556.314L-429.798,-555.861ZM-540.529,-422.893L-539.907,-422.014L-539.137,-420.923L-538.369,-419.833L-537.604,-418.742L-536.842,-417.651L-536.082,-416.56L-535.325,-415.468L-534.57,-414.377L-533.818,-413.285L-533.069,-412.193L-532.323,-411.101L-531.579,-410.008L-530.839,-408.915L-530.101,-407.821L-529.366,-406.727L-528.634,-405.632L-527.905,-404.537L-527.179,-403.442L-526.457,-402.346L-525.738,-401.251L-525.379,-400.701L-525.021,-400.152L-524.664,-399.603L-524.308,-399.054L-523.953,-398.505L-523.598,-397.955L-523.244,-397.406L-522.892,-396.856L-522.54,-396.306L-522.189,-395.756L-521.838,-395.206L-521.489,-394.655L-521.14,-394.105L-520.793,-393.554L-520.446,-393.003L-520.1,-392.451L-519.755,-391.9L-519.411,-391.348L-519.067,-390.796L-518.725,-390.244L-518.384,-389.692L-518.043,-389.139L-517.703,-388.586L-517.365,-388.033L-517.027,-387.48L-516.69,-386.926L-516.354,-386.372L-516.019,-385.818L-515.685,-385.264L-515.352,-384.709L-515.02,-384.155L-514.689,-383.599L-514.359,-383.044L-514.029,-382.488L-513.701,-381.932L-513.374,-381.376L-513.048,-380.82L-512.722,-380.263L-512.398,-379.706L-512.075,-379.148L-511.753,-378.591L-511.431,-378.033L-511.111,-377.474L-510.792,-376.916L-510.474,-376.357L-510.157,-375.798L-509.841,-375.238L-509.526,-374.678L-509.212,-374.118L-508.899,-373.558L-508.587,-372.997L-508.277,-372.435L-507.967,-371.874L-507.658,-371.312L-507.351,-370.75L-507.044,-370.187L-506.739,-369.624L-506.435,-369.061L-506.132,-368.497L-505.83,-367.933L-505.529,-367.369L-505.229,-366.804L-504.931,-366.239L-504.633,-365.673L-504.337,-365.107L-504.042,-364.541L-503.748,-363.974L-503.455,-363.407L-503.164,-362.84L-502.873,-362.272L-502.584,-361.703L-502.296,-361.135L-502.009,-360.566L-501.723,-359.996L-501.438,-359.426L-501.155,-358.856L-500.873,-358.285L-500.592,-357.714L-500.312,-357.142L-500.034,-356.57L-499.757,-355.997L-499.481,-355.424L-499.206,-354.851L-498.933,-354.277L-498.66,-353.702L-498.389,-353.128L-498.12,-352.552L-497.851,-351.977L-497.584,-351.4L-497.318,-350.824L-497.054,-350.247L-496.79,-349.669L-496.528,-349.091L-496.268,-348.512L-496.008,-347.933L-495.75,-347.354L-495.494,-346.773L-495.238,-346.193L-494.984,-345.612L-494.731,-345.03L-494.48,-344.448L-494.23,-343.865L-493.981,-343.282L-493.734,-342.699L-493.488,-342.114L-493.244,-341.53L-493,-340.945L-492.759,-340.359L-492.518,-339.772L-492.279,-339.186L-492.042,-338.598L-491.806,-338.01L-491.571,-337.422L-491.337,-336.833L-491.106,-336.243L-490.875,-335.653L-490.646,-335.062L-490.418,-334.471L-490.192,-333.879L-489.968,-333.287L-489.744,-332.694L-489.523,-332.1L-489.302,-331.506L-489.083,-330.911L-488.866,-330.316L-488.65,-329.72L-488.436,-329.124L-488.223,-328.527L-488.012,-327.929L-487.802,-327.331L-487.594,-326.732L-487.387,-326.132L-487.182,-325.532L-486.978,-324.931L-486.776,-324.33L-486.575,-323.728L-486.376,-323.125L-486.178,-322.522L-485.982,-321.918L-485.788,-321.314L-485.595,-320.708L-485.404,-320.103L-485.214,-319.496L-485.026,-318.889L-484.84,-318.281L-484.655,-317.673L-484.472,-317.064L-484.29,-316.454L-484.11,-315.844L-483.932,-315.233L-483.755,-314.621L-483.58,-314.009L-483.407,-313.396L-483.235,-312.782L-483.065,-312.168L-482.896,-311.553L-482.729,-310.937L-482.564,-310.321L-482.401,-309.703L-482.239,-309.086L-482.079,-308.467L-481.921,-307.848L-481.764,-307.228L-481.609,-306.607L-481.456,-305.986L-481.304,-305.364L-481.154,-304.741L-481.006,-304.118L-480.86,-303.494L-480.715,-302.869L-480.573,-302.243L-480.431,-301.617L-480.292,-300.99L-480.155,-300.362L-480.019,-299.733L-479.885,-299.104L-479.752,-298.474L-479.622,-297.843L-479.493,-297.212L-479.367,-296.58L-479.241,-295.947L-479.118,-295.313L-478.997,-294.678L-478.877,-294.043L-478.759,-293.407L-478.643,-292.77L-478.529,-292.133L-478.417,-291.494L-478.307,-290.855L-478.198,-290.215L-478.091,-289.575L-477.987,-288.933L-477.884,-288.291L-477.783,-287.648L-477.683,-287.004L-477.586,-286.36L-477.491,-285.715L-477.397,-285.068L-477.305,-284.421L-477.216,-283.774L-477.128,-283.125L-477.042,-282.476L-476.958,-281.826L-476.876,-281.175L-476.796,-280.523L-476.718,-279.87L-476.642,-279.217L-476.568,-278.563L-476.495,-277.908L-476.425,-277.252L-476.357,-276.595L-476.29,-275.938L-476.226,-275.279L-476.164,-274.62L-476.103,-273.96L-476.045,-273.299L-475.988,-272.637L-475.934,-271.975L-475.882,-271.311L-475.831,-270.647L-475.783,-269.982L-475.737,-269.316L-475.692,-268.649L-475.65,-267.982L-475.61,-267.313L-475.572,-266.644L-475.536,-265.974L-475.502,-265.302L-475.47,-264.631L-475.44,-263.958L-475.412,-263.284L-475.386,-262.609L-475.363,-261.934L-475.341,-261.257L-475.322,-260.58L-475.304,-259.902L-475.289,-259.223L-475.276,-258.543L-475.265,-257.862L-475.256,-257.181L-475.249,-256.498L-475.245,-255.814L-475.242,-255.13L-475.242,-254.445L-475.244,-253.758L-475.248,-253.071L-475.254,-252.383L-475.262,-251.694L-475.272,-251.004L-475.285,-250.313L-475.3,-249.622L-475.317,-248.929L-475.336,-248.235L-475.357,-247.541L-475.381,-246.845L-475.407,-246.149L-475.435,-245.452L-475.465,-244.753L-475.497,-244.054L-475.532,-243.354L-475.569,-242.653L-475.608,-241.951L-475.649,-241.248L-475.693,-240.544L-475.738,-239.839L-475.786,-239.133L-475.837,-238.426L-475.889,-237.718L-475.944,-237.01L-476.001,-236.3L-476.061,-235.589L-476.122,-234.877L-476.186,-234.165L-476.252,-233.451L-476.321,-232.736L-476.392,-232.021L-476.465,-231.304L-476.54,-230.586L-476.618,-229.868L-476.698,-229.148L-476.781,-228.427L-476.865,-227.706L-476.952,-226.983L-477.042,-226.259L-477.134,-225.535L-477.228,-224.809L-477.324,-224.082L-477.423,-223.355L-477.524,-222.626L-477.627,-221.896L-477.733,-221.165L-477.842,-220.433L-477.952,-219.701L-478.065,-218.967L-478.181,-218.232L-478.299,-217.496L-478.419,-216.759L-478.541,-216.021L-478.666,-215.282L-478.794,-214.541L-478.924,-213.8L-479.056,-213.058L-479.191,-212.315L-479.328,-211.57L-479.467,-210.825L-479.609,-210.078L-479.754,-209.331L-479.901,-208.582L-480.05,-207.832L-480.202,-207.081L-480.356,-206.329L-480.513,-205.576L-480.672,-204.822L-480.834,-204.067L-480.998,-203.311L-481.165,-202.553L-481.334,-201.795L-481.505,-201.035L-481.68,-200.274L-481.856,-199.513L-482.035,-198.75L-482.217,-197.985L-482.401,-197.22L-482.588,-196.454L-482.777,-195.687L-482.969,-194.918L-483.163,-194.148L-483.36,-193.377L-483.56,-192.605L-483.762,-191.832L-483.966,-191.058L-484.173,-190.283L-484.383,-189.506L-484.595,-188.728L-484.81,-187.949L-485.027,-187.169L-485.247,-186.388L-485.47,-185.606L-485.695,-184.822L-485.923,-184.038L-486.153,-183.252L-486.386,-182.465L-486.621,-181.676L-486.859,-180.887L-487.1,-180.096L-487.344,-179.304L-487.59,-178.511L-487.838,-177.717L-488.09,-176.922L-488.344,-176.125L-488.6,-175.327L-488.859,-174.528L-489.121,-173.728L-489.386,-172.926L-489.653,-172.124L-489.923,-171.32L-490.196,-170.515L-490.471,-169.708L-490.749,-168.9L-491.029,-168.092L-491.313,-167.281L-491.599,-166.47L-491.887,-165.657L-492.179,-164.844L-492.473,-164.028L-492.77,-163.212L-493.069,-162.394L-493.372,-161.575L-493.677,-160.755L-493.985,-159.934L-494.295,-159.111L-494.608,-158.287L-494.924,-157.462L-495.243,-156.635L-495.565,-155.807L-495.889,-154.978L-496.216,-154.148L-496.546,-153.316L-496.878,-152.483L-497.214,-151.648L-497.552,-150.813L-497.893,-149.976L-498.237,-149.137L-498.583,-148.298L-498.933,-147.457L-499.285,-146.614L-499.64,-145.771L-499.998,-144.926L-500.358,-144.079L-500.722,-143.232L-501.088,-142.383L-501.457,-141.532L-501.829,-140.681L-502.204,-139.828L-502.582,-138.973L-502.962,-138.117L-503.346,-137.26L-503.732,-136.402L-504.121,-135.542L-504.513,-134.681L-504.908,-133.818L-505.306,-132.954L-505.706,-132.088L-506.11,-131.222L-506.516,-130.353L-506.926,-129.484L-507.338,-128.613L-507.753,-127.74L-508.172,-126.866L-508.593,-125.991L-509.017,-125.115L-509.443,-124.237L-509.873,-123.357L-510.306,-122.476L-510.742,-121.594L-511.181,-120.71L-511.622,-119.825L-512.067,-118.938L-512.515,-118.05L-512.965,-117.16L-513.419,-116.269L-513.875,-115.377L-514.335,-114.483L-514.797,-113.587L-515.263,-112.69L-515.731,-111.792L-516.203,-110.892L-516.677,-109.991L-517.155,-109.088L-517.635,-108.184L-518.119,-107.278L-518.606,-106.371L-519.095,-105.462L-519.588,-104.552L-520.084,-103.64L-520.583,-102.727L-521.084,-101.812L-521.589,-100.895L-522.097,-99.978L-522.608,-99.058L-523.123,-98.137L-523.64,-97.215L-524.16,-96.291L-524.683,-95.366L-525.21,-94.439L-525.74,-93.51L-526.272,-92.58L-526.808,-91.648L-527.347,-90.715L-527.889,-89.78L-528.434,-88.844L-528.982,-87.906L-529.534,-86.967L-530.088,-86.026L-530.646,-85.083L-531.207,-84.139L-531.771,-83.193L-532.338,-82.246L-532.908,-81.297L-533.241,-80.745L-532.853,-80.277L-532.402,-79.737L-531.923,-79.166L-531.414,-78.564L-530.876,-77.93L-530.308,-77.265L-529.711,-76.569L-529.084,-75.843L-528.425,-75.084L-528.087,-74.697L-527.739,-74.299L-527.384,-73.895L-527.022,-73.483L-526.652,-73.063L-526.274,-72.636L-525.889,-72.202L-525.496,-71.761L-525.096,-71.312L-524.688,-70.855L-524.272,-70.392L-523.848,-69.921L-523.417,-69.443L-522.978,-68.958L-522.531,-68.466L-522.076,-67.967L-521.614,-67.46L-521.144,-66.947L-520.666,-66.426L-520.18,-65.899L-519.687,-65.364L-519.185,-64.823L-518.676,-64.274L-518.159,-63.719L-517.634,-63.157L-517.101,-62.588L-516.56,-62.012L-516.011,-61.429L-515.454,-60.84L-514.889,-60.243L-514.316,-59.641L-513.735,-59.031L-513.146,-58.415L-512.549,-57.792L-511.943,-57.163L-511.33,-56.527L-510.709,-55.884L-510.079,-55.235L-509.442,-54.579L-508.796,-53.917L-508.142,-53.249L-507.48,-52.574L-506.809,-51.893L-506.131,-51.205L-505.444,-50.511L-504.749,-49.811L-504.045,-49.104L-503.333,-48.392L-502.613,-47.673L-501.885,-46.948L-501.148,-46.216L-500.403,-45.479L-499.65,-44.735L-498.888,-43.986L-498.118,-43.23L-497.339,-42.468L-496.552,-41.701L-495.757,-40.927L-494.953,-40.147L-494.14,-39.362L-493.319,-38.571L-492.49,-37.773L-491.652,-36.97L-490.805,-36.161L-489.95,-35.347L-489.086,-34.526L-488.213,-33.7L-487.332,-32.868L-486.443,-32.031L-485.544,-31.188L-484.637,-30.339L-483.722,-29.485L-482.797,-28.625L-481.864,-27.759L-480.922,-26.889L-479.972,-26.012L-479.012,-25.13L-478.044,-24.243L-477.067,-23.35L-476.081,-22.452L-475.087,-21.549L-474.083,-20.641L-473.071,-19.727L-472.049,-18.807L-471.019,-17.883L-469.98,-16.953L-468.932,-16.019L-467.875,-15.079L-466.809,-14.134L-465.734,-13.184L-464.65,-12.228L-463.557,-11.268L-462.455,-10.303L-461.344,-9.333L-460.224,-8.358L-459.095,-7.378L-457.956,-6.393L-456.809,-5.403L-455.652,-4.408L-454.487,-3.409L-453.312,-2.404L-452.128,-1.395L-450.934,-0.382L-449.732,0.637L-448.52,1.66L-447.299,2.688L-446.069,3.72L-444.829,4.757L-443.58,5.799L-442.322,6.845L-441.055,7.895L-439.778,8.95L-438.492,10.01L-437.196,11.074L-435.891,12.142L-434.576,13.215L-433.252,14.292L-431.919,15.374L-430.576,16.459L-429.224,17.549L-427.862,18.643L-426.491,19.742L-425.11,20.844L-423.72,21.951L-422.32,23.062L-420.91,24.177L-419.491,25.296L-418.062,26.419L-416.624,27.546L-415.176,28.677L-413.718,29.812L-412.251,30.951L-410.773,32.094L-409.287,33.241L-407.79,34.392L-406.284,35.546L-404.768,36.704L-403.242,37.866L-401.705,39.033L-400.935,39.617L-400.161,40.202L-399.384,40.788L-398.605,41.375L-397.824,41.963L-397.04,42.552L-396.254,43.141L-395.465,43.732L-394.674,44.324L-393.88,44.916L-393.084,45.509L-392.285,46.104L-391.484,46.699L-390.681,47.295L-389.875,47.892L-389.066,48.49L-388.255,49.088L-387.441,49.688L-386.625,50.288L-385.807,50.89L-384.986,51.492L-384.162,52.095L-383.336,52.698L-382.508,53.303L-381.677,53.909L-380.843,54.515L-380.007,55.122L-379.168,55.73L-378.327,56.339L-377.484,56.949L-376.638,57.559L-375.789,58.171L-374.938,58.783L-374.084,59.396L-373.228,60.01L-372.369,60.624L-371.508,61.24L-370.644,61.856L-369.778,62.473L-368.909,63.091L-368.038,63.709L-367.164,64.329L-366.287,64.949L-365.408,65.57L-364.527,66.191L-363.643,66.814L-362.756,67.437L-361.867,68.061L-360.975,68.686L-360.081,69.312L-359.184,69.938L-358.285,70.565L-357.383,71.193L-356.478,71.821L-355.571,72.451L-354.661,73.081L-353.749,73.711L-352.834,74.343L-351.917,74.975L-350.997,75.608L-350.074,76.242L-349.149,76.876L-348.221,77.511L-347.291,78.147L-346.358,78.784L-345.423,79.421L-344.485,80.059L-343.544,80.698L-342.601,81.337L-341.655,81.977L-340.706,82.618L-339.755,83.259L-338.802,83.901L-337.845,84.544L-336.887,85.187L-335.925,85.831L-334.961,86.476L-333.994,87.122L-333.025,87.768L-332.053,88.415L-331.079,89.062L-330.101,89.71L-329.122,90.359L-328.139,91.008L-327.154,91.658L-326.166,92.309L-325.176,92.96L-324.183,93.612L-323.188,94.264L-322.189,94.918L-321.188,95.571L-320.185,96.226L-319.179,96.881L-318.17,97.536L-317.158,98.193L-316.144,98.849L-315.128,99.507L-314.108,100.165L-313.086,100.823L-312.061,101.482L-311.034,102.142L-310.004,102.803L-308.971,103.463L-307.936,104.125L-306.898,104.787L-305.857,105.45L-304.813,106.113L-303.767,106.777L-302.719,107.441L-301.667,108.106L-300.613,108.771L-299.556,109.437L-298.497,110.104L-297.435,110.771L-296.37,111.438L-295.302,112.106L-294.232,112.775L-293.159,113.444L-292.083,114.114L-291.005,114.784L-289.924,115.455L-288.84,116.126L-287.754,116.798L-286.664,117.47L-285.573,118.143L-284.478,118.816L-283.381,119.49L-282.281,120.164L-281.178,120.839L-280.072,121.514L-278.964,122.19L-277.853,122.866L-276.739,123.543L-275.623,124.22L-274.736,124.757L-273.849,124.22L-272.733,123.543L-271.619,122.866L-270.508,122.19L-269.4,121.514L-268.294,120.839L-267.192,120.164L-266.091,119.49L-264.994,118.816L-263.9,118.143L-262.808,117.47L-261.719,116.798L-260.632,116.126L-259.548,115.455L-258.467,114.784L-257.389,114.114L-256.313,113.444L-255.24,112.775L-254.17,112.106L-253.102,111.438L-252.037,110.771L-250.975,110.104L-249.916,109.437L-248.859,108.771L-247.805,108.106L-246.754,107.441L-245.705,106.777L-244.659,106.113L-243.615,105.45L-242.575,104.787L-241.537,104.125L-240.501,103.463L-239.468,102.803L-238.438,102.142L-237.411,101.482L-236.386,100.823L-235.364,100.165L-234.345,99.507L-233.328,98.849L-232.314,98.193L-231.302,97.536L-230.294,96.881L-229.287,96.226L-228.284,95.571L-227.283,94.918L-226.285,94.264L-225.289,93.612L-224.296,92.96L-223.306,92.309L-222.318,91.658L-221.333,91.008L-220.351,90.359L-219.371,89.71L-218.394,89.062L-217.419,88.415L-216.447,87.768L-215.478,87.122L-214.511,86.476L-213.547,85.832L-212.586,85.187L-211.627,84.544L-210.671,83.901L-209.717,83.259L-208.766,82.618L-207.817,81.977L-206.872,81.337L-205.928,80.698L-204.988,80.059L-204.05,79.421L-203.114,78.784L-202.181,78.147L-201.251,77.511L-200.323,76.876L-199.398,76.242L-198.476,75.608L-197.555,74.975L-196.638,74.343L-195.723,73.712L-194.811,73.081L-193.901,72.451L-192.994,71.821L-192.09,71.193L-191.188,70.565L-190.288,69.938L-189.392,69.312L-188.497,68.686L-187.606,68.061L-186.716,67.437L-185.83,66.814L-184.946,66.191L-184.064,65.57L-183.185,64.949L-182.308,64.329L-181.435,63.709L-180.563,63.091L-179.694,62.473L-178.828,61.856L-177.964,61.24L-177.103,60.624L-176.244,60.01L-175.388,59.396L-174.535,58.783L-173.683,58.171L-172.835,57.559L-171.989,56.949L-171.145,56.339L-170.304,55.73L-169.465,55.122L-168.629,54.515L-167.796,53.909L-166.965,53.303L-166.136,52.698L-165.31,52.095L-164.487,51.492L-163.666,50.889L-162.847,50.288L-162.031,49.688L-161.218,49.088L-160.407,48.49L-159.598,47.892L-158.792,47.295L-157.988,46.699L-157.187,46.104L-156.389,45.509L-155.592,44.916L-154.799,44.324L-154.008,43.732L-153.219,43.141L-152.432,42.552L-151.649,41.963L-150.867,41.375L-150.088,40.788L-149.312,40.202L-148.538,39.617L-147.768,39.033L-146.231,37.866L-144.705,36.704L-143.189,35.546L-141.683,34.392L-140.186,33.241L-138.699,32.094L-137.222,30.951L-135.755,29.812L-134.297,28.677L-132.849,27.546L-131.411,26.419L-129.982,25.296L-128.563,24.177L-127.153,23.062L-125.753,21.951L-124.363,20.845L-122.982,19.742L-121.61,18.643L-120.249,17.549L-118.896,16.459L-117.554,15.374L-116.22,14.292L-114.896,13.215L-113.582,12.142L-112.277,11.074L-110.981,10.01L-109.695,8.95L-108.418,7.895L-107.151,6.845L-105.892,5.799L-104.644,4.757L-103.404,3.72L-102.174,2.688L-100.953,1.66L-99.741,0.637L-98.538,-0.382L-97.345,-1.395L-96.161,-2.405L-94.986,-3.409L-93.82,-4.408L-92.664,-5.403L-91.516,-6.393L-90.378,-7.378L-89.249,-8.358L-88.129,-9.333L-87.018,-10.303L-85.916,-11.268L-84.823,-12.228L-83.739,-13.184L-82.664,-14.134L-81.598,-15.079L-80.541,-16.019L-79.493,-16.953L-78.454,-17.883L-77.423,-18.807L-76.402,-19.727L-75.39,-20.64L-74.386,-21.549L-73.392,-22.452L-72.406,-23.35L-71.429,-24.243L-70.461,-25.13L-69.501,-26.012L-68.551,-26.888L-67.609,-27.759L-66.676,-28.625L-65.751,-29.485L-64.836,-30.339L-63.929,-31.188L-63.03,-32.031L-62.14,-32.868L-61.259,-33.7L-60.387,-34.526L-59.523,-35.347L-58.668,-36.161L-57.821,-36.97L-56.983,-37.773L-56.154,-38.57L-55.333,-39.362L-54.52,-40.147L-53.716,-40.927L-52.921,-41.701L-52.134,-42.468L-51.355,-43.23L-50.585,-43.986L-49.823,-44.735L-49.07,-45.479L-48.325,-46.216L-47.588,-46.948L-46.859,-47.673L-46.14,-48.392L-45.428,-49.104L-44.724,-49.811L-44.029,-50.511L-43.342,-51.205L-42.664,-51.893L-41.993,-52.574L-41.331,-53.249L-40.677,-53.917L-40.032,-54.579L-39.394,-55.235L-38.764,-55.884L-38.143,-56.527L-37.53,-57.162L-36.924,-57.792L-36.327,-58.415L-35.738,-59.031L-35.157,-59.641L-34.584,-60.243L-34.019,-60.84L-33.462,-61.429L-32.913,-62.012L-32.372,-62.588L-31.839,-63.157L-31.314,-63.719L-30.797,-64.274L-30.288,-64.823L-29.786,-65.364L-29.293,-65.899L-28.807,-66.426L-28.329,-66.947L-27.859,-67.46L-27.396,-67.967L-26.942,-68.466L-26.495,-68.958L-26.056,-69.443L-25.625,-69.921L-25.201,-70.392L-24.785,-70.855L-24.377,-71.312L-23.977,-71.76L-23.584,-72.202L-23.199,-72.636L-22.821,-73.063L-22.451,-73.483L-22.088,-73.895L-21.734,-74.299L-21.386,-74.697L-21.048,-75.084L-20.389,-75.843L-19.762,-76.569L-19.165,-77.265L-18.597,-77.93L-18.059,-78.564L-17.55,-79.166L-17.071,-79.737L-16.62,-80.277L-16.232,-80.745L-16.565,-81.297L-17.135,-82.246L-17.702,-83.193L-18.266,-84.139L-18.827,-85.083L-19.385,-86.026L-19.939,-86.967L-20.491,-87.906L-21.039,-88.844L-21.584,-89.78L-22.126,-90.715L-22.665,-91.648L-23.201,-92.58L-23.733,-93.51L-24.263,-94.439L-24.789,-95.366L-25.313,-96.291L-25.833,-97.215L-26.35,-98.138L-26.864,-99.058L-27.375,-99.978L-27.883,-100.895L-28.388,-101.812L-28.89,-102.727L-29.389,-103.64L-29.885,-104.552L-30.378,-105.462L-30.867,-106.371L-31.354,-107.278L-31.837,-108.184L-32.318,-109.088L-32.795,-109.991L-33.27,-110.892L-33.742,-111.792L-34.21,-112.69L-34.676,-113.587L-35.138,-114.483L-35.598,-115.377L-36.054,-116.269L-36.508,-117.16L-36.958,-118.05L-37.406,-118.938L-37.851,-119.825L-38.292,-120.71L-38.731,-121.594L-39.167,-122.476L-39.599,-123.357L-40.029,-124.237L-40.456,-125.115L-40.88,-125.991L-41.301,-126.866L-41.719,-127.74L-42.135,-128.613L-42.547,-129.484L-42.956,-130.353L-43.363,-131.222L-43.766,-132.089L-44.167,-132.954L-44.565,-133.818L-44.96,-134.681L-45.352,-135.542L-45.741,-136.402L-46.127,-137.26L-46.511,-138.118L-46.891,-138.973L-47.269,-139.828L-47.644,-140.681L-48.016,-141.532L-48.385,-142.383L-48.751,-143.232L-49.114,-144.079L-49.475,-144.926L-49.833,-145.771L-50.188,-146.614L-50.54,-147.457L-50.89,-148.298L-51.236,-149.137L-51.58,-149.976L-51.921,-150.813L-52.259,-151.648L-52.594,-152.483L-52.927,-153.316L-53.257,-154.148L-53.584,-154.978L-53.908,-155.807L-54.23,-156.635L-54.548,-157.462L-54.864,-158.287L-55.178,-159.111L-55.488,-159.934L-55.796,-160.755L-56.101,-161.575L-56.403,-162.394L-56.703,-163.212L-57,-164.029L-57.294,-164.844L-57.585,-165.657L-57.874,-166.47L-58.16,-167.281L-58.443,-168.092L-58.724,-168.9L-59.002,-169.708L-59.277,-170.515L-59.55,-171.32L-59.82,-172.124L-60.087,-172.926L-60.351,-173.728L-60.613,-174.528L-60.872,-175.327L-61.129,-176.125L-61.383,-176.922L-61.634,-177.717L-61.883,-178.511L-62.129,-179.304L-62.372,-180.096L-62.613,-180.887L-62.851,-181.676L-63.087,-182.464L-63.32,-183.252L-63.55,-184.038L-63.778,-184.822L-64.003,-185.606L-64.225,-186.388L-64.445,-187.169L-64.663,-187.949L-64.878,-188.728L-65.09,-189.506L-65.299,-190.283L-65.506,-191.058L-65.711,-191.832L-65.913,-192.606L-66.112,-193.377L-66.309,-194.148L-66.503,-194.918L-66.695,-195.687L-66.884,-196.454L-67.071,-197.22L-67.255,-197.986L-67.437,-198.75L-67.616,-199.513L-67.793,-200.274L-67.967,-201.035L-68.139,-201.795L-68.308,-202.553L-68.475,-203.311L-68.639,-204.067L-68.8,-204.822L-68.96,-205.576L-69.116,-206.329L-69.271,-207.081L-69.422,-207.832L-69.572,-208.582L-69.719,-209.331L-69.863,-210.078L-70.005,-210.825L-70.145,-211.57L-70.282,-212.315L-70.417,-213.058L-70.549,-213.8L-70.679,-214.541L-70.806,-215.282L-70.931,-216.021L-71.054,-216.759L-71.174,-217.496L-71.292,-218.232L-71.407,-218.967L-71.52,-219.701L-71.631,-220.434L-71.739,-221.165L-71.845,-221.896L-71.949,-222.626L-72.05,-223.355L-72.149,-224.082L-72.245,-224.809L-72.339,-225.535L-72.431,-226.259L-72.52,-226.983L-72.607,-227.706L-72.692,-228.427L-72.774,-229.148L-72.854,-229.867L-72.932,-230.586L-73.008,-231.304L-73.081,-232.021L-73.152,-232.736L-73.22,-233.451L-73.286,-234.165L-73.35,-234.877L-73.412,-235.589L-73.471,-236.3L-73.528,-237.01L-73.583,-237.718L-73.636,-238.426L-73.686,-239.133L-73.734,-239.839L-73.78,-240.544L-73.824,-241.248L-73.865,-241.951L-73.904,-242.653L-73.941,-243.354L-73.975,-244.054L-74.008,-244.754L-74.038,-245.452L-74.066,-246.149L-74.092,-246.846L-74.115,-247.541L-74.137,-248.235L-74.156,-248.929L-74.173,-249.622L-74.187,-250.314L-74.2,-251.004L-74.211,-251.694L-74.219,-252.383L-74.225,-253.071L-74.229,-253.759L-74.231,-254.445L-74.23,-255.13L-74.228,-255.814L-74.223,-256.498L-74.216,-257.181L-74.208,-257.862L-74.197,-258.543L-74.183,-259.223L-74.168,-259.902L-74.151,-260.58L-74.131,-261.258L-74.11,-261.934L-74.086,-262.609L-74.06,-263.284L-74.033,-263.958L-74.003,-264.631L-73.971,-265.302L-73.937,-265.974L-73.901,-266.644L-73.863,-267.313L-73.822,-267.982L-73.78,-268.649L-73.736,-269.316L-73.69,-269.982L-73.641,-270.647L-73.591,-271.312L-73.539,-271.975L-73.484,-272.637L-73.428,-273.299L-73.369,-273.96L-73.309,-274.62L-73.247,-275.279L-73.182,-275.938L-73.116,-276.595L-73.048,-277.252L-72.977,-277.908L-72.905,-278.563L-72.831,-279.217L-72.755,-279.87L-72.677,-280.523L-72.596,-281.175L-72.514,-281.826L-72.431,-282.476L-72.345,-283.125L-72.257,-283.774L-72.167,-284.421L-72.076,-285.068L-71.982,-285.715L-71.887,-286.36L-71.789,-287.004L-71.69,-287.648L-71.589,-288.291L-71.486,-288.933L-71.381,-289.575L-71.275,-290.215L-71.166,-290.855L-71.056,-291.494L-70.943,-292.133L-70.829,-292.77L-70.713,-293.407L-70.596,-294.043L-70.476,-294.678L-70.354,-295.313L-70.231,-295.947L-70.106,-296.579L-69.979,-297.212L-69.851,-297.843L-69.72,-298.474L-69.588,-299.104L-69.454,-299.733L-69.318,-300.362L-69.181,-300.99L-69.041,-301.617L-68.9,-302.243L-68.757,-302.869L-68.613,-303.494L-68.466,-304.118L-68.318,-304.741L-68.169,-305.364L-68.017,-305.986L-67.864,-306.608L-67.709,-307.228L-67.552,-307.848L-67.394,-308.467L-67.234,-309.086L-67.072,-309.703L-66.908,-310.32L-66.743,-310.937L-66.576,-311.553L-66.408,-312.168L-66.238,-312.782L-66.066,-313.396L-65.893,-314.009L-65.718,-314.621L-65.541,-315.233L-65.362,-315.844L-65.182,-316.454L-65.001,-317.064L-64.818,-317.673L-64.633,-318.281L-64.446,-318.889L-64.258,-319.496L-64.069,-320.103L-63.877,-320.708L-63.685,-321.314L-63.49,-321.918L-63.294,-322.522L-63.097,-323.125L-62.898,-323.728L-62.697,-324.33L-62.495,-324.931L-62.291,-325.532L-62.086,-326.132L-61.879,-326.732L-61.671,-327.33L-61.461,-327.929L-61.25,-328.527L-61.037,-329.124L-60.823,-329.72L-60.607,-330.316L-60.389,-330.911L-60.17,-331.506L-59.95,-332.1L-59.728,-332.694L-59.505,-333.287L-59.281,-333.879L-59.054,-334.471L-58.827,-335.062L-58.598,-335.653L-58.367,-336.243L-58.135,-336.833L-57.902,-337.422L-57.667,-338.01L-57.431,-338.598L-57.194,-339.186L-56.954,-339.773L-56.714,-340.359L-56.472,-340.944L-56.229,-341.53L-55.985,-342.115L-55.739,-342.699L-55.491,-343.282L-55.243,-343.865L-54.993,-344.448L-54.741,-345.03L-54.489,-345.612L-54.235,-346.193L-53.979,-346.773L-53.723,-347.354L-53.465,-347.933L-53.205,-348.512L-52.944,-349.091L-52.683,-349.669L-52.419,-350.247L-52.155,-350.824L-51.889,-351.4L-51.622,-351.977L-51.353,-352.552L-51.084,-353.128L-50.813,-353.702L-50.54,-354.277L-50.267,-354.851L-49.992,-355.424L-49.716,-355.997L-49.439,-356.57L-49.161,-357.142L-48.881,-357.714L-48.6,-358.285L-48.318,-358.856L-48.034,-359.426L-47.75,-359.996L-47.464,-360.566L-47.177,-361.135L-46.889,-361.703L-46.6,-362.272L-46.309,-362.84L-46.018,-363.407L-45.725,-363.974L-45.431,-364.541L-45.136,-365.107L-44.84,-365.673L-44.542,-366.239L-44.243,-366.804L-43.944,-367.369L-43.643,-367.933L-43.341,-368.497L-43.038,-369.061L-42.734,-369.624L-42.428,-370.187L-42.122,-370.75L-41.815,-371.312L-41.506,-371.874L-41.196,-372.435L-40.886,-372.997L-40.574,-373.558L-40.261,-374.118L-39.947,-374.678L-39.632,-375.238L-39.316,-375.798L-38.999,-376.357L-38.681,-376.916L-38.362,-377.474L-38.041,-378.033L-37.72,-378.591L-37.398,-379.148L-37.075,-379.706L-36.75,-380.263L-36.425,-380.819L-36.099,-381.376L-35.772,-381.932L-35.444,-382.488L-35.114,-383.044L-34.784,-383.599L-34.453,-384.155L-34.121,-384.709L-33.788,-385.264L-33.454,-385.818L-33.119,-386.372L-32.783,-386.926L-32.446,-387.48L-32.108,-388.033L-31.769,-388.586L-31.43,-389.139L-31.089,-389.692L-30.748,-390.244L-30.406,-390.796L-30.062,-391.348L-29.718,-391.9L-29.373,-392.451L-29.027,-393.003L-28.68,-393.554L-28.333,-394.105L-27.984,-394.655L-27.635,-395.206L-27.284,-395.756L-26.933,-396.306L-26.581,-396.856L-26.228,-397.406L-25.875,-397.955L-25.52,-398.505L-25.165,-399.054L-24.809,-399.603L-24.452,-400.152L-24.094,-400.701L-23.735,-401.251L-23.016,-402.346L-22.294,-403.442L-21.568,-404.537L-20.839,-405.633L-20.107,-406.727L-19.372,-407.821L-18.634,-408.915L-17.894,-410.008L-17.15,-411.101L-16.404,-412.193L-15.655,-413.285L-14.903,-414.377L-14.148,-415.468L-13.391,-416.56L-12.631,-417.651L-11.869,-418.742L-11.104,-419.833L-10.336,-420.923L-9.566,-422.014L-8.943,-422.893L-120.126,-547.053L-120.276,-546.951L-120.939,-546.504L-121.603,-546.059L-122.268,-545.616L-122.933,-545.175L-123.599,-544.737L-124.265,-544.3L-124.932,-543.866L-125.599,-543.433L-126.267,-543.003L-126.936,-542.575L-127.604,-542.149L-128.274,-541.725L-128.944,-541.303L-129.614,-540.883L-130.285,-540.465L-130.956,-540.049L-131.628,-539.636L-132.3,-539.224L-132.973,-538.814L-133.646,-538.407L-134.319,-538.002L-134.993,-537.598L-135.667,-537.197L-136.341,-536.798L-137.016,-536.401L-137.691,-536.005L-138.367,-535.612L-139.043,-535.221L-139.719,-534.832L-140.395,-534.445L-141.072,-534.06L-141.748,-533.678L-142.425,-533.297L-143.103,-532.918L-143.78,-532.541L-144.458,-532.166L-145.136,-531.793L-145.814,-531.423L-146.493,-531.054L-147.171,-530.687L-147.85,-530.323L-148.529,-529.96L-149.208,-529.599L-149.887,-529.24L-150.566,-528.884L-151.245,-528.529L-151.925,-528.176L-152.604,-527.826L-153.284,-527.477L-153.963,-527.13L-154.643,-526.785L-155.322,-526.443L-156.002,-526.102L-156.682,-525.763L-157.361,-525.426L-158.041,-525.091L-158.721,-524.758L-159.4,-524.427L-160.08,-524.098L-160.759,-523.771L-161.438,-523.446L-162.118,-523.123L-162.797,-522.802L-163.476,-522.483L-164.155,-522.165L-164.834,-521.85L-165.512,-521.537L-166.191,-521.225L-166.869,-520.916L-167.548,-520.608L-168.225,-520.303L-168.903,-519.999L-169.581,-519.697L-170.258,-519.397L-170.935,-519.099L-171.612,-518.803L-172.289,-518.509L-172.965,-518.217L-173.641,-517.927L-174.317,-517.638L-174.992,-517.352L-175.667,-517.067L-176.342,-516.785L-177.017,-516.504L-177.691,-516.225L-178.365,-515.948L-179.038,-515.673L-179.711,-515.4L-180.384,-515.128L-181.056,-514.859L-181.728,-514.591L-182.399,-514.326L-183.07,-514.062L-183.74,-513.8L-184.41,-513.54L-185.08,-513.282L-185.749,-513.026L-186.417,-512.771L-187.085,-512.519L-187.753,-512.268L-188.42,-512.019L-189.086,-511.772L-189.752,-511.527L-190.417,-511.283L-191.082,-511.042L-191.746,-510.802L-192.41,-510.565L-193.073,-510.329L-193.735,-510.094L-194.397,-509.862L-195.057,-509.632L-195.718,-509.403L-196.378,-509.176L-197.037,-508.951L-197.695,-508.728L-198.352,-508.507L-199.009,-508.287L-199.666,-508.07L-200.321,-507.854L-200.976,-507.64L-201.63,-507.427L-202.283,-507.217L-202.935,-507.008L-203.587,-506.801L-204.238,-506.596L-204.887,-506.393L-205.537,-506.192L-206.185,-505.992L-206.832,-505.794L-207.479,-505.598L-208.125,-505.404L-208.77,-505.211L-209.414,-505.02L-210.057,-504.831L-210.699,-504.644L-211.34,-504.459L-211.98,-504.275L-212.62,-504.093L-213.258,-503.913L-213.895,-503.734L-214.532,-503.558L-215.167,-503.383L-215.802,-503.21L-216.435,-503.038L-217.067,-502.869L-217.699,-502.701L-218.329,-502.535L-218.958,-502.37L-219.586,-502.207L-220.213,-502.047L-220.839,-501.887L-221.464,-501.73L-222.088,-501.574L-222.711,-501.42L-223.332,-501.268L-223.953,-501.117L-224.572,-500.968L-225.19,-500.821L-225.807,-500.676L-226.422,-500.532L-227.037,-500.39L-227.65,-500.25L-228.262,-500.111L-228.873,-499.975L-229.482,-499.839L-230.091,-499.706L-230.698,-499.574L-231.304,-499.444L-231.908,-499.316L-232.511,-499.189L-233.113,-499.064L-233.714,-498.941L-234.313,-498.819L-234.911,-498.699L-235.507,-498.581L-236.102,-498.464L-236.696,-498.35L-237.288,-498.236L-237.879,-498.125L-238.469,-498.015L-239.057,-497.907L-239.644,-497.8L-240.229,-497.695L-240.813,-497.592L-241.396,-497.49L-241.976,-497.391L-242.556,-497.292L-243.134,-497.196L-243.71,-497.101L-244.285,-497.007L-244.859,-496.916L-245.431,-496.826L-246.001,-496.737L-246.57,-496.651L-247.137,-496.565L-247.703,-496.482L-248.267,-496.4L-248.829,-496.32L-249.39,-496.241L-249.949,-496.164L-250.507,-496.089L-251.063,-496.015L-251.618,-495.943L-252.17,-495.873L-252.721,-495.804L-253.271,-495.737L-253.818,-495.671L-254.364,-495.607L-254.909,-495.545L-255.451,-495.484L-255.992,-495.425L-256.531,-495.367L-257.069,-495.311L-257.604,-495.257L-258.138,-495.204L-258.67,-495.153L-259.201,-495.103L-259.729,-495.055L-260.256,-495.009L-260.781,-494.964L-261.304,-494.921L-261.825,-494.879L-262.345,-494.839L-262.862,-494.801L-263.378,-494.764L-263.892,-494.728L-264.404,-494.695L-264.914,-494.663L-265.422,-494.632L-265.929,-494.603L-266.433,-494.576L-266.935,-494.55L-267.436,-494.526L-267.935,-494.503L-268.431,-494.482L-268.926,-494.462L-269.419,-494.444L-269.909,-494.428L-270.398,-494.413L-270.885,-494.4L-271.37,-494.388L-271.853,-494.378L-272.334,-494.369L-272.812,-494.362L-273.289,-494.357L-273.764,-494.353L-274.236,-494.35L-274.707,-494.35L-275.178,-494.35L-275.65,-494.353L-276.125,-494.357L-276.602,-494.362L-277.081,-494.369L-277.561,-494.378L-278.044,-494.388L-278.529,-494.4L-279.016,-494.413L-279.505,-494.428L-279.996,-494.444L-280.488,-494.462L-280.983,-494.482L-281.48,-494.503L-281.979,-494.526L-282.479,-494.55L-282.982,-494.576L-283.486,-494.603L-283.993,-494.632L-284.501,-494.663L-285.011,-494.695L-285.523,-494.728L-286.037,-494.764L-286.553,-494.801L-287.071,-494.839L-287.59,-494.879L-288.112,-494.921L-288.635,-494.964L-289.16,-495.009L-289.687,-495.055L-290.215,-495.103L-290.746,-495.153L-291.278,-495.204L-291.812,-495.257L-292.348,-495.311L-292.886,-495.367L-293.425,-495.425L-293.966,-495.484L-294.509,-495.545L-295.053,-495.607L-295.599,-495.671L-296.147,-495.737L-296.697,-495.804L-297.248,-495.873L-297.801,-495.943L-298.356,-496.015L-298.912,-496.089L-299.47,-496.164L-300.029,-496.241L-300.59,-496.32L-301.153,-496.4L-301.717,-496.482L-302.283,-496.565L-302.85,-496.65L-303.42,-496.737L-303.99,-496.826L-304.562,-496.916L-305.136,-497.007L-305.711,-497.101L-306.288,-497.196L-306.866,-497.292L-307.446,-497.39L-308.027,-497.49L-308.61,-497.592L-309.194,-497.695L-309.779,-497.8L-310.366,-497.907L-310.955,-498.015L-311.544,-498.125L-312.136,-498.236L-312.728,-498.349L-313.322,-498.464L-313.918,-498.581L-314.515,-498.699L-315.113,-498.819L-315.712,-498.941L-316.313,-499.064L-316.915,-499.189L-317.519,-499.316L-318.123,-499.444L-318.729,-499.574L-319.337,-499.706L-319.945,-499.839L-320.555,-499.974L-321.166,-500.111L-321.779,-500.25L-322.392,-500.39L-323.007,-500.532L-323.623,-500.676L-324.24,-500.821L-324.858,-500.968L-325.478,-501.117L-326.099,-501.268L-326.72,-501.42L-327.343,-501.574L-327.967,-501.73L-328.593,-501.887L-329.219,-502.046L-329.846,-502.207L-330.475,-502.37L-331.104,-502.534L-331.735,-502.7L-332.367,-502.868L-332.999,-503.038L-333.633,-503.209L-334.268,-503.383L-334.904,-503.557L-335.54,-503.734L-336.178,-503.912L-336.817,-504.093L-337.456,-504.275L-338.097,-504.458L-338.739,-504.644L-339.381,-504.831L-340.024,-505.02L-340.669,-505.211L-341.314,-505.403L-341.96,-505.598L-342.607,-505.794L-343.255,-505.992L-343.903,-506.191L-344.553,-506.393L-345.203,-506.596L-345.854,-506.801L-346.506,-507.008L-347.159,-507.217L-347.812,-507.427L-348.467,-507.639L-349.122,-507.853L-349.777,-508.069L-350.434,-508.287L-351.091,-508.507L-351.749,-508.728L-352.408,-508.951L-353.067,-509.176L-353.727,-509.403L-354.388,-509.631L-355.049,-509.862L-355.711,-510.094L-356.374,-510.328L-357.037,-510.564L-357.701,-510.802L-358.365,-511.042L-359.03,-511.283L-359.696,-511.526L-360.362,-511.771L-361.029,-512.018L-361.696,-512.267L-362.364,-512.518L-363.032,-512.771L-363.701,-513.025L-364.371,-513.281L-365.04,-513.54L-365.711,-513.8L-366.382,-514.062L-367.053,-514.325L-367.724,-514.591L-368.397,-514.859L-369.069,-515.128L-369.742,-515.399L-370.415,-515.672L-371.089,-515.948L-371.763,-516.224L-372.438,-516.503L-373.112,-516.784L-373.787,-517.067L-374.463,-517.351L-375.139,-517.638L-375.815,-517.926L-376.491,-518.216L-377.168,-518.509L-377.845,-518.803L-378.522,-519.099L-379.199,-519.397L-379.877,-519.697L-380.555,-519.998L-381.233,-520.302L-381.911,-520.608L-382.59,-520.915L-383.268,-521.225L-383.947,-521.536L-384.626,-521.85L-385.305,-522.165L-385.984,-522.482L-386.664,-522.801L-387.343,-523.123L-388.023,-523.446L-388.702,-523.771L-389.382,-524.098L-390.062,-524.427L-390.742,-524.758L-391.421,-525.091L-392.101,-525.426L-392.781,-525.762L-393.461,-526.101L-394.141,-526.442L-394.821,-526.785L-395.501,-527.13L-396.181,-527.476L-396.86,-527.825L-397.54,-528.176L-398.22,-528.529L-398.899,-528.883L-399.579,-529.24L-400.258,-529.599L-400.937,-529.959L-401.616,-530.322L-402.295,-530.687L-402.974,-531.054L-403.652,-531.422L-404.331,-531.793L-405.009,-532.166L-405.687,-532.541L-406.365,-532.917L-407.042,-533.296L-407.72,-533.677L-408.397,-534.06L-409.073,-534.445L-409.75,-534.832L-410.426,-535.221L-411.102,-535.612L-411.778,-536.005L-412.453,-536.4L-413.128,-536.797L-413.802,-537.197L-414.477,-537.598L-415.151,-538.001L-415.824,-538.407L-416.497,-538.814L-417.17,-539.224L-417.842,-539.635L-418.514,-540.049L-419.185,-540.465L-419.856,-540.882L-420.527,-541.302L-421.197,-541.724L-421.866,-542.148L-422.535,-542.574L-423.204,-543.003L-423.872,-543.433L-424.539,-543.865L-425.206,-544.3L-425.873,-544.737L-426.539,-545.175L-427.204,-545.616L-427.868,-546.059L-428.532,-546.504L-429.196,-546.951L-429.346,-547.053L-540.529,-422.893Z"/>
    </g>
    <g transform="matrix(1.00096,0.000757902,-0.000757902,1.00096,-29.5526,-76.5704)">
        <g transform="matrix(1.07814,0.0878586,-0.0878586,1.07814,7.36547,-77.272)">
            <path d="M322,313C322,313 321.25,304.092 325.189,299.381C327.293,296.864 333.836,302.941 334,294C334.188,283.719 340.998,282.596 343.386,283.068C345.456,283.477 344.794,279.262 343.341,271.958C341.922,264.829 345.242,258.143 345,256C344.816,254.377 309.116,252.93 307,257C304.884,261.07 308.257,278.144 296.068,293.614C283.844,309.129 320.173,311.745 322,313Z" style="fill:rgb(231,185,156);stroke:black;stroke-width:1.85px;"/>
            <g transform="matrix(1,0,0,1,333.227,274.102)">
                <ellipse cx="-0.002" cy="-2.619" rx="2.618" ry="2.619"/>
            </g>
            <path d="M333.611,292C333.611,292 327.273,290.617 327,287.681" style="fill:none;stroke:black;stroke-width:1.85px;"/>
            <g transform="matrix(1.08545,0.372624,-0.420102,1.22375,342.475,286.728)">
                <path d="M0,3.495C-0.99,4.516 -8.557,4.789 -9.086,4.544C-9.617,4.302 -10.585,1.117 -9.556,0.482C-8.525,-0.149 -1.658,-1.294 -0.47,-0.567C0.715,0.159 0.99,2.471 0,3.495" style="fill:rgb(0,1,0);fill-rule:nonzero;"/>
            </g>
        </g>
        <g transform="matrix(-0.741197,-0.676603,0.707317,-0.774844,304.004,258.978)">
            <path d="M0,-8.642C-5.864,-10.234 -12.304,-9.808 -18.273,-9.174C-22.703,-8.702 -31.359,-7.821 -35.052,-4.969C-37.887,-3.673 -34.075,2.296 -31.059,0.908C-26.9,-0.373 -21.51,-1.263 -17.69,-1.67C-12.458,-2.226 -7.315,-2.484 -2.132,-1.809C1.276,-1.489 2.432,-8.451 0,-8.642" style="fill-rule:nonzero;"/>
        </g>
        <g transform="matrix(1.07814,0.0878586,-0.0878586,1.07814,7.36547,-77.272)">
            <g transform="matrix(1,0,0,1,5.56029,-8)">
                <g transform="matrix(-1,0,0,1,293.518,295.761)">
                    <path d="M0,-24.081C10.487,-22.307 14.118,-8.978 15.276,-4.488C16.434,0 3.59,-2.469 -0.405,-6.945C-4.397,-11.421 -2.648,-23.741 0,-24.081Z" style="fill:white;fill-rule:nonzero;stroke:black;stroke-width:1.85px;stroke-linecap:butt;stroke-linejoin:miter;stroke-miterlimit:10;"/>
                </g>
                <g transform="matrix(-1,0,0,1,251.85,288.411)">
                    <path d="M0,3.155C0,3.155 17.21,-11.169 16.966,-2.949C16.726,5.266 17.696,3.609 18.979,5.095C20.266,6.584 14.991,8.696 15.575,11.428C16.157,14.161 7.044,14.324 4.37,11.14C1.703,7.949 -1.449,5.124 0,3.155Z" style="fill:white;fill-rule:nonzero;stroke:black;stroke-width:1.85px;stroke-linecap:butt;stroke-linejoin:miter;stroke-miterlimit:10;"/>
                </g>
                <g transform="matrix(-1,0,0,1,280.261,295.228)">
                    <path d="M0,-4.121C-1.24,0.045 7.906,-0.338 15.793,0.213C23.686,0.767 29.462,4.167 30.012,-1.563C30.559,-7.286 24.059,-4.562 16.167,-5.114C8.279,-5.668 1.238,-8.288 0,-4.121" style="fill-rule:nonzero;"/>
                </g>
            </g>
            <g transform="matrix(0.96859,0.248663,-0.248663,0.96859,83.0044,-71.7469)">
                <g transform="matrix(-1,0,0,1,296.189,269.365)">
                    <path d="M0,1.272C0.707,2.258 2.817,10.927 -4.585,7.324C-11.985,3.725 -24.125,1.147 -18.076,-4.254C-12.026,-9.655 -0.702,0.289 0,1.272" style="fill:white;fill-rule:nonzero;stroke:black;stroke-width:1.85px;stroke-linecap:butt;stroke-miterlimit:1.41421;"/>
                </g>
                <g transform="matrix(-1,0,0,1,297.103,279.649)">
                    <path d="M0,-0.095C0.751,0.952 2.354,10.927 -5.541,7.083C-13.437,3.242 -26.383,0.495 -19.931,-5.262C-13.479,-11.022 -0.752,-1.147 0,-0.095Z" style="fill:white;fill-rule:nonzero;stroke:black;stroke-width:1.85px;stroke-linecap:butt;stroke-linejoin:miter;stroke-miterlimit:10;"/>
                </g>
            </g>
        </g>
        <g id="Stock" transform="matrix(1.07814,0.0878586,-0.0878586,1.07814,7.36547,-77.272)">
            <path d="M381.095,639C381.095,639 380.874,645.393 387.411,645.075C392.876,644.809 393,639 393,639L397.215,420.001C397.215,420.001 398.83,403.271 376,420.986C368.127,427.095 363.304,439.351 367.975,441C375.48,443.649 386,427.595 386,427.595L381.095,639Z" style="fill:rgb(180,90,54);stroke:black;stroke-width:1.85px;"/>
        </g>
        <g id="Rechte-Hand" serif:id="Rechte Hand" transform="matrix(1.07814,0.0878586,-0.0878586,1.07814,7.36547,-77.272)">
            <path d="M364.975,423.612C364.975,423.612 384.348,422.141 383,434C382.393,439.337 394.29,429.334 392.215,420.001C390.139,410.668 380.542,408.378 370.515,411L364.975,423.612Z" style="fill:white;stroke:black;stroke-width:1.85px;"/>
        </g>
        <g id="Hose" transform="matrix(1.07814,0.0878586,-0.0878586,1.07814,7.36547,-77.272)">
            <path d="M306,536C306,536 316.873,536.2 317,535C317.127,533.8 315.035,515.775 313.901,511C312.762,506.205 314.909,500.329 313.901,495.303C312.289,487.26 308.435,474.931 306.028,472C302.115,467.237 293.49,450.324 301,441C308.51,431.676 320,409 320,409C320,409 239.796,391.63 239.192,398.687C238.589,405.744 229.766,436.333 227,451C224.234,465.667 239.724,485.032 254,498C268.276,510.968 265,542 265,542C265,542 279.832,552.186 306,536Z" style="fill:white;stroke:black;stroke-width:1.85px;"/>
            <path d="M293,467C293,467 298.195,479.064 300,484C303.47,493.489 303.166,501.004 302,507C300.951,512.396 306.462,531.243 306,536" style="fill:white;stroke:black;stroke-width:1.85px;"/>
        </g>
        <g id="Waffenrock" transform="matrix(1.07814,0.0878586,-0.0878586,1.07814,7.36547,-77.272)">
            <path d="M351.116,404C349.795,403.938 340,431 340,431C340,431 349.062,434.584 360,436C362.049,436.265 372.779,407.92 370.084,407.315C368.042,406.857 352.436,404.062 351.116,404Z" style="fill:rgb(183,25,24);stroke:black;stroke-width:1.85px;"/>
            <g>
                <path d="M241,523C241,523 265.149,535.408 275,533C275,533 293.138,497.575 295,481C296.862,464.425 303.786,419.718 303.419,415C303.419,415 333.28,430.672 340,431C342.181,431.106 352.619,404.997 351,404C337.958,395.97 329.109,388.39 328,384C326.555,378.277 322.584,322.388 323,313C323,313 296.934,300.236 293.431,294C293.431,294 237.131,339.551 225,353C214.931,364.163 195.333,376.42 219,412C220.136,413.708 234.032,398.824 240,391.548C241.633,389.558 233.409,404.762 234.602,405C234.518,405.346 231.628,428.532 238.179,445.912C244.944,463.862 241.956,514.408 241,523Z" style="fill:rgb(37,46,89);stroke:black;stroke-width:1.85px;"/>
                <path d="M273.934,310.264C257.515,334.051 252.565,348.575 248.652,353.223C246.513,355.765 230.294,382.671 240,392" style="fill:none;stroke:black;stroke-width:1.85px;"/>
            </g>
            <path id="Linke-Hand" serif:id="Linke Hand" d="M233,419C232.858,421.825 243.74,439.277 254,433C266.125,425.582 257.725,425.369 254,420.986C259.008,425.075 263.225,422.355 255,415C250.257,410.759 243.561,407.387 242,408.531C240.563,409.583 233,419 233,419Z" style="fill:white;stroke:black;stroke-width:1.85px;"/>
            <path d="M250.211,407.378C250.211,407.378 231.821,427.357 230,426C227.259,423.958 219.388,412.477 219,412C218.612,411.523 233.867,391.837 240,391C242.39,390.674 250.21,406.925 250.211,407.378Z" style="fill:rgb(183,25,24);stroke:black;stroke-width:1.85px;"/>
            <path d="M303.419,415C303.419,415 290.6,397.023 294,385" style="fill:none;stroke:black;stroke-width:1.85px;"/>
            <path d="M241.413,463.861C241.413,463.861 265.521,508.43 264.915,510.929C264.285,513.532 241,523 241,523C241,523 243.912,482.076 241.413,463.861Z" style="fill:rgb(183,25,24);stroke:black;stroke-width:1.85px;"/>
            <path d="M296.547,468.158C296.547,468.158 265.47,509.192 264.915,510.929C264.367,512.646 275,533.31 275,533.31C287.266,509.915 295.642,487.702 296.547,468.158Z" style="fill:rgb(183,25,24);stroke:black;stroke-width:1.85px;"/>
            <g id="Knopf" transform="matrix(2.78786e-15,-4.99627,4.99627,2.78786e-15,264.811,513.676)">
                <ellipse cx="0.515" cy="0" rx="0.502" ry="0.502" style="fill:url(#_Linear1);stroke:black;stroke-width:0.15px;stroke-linecap:butt;stroke-miterlimit:1.41421;"/>
            </g>
        </g>
        <g transform="matrix(-0.960514,-0.278231,0.278231,-0.960514,376.533,919.155)">
            <g transform="matrix(1.11587,0.0885143,-0.0885143,1.11587,13.872,-66.3891)">
                <g transform="matrix(1,0,0,1,217.699,427.023)">
                    <path d="M0,8.87C0.562,9.27 10.812,6.522 11.146,6.479C11.479,6.434 15.172,3.343 15.717,2.63C16.262,1.919 10.858,-0.33 10.67,-0.367C10.485,-0.4 0.427,0.491 -0.493,0.837C-1.414,1.19 -0.562,8.473 0,8.87" style="fill:rgb(217,217,217);fill-rule:nonzero;stroke:black;stroke-width:1.78px;stroke-linecap:butt;stroke-miterlimit:1.41421;"/>
                </g>
                <g transform="matrix(-3.01981e-14,-4.33522,4.33522,-3.01981e-14,229.904,432.035)">
                    <ellipse cx="0.515" cy="0" rx="0.502" ry="0.502" style="fill:url(#_Linear2);stroke:black;stroke-width:0.21px;stroke-linecap:butt;stroke-miterlimit:1.41421;"/>
                </g>
            </g>
            <g transform="matrix(1.14931,0.083928,-0.083928,1.14931,5.86318,-79.229)">
                <g transform="matrix(1,0,0,1,218.747,445.035)">
                    <path d="M0,8.874C0.562,9.271 10.813,6.526 11.147,6.481C11.48,6.439 15.172,3.345 15.716,2.633C16.261,1.923 10.858,-0.33 10.67,-0.362C10.485,-0.397 0.427,0.494 -0.493,0.842C-1.416,1.19 -0.563,8.474 0,8.874" style="fill:rgb(217,217,217);fill-rule:nonzero;stroke:black;stroke-width:1.73px;stroke-linecap:butt;stroke-miterlimit:1.41421;"/>
                </g>
                <g transform="matrix(1.24345e-14,-4.33388,4.33388,1.24345e-14,232,449.931)">
                    <ellipse cx="0.515" cy="0" rx="0.502" ry="0.502" style="fill:url(#_Linear3);stroke:black;stroke-width:0.2px;stroke-linecap:butt;stroke-miterlimit:1.41421;"/>
                </g>
            </g>
            <g transform="matrix(1.10282,0,0,1.10282,-21.0853,-38.3303)">
                <g transform="matrix(1,0,0,1,220.003,463.888)">
                    <path d="M0.682,7.631C1.244,8.031 10.814,6.521 11.147,6.479C11.481,6.438 15.174,3.343 15.717,2.63C16.261,1.919 10.857,-0.333 10.672,-0.367C10.487,-0.4 0.429,0.491 -0.491,0.837C-1.414,1.189 0.682,7.631 0.682,7.631Z" style="fill:rgb(217,217,217);fill-rule:nonzero;stroke:black;stroke-width:1.81px;stroke-linecap:butt;stroke-miterlimit:1.41421;"/>
                </g>
                <g transform="matrix(-3.9968e-15,-4.33413,4.33413,-3.9968e-15,233.093,468.832)">
                    <ellipse cx="0.515" cy="0" rx="0.502" ry="0.502" style="fill:url(#_Linear4);stroke:black;stroke-width:0.21px;stroke-linecap:butt;stroke-miterlimit:1.41421;"/>
                </g>
            </g>
        </g>
        <g transform="matrix(0.989181,0.622535,-0.657299,1.04442,333.467,396.603)">
            <path d="M0.006,-13.145C0.006,-13.145 0.094,-5.566 0.113,-5.233C0.138,-4.897 3.012,-1.126 3.538,-0.565C4.064,0 7.016,-4.797 7.049,-4.985C7.08,-5.167 6.117,-12.564 6.117,-12.564L0.006,-13.145Z" style="fill:rgb(217,217,217);fill-rule:nonzero;stroke:black;stroke-width:1.66px;stroke-linecap:butt;stroke-linejoin:miter;stroke-miterlimit:10;"/>
        </g>
        <g transform="matrix(0.989181,0.622535,-0.673751,1.07056,324.964,390.387)">
            <path d="M0.002,-13.784C0.002,-13.784 -1.106,-6.18 -1.146,-5.848C-1.181,-5.513 0.979,-1.295 1.4,-0.649C1.817,0 5.57,-4.198 5.637,-4.377C5.699,-4.551 6.098,-12.591 6.098,-12.591L0.002,-13.784Z" style="fill:rgb(217,217,217);fill-rule:nonzero;stroke:black;stroke-width:1.64px;stroke-linecap:butt;stroke-linejoin:miter;stroke-miterlimit:10;"/>
        </g>
        <g transform="matrix(-0.420886,-1.09036,0.952293,-0.367592,212.562,367.228)">
            <path d="M0,-12.346C0,-12.346 0.094,-5.566 0.113,-5.233C0.138,-4.897 3.012,-1.126 3.538,-0.565C4.064,0 7.016,-4.797 7.049,-4.985C7.08,-5.167 6.073,-11.815 6.073,-11.815L0,-12.346Z" style="fill:rgb(217,217,217);fill-rule:nonzero;stroke:black;stroke-width:1.82px;stroke-linecap:butt;stroke-linejoin:miter;stroke-miterlimit:10;"/>
        </g>
        <g transform="matrix(-0.71216,-0.926746,0.865608,-0.665178,216.618,373.488)">
            <path d="M0,-12.869C0,-12.869 -1.106,-6.18 -1.146,-5.848C-1.181,-5.513 0.979,-1.295 1.4,-0.649C1.817,0 5.57,-4.198 5.637,-4.377C5.699,-4.551 5.848,-11.515 5.848,-11.515L0,-12.869Z" style="fill:rgb(217,217,217);fill-rule:nonzero;stroke:black;stroke-width:1.77px;stroke-linecap:butt;stroke-linejoin:miter;stroke-miterlimit:10;"/>
        </g>
        <g transform="matrix(1.07814,0.0878586,-0.0878586,1.07814,14.3849,-73.444)">
            <path d="M291.15,298.846C291.15,298.846 280.082,311.826 279,312.846C277.918,313.866 279.358,321.084 281,323C282.642,324.916 290.159,322.05 291,320.846C291.841,319.642 298.096,305.24 297.641,304C297.185,302.76 293.294,298.557 291.15,298.846Z" style="fill:rgb(183,25,24);stroke:black;stroke-width:1.85px;"/>
            <g id="Knopf1" serif:id="Knopf" transform="matrix(2.78786e-15,-4.99627,4.99627,2.78786e-15,284.227,320.911)">
                <ellipse cx="0.515" cy="0" rx="0.502" ry="0.502" style="fill:url(#_Linear5);stroke:black;stroke-width:0.15px;stroke-linecap:butt;stroke-miterlimit:1.41421;"/>
            </g>
        </g>
        <g id="Schimisettchen" transform="matrix(1.35391,0.796693,-0.796693,1.35391,143.438,-390.537)">
            <g transform="matrix(-1,5.55112e-17,5.55112e-17,1,312.83,339.155)">
                <path d="M0,-26.725C0,-26.725 -5.769,-17.867 -7.567,-12.735C-9.368,-7.603 -13.792,-1.917 -17.212,-0.983C-20.629,-0.051 -27.028,-0.576 -25.84,-4.382C-24.649,-8.19 -11.221,-19.951 -6.77,-27.727C-6.77,-27.727 -4.151,-25.045 0,-26.725Z" style="fill:white;fill-rule:nonzero;stroke:black;stroke-width:1.27px;stroke-linecap:butt;stroke-linejoin:miter;stroke-miterlimit:10;"/>
            </g>
            <g transform="matrix(0.619867,-0.29986,0.29986,0.619867,26.4789,215.796)">
                <path d="M314.726,329.813C314.726,329.813 323.383,333.105 327.293,331.431" style="fill:none;stroke:black;stroke-width:1.85px;"/>
            </g>
            <g transform="matrix(0.948763,-0.315988,0.315988,0.948763,332.821,327.233)">
                <path d="M-10.361,2.826C-4.341,4.493 -2.952,3.299 0.352,2.171" style="fill:none;stroke:black;stroke-width:1.27px;stroke-linecap:butt;stroke-linejoin:miter;stroke-miterlimit:10;"/>
            </g>
            <g transform="matrix(0.972805,-0.231626,0.231626,0.972805,324.937,322.187)">
                <path d="M-6.666,-4.396C-3.902,-3.903 -3.48,-2.765 0.213,-3.874" style="fill:none;stroke:black;stroke-width:1.27px;stroke-linecap:butt;stroke-linejoin:miter;stroke-miterlimit:10;"/>
            </g>
        </g>
        <g id="Schuhe" transform="matrix(1.07814,0.0878586,-0.0878586,1.07814,576.192,655.732)">
            <g id="Schuhe1" serif:id="Schuhe" transform="matrix(1,0,0,1,-579.156,-632.68)">
                <path d="M265,540C265,540 266.898,566.2 269,578C273.617,603.921 274.204,604.43 271,626C267.796,647.57 257.575,670.595 269,671C280.425,671.405 289.615,676.153 293,662C293,662 297.059,669.793 308,667C318.941,664.207 349.195,659.385 344,655C344,655 367.837,653.139 365,644C362.163,634.861 356.719,633.094 349,631C335.593,627.363 315.556,638.501 316,601C316.444,563.499 317.148,550.257 317,545.163C316.719,535.482 317.927,524.644 314,528C301.53,538.659 282.796,545.21 265,540Z" style="stroke:black;stroke-width:1.85px;"/>
            </g>
            <g id="Knopf2" serif:id="Knopf" transform="matrix(2.78786e-15,-4.99627,4.99627,2.78786e-15,-297.173,-81.004)">
                <ellipse cx="0.515" cy="0" rx="0.502" ry="0.502" style="fill:url(#_Linear6);stroke:black;stroke-width:0.15px;stroke-linecap:butt;stroke-miterlimit:1.41421;"/>
            </g>
            <g id="Knopf3" serif:id="Knopf" transform="matrix(2.78786e-15,-4.99627,4.99627,2.78786e-15,-294.667,-72.004)">
                <ellipse cx="0.515" cy="0" rx="0.502" ry="0.502" style="fill:url(#_Linear7);stroke:black;stroke-width:0.15px;stroke-linecap:butt;stroke-miterlimit:1.41421;"/>
            </g>
            <g id="Knopf4" serif:id="Knopf" transform="matrix(2.78786e-15,-4.99627,4.99627,2.78786e-15,-292.87,-62.4308)">
                <ellipse cx="0.515" cy="0" rx="0.502" ry="0.502" style="fill:url(#_Linear8);stroke:black;stroke-width:0.15px;stroke-linecap:butt;stroke-miterlimit:1.41421;"/>
            </g>
            <g id="Knopf5" serif:id="Knopf" transform="matrix(2.78786e-15,-4.99627,4.99627,2.78786e-15,-292.163,-52.2213)">
                <ellipse cx="0.515" cy="0" rx="0.502" ry="0.502" style="fill:url(#_Linear9);stroke:black;stroke-width:0.15px;stroke-linecap:butt;stroke-miterlimit:1.41421;"/>
            </g>
            <g id="Knopf6" serif:id="Knopf" transform="matrix(2.78786e-15,-4.99627,4.99627,2.78786e-15,-291.52,-42.9869)">
                <ellipse cx="0.515" cy="0" rx="0.502" ry="0.502" style="fill:url(#_Linear10);stroke:black;stroke-width:0.15px;stroke-linecap:butt;stroke-miterlimit:1.41421;"/>
            </g>
            <g id="Knopf7" serif:id="Knopf" transform="matrix(2.78786e-15,-4.99627,4.99627,2.78786e-15,-291.364,-32.9814)">
                <ellipse cx="0.515" cy="0" rx="0.502" ry="0.502" style="fill:url(#_Linear11);stroke:black;stroke-width:0.15px;stroke-linecap:butt;stroke-miterlimit:1.41421;"/>
            </g>
            <g id="Knopf8" serif:id="Knopf" transform="matrix(2.78786e-15,-4.99627,4.99627,2.78786e-15,-291.364,-22.9814)">
                <ellipse cx="0.515" cy="0" rx="0.502" ry="0.502" style="fill:url(#_Linear12);stroke:black;stroke-width:0.15px;stroke-linecap:butt;stroke-miterlimit:1.41421;"/>
            </g>
            <g id="Knopf9" serif:id="Knopf" transform="matrix(2.78786e-15,-4.99627,4.99627,2.78786e-15,-291.364,-13.9814)">
                <ellipse cx="0.515" cy="0" rx="0.502" ry="0.502" style="fill:url(#_Linear13);stroke:black;stroke-width:0.15px;stroke-linecap:butt;stroke-miterlimit:1.41421;"/>
            </g>
            <g id="Knopf10" serif:id="Knopf" transform="matrix(2.78786e-15,-4.99627,4.99627,2.78786e-15,-291.348,-4.37025)">
                <ellipse cx="0.515" cy="0" rx="0.502" ry="0.502" style="fill:url(#_Linear14);stroke:black;stroke-width:0.15px;stroke-linecap:butt;stroke-miterlimit:1.41421;"/>
            </g>
            <g id="Knopf11" serif:id="Knopf" transform="matrix(2.78786e-15,-4.99627,4.99627,2.78786e-15,-291.303,3.97872)">
                <ellipse cx="0.515" cy="0" rx="0.502" ry="0.502" style="fill:url(#_Linear15);stroke:black;stroke-width:0.15px;stroke-linecap:butt;stroke-miterlimit:1.41421;"/>
            </g>
            <g id="Knopf12" serif:id="Knopf" transform="matrix(2.78786e-15,-4.99627,4.99627,2.78786e-15,-291.64,13.6331)">
                <ellipse cx="0.515" cy="0" rx="0.502" ry="0.502" style="fill:url(#_Linear16);stroke:black;stroke-width:0.15px;stroke-linecap:butt;stroke-miterlimit:1.41421;"/>
            </g>
        </g>
        <g transform="matrix(1.07814,0.0878586,-0.0878586,1.07814,7.36547,-77.272)">
            <g transform="matrix(0.934354,0,0,0.813521,24.5813,52.7163)">
                <path d="M334.072,255.883C336.063,256.044 344.139,255.742 346.849,254.025C351.432,251.12 389.095,198.77 367,197C344.905,195.23 321.67,215.926 319,217C319,217 299.228,206.496 285,212C270.772,217.504 263.08,222.264 271,232C278.92,241.736 287.294,258.732 290.972,260.815C294.65,262.899 299.855,253.112 334.072,255.883Z" style="stroke:rgb(245,224,143);stroke-width:2.11px;"/>
            </g>
            <path d="M279.478,243C293.758,246.059 313.155,237.207 322.635,229.375" style="fill:none;stroke:rgb(245,224,143);stroke-width:1.85px;"/>
            <g transform="matrix(1.22322,0,0,1.22322,-83.3836,-52.4573)">
                <path d="M373.544,225.889C373.544,225.889 365.657,226.495 364.687,226.945C363.719,227.557 360.937,230.593 360.936,231.331C360.935,231.995 363.559,234.776 364.252,234.905C364.831,235.012 369.425,234.316 369.425,234.316L373.544,225.889Z" style="fill:rgb(245,224,143);"/>
            </g>
        </g>
    </g>
    <defs>
        <linearGradient id="_Linear1" x1="0" y1="0" x2="1" y2="0" gradientUnits="userSpaceOnUse" gradientTransform="matrix(-0.818347,0.574724,0.574724,0.818347,0.936095,-0.295871)"><stop offset="0" style="stop-color:rgb(248,195,125);stop-opacity:1"/><stop offset="1" style="stop-color:rgb(243,237,151);stop-opacity:1"/></linearGradient>
        <linearGradient id="_Linear2" x1="0" y1="0" x2="1" y2="0" gradientUnits="userSpaceOnUse" gradientTransform="matrix(-0.818347,0.574724,0.574724,0.818347,0.93619,-0.295901)"><stop offset="0" style="stop-color:rgb(248,195,125);stop-opacity:1"/><stop offset="1" style="stop-color:rgb(243,237,151);stop-opacity:1"/></linearGradient>
        <linearGradient id="_Linear3" x1="0" y1="0" x2="1" y2="0" gradientUnits="userSpaceOnUse" gradientTransform="matrix(-0.818347,0.574724,0.574724,0.818347,0.936705,-0.296064)"><stop offset="0" style="stop-color:rgb(248,195,125);stop-opacity:1"/><stop offset="1" style="stop-color:rgb(243,237,151);stop-opacity:1"/></linearGradient>
        <linearGradient id="_Linear4" x1="0" y1="0" x2="1" y2="0" gradientUnits="userSpaceOnUse" gradientTransform="matrix(-0.818347,0.574724,0.574724,0.818347,0.935936,-0.295821)"><stop offset="0" style="stop-color:rgb(248,195,125);stop-opacity:1"/><stop offset="1" style="stop-color:rgb(243,237,151);stop-opacity:1"/></linearGradient>
        <linearGradient id="_Linear5" x1="0" y1="0" x2="1" y2="0" gradientUnits="userSpaceOnUse" gradientTransform="matrix(-0.818347,0.574724,0.574724,0.818347,0.936095,-0.295871)"><stop offset="0" style="stop-color:rgb(248,195,125);stop-opacity:1"/><stop offset="1" style="stop-color:rgb(243,237,151);stop-opacity:1"/></linearGradient>
        <linearGradient id="_Linear6" x1="0" y1="0" x2="1" y2="0" gradientUnits="userSpaceOnUse" gradientTransform="matrix(-0.818347,0.574724,0.574724,0.818347,0.936095,-0.295871)"><stop offset="0" style="stop-color:rgb(248,195,125);stop-opacity:1"/><stop offset="1" style="stop-color:rgb(243,237,151);stop-opacity:1"/></linearGradient>
        <linearGradient id="_Linear7" x1="0" y1="0" x2="1" y2="0" gradientUnits="userSpaceOnUse" gradientTransform="matrix(-0.818347,0.574724,0.574724,0.818347,0.936095,-0.295871)"><stop offset="0" style="stop-color:rgb(248,195,125);stop-opacity:1"/><stop offset="1" style="stop-color:rgb(243,237,151);stop-opacity:1"/></linearGradient>
        <linearGradient id="_Linear8" x1="0" y1="0" x2="1" y2="0" gradientUnits="userSpaceOnUse" gradientTransform="matrix(-0.818347,0.574724,0.574724,0.818347,0.936095,-0.295871)"><stop offset="0" style="stop-color:rgb(248,195,125);stop-opacity:1"/><stop offset="1" style="stop-color:rgb(243,237,151);stop-opacity:1"/></linearGradient>
        <linearGradient id="_Linear9" x1="0" y1="0" x2="1" y2="0" gradientUnits="userSpaceOnUse" gradientTransform="matrix(-0.818347,0.574724,0.574724,0.818347,0.936095,-0.295871)"><stop offset="0" style="stop-color:rgb(248,195,125);stop-opacity:1"/><stop offset="1" style="stop-color:rgb(243,237,151);stop-opacity:1"/></linearGradient>
        <linearGradient id="_Linear10" x1="0" y1="0" x2="1" y2="0" gradientUnits="userSpaceOnUse" gradientTransform="matrix(-0.818347,0.574724,0.574724,0.818347,0.936095,-0.295871)"><stop offset="0" style="stop-color:rgb(248,195,125);stop-opacity:1"/><stop offset="1" style="stop-color:rgb(243,237,151);stop-opacity:1"/></linearGradient>
        <linearGradient id="_Linear11" x1="0" y1="0" x2="1" y2="0" gradientUnits="userSpaceOnUse" gradientTransform="matrix(-0.818347,0.574724,0.574724,0.818347,0.936095,-0.295871)"><stop offset="0" style="stop-color:rgb(248,195,125);stop-opacity:1"/><stop offset="1" style="stop-color:rgb(243,237,151);stop-opacity:1"/></linearGradient>
        <linearGradient id="_Linear12" x1="0" y1="0" x2="1" y2="0" gradientUnits="userSpaceOnUse" gradientTransform="matrix(-0.818347,0.574724,0.574724,0.818347,0.936095,-0.295871)"><stop offset="0" style="stop-color:rgb(248,195,125);stop-opacity:1"/><stop offset="1" style="stop-color:rgb(243,237,151);stop-opacity:1"/></linearGradient>
        <linearGradient id="_Linear13" x1="0" y1="0" x2="1" y2="0" gradientUnits="userSpaceOnUse" gradientTransform="matrix(-0.818347,0.574724,0.574724,0.818347,0.936095,-0.295871)"><stop offset="0" style="stop-color:rgb(248,195,125);stop-opacity:1"/><stop offset="1" style="stop-color:rgb(243,237,151);stop-opacity:1"/></linearGradient>
        <linearGradient id="_Linear14" x1="0" y1="0" x2="1" y2="0" gradientUnits="userSpaceOnUse" gradientTransform="matrix(-0.818347,0.574724,0.574724,0.818347,0.936095,-0.295871)"><stop offset="0" style="stop-color:rgb(248,195,125);stop-opacity:1"/><stop offset="1" style="stop-color:rgb(243,237,151);stop-opacity:1"/></linearGradient>
        <linearGradient id="_Linear15" x1="0" y1="0" x2="1" y2="0" gradientUnits="userSpaceOnUse" gradientTransform="matrix(-0.818347,0.574724,0.574724,0.818347,0.936095,-0.295871)"><stop offset="0" style="stop-color:rgb(248,195,125);stop-opacity:1"/><stop offset="1" style="stop-color:rgb(243,237,151);stop-opacity:1"/></linearGradient>
        <linearGradient id="_Linear16" x1="0" y1="0" x2="1" y2="0" gradientUnits="userSpaceOnUse" gradientTransform="matrix(-0.818347,0.574724,0.574724,0.818347,0.936095,-0.295871)"><stop offset="0" style="stop-color:rgb(248,195,125);stop-opacity:1"/><stop offset="1" style="stop-color:rgb(243,237,151);stop-opacity:1"/></linearGradient>
    </defs>
</svg>
