<?xml version="1.0" standalone="no"?>
<!DOCTYPE svg PUBLIC "-//W3C//DTD SVG 1.1//EN" "http://www.w3.org/Graphics/SVG/1.1/DTD/svg11.dtd" >
<svg>
<metadata>
Created by FontForge 20120731 at Sat Jun  1 23:40:57 2019
 By www-data
Copyright (c) 2012  by Catfomts.de. All rights reserved.
</metadata>
<defs>
<font id="FetteUNZFraktur" horiz-adv-x="496" >
  <font-face 
    font-family="Fette UNZ Fraktur"
    font-weight="900"
    font-stretch="normal"
    units-per-em="1000"
    panose-1="0 0 0 0 0 0 0 0 0 0"
    ascent="800"
    descent="-200"
    x-height="528"
    cap-height="732"
    bbox="-143 -340 1055 932"
    underline-thickness="50"
    underline-position="-55"
    unicode-range="U+0020-FB05"
  />
<missing-glyph horiz-adv-x="323" 
 />
    <glyph glyph-name=".notdef" horiz-adv-x="323" 
 />
    <glyph glyph-name="exclam" unicode="!" horiz-adv-x="362" 
d="M173 236q0 33 -10 79t-23 94q-1 3 -1.5 5.5t-0.5 4.5q-14 51 -25 98.5t-11 79.5v7q0 46 27.5 72.5t60.5 27.5h3q32 0 57.5 -25.5t25.5 -81.5q0 -37 -12.5 -77.5t-27.5 -86.5q-13 -42 -24.5 -90.5t-14.5 -107.5zM173 197h24q0 -33 20.5 -56.5t45.5 -33.5q7 -3 14 -4.5
t14 -1.5v-22l-10 -2q-5 -1 -10 -3q-25 -9 -46.5 -34.5t-26.5 -52.5l-1 -1v-2h-24v2l-1 1q-6 33 -32 62t-61 29v24q40 -1 66.5 28t27.5 63v4z" />
    <glyph glyph-name="quotedbl" unicode="&#x22;" horiz-adv-x="591" 
d="M148 628q0 31 23.5 48t41.5 17h3q17 -1 38.5 -14.5t21.5 -39.5q0 -4 -0.5 -8t-1.5 -9l-38 -276q0 -25 -8.5 -36.5t-18.5 -11.5q-11 0 -19.5 11.5t-8.5 35.5zM333 626v7q-1 32 20.5 45.5t39.5 13.5t39.5 -14t21.5 -45v-10l-37 -284q0 -20 -7.5 -30t-18.5 -10h-4
q-8 2 -15 11.5t-10 27.5z" />
    <glyph glyph-name="numbersign" unicode="#" horiz-adv-x="646" 
d="M205 488l31 189h87l-32 -189h103l31 189h87l-32 -189h63v-86h-71l-15 -119h63v-86h-79l-32 -197h-86l31 197h-102l-32 -197h-86l31 197h-71v86h79l16 119h-71v86h87zM378 402h-95l-15 -119h94z" />
    <glyph glyph-name="dollar" unicode="$" horiz-adv-x="646" 
d="M315 731v112h24v-111q92 -11 160 -55t68 -116v-11q-6 -40 -35.5 -63t-64.5 -26q-3 -1 -6 -1h-6q-33 0 -59 20t-26 62q0 7 1.5 14t4.5 15q7 20 23.5 37t41.5 21q16 0 23.5 9t5.5 19q-1 5 -4 10t-9 9q-4 3 -9.5 6.5t-11.5 6.5q-18 10 -42 18.5t-55 8.5v-251q8 -5 16.5 -8.5
t16.5 -6.5q93 -43 152.5 -92t59.5 -129q0 -25 -6 -52.5t-19 -59.5q-16 -42 -58 -71t-88 -43q-19 -5 -38 -8t-36 -3v-149h-24v149q-108 0 -169.5 42t-79.5 94q-3 10 -5 21t-2 21q0 32 17 56.5t50 32.5q4 1 7.5 1.5t7.5 1.5q3 0 6.5 0.5t7.5 0.5q39 -1 69 -24t31 -58
q0 -16 -8 -34.5t-27 -37.5l-3 -3q-12 -11 -23.5 -14.5t-19.5 -5.5t-12.5 -5t-4.5 -11q0 -20 39 -37.5t85 -23.5q9 -1 17.5 -1.5t16.5 -0.5v253q-11 5 -22.5 10t-22.5 10q-2 1 -3.5 1.5t-2.5 1.5q-48 21 -92.5 46t-77.5 72q-13 19 -19.5 44.5t-7.5 53.5q0 11 1 22.5t4 23.5
q13 68 71 125t172 61zM341 7h3q1 -1 2 -1h2q9 0 18.5 1.5t18.5 4.5q40 13 73 45.5t34 69.5q0 3 -0.5 5.5t-0.5 5.5q-1 3 -1.5 5.5t-1.5 5.5q-12 38 -40.5 55.5t-60.5 31.5q-1 0 -2 1t-3 1l-22 10q-11 5 -21 11v-251q1 -1 2 -1zM315 717q-67 -6 -105 -42t-38 -80v-7
q0 -3 1 -6q4 -29 27.5 -49.5t51.5 -34.5q18 -9 35 -15.5t28 -11.5v246z" />
    <glyph glyph-name="percent" unicode="%" horiz-adv-x="811" 
d="M598 339q85 -1 129.5 -56t46.5 -121v-6q0 -65 -41.5 -118.5t-126.5 -53.5q-87 0 -132 55t-46 122v3q0 65 42 118t128 56v1zM213 677q82 -4 123 -57t42 -116v-3q0 -64 -41 -117.5t-124 -53.5q-93 0 -138 54t-45 118q0 65 44.5 119.5t130.5 54.5h8v1zM583 677l39 -16
l-409 -669l-32 24zM252 630q0 16 -14.5 25t-32.5 9t-33 -8.5t-15 -26.5v-235q0 -24 14.5 -37t31.5 -14h3q17 -1 31.5 11.5t14.5 38.5v237zM646 37v251q1 18 -12.5 27t-30.5 9q-16 0 -30 -9t-14 -27v-241q0 -27 14.5 -40t31.5 -13q16 -1 28.5 10t12.5 33z" />
    <glyph glyph-name="ampersand" unicode="&#x26;" horiz-adv-x="811" 
d="M205 409q-16 26 -24 52.5t-8 51.5q0 80 62 138t136 65q5 1 9 1h20q2 0 4.5 -0.5t4.5 -0.5q56 -6 83.5 -42.5t28.5 -79.5q0 -39 -24 -72.5t-72 -42.5q4 -2 7 -4.5t7 -4.5q19 -14 35.5 -27.5t32.5 -25.5q9 -6 18 -12.5t18 -11.5q1 3 2.5 6.5t2.5 7.5q6 17 12.5 40t15.5 47
q16 43 44 79t81 40h10q51 1 86 -33t35 -80q0 -7 -1 -15t-3 -16q-4 -11 -10 -22.5t-15 -22.5q-12 -13 -27 -19.5t-31 -6.5q-32 0 -59 20.5t-28 53.5q0 16 8 33.5t27 36.5q18 18 28.5 30t-12.5 18q-2 0 -3.5 0.5t-3.5 0.5q-2 1 -4 1h-3q-46 0 -77.5 -60.5t-58.5 -154.5
q65 -35 101 -91.5t41 -117.5q1 -4 1 -9v-9q0 -83 -63 -148.5t-196 -65.5h-17q-8 0 -17 1v24q5 -1 9 -1h9q59 0 90 36t31 79v5q-1 28 -16 53.5t-44 38.5q-30 -94 -90 -138t-126 -49q-5 -1 -10 -1h-9q-45 0 -87 16t-72 46q-36 36 -51 71t-15 69q0 55 31 101.5t68 76.5
q22 18 43 29.5t35 14.5v1zM213 394q-19 -16 -29.5 -32.5t-14.5 -32.5q-2 -6 -2.5 -11.5t-0.5 -10.5q0 -35 22.5 -68t55.5 -59q6 -4 11.5 -8t11.5 -8q29 -18 57.5 -28.5t54.5 -10.5q29 -1 53 14t40 49q-29 20 -66 46t-76 56q-31 24 -61 50.5t-56 52.5v1zM417 488
q20 15 33 36.5t19 44.5q2 10 3.5 20t1.5 19q1 32 -12 54t-37 22h-5q-31 0 -51 -27t-20 -63q0 -4 0.5 -8t0.5 -8q4 -27 19.5 -51t47.5 -40v1z" />
    <glyph glyph-name="quotesingle" unicode="'" horiz-adv-x="346" 
d="M71 590v24q25 3 46.5 20t34.5 37q5 8 8 15t5 14l24 1q6 -31 28.5 -53.5t58.5 -34.5v-22q-18 -7 -37 -23t-42 -81q-6 -15 -11 -28.5t-10 -25.5q-16 -41 -36 -70.5t-61 -56.5v25q26 14 41 38t22 50q4 16 6 31.5t2 28.5q0 7 -0.5 14t-2.5 15q-5 24 -22.5 46t-53.5 36z" />
    <glyph glyph-name="parenleft" unicode="(" horiz-adv-x="346" 
d="M346 -205v-23q-97 40 -159 94.5t-98 112.5q-39 61 -54.5 119t-18.5 98v12q-1 3 -1 6v7q0 30 3 61t10 63q23 112 98 215t220 156v-23q-64 -25 -98.5 -88.5t-34.5 -164.5v-346q0 -23 4.5 -62.5t17.5 -82.5q14 -48 40.5 -91.5t70.5 -62.5z" />
    <glyph glyph-name="parenright" unicode=")" horiz-adv-x="346" 
d="M0 -228v23q62 9 93 67.5t42 127.5q4 22 5.5 44.5t1.5 43.5v300q0 100 -29.5 185.5t-112.5 120.5v25q170 -68 253.5 -194t89.5 -263v-17q0 -150 -88 -280.5t-255 -182.5z" />
    <glyph glyph-name="asterisk" unicode="*" horiz-adv-x="402" 
d="M197 535q0 17 -6 32.5t-14 29.5l-1 1v1q-7 14 -13 29t-6 32v5q-1 22 15 33.5t35 11.5q17 0 31 -10t14 -32v-8q0 -3 -0.5 -6t-0.5 -6q-2 -10 -6.5 -21t-8.5 -21q-7 -14 -12 -29t-5 -31v-6q0 -3 1 -6q10 8 18 16.5t15 17.5q6 8 11.5 16t11.5 15q7 10 14.5 17.5t16.5 12.5
q6 3 12 4.5t11 1.5q20 0 32.5 -16t12.5 -36q0 -13 -7 -24.5t-22 -16.5q-6 -2 -17 -3.5t-24 -2.5q-3 -1 -5.5 -1t-5.5 -1q-22 -2 -40 -5.5t-18 -9.5q12 -9 25.5 -12.5t27.5 -5.5q6 0 11.5 -0.5t10.5 -1.5q9 0 18 -1t17 -3q17 -5 24 -16t8 -24v-5q-2 -19 -16 -34t-34 -15
q-9 0 -18 3.5t-19 11.5q-6 6 -13 18t-16 26q-9 13 -19.5 25t-22.5 18q0 -21 5.5 -38.5t11.5 -32.5q5 -11 9 -20.5t6 -18.5q2 -4 2.5 -8.5t0.5 -8.5q0 -20 -15 -31t-33 -11q-19 0 -34.5 12.5t-15.5 39.5v7q0 9 6.5 23.5t13.5 31.5q8 16 14 31t6 24q-15 -6 -24.5 -15.5
t-15.5 -19.5q-4 -6 -7.5 -12t-6.5 -11q-2 -4 -4 -7t-5 -6q-6 -8 -12.5 -13.5t-12.5 -9.5q-7 -4 -13.5 -5.5t-12.5 -1.5q-19 0 -32.5 13t-14.5 31q0 5 1 10t4 11q2 5 5.5 10t8.5 10q9 9 25.5 12t34.5 4h6q17 2 33 5t27 11q-9 9 -25 11.5t-34 3.5h-8q-16 0 -29.5 1.5
t-21.5 6.5q-13 8 -19 19t-6 22q0 20 15 35.5t34 16.5q8 0 16 -3t15 -11q2 -2 3.5 -4t3.5 -4q6 -7 11 -14.5t11 -15.5q11 -17 23.5 -31t26.5 -18v1z" />
    <glyph glyph-name="plus" unicode="+" horiz-adv-x="598" 
d="M252 299v205h102v-205h205v-102h-205v-197h-102v197h-205v102h205z" />
    <glyph glyph-name="comma" unicode="," horiz-adv-x="323" 
d="M55 78v24q25 3 47 20t34 37q5 8 8.5 15t5.5 14l23 1q6 -30 29 -53t58 -35v-22q-2 -2 -3.5 -2.5t-3.5 -0.5q-16 -6 -33 -24t-39 -76q-5 -14 -9.5 -26.5t-9.5 -23.5q-15 -41 -35 -70.5t-59 -56.5q-1 -1 -2.5 -2t-2.5 -2v24q26 15 41 39.5t22 51.5q5 16 6.5 31t1.5 28
q0 8 -1 15.5t-3 15.5q-5 22 -22.5 43.5t-52.5 34.5z" />
    <glyph glyph-name="hyphen" unicode="-" horiz-adv-x="441" 
d="M79 315h275v-79h-275v79z" />
    <glyph glyph-name="period" unicode="." horiz-adv-x="323" 
d="M173 197q6 -36 26 -59t61 -29v-22q-35 -13 -58 -37t-29 -58h-23q-4 24 -20.5 45t-35.5 34q-8 6 -16 9.5t-15 5.5v24q41 5 58 25t29 61z" />
    <glyph glyph-name="slash" unicode="/" horiz-adv-x="252" 
d="M189 717h79l-205 -725h-79z" />
    <glyph glyph-name="zero" unicode="0" horiz-adv-x="646" 
d="M315 685q159 -7 235 -112t76 -231v-3q0 -130 -78 -238.5t-225 -108.5q-148 0 -222 105.5t-75 232.5v6q2 126 74.5 232.5t214.5 115.5v1zM386 598q0 31 -20.5 48.5t-46.5 17.5h-3q-24 -1 -44 -19t-20 -55v-511q3 -35 23 -53t43 -19h3q25 -1 45 17t20 54v520z" />
    <glyph glyph-name="one" unicode="1" horiz-adv-x="425" 
d="M126 86v380q0 1 1 3v8q0 4 -0.5 9t-1.5 10q-3 12 -11.5 21.5t-26.5 9.5l-79 1v23h71q48 -1 89.5 28.5t65.5 65.5q6 8 10.5 15.5t7.5 15.5l71 1v-598q0 -25 11 -40.5t28 -15.5l87 1v-24h-441v24h79q23 -1 31 9.5t8 52.5z" />
    <glyph glyph-name="two" unicode="2" horiz-adv-x="567" 
d="M94 157q29 11 60.5 15.5t63.5 4.5q19 0 38 -1l38 -2q18 -1 35.5 -2t33.5 -1h16q8 0 15 1q51 0 92.5 12t41.5 83v15l23 1q-3 -163 -52.5 -226t-115.5 -64q-15 0 -30 2.5t-30 6.5q-41 13 -80 39.5t-70 59.5l-10 9q-4 5 -9 9q-16 14 -32.5 20t-29.5 6q-16 0 -27 -8t-11 -22
q-1 -7 3.5 -16.5t13.5 -20.5q16 -19 22.5 -34.5t6.5 -26.5q0 -13 -8.5 -20t-19.5 -7h-6q-8 1 -15 5.5t-12 11.5q-5 10 -8 21.5t-3 24.5q0 43 32.5 99t104.5 115q47 38 84.5 80.5t59.5 84.5q14 26 21 51.5t7 50.5q0 5 -0.5 10.5t-1.5 10.5q-1 11 -4 21.5t-8 20.5
q-16 32 -45.5 47t-62.5 16h-5q-37 0 -70 -15t-46 -40q-3 -6 -4 -10.5t-2 -8.5q0 -13 11.5 -17t24.5 -6q2 0 3 -0.5t3 -0.5q5 -1 10.5 -2t9.5 -2q38 -10 54.5 -29.5t16.5 -42.5v-8q-4 -35 -36.5 -64t-72.5 -29q-21 0 -41.5 9t-39.5 30q-16 19 -23.5 40t-7.5 43v11
q5 62 70 113.5t183 51.5q20 0 41.5 -1.5t44.5 -5.5q17 -3 35.5 -9t38.5 -16q51 -26 94 -73.5t43 -110.5q0 -23 -7 -47.5t-23 -50.5q-26 -41 -83.5 -66.5t-121.5 -44.5q-23 -6 -45.5 -12t-43.5 -12q-56 -16 -94 -33.5t-38 -43.5z" />
    <glyph glyph-name="three" unicode="3" horiz-adv-x="567" 
d="M118 370h118q59 -1 77 37.5t18 103.5q0 79 -30.5 113t-67.5 40q-5 1 -10.5 1.5t-11.5 0.5q-23 0 -42 -6.5t-27 -14.5q-5 -6 -8 -10.5t-3 -8.5q0 -9 10 -16t24 -13q3 -2 7 -3.5t8 -3.5q17 -7 31 -16.5t17 -23.5q2 -7 3.5 -14t1.5 -13q0 -38 -31.5 -58.5t-68.5 -21.5h-3
q-37 0 -68 20.5t-31 63.5v5q0 83 68 121.5t153 38.5h11q6 0 12 -1q85 -4 157 -41.5t80 -99.5q1 -8 1.5 -15.5t0.5 -15.5q0 -75 -35.5 -108t-77.5 -43q-10 -3 -20 -4.5t-19 -2.5q10 -5 36.5 -13.5t55.5 -23.5q36 -19 66.5 -52.5t30.5 -88.5v-11q-3 -91 -76.5 -132.5
t-160.5 -49.5q-14 -2 -28.5 -2.5t-28.5 -0.5q-53 0 -97.5 7.5t-65.5 20.5q-33 19 -52 40.5t-28 44.5q-5 12 -7 24t-2 24q-1 28 10 49.5t24 29.5q20 11 39 16t35 5q44 0 69.5 -28t25.5 -63v-5q-1 -25 -19 -48.5t-55 -33.5q-10 -3 -15.5 -9t-5.5 -14q0 -2 0.5 -4t1.5 -4
q2 -4 7 -8t12 -8q15 -7 35 -12.5t41 -5.5h11q43 4 78.5 36.5t39.5 114.5v49q-1 51 -19 93.5t-84 46.5l-118 1v24z" />
    <glyph glyph-name="four" unicode="4" horiz-adv-x="591" 
d="M276 157h-276v40l339 480h126v-472h102v-40h-102v-102q0 -30 8.5 -35t38.5 -5l63 1v-24h-410v24h55q24 -1 40 6.5t16 31.5v95zM276 205v330l-237 -330h237z" />
    <glyph glyph-name="five" unicode="5" horiz-adv-x="591" 
d="M63 677q18 -2 42 -5t52 -7l42 -4q21 -2 43 -4q17 -1 34.5 -2t33.5 -1q59 0 101.5 13t45.5 49l15 1q-13 -125 -86 -171t-174 -47q-30 0 -61.5 3.5t-63.5 8.5v-157q31 52 87.5 76.5t120.5 25.5h14q92 -4 169 -57t81 -148q0 -136 -101 -201.5t-238 -65.5q-85 0 -138 42
t-65 93q-2 7 -3 14.5t-1 14.5q-1 26 11.5 49t38.5 38q8 5 15.5 8t15.5 5t16 3t15 1q41 0 70 -23.5t29 -57.5q0 -12 -4.5 -25t-14.5 -26q-8 -11 -20 -21.5t-28 -20.5l-7 -3q-6 -2 -13 -7q-11 -7 -18 -17t7 -21q14 -10 35 -17t46 -7q6 0 12.5 0.5t12.5 1.5q47 8 85.5 50.5
t38.5 140.5q0 10 -0.5 21t-1.5 23q-9 99 -40 142t-72 43q-11 0 -22.5 -2.5t-23.5 -7.5q-29 -14 -57.5 -43t-51.5 -69l-24 1q3 39 4.5 83t1.5 90q0 29 -0.5 58.5t-1.5 58.5l-2 40q-1 20 -2 39v1z" />
    <glyph glyph-name="six" unicode="6" horiz-adv-x="606" 
d="M252 346q17 37 51 55.5t74 18.5q8 0 16.5 -0.5t16.5 -2.5q65 -11 119 -62.5t54 -135.5q0 -13 -1.5 -27t-5.5 -28q-14 -60 -71.5 -111.5t-181.5 -60.5h-11q-125 -1 -199 104.5t-81 232.5q-1 6 -1 12v12q3 144 82.5 225t174.5 103q18 5 36 7t35 2q68 0 120.5 -31t63.5 -93
v-3q0 -1 1 -3v-6q0 -39 -26.5 -56.5t-60.5 -17.5h-10q-35 3 -64.5 22.5t-29.5 53.5v2q0 2 1 3v5q2 11 11.5 19.5t19.5 15.5q3 2 5.5 3.5t4.5 3.5q9 6 15.5 12.5t6.5 14.5q0 4 -1.5 8.5t-6.5 9.5q-4 6 -16.5 10.5t-29.5 4.5q-7 0 -14 -1l-14 -2q-24 -6 -45 -23.5t-30 -51.5
q-4 -29 -7.5 -61.5t-3.5 -81.5q0 -22 1 -47t2 -55v1zM370 339q0 20 -13 35.5t-31 15.5q-4 0 -7.5 -0.5t-7.5 -2.5q-14 -5 -28 -24.5t-23 -56.5q-3 -18 -4.5 -46t-1.5 -58v-13q0 -35 1.5 -65.5t4.5 -45.5q3 -27 19.5 -44t36.5 -20h6q17 0 31 13.5t17 42.5q3 23 4.5 58t1.5 72
q0 40 -1.5 77t-4.5 61v1z" />
    <glyph glyph-name="seven" unicode="7" horiz-adv-x="480" 
d="M488 528q-25 -29 -56.5 -41.5t-64.5 -14.5q-5 -1 -10 -1h-10q-26 0 -50 4t-44 8q-5 1 -9 2l-8 2q-6 1 -13 3t-14 3q-13 3 -26.5 6t-28.5 4q-3 1 -6 1h-6q-41 0 -74 -29.5t-37 -121.5l-23 1q3 24 4.5 60.5t1.5 75.5v20q0 46 -1.5 85t-4.5 58v4l-1 1v2q0 14 7 20.5t16 6.5
h3q11 0 20.5 -10.5t9.5 -31.5v-5q0 -29 -6 -60.5t-18 -76.5q35 94 79 135.5t90 45.5h11q52 1 100.5 -36t82.5 -90q9 -14 20.5 -20t23.5 -6q15 0 26.5 9t11.5 22q0 7 -3.5 14t-10.5 14q-4 3 -9 7t-12 7q-9 6 -16 11.5t-11 11.5t-6 11.5t-2 11.5q0 17 14 29t32 12h5
q14 -2 27 -13t20 -34q2 -7 3 -14t2 -13q0 -7 0.5 -14t0.5 -14q0 -39 -11.5 -75t-34.5 -67q-5 -7 -9.5 -14.5t-9.5 -14.5q-4 -5 -7.5 -11t-7.5 -11q-33 -49 -58.5 -105.5t-25.5 -150.5v-9q0 -74 -39.5 -110t-86.5 -36q-44 0 -81 32.5t-37 97.5v9q0 18 2.5 35t8.5 34
q12 34 44 69.5t95 74.5q9 6 19 11.5t21 11.5q13 6 26.5 12.5t27.5 13.5q45 23 84 55t50 85v1z" />
    <glyph glyph-name="eight" unicode="8" horiz-adv-x="646" 
d="M581 347q38 -47 43 -98q1 -5 1 -10v-8q0 -28 -7.5 -55t-19.5 -51q-34 -70 -109 -100.5t-160 -30.5h-6q-108 1 -198.5 43.5t-100.5 111.5q0 2 -0.5 4t-0.5 5v8q0 46 33 78.5t109 53.5q-70 30 -102 80t-32 109q7 112 91.5 160t184.5 50h9q55 0 107 -12t89 -32
q39 -21 59.5 -49.5t20.5 -58.5q0 -37 -33 -70.5t-100 -50.5q85 -30 122 -77zM189 283q-31 -19 -49.5 -52.5t-18.5 -71.5v-4q1 -47 37 -88.5t118 -51.5q13 -2 25 -3t23 -1q78 0 124 34t54 74q0 3 0.5 6.5t0.5 6.5q0 25 -17 46.5t-53 33.5zM425 433q33 18 49 46t16 58v4
q-1 45 -37.5 85t-106.5 50q-10 2 -19 2h-17q-66 0 -105.5 -29.5t-46.5 -64.5q0 -4 -0.5 -7t-0.5 -6q0 -20 11.5 -38.5t36.5 -29.5z" />
    <glyph glyph-name="nine" unicode="9" horiz-adv-x="606" 
d="M354 339q-18 -44 -56.5 -65.5t-82.5 -21.5q-6 0 -12.5 0.5t-13.5 1.5q-63 8 -116.5 56t-56.5 130q0 21 5 49t18 58q24 54 82.5 99.5t169.5 45.5q110 0 182.5 -84t89.5 -186q2 -13 3 -26.5t1 -26.5q0 -30 -3.5 -65t-13.5 -71q-21 -82 -80 -153.5t-179 -87.5
q-11 -2 -23 -2.5t-24 -0.5q-70 -1 -127 29t-62 91q0 2 -0.5 3.5t-0.5 3.5v6q0 40 30.5 60.5t67.5 20.5q36 0 66.5 -19.5t33.5 -58.5q0 -23 -10.5 -38t-22.5 -24q-11 -9 -20.5 -15t-11.5 -12l-1 -2v-4q0 -1 1 -3q2 -3 6.5 -5.5t11.5 -6.5q3 -2 6.5 -3.5t6.5 -2.5
q7 -2 13.5 -3t12.5 -1q46 -1 78 52.5t32 146.5v135zM339 591q-3 37 -20.5 56t-37.5 19q-20 1 -36.5 -18.5t-16.5 -57.5v-237q3 -31 14.5 -46.5t27.5 -15.5q5 0 10 1t10 4q14 8 28 28.5t21 52.5q2 11 3.5 36t1.5 56v32q-1 24 -2 47.5t-3 41.5v1z" />
    <glyph glyph-name="colon" unicode=":" horiz-adv-x="323" 
d="M173 197q6 -36 26 -59t61 -29v-22q-35 -13 -58 -37t-29 -58h-23q-4 24 -20.5 45t-35.5 34q-8 6 -16 9.5t-15 5.5v24q41 5 58 25t29 61zM173 520q6 -37 26 -59.5t61 -28.5v-23q-35 -12 -58 -36t-29 -59l-23 1q-4 24 -20.5 45t-35.5 34q-8 5 -16 8.5t-15 5.5v25q41 5 58 25
t29 61z" />
    <glyph glyph-name="semicolon" unicode=";" horiz-adv-x="323" 
d="M55 78v24q25 3 47 20t34 37q5 8 8.5 15t5.5 14l23 1q6 -30 29 -53t58 -35v-22q-2 -2 -3.5 -2.5t-3.5 -0.5q-16 -6 -33 -24t-39 -76q-5 -14 -9.5 -26.5t-9.5 -23.5q-15 -41 -35 -70.5t-59 -56.5q-1 -1 -2.5 -2t-2.5 -2v24q26 15 41 39.5t22 51.5q5 16 6.5 31t1.5 28
q0 8 -1 15.5t-3 15.5q-5 22 -22.5 43.5t-52.5 34.5zM165 520q6 -37 26 -59.5t61 -28.5v-23q-35 -12 -58 -36t-29 -59l-23 1q-4 24 -21 45.5t-37 34.5q-8 5 -15 8.5t-14 4.5v25q41 5 58 25t29 61z" />
    <glyph glyph-name="less" unicode="&#x3c;" horiz-adv-x="598" 
d="M47 299l504 221l1 -37l-288 -224l287 -231v-28l-504 213v86z" />
    <glyph glyph-name="equal" unicode="=" horiz-adv-x="598" 
d="M559 102h-512v103h512v-103zM47 417h512v-102h-512v102z" />
    <glyph glyph-name="greater" unicode="&#x3e;" horiz-adv-x="598" 
d="M559 213l-512 -224l-2 36l290 235l-290 223l2 29l512 -213v-86z" />
    <glyph glyph-name="question" unicode="?" horiz-adv-x="441" 
d="M299 378h24q1 -5 1 -10v-9q0 -60 -30 -88t-66 -28q-35 0 -64.5 24.5t-29.5 69.5v8q1 12 4 24t8 24q7 17 17 34l20 34q18 31 33.5 62.5t15.5 63.5q0 18 -6.5 36t-20.5 37q-10 13 -26.5 19t-34.5 6h-7q-14 -1 -27.5 -5.5t-22.5 -11.5q-11 -7 -16 -12t-6 -9q0 -5 5.5 -8
t15.5 -6q8 -3 18.5 -5.5t21.5 -6.5q19 -7 27 -20.5t8 -27.5v-4q0 -2 -1 -4q-3 -27 -25 -49t-51 -23q-5 0 -10 0.5t-10 2.5q-10 3 -20 11t-20 20q-11 14 -16 28.5t-5 27.5q-1 49 50.5 86.5t114.5 45.5q7 1 14 1.5t14 0.5h12q6 0 12 -1q76 -8 120.5 -46t56.5 -83q3 -9 4 -17.5
t1 -17.5q0 -16 -4 -30.5t-12 -26.5q-18 -27 -45.5 -46t-56.5 -35q-3 -2 -6 -3.5t-5 -3.5q-27 -15 -51.5 -31.5t-40.5 -37.5q-7 -8 -10 -16t-3 -16q-1 -19 16.5 -32.5t39.5 -13.5q3 0 6 0.5t6 0.5q23 4 43 28.5t20 76.5v12zM228 197q6 -36 26 -59t61 -29v-22q-35 -13 -58 -37
t-29 -58h-23q-4 24 -21 46t-37 34q-8 5 -15 8.5t-14 5.5v24q41 5 58 25t29 61z" />
    <glyph glyph-name="at" unicode="@" horiz-adv-x="795" 
d="M633 102l5 -39q-45 -33 -98 -49t-108 -18h-19q-127 1 -236.5 77.5t-129.5 224.5q-2 15 -3 30t-1 28q-1 138 76.5 220.5t169.5 115.5q34 12 66.5 18t61.5 6q135 0 234 -84.5t99 -218.5q0 -31 -6 -63.5t-20 -67.5q-17 -47 -54 -78t-77 -41q-9 -2 -17.5 -3t-17.5 -1
q-32 0 -59.5 16.5t-41.5 51.5q-14 -27 -36 -44t-46 -23q-8 -2 -15 -3t-14 -1q-55 0 -89 32.5t-41 84.5q-2 27 0 43.5t6 32.5q15 67 69.5 124.5t110.5 68.5q4 1 8 1.5t8 1.5q4 0 8 0.5t8 0.5q19 0 36 -9.5t28 -42.5l8 33h109l-67 -289q-3 -26 1 -35t16 -9q7 0 21 8.5t36 35.5
q26 36 40 72.5t16 74.5v14q0 95 -58.5 173t-105.5 96.5t-92.5 16.5t-93.5 -26t-112 -110.5t-65 -205.5q0 -15 1.5 -30.5t3.5 -31.5q3 -16 7 -31.5t10 -30.5q30 -82 98.5 -134t154.5 -52q17 0 34 0.5t48.5 8t62.5 23.5t62 36v1zM457 488q-45 -4 -73.5 -45.5t-39.5 -90.5
q-3 -15 -4.5 -29.5t-1.5 -27.5q-2 -39 2.5 -63.5t18.5 -31.5t31 -0.5t41 51t40 100.5q14 49 10 92.5t-24 44.5z" />
    <glyph glyph-name="A" unicode="A" horiz-adv-x="756" 
d="M504 598q19 38 55 60.5t75 34.5q32 9 62.5 12t51.5 3v-15q-50 -1 -67 -18.5t-19 -38.5q-1 -4 -1 -8v-415q0 -38 8.5 -63t25.5 -26q8 0 17 6t20 19l16 -7l-165 -142q-59 28 -77 64t-18 100l-181 -164q-5 7 -15.5 20t-26.5 27q-21 20 -48.5 36.5t-56.5 19.5h-7
q-25 1 -48 -14t-42 -51l-16 9q24 46 46 71.5t45 43.5q4 4 9 7.5t9 7.5q18 13 35.5 28t36.5 38q14 17 20.5 58t6.5 91v18q0 9 -1 19q-2 48 -8.5 93.5t-17.5 74.5q-14 37 -37 54t-48 19h-6q-31 0 -56 -19.5t-25 -45.5q0 -5 1.5 -11t3.5 -11q7 -13 22.5 -25.5t42.5 -23.5
q35 -14 58 -54t24 -86v-5q-1 -46 -32.5 -87t-104.5 -59v17q27 7 45 17.5t27 22.5q5 5 7 11t2 11q0 8 -6.5 14.5t-19.5 8.5q-56 18 -90.5 64.5t-34.5 102.5q0 13 2 26.5t6 26.5q9 27 26 53t44 50q28 24 64.5 36.5t75.5 12.5h11q76 -4 139.5 -60t63.5 -178q0 -106 -36 -149
t-96 -74q-17 -8 -35 -17.5t-38 -19.5q15 -3 31 -8t33 -11q38 -13 71.5 -33.5t45.5 -49.5l79 72v323q0 19 -2.5 46t-8.5 56q-6 23 -14.5 45.5t-21.5 40.5l16 9q23 -25 32 -53.5t15 -58.5v1z" />
    <glyph glyph-name="B" unicode="B" horiz-adv-x="827" 
d="M417 606q10 56 51.5 82t89.5 26q43 0 81 -18t54 -51q8 -14 11 -33t5 -40q3 -36 12 -66t45 -30q5 0 10 1t11 2v-14q-23 -1 -46 -5.5t-44 -9.5q-10 -3 -19 -5.5t-17 -4.5q7 -9 22 -20t31 -26q22 -19 40 -47t18 -68q0 -12 -2 -25t-6 -27q-30 -90 -104 -149t-156 -78
q-20 -4 -39 -6.5t-38 -2.5q-42 0 -79 11t-65 36q-64 54 -103.5 81t-63.5 27q-21 0 -33 -19t-20 -57l-16 1q0 4 0.5 9t0.5 10q7 54 52.5 100.5t143.5 52.5q1 9 3.5 25t4.5 36q3 24 5.5 53t3.5 60q1 10 1 20v20q0 29 -2 55.5t-8 45.5q-13 43 -32.5 66.5t-39.5 32.5
q-7 3 -14 4.5t-14 1.5q-27 0 -47.5 -16.5t-24.5 -36.5q-1 -2 -1 -4v-4q-1 -10 4.5 -19.5t18.5 -16.5q53 -28 77.5 -64.5t24.5 -74.5q0 -52 -43 -97.5t-122 -62.5v16q3 -1 5.5 -1t4.5 1q26 3 47 18.5t22 35.5q0 4 -1 8t-4 8q-3 6 -9.5 12.5t-16.5 11.5q-40 22 -58.5 56
t-18.5 71q0 5 0.5 10.5t0.5 11.5q6 39 27.5 75.5t55.5 58.5q11 8 22.5 14t22.5 11q28 13 56 18.5t54 5.5q63 0 110 -29.5t58 -74.5v1zM335 211q35 -20 64 -43q34 -28 57 -52t32 -30q5 -4 9.5 -7.5t9.5 -6.5q14 -9 28 -13t27 -4q42 0 70.5 31.5t30.5 68.5v3q0 10 -2 19.5
t-7 18.5q-6 12 -19 37.5t-39 53.5q-25 28 -64.5 53t-98.5 37q-34 -52 -78 -80t-90 -52q-2 0 -3 -1h-1q39 -12 74 -33zM661 457q-81 14 -99.5 50.5t-18.5 78.5v27q-3 29 -18 44.5t-32 17.5h-3q-17 0 -31.5 -15t-17.5 -47q-1 -6 -1.5 -13t-0.5 -14q0 -4 -0.5 -8t-0.5 -8
q0 -10 0.5 -21.5t0.5 -23.5q0 -6 0.5 -12.5t0.5 -12.5v-24q1 -22 -0.5 -43.5t-6.5 -38.5z" />
    <glyph glyph-name="C" unicode="C" horiz-adv-x="740" 
d="M449 630l134 87q28 -53 54 -72.5t49 -19.5q17 0 32.5 6.5t29.5 13.5v-15q-22 -40 -56.5 -61.5t-75.5 -22.5q-34 0 -72.5 16.5t-78.5 50.5q-13 -9 -20 -20t-7 -24t6.5 -27t20.5 -31q55 -61 89 -109t46 -93q3 -12 4.5 -24.5t1.5 -25.5q-3 -62 -49 -99t-102 -37h-7
q-54 2 -101 45t-56 138l16 1q3 -14 9 -35t16 -44q8 -17 19.5 -34t26.5 -30q7 -6 15.5 -9.5t17.5 -5.5q2 0 5 -0.5t6 -0.5q15 -1 25.5 7t10.5 24q0 18 -15.5 47.5t-56.5 71.5q-46 48 -63.5 86.5t-17.5 67.5q0 28 11 49t24 36q9 10 17 17t13 12l63 56q-14 31 -36 49t-45 18h-5
q-2 0 -4 -1q-41 -6 -76 -79t-39 -240q-3 -189 72 -269.5t167 -80.5h13q86 5 159.5 67t84.5 157l16 1q-7 -127 -103 -191t-216 -64q-10 0 -20 0.5t-20 1.5q-135 10 -248.5 104t-116.5 274q0 141 68.5 224.5t150.5 110.5q20 6 39.5 9.5t38.5 3.5q49 0 86.5 -22t49.5 -66v1z
" />
    <glyph glyph-name="D" unicode="D" horiz-adv-x="795" 
d="M346 543q-2 -1 -4 -1h-2q-48 -1 -94 -9t-81 -18q-11 -3 -21 -6t-18 -6q-38 -15 -57 -39.5t-21 -50.5v-6q0 -34 28 -62t80 -28q17 0 34.5 3t37.5 10v-15q-19 -8 -36 -12t-34 -4q-61 -1 -99.5 44t-38.5 110q0 21 4.5 43.5t14.5 45.5q36 80 131.5 125.5t204.5 45.5h13
q7 0 14 -1q135 -6 250 -93t128 -274v-6q0 -2 1 -4v-10q0 -152 -102 -240.5t-225 -93.5h-14q-32 -1 -64 5t-61 19q-12 5 -30 16.5t-39 25.5q-14 8 -29 16.5t-30 14.5q-14 6 -28 9.5t-27 3.5q-25 1 -45 -15t-32 -56l-16 1q29 104 85 145.5t122 42.5q19 0 38 -2.5t38 -7.5
q24 -7 48 -16t47 -21q15 12 21.5 22.5t7.5 19.5q0 21 -26 36t-58 29h-1l-1 1q-14 6 -28 12.5t-25 13.5q-27 15 -38 33t-11 37q0 20 9 41t23 42q5 8 11 16.5t12 17.5q8 12 17 24.5t16 24.5v1zM362 543q-7 -13 -10.5 -22t-3.5 -16q0 -17 15 -26t38 -15q11 -4 23.5 -7.5
t24.5 -7.5q22 -8 43 -21t36 -35q9 -15 13 -29t4 -28q0 -33 -18.5 -62t-41.5 -53q-15 -16 -29.5 -30.5t-22.5 -26.5q48 -31 88.5 -45t73.5 -14q64 -1 101 38t48 86q2 10 3 19.5t1 18.5v7q1 96 -108 170t-239 93q-10 2 -19.5 3t-19.5 2v1z" />
    <glyph glyph-name="E" unicode="E" horiz-adv-x="795" 
d="M465 646l141 78q4 -8 9.5 -16.5t11.5 -18.5q13 -18 31.5 -33t43.5 -15q17 0 36 8t42 27v-15q-3 -7 -6.5 -14t-7.5 -13q-22 -32 -61.5 -58.5t-84.5 -26.5q-11 0 -22 2t-23 6q-22 8 -44 25.5t-43 46.5q-22 -3 -30 -13t-8 -23q0 -3 0.5 -6t0.5 -5q2 -9 6 -17.5t8 -14.5
q23 -35 51.5 -76.5t58.5 -88.5v9q0 52 31 80t68 28q32 0 60 -21t38 -65q1 -4 1 -7v-6q0 -34 -22 -58t-60 -24h-7q-3 0 -7 1q-23 4 -34 21.5t-11 38.5q0 17 6 32.5t16 25.5q5 5 7.5 10.5t2.5 10.5q1 8 -5.5 13.5t-15.5 5.5q-5 0 -10.5 -2t-11.5 -6q-4 -3 -7.5 -7t-7.5 -9
q-10 -16 -14.5 -33.5t-4.5 -34.5t3 -34t7 -33q4 -15 7 -28.5t3 -24.5v-5q0 -2 -1 -4q-13 -65 -56.5 -99.5t-93.5 -35.5h-6q-57 3 -104.5 51.5t-54.5 146.5l16 1q9 -61 27 -98.5t37 -55.5q10 -9 20 -13t18 -4q14 0 23.5 11t9.5 31q0 22 -12.5 52.5t-43.5 67.5
q-23 26 -39.5 60t-20.5 69q0 5 -0.5 9.5t-0.5 9.5q0 31 12.5 60t40.5 52l79 64q-17 17 -37 29.5t-40 16.5q-4 1 -8 1.5t-8 0.5q-43 1 -80 -60t-48 -225l-2 -38q-1 -19 -2 -36q0 -175 70 -244t156 -69h15q75 5 141 46.5t87 95.5l16 1q-15 -76 -101 -119.5t-193 -44.5
q-12 0 -24.5 0.5t-25.5 2.5q-131 12 -239.5 103t-109.5 283v19q3 116 74 199.5t156 113.5q20 7 39 10.5t38 3.5q43 0 79 -20t55 -63v1z" />
    <glyph glyph-name="F" unicode="F" horiz-adv-x="740" 
d="M449 457q-21 7 -48.5 19.5t-58.5 25.5q-18 7 -36.5 14.5t-37.5 14.5q-33 12 -65 19.5t-60 7.5t-50.5 -9t-37.5 -30q-8 -12 -12.5 -24t-4.5 -24q0 -43 41 -75.5t96 -33.5q9 0 18 1t19 3q27 7 54 25t49 49l16 -7q-27 -39 -62.5 -59.5t-71.5 -26.5q-7 -1 -13 -1.5t-12 -0.5
q-62 0 -110.5 41t-48.5 113q0 8 1 17l2 18q11 71 72 122t161 51q69 1 153.5 -30t180.5 -103q17 -13 33.5 -19t29.5 -6q21 0 34 11t13 27q0 7 -2.5 14t-7.5 15q-10 14 -32.5 28t-59.5 24v17q62 -16 89 -41.5t32 -53.5q0 -4 0.5 -7.5t0.5 -7.5q0 -13 -3.5 -25t-8.5 -23
q-15 -34 -51.5 -59.5t-106.5 -25.5q-16 0 -33.5 1.5t-37.5 4.5q-8 -8 -12 -18t-4 -21q0 -9 2 -18t5 -18q6 -13 13.5 -26.5t15.5 -25.5t15.5 -22t12.5 -17q-1 9 -2 17.5t-1 16.5q0 56 31 81.5t68 25.5h3q35 -1 65 -23t33 -62q0 -37 -23.5 -55t-52.5 -18q-26 0 -48 15t-22 44
q0 14 6.5 31.5t20.5 37.5q-3 2 -6 2.5t-6 0.5q-18 1 -32.5 -21.5t-14.5 -57.5q0 -20 6 -42t20 -45q5 -9 11.5 -17.5t14.5 -16.5q13 -13 23 -27t18 -27q15 -28 22.5 -55t7.5 -53q0 -92 -73.5 -163.5t-161.5 -91.5q-14 -4 -28.5 -5.5t-28.5 -1.5h-13q-9 0 -18.5 0.5t-19.5 1.5
q-96 11 -176.5 71t-81.5 152q0 32 13.5 68.5t43.5 75.5q20 26 28.5 47t8.5 35q0 15 -7.5 23t-19.5 9q-10 0 -22 -5.5t-24 -16.5q-14 -13 -27.5 -34t-23.5 -50l-15 8q11 52 58.5 92.5t106.5 40.5q69 -6 97.5 -40.5t28.5 -81.5q0 -20 -4 -41.5t-12 -43.5q-8 -23 -20 -46.5
t-27 -44.5q-16 -26 -24 -48t-8 -41q-1 -53 43.5 -81.5t97.5 -28.5h3q52 1 96 31t44 93q0 28 -11 62t-36 75q-29 51 -54.5 86.5t-37.5 67.5q-6 13 -8.5 25.5t-2.5 26.5q0 15 4 32.5t12 37.5q1 2 2 4.5t2 4.5q7 13 13.5 21.5t13.5 16.5q12 12 25.5 28.5t30.5 50.5v1z" />
    <glyph glyph-name="G" unicode="G" horiz-adv-x="882" 
d="M535 402q13 2 24.5 8t22.5 14q9 7 19 15.5t21 16.5q7 5 10 10t2 10q-2 8 -10.5 16t-18.5 18q-3 4 -7 8t-7 9q-6 8 -11 20t-5 27q0 16 9 35t33 38q22 18 59.5 35.5t95.5 33.5v-15q-17 -7 -29.5 -13t-21.5 -12q-17 -14 -13 -26.5t32 -20.5q20 -6 36 -26t16 -46
q0 -6 -1 -12.5t-3 -12.5q-8 -22 -32 -42t-71 -34q82 -16 121.5 -65t39.5 -111q0 -14 -2 -28.5t-6 -29.5q-25 -89 -121.5 -163t-255.5 -75h-12q-176 4 -265.5 75.5t-123.5 157.5q-16 40 -22.5 78.5t-6.5 70.5v19q11 145 85.5 222.5t161.5 99.5q18 4 35.5 6t34.5 2
q43 0 79.5 -12t60.5 -35l16 11q8 5 16 9l2 1q7 4 14 8.5t15 10.5v-15q-9 -7 -17 -12t-15 -10q-6 -4 -11.5 -8.5t-11.5 -9.5q18 -12 29.5 -30t17.5 -41l-15 1q-1 1 -1.5 3t-1.5 4q-6 15 -17.5 29.5t-27.5 25.5q-16 -15 -23 -29.5t-7 -28.5q0 -19 8 -37.5t17 -37.5
q1 -2 2.5 -4.5t2.5 -4.5zM472 661q-3 1 -10 4.5t-17 7.5q-14 5 -31.5 9.5t-36.5 4.5q-6 0 -12 -0.5t-12 -1.5q-44 -9 -81 -64.5t-38 -199.5q0 -14 0.5 -29t1.5 -31q6 -206 63.5 -280t157.5 -74q112 0 150.5 53t38.5 183q0 64 -7.5 114.5t-39.5 50.5q-9 0 -21 -5.5t-27 -17.5
q18 -31 26 -60t8 -56q1 -67 -40 -113.5t-90 -56.5q-5 -1 -11 -1.5t-12 -0.5q-7 0 -14.5 1t-15.5 3q-41 13 -63.5 37t-33.5 50q-9 22 -11.5 43.5t-2.5 35.5l16 1q7 -59 25 -90.5t39 -43.5q7 -4 14 -6t14 -2q17 0 29 10.5t12 27.5q0 9 -3.5 19t-11.5 21q-4 6 -8.5 11.5
t-8.5 11.5q-16 23 -32 48t-29 50q-16 31 -26.5 61.5t-10.5 58.5q0 9 1.5 17.5t3.5 16.5q11 36 36.5 69.5t54.5 59.5q18 17 35 30t31 22v1z" />
    <glyph glyph-name="H" unicode="H" horiz-adv-x="850" 
d="M323 362q63 58 123 83t113 25q103 1 170 -74.5t70 -166.5v-6q0 -34 -10 -67.5t-33 -62.5q-30 -38 -72.5 -68.5t-87.5 -54.5q-53 -29 -101.5 -50.5t-77.5 -37.5q-3 5 -6.5 9t-7.5 8q-24 27 -48 39t-44 13q-28 0 -46.5 -18.5t-18.5 -44.5q0 -8 1.5 -15.5t4.5 -14.5
q12 -30 51 -50.5t88 -20.5q16 0 32.5 2.5t33.5 7.5q31 10 61.5 30.5t56.5 54.5l16 -8q-28 -32 -59.5 -53.5t-64.5 -33.5q-20 -7 -40.5 -10.5t-40.5 -3.5q-67 0 -115 36.5t-49 95.5q0 10 1.5 19.5t4.5 20.5q18 61 61.5 89t92.5 28t92.5 -25t60.5 -68q47 13 68 57.5t21 99.5
q0 9 -0.5 19t-1.5 19q-7 55 -29.5 104.5t-57.5 76.5q-20 18 -46.5 26t-54.5 8t-55 -7t-48 -19q29 -38 42 -72.5t14 -64.5q0 -67 -50 -111.5t-110 -62.5q-20 -6 -39.5 -9t-37.5 -3q-59 0 -90 29t-42 64q-3 11 -4.5 21.5t-1.5 20.5q0 9 1 17t3 14q7 24 26 35.5t41 11.5h3
q28 -1 51 -19.5t23 -52.5q0 -5 -0.5 -10.5t-2.5 -11.5q-2 -7 -8 -16.5t-13 -19.5q-1 -2 -2.5 -4t-2.5 -4q-6 -10 -11 -19t-5 -17t7.5 -14.5t27.5 -8.5h6q1 -1 2 -1h3q32 0 52.5 18.5t20.5 50.5q0 17 -6.5 38t-22.5 44q-5 7 -9.5 13.5t-9.5 12.5q-3 4 -5.5 8t-5.5 8
q-34 48 -61 99t-27 119q3 66 66 103.5t141 69.5q3 1 6 2.5t6 2.5q44 18 86 37.5t73 44.5q18 -55 51 -82t70 -30h10q35 0 64.5 19t40.5 53l16 -7q-34 -58 -74 -94.5t-82 -53.5q-18 -8 -36.5 -11.5t-36.5 -3.5q-52 0 -95.5 29.5t-69.5 85.5q-33 -10 -57 -31t-24 -59
q0 -29 18.5 -71t62.5 -99v1z" />
    <glyph glyph-name="I" unicode="I" horiz-adv-x="661" 
d="M605 399q-14 19 -29 30q-10 8 -20 11.5t-19 3.5q-15 0 -25 -9.5t-10 -29.5q0 -18 9.5 -42.5t31.5 -56.5q33 -46 47.5 -86.5t14.5 -75.5q0 -90 -75.5 -138t-167.5 -48q-77 0 -145 36.5t-91 114.5q-6 22 -12.5 38.5t-13.5 27.5q-8 16 -16.5 23t-16.5 7q-16 1 -27 -27
t-11 -74q0 -10 0.5 -20.5t1.5 -21.5l-15 1q-4 16 -5.5 31t-1.5 28q0 74 40.5 110.5t90.5 36.5h4q45 -1 84.5 -29.5t54.5 -83.5q1 -3 1.5 -5.5t1.5 -5.5q21 -80 45.5 -121.5t65.5 -41.5h10q5 0 10 2q24 4 35 16t11 32q0 29 -21 79t-56 124q-13 26 -18.5 49t-5.5 44
q0 65 44 103t99 39h5q42 -2 79 -28t56 -80l-15 -8q-11 27 -25 45zM268 465l8 -16q-28 -12 -53.5 -17t-48.5 -5q-61 -1 -97 31.5t-36 82.5q0 22 7 46.5t23 49.5q31 52 71.5 72.5t85.5 20.5q16 0 33 -2t34 -6q33 -7 66.5 -20t63.5 -27q17 -8 33 -15.5t30 -14.5q20 -9 35 -13
t26 -4q19 0 27.5 8.5t8.5 19.5q0 3 -0.5 6.5t-1.5 7.5q-4 11 -14.5 21.5t-25.5 16.5l8 24q38 -22 55.5 -50.5t18.5 -58.5q0 -47 -38.5 -85.5t-102.5 -38.5q-31 0 -68 11.5t-77 39.5q-48 34 -87.5 48t-70.5 15q-47 0 -74 -24t-35 -52q-1 -6 -2 -11.5t-1 -11.5q0 -16 6 -29.5
t19 -20.5q3 -2 8 -5t12 -6q10 -4 24 -8t33 -4t43 5t54 18v1zM646 362h-1l1 -1v1z" />
    <glyph glyph-name="J" unicode="J" horiz-adv-x="661" 
d="M646 276h-16q-5 25 -20 45t-32 31q-9 6 -17 9t-15 3q-10 0 -17 -7t-7 -22q0 -21 15.5 -58.5t53.5 -96.5q26 -40 38 -77t12 -72q1 -106 -89 -177t-198 -80q-7 0 -14.5 -0.5t-14.5 -0.5q-84 0 -156 46t-98 150q-6 25 -18.5 43.5t-25.5 29.5q-6 4 -12 6.5t-11 2.5
q-10 0 -16.5 -10.5t-6.5 -34.5q0 -13 2.5 -32.5t9.5 -44.5h-17q-7 17 -10 33t-3 31q0 62 45 102t100 41h3q38 1 72 -20.5t53 -69.5q15 -41 26.5 -76.5t22.5 -64.5q19 -48 40.5 -75t59.5 -27q11 0 23 1.5t25 6.5q38 12 52.5 33.5t14.5 47.5q0 16 -4.5 33.5t-11.5 34.5
q-7 19 -17 37t-21 35q-12 21 -24 39l-20 30q-24 38 -34.5 72.5t-10.5 64.5q0 70 45.5 112t99.5 46q3 1 5 1h6q46 0 84 -29t49 -92zM614 614h16q0 -111 -41.5 -157t-100.5 -46q-20 0 -41 4.5t-43 12.5q-34 13 -66.5 34.5t-61.5 48.5q-46 43 -83.5 61t-66.5 18q-46 0 -69 -34
t-23 -77v-11q3 -47 33.5 -86t88.5 -39q26 0 58 10t69 32l16 -7q-16 -13 -32 -22t-33 -15q-16 -6 -32.5 -8.5t-32.5 -2.5q-67 -1 -115.5 43t-49.5 116q0 9 1 18.5t3 19.5q1 3 1.5 5.5t1.5 5.5q16 64 80 117.5t147 53.5q29 1 58 -7t58 -26q16 -10 31.5 -21t29.5 -22
q56 -43 95.5 -78.5t63.5 -35.5q16 0 26 21.5t14 72.5v1z" />
    <glyph glyph-name="K" unicode="K" horiz-adv-x="717" 
d="M244 386q-1 5 -1 11v14q0 11 0.5 23t2.5 23q8 63 45.5 115.5t120.5 52.5q11 0 22 -1t23 -3q65 -12 112 -65t53 -148l-157 -22q4 -2 8.5 -3.5t8.5 -2.5q35 -12 64.5 -37.5t29.5 -89.5v-9l-1 -1v-8q0 -52 14 -83t42 -32q13 0 28 7t34 22l16 -7l-181 -150q-83 28 -101 74
t-18 122q0 12 -0.5 30.5t-5.5 37.5q-6 32 -27.5 58.5t-68.5 26.5q-7 0 -15 -0.5t-16 -2.5q27 -27 44 -72t18 -94v-6q0 -67 -39 -120.5t-134 -53.5q-68 0 -103 28.5t-47 63.5q-4 11 -5.5 21t-1.5 20q0 37 24.5 55t54.5 18q29 1 53.5 -16.5t24.5 -51.5q0 -8 -2 -17t-6 -20
q-2 -7 -3.5 -14.5t-1.5 -13.5q0 -26 14.5 -39.5t31.5 -13.5q11 -1 21 4t17 14q9 12 13 24t4 23q0 23 -13.5 45.5t-34.5 44.5l-25 24q-12 13 -25 25q-22 20 -42 40.5t-34 41.5q-30 44 -44 85.5t-14 78.5q0 110 103.5 177.5t253.5 76.5h13q139 1 215 -75t96 -168
q3 -16 5 -32.5t2 -32.5l-16 1q-5 131 -90.5 206t-187.5 75q-7 0 -14 -0.5t-14 -0.5q-14 -2 -28 -5t-28 -8q-63 -25 -90 -70.5t-28 -94.5v-17q2 -29 10.5 -57.5t20.5 -51.5v1zM441 386q0 61 -22.5 98t-64.5 37q-5 1 -11 0.5t-12 -2.5q-42 -7 -55 -34.5t-13 -59.5
q0 -10 1 -20.5t2 -19.5q0 -10 1 -18t1 -14z" />
    <glyph glyph-name="L" unicode="L" horiz-adv-x="591" 
d="M24 63h-16v7q0 52 24.5 83.5t53.5 52.5q17 12 32.5 22t27.5 19q8 7 13 14.5t5 15.5t-5 17t-17 20q-5 4 -9.5 8.5t-9.5 8.5q-29 28 -54.5 63.5t-37.5 73.5q-3 11 -5 21.5t-2 21.5q3 98 85 148.5t179 50.5q74 0 140.5 -29.5t99.5 -90.5q11 -18 16 -35t5 -34
q0 -37 -19.5 -70.5t-42.5 -65.5q-10 -14 -20 -27.5t-18 -27.5q-5 -8 -7 -15t-3 -12q0 -11 8 -17.5t21 -6.5q10 0 22.5 4t24.5 12q12 9 23 21t21 29l16 -6q-5 -8 -11 -15t-11 -13q-28 -30 -55 -42.5t-52 -12.5q-43 0 -75.5 28t-44.5 61q-1 2 -1.5 4t-1.5 4q-3 9 -4 18t-1 17
q0 33 15.5 59t33.5 49q5 6 9.5 11.5t9.5 11.5q13 17 22 34t9 37q0 51 -40 75.5t-90 24.5h-3q-49 0 -90.5 -24t-42.5 -68q0 -21 13 -47t41 -56q5 -6 11 -13t12 -13q18 -22 33.5 -46.5t15.5 -52.5q0 -32 -29 -68t-106 -75q45 0 83.5 -16.5t68.5 -36.5q13 -9 24.5 -17.5
t20.5 -15.5q5 -4 11.5 -9t14.5 -10q15 -9 33 -17t37 -11q4 0 7.5 -0.5t6.5 -0.5q28 0 52 20t34 75l16 1q-14 -107 -70 -154.5t-120 -51.5h-11q-37 0 -70.5 12t-59.5 35q-61 56 -99 79t-60 23t-29.5 -20t-7.5 -49z" />
    <glyph glyph-name="M" unicode="M" horiz-adv-x="1031" 
d="M260 126q0 32 -1 97.5t-5 136.5q-5 69 -14.5 132t-26.5 98q-13 28 -30 43t-35 21q-6 2 -12 3t-12 1q-25 0 -43.5 -14.5t-19.5 -35.5q0 -7 2.5 -14.5t7.5 -15.5q9 -12 24 -23t39 -21q41 -18 64 -53t23 -75v-4q-1 -51 -45.5 -96t-144.5 -55v17q47 7 78 21.5t31 30.5
q0 3 -1 5.5t-3 5.5q-4 6 -12 11.5t-22 10.5q-55 23 -79 60.5t-24 80.5q0 7 0.5 14.5t1.5 14.5q12 72 73.5 131.5t143.5 59.5q23 0 46 -5.5t46 -17.5t46.5 -31.5t45.5 -46.5q5 55 44 80.5t86 26.5h8q5 0 10 -1q47 -4 88 -31.5t55 -74.5q9 51 47 77.5t82 28.5h7q47 1 86.5 -26
t45.5 -80q2 -10 2 -21v-29q0 -35 5 -64t34 -30q3 0 6.5 0.5t7.5 1.5v-14q-74 -1 -85 -52.5t-10 -115.5v-30q0 -9 0.5 -18t1.5 -19q5 -39 19.5 -71.5t39.5 -32.5q9 0 19.5 5.5t22.5 17.5l15 -15l-189 -142q-33 34 -51.5 58.5t-28.5 47.5q-11 26 -12.5 56t-1.5 78v27
q0 95 35 136t77 57q18 7 36 11t33 7q2 0 4 0.5t4 1.5q-8 -1 -15.5 -1.5t-15.5 -0.5q-77 0 -96 35t-21 76v21q-1 9 -1 18t-1 17q-1 20 -8 28.5t-16 8.5q-5 0 -11 -2t-12 -6q-11 -8 -22 -20.5t-17 -26.5q-4 -8 -6 -15t-2 -14q0 -27 1 -51.5t2 -46.5q0 -23 1 -43t1 -39
q0 -29 -2.5 -55.5t-10.5 -52.5q-7 -22 -18.5 -44t-28.5 -46l-181 -212l-119 102l-70 -86l-16 16l157 196l111 -102q0 133 -0.5 198.5t-3.5 117.5q-2 29 -5 59.5t-7 72.5q-3 35 -16.5 57.5t-29.5 28.5q-2 1 -4.5 1.5t-5.5 0.5q-16 1 -27.5 -16.5t-11.5 -55.5q1 -23 4.5 -44
t6.5 -41q3 -17 6 -33.5t4 -32.5q1 -8 1.5 -16.5t0.5 -16.5q0 -42 -16 -87t-62 -99l-173 -220l-118 102l-63 -86l-16 16l150 204z" />
    <glyph glyph-name="N" unicode="N" horiz-adv-x="772" 
d="M63 268q54 19 76 31.5t23 22.5q0 4 -2.5 7.5t-7.5 6.5q-10 7 -27.5 14.5t-35.5 17.5q-26 14 -48.5 34.5t-24.5 53.5v10q-1 2 -1 4v5q0 122 69.5 185t152.5 69q4 1 8 1h8q61 0 113.5 -31.5t74.5 -93.5q10 44 33.5 67t48.5 33q19 7 37 9t31 2q84 -6 107.5 -43.5t26.5 -82.5
q1 -7 1 -15v-15q1 -39 9 -67.5t52 -28.5h8v-15h-21q-41 1 -73 -24t-32 -87q-1 -18 -2 -38t-1 -40v-3q0 -58 10.5 -107t43.5 -49q12 0 26.5 7.5t33.5 24.5l15 -15l-181 -134q-25 15 -43 28t-31 27q-26 28 -32.5 58.5t-9.5 77.5q0 8 -0.5 17.5t-1.5 19.5q-1 12 -1.5 24
t-0.5 22q0 109 48.5 140t133.5 47q4 1 8.5 1.5t8.5 1.5q-77 3 -103 35.5t-32 71.5q-2 9 -3 18.5t-2 18.5q-2 29 -8.5 49.5t-32.5 20.5q-4 0 -7.5 -0.5t-8.5 -1.5q-23 -9 -31 -36t-8 -65q0 -19 1.5 -40.5t2.5 -44.5q1 -11 1.5 -22.5t1.5 -22.5q0 -12 0.5 -23.5t0.5 -22.5
q0 -22 -1.5 -43.5t-6.5 -41.5q-8 -26 -36.5 -65t-64.5 -80q-9 -11 -19 -22l-20 -22q-39 -41 -74.5 -75t-53.5 -50l-118 110l-47 -47l-16 16l157 157l126 -102q0 -1 0.5 8.5t1.5 25.5q0 17 0.5 40t0.5 50q0 37 -1 80t-5 87q-2 39 -7 77t-13 72q-7 36 -36 61t-63 30
q-4 1 -8.5 1.5t-8.5 0.5q-22 0 -42 -10.5t-31 -35.5q-1 -4 -2 -7.5t-1 -7.5q0 -15 11.5 -27t29.5 -24q7 -5 15 -9.5t15 -9.5q17 -11 32.5 -22.5t25.5 -26.5q11 -15 17 -33t6 -38v-10q0 -4 -1 -9q-6 -47 -46.5 -86.5t-117.5 -43.5v17z" />
    <glyph glyph-name="O" unicode="O" horiz-adv-x="811" 
d="M307 693q-46 -14 -64.5 -33.5t-18.5 -44.5q0 -26 14.5 -56t32.5 -61q1 -1 1.5 -2t1.5 -2q16 -30 30 -58.5t14 -54.5q0 -5 -0.5 -10t-2.5 -10q-12 -49 -58 -78t-99 -29q-55 0 -102 34.5t-56 112.5l16 1q0 -10 2.5 -21t8.5 -23q11 -27 34 -49t51 -23h5q3 0 6 1q3 0 5.5 1
t5.5 2q11 4 15.5 10t4.5 13q0 14 -12 32t-26 40q-12 16 -22.5 34.5t-14.5 36.5q-1 4 -1.5 8t-1.5 8q0 4 -0.5 8t-0.5 8v12q6 68 67 127.5t157 80.5q29 5 55.5 6.5t51.5 1.5q158 1 236 -64t111 -143q6 -13 10.5 -26.5t8.5 -26.5q9 -30 13 -59.5t4 -58.5q0 -142 -90 -248
t-240 -106q-26 0 -54.5 4t-58.5 12q-27 7 -51.5 23t-48.5 36q-5 3 -9.5 7t-9.5 8q-28 24 -58.5 45t-66.5 30h-3q-1 0 -3 1h-6q-30 0 -45 -15.5t-22 -33.5l-4 -12q-2 -6 -3 -11l-16 1q14 53 64.5 98.5t107.5 64.5q15 5 30 7.5t29 2.5h7q1 -1 3 -1h3q33 -4 75.5 -26t89.5 -48
q16 -9 33 -18l34 -18q35 -17 69.5 -28t66.5 -11t60.5 14t51.5 48q18 24 27.5 54t11.5 61v16q-1 57 -25.5 108t-68.5 76q-28 16 -59 22.5t-63 7.5h-21q-12 0 -24 -0.5t-23 -0.5q-12 0 -23 -0.5t-22 -0.5q-28 0 -52.5 4t-42.5 16q-2 2 -10.5 8t-18.5 16q-11 12 -20 29t-9 40
q0 15 6 33.5t20 38.5v1z" />
    <glyph glyph-name="P" unicode="P" horiz-adv-x="811" 
d="M63 276q30 2 47.5 15t20.5 28v3q0 11 -8.5 21.5t-28.5 17.5q-47 20 -69 59t-22 88q0 12 1.5 24.5t3.5 25.5q17 81 77 116.5t129 35.5h4q72 -1 134.5 -34t80.5 -86q3 70 44 98t91 28h8q46 -2 86.5 -20.5t54.5 -42.5q8 -14 11.5 -28t3.5 -27q0 -16 -3.5 -31t-7.5 -28
q-5 -14 -8.5 -25.5t-3.5 -20.5q0 -13 12.5 -21t46.5 -8h19v-15q-100 -1 -110.5 -18t47.5 -46q29 -10 49.5 -35.5t20.5 -59.5q0 -10 -1.5 -19.5t-5.5 -19.5q-7 -19 -17.5 -40.5t-22.5 -42.5q-41 -67 -103.5 -122.5t-135.5 -55.5q-19 0 -37.5 4t-37.5 13q-6 -26 -16 -57.5
t-21 -63.5q-7 -17 -13.5 -34.5t-13.5 -33.5q-6 -14 -11.5 -28t-11.5 -26h-15q-6 17 -14 46t-17 68q-9 41 -17.5 91.5t-14.5 108.5q-4 5 -8.5 10t-11.5 10q-12 10 -29 20t-34 15q-6 2 -12 3t-12 1q-22 0 -40.5 -16t-26.5 -59l-15 1q2 14 7 37t15 48q15 40 46 72.5t85 32.5h14
q7 0 14 -2v245q0 58 -15 108.5t-56 55.5q-8 2 -16.5 2.5t-16.5 0.5q-30 0 -52.5 -10t-22.5 -30q-1 -18 22 -44t78 -60q19 -13 29 -36.5t11 -52.5q0 -9 -1 -18t-3 -19q-11 -44 -48 -83t-106 -51v17zM654 449q-55 16 -78 44.5t-31 59.5q-3 16 -4.5 31t-1.5 29q-2 24 -6 41.5
t-21 21.5q-3 1 -6 1.5t-5 0.5q-31 0 -40.5 -39.5t-11.5 -86.5v-355l134 -95q11 -8 22.5 -12t23.5 -4q25 0 44.5 14t19.5 36q0 15 -10.5 32.5t-36.5 35.5q-10 8 -24.5 18.5t-30.5 23.5q-26 22 -47.5 49t-21.5 55q0 7 1.5 13.5t4.5 13.5q3 5 6.5 11t7.5 12q14 18 37.5 33.5
t58.5 15.5h8q4 0 8 -1v1z" />
    <glyph glyph-name="Q" unicode="Q" horiz-adv-x="921" 
d="M55 487v10q-1 94 103.5 154.5t234.5 60.5h14q8 0 15 -1q102 -6 194.5 -56.5t139.5 -159.5q13 -33 23 -76.5t11 -100.5q0 -24 -2.5 -50.5t-7.5 -55.5q-1 -7 -1.5 -13t-0.5 -12q0 -39 19 -61.5t42 -26.5h5q22 0 39 20t17 63v14q0 8 -2 16l15 1q2 -13 3 -29t1 -34
q0 -8 -0.5 -16t-0.5 -16q-4 -45 -24.5 -81.5t-72.5 -36.5q-47 0 -64 26.5t-17 64.5q0 13 1.5 26.5t3.5 27.5q1 7 2.5 13.5t2.5 13.5q-44 -93 -124.5 -137.5t-168.5 -44.5q-52 0 -101.5 14t-93.5 42q-10 5 -24 17t-31 25q-18 15 -38.5 27.5t-40.5 16.5q-4 1 -8 1.5t-8 0.5
q-23 0 -45.5 -17.5t-40.5 -62.5l-16 1q2 5 4 11t5 13q26 59 89.5 108t139.5 49q23 0 46.5 -5.5t46.5 -18.5q15 -9 33.5 -19t38.5 -21q27 -15 56 -28t59 -22q19 -6 38 -9.5t37 -3.5q23 0 44 5.5t40 18.5q35 23 53.5 67.5t18.5 94.5v8q0 4 -1 8q-4 72 -51.5 132t-145.5 60
q-10 0 -23 -0.5t-28 -1.5t-31 -1.5t-33 -0.5h-16q-62 2 -114 20.5t-53 79.5q0 17 5.5 38.5t16.5 46.5q-44 -19 -62 -40.5t-18 -44.5q0 -18 8 -36t21 -37q5 -8 11.5 -16.5t12.5 -17.5q17 -22 31.5 -43t19.5 -41q3 -9 4.5 -18t1.5 -17q1 -56 -49 -95t-110 -41h-6q-50 0 -93 32
t-55 108l16 1q7 -45 29.5 -74.5t47.5 -38.5q6 -2 11.5 -3t10.5 -1q10 0 19 3.5t16 10.5q3 3 4.5 5.5t3.5 4.5q1 2 1.5 4.5t0.5 5.5q0 16 -16.5 33.5t-36.5 40.5q-18 22 -33.5 50.5t-18.5 67.5z" />
    <glyph glyph-name="R" unicode="R" horiz-adv-x="827" 
d="M47 259v17q41 -1 68.5 6.5t28.5 24.5q0 5 -2.5 10.5t-7.5 12.5q-8 11 -24 25t-33 30l-23 22q-11 12 -19 24q-7 8 -11.5 16.5t-7.5 16.5q-4 15 -6.5 29t-2.5 27q-1 82 66.5 134t151.5 52h13q7 0 14 -1q51 -5 99.5 -35t81.5 -88q7 67 47.5 96.5t88.5 33.5h12
q28 0 53.5 -7.5t42.5 -20.5q28 -16 41.5 -41.5t18.5 -52.5q2 -14 3 -27.5t1 -25.5v-28q-1 -7 -1 -12v-10q0 -20 12 -34.5t31 -14.5q3 0 6 0.5t6 1.5v-15q-12 -5 -27 -8.5t-31 -3.5q-7 0 -14 1l-14 2l-32 -7q26 -1 37 -40t13 -86q1 -8 1 -16v-16q0 -21 -1 -39t-3 -32
q-1 -10 -2 -19.5t-1 -18.5q0 -20 5.5 -34.5t19.5 -15.5q8 0 20.5 6t28.5 19l16 -15l-181 -118q-66 25 -86 63t-20 78q0 7 0.5 14t0.5 14q1 6 1.5 13t1.5 14q0 11 1.5 25t3.5 29q1 7 1.5 13.5t1.5 13.5q1 9 1.5 18t0.5 17q0 31 -10 53t-41 23q-5 0 -10.5 -0.5t-11.5 -2.5v-15
q0 -11 -0.5 -21.5t-1.5 -21.5q-12 -123 -86 -225t-180 -102q-71 0 -108.5 28.5t-49.5 80.5q-2 11 -3.5 20.5t-1.5 17.5q0 47 26.5 72.5t58.5 29.5q3 1 6 1h6q28 0 50 -15.5t24 -46.5q1 -7 1.5 -13t0.5 -12q0 -37 -14 -49t-30 -14q-4 -1 -7.5 -1.5t-7.5 -0.5q-12 -1 -21 -4
t-9 -16q0 -26 22 -43.5t49 -17.5h5q20 2 38 14t28 39q14 38 19.5 90.5t5.5 110.5q0 18 -0.5 36.5t-1.5 37.5q-4 79 -16.5 153.5t-30.5 122.5q-9 23 -27.5 36.5t-38.5 18.5q-6 2 -11.5 2.5t-11.5 0.5q-11 0 -20 -2.5t-17 -7.5q-6 -5 -10.5 -10t-6.5 -10q-3 -5 -4.5 -10
t-1.5 -10v-6q3 -20 20 -40t37 -37q13 -10 25 -19t20 -16q18 -13 27.5 -37t9.5 -52q0 -5 -0.5 -10.5t-1.5 -11.5q-6 -47 -43 -86t-112 -40h-11q-5 0 -11 1zM465 394l212 31q-49 20 -76.5 45t-40.5 50q-11 23 -14 44.5t-3 40.5v35q-1 9 -10 16.5t-21 7.5q-3 0 -5.5 -0.5
t-5.5 -0.5q-15 -5 -28 -27t-16 -70z" />
    <glyph glyph-name="S" unicode="S" horiz-adv-x="772" 
d="M748 661q-34 -101 -80.5 -137t-101.5 -36q-37 0 -76.5 11t-78.5 25l-6 2q-3 1 -5 2q-42 15 -83.5 27.5t-79.5 12.5q-49 1 -92 -30t-74 -114q-7 -19 -11 -38t-4 -36q0 -89 79.5 -137.5t179.5 -48.5q189 0 293.5 38t104.5 96q0 15 -7 31t-21 32q-8 10 -17 14.5t-20 4.5
q-27 0 -60 -24.5t-75 -53.5q-40 -29 -89 -53.5t-107 -24.5q-17 0 -35.5 2.5t-37.5 8.5q-49 16 -79.5 54t-38.5 81q-2 7 -2.5 14t-0.5 14q0 45 29 79t91 34q23 0 50.5 -5.5t60.5 -18.5l-8 -15q-25 10 -47 15t-40 5q-46 0 -68.5 -25t-25.5 -55q-1 -2 -1 -5v-5
q-1 -25 11.5 -44.5t34.5 -19.5q11 0 23.5 5t26.5 18q47 39 116.5 69.5t143.5 31.5h10q6 0 12 -1q33 -2 65 -13t62 -32q34 -25 52 -63t18 -82q0 -13 -1.5 -27t-5.5 -28q-21 -82 -107 -152t-247 -80h-9q-4 0 -8 -1q-146 0 -231.5 113t-93.5 249q-1 7 -1 13v14q0 129 78 232.5
t249 103.5q56 0 102 -15.5t84 -34.5t68 -34.5t54 -15.5q19 0 34 11.5t28 40.5z" />
    <glyph glyph-name="T" unicode="T" horiz-adv-x="701" 
d="M205 394q-22 -8 -41 -11.5t-36 -3.5q-65 0 -98 40.5t-33 94.5q0 9 1 19t2 19q8 37 31.5 72.5t62.5 59.5q38 23 74 33.5t70 10.5q68 0 128 -30t111 -66t92 -66t70 -30q9 0 16.5 3.5t13.5 10.5q2 2 2.5 4.5t1.5 6.5q0 8 -4.5 19.5t-12.5 23.5q-14 20 -38 36.5t-59 19.5v17
q70 -6 103 -43t33 -81q1 -46 -35.5 -84t-105.5 -38h-9q-3 0 -5.5 0.5t-4.5 0.5q-16 0 -40.5 7.5t-51.5 17.5l-16 6q-8 3 -16 7q-23 10 -42.5 19t-29.5 14q-1 -4 -2 -8.5t-1 -8.5q0 -20 16 -34.5t39 -27.5q5 -3 10.5 -6.5t11.5 -6.5q29 -17 53 -38.5t24 -55.5q0 -4 -0.5 -9
t-1.5 -10q-9 -29 -29.5 -52.5t-43.5 -40.5q-10 -7 -19 -13.5t-18 -11.5q5 -3 22 -14.5t41 -23.5q21 -11 46 -21t50 -15q9 -2 17.5 -3t17.5 -1q35 -1 65.5 18t47.5 68l16 1q-38 -119 -101.5 -163t-133.5 -44q-7 0 -14.5 0.5t-14.5 1.5q-52 5 -102 24.5t-90 42.5q-9 5 -17 9.5
t-15 9.5q-6 4 -13.5 9.5t-16.5 10.5q-11 7 -23.5 14t-25.5 12q-12 5 -23 8t-22 3q-22 1 -39 -16.5t-19 -64.5l-15 1q11 84 54 140t114 57h7q1 -1 3 -1h3q12 -1 25 -4.5t26 -7.5l16 -6q8 -3 15 -6q25 -9 46 -16.5t35 -7.5q8 0 13 4t5 14v6q-3 12 -24.5 26t-47.5 31
q-23 15 -43.5 32t-26.5 37q-1 3 -1.5 5.5t-0.5 5.5v4q0 2 -0.5 3.5t-0.5 3.5q0 38 23 70.5t51 55.5q6 5 12 9.5t12 8.5q-2 1 -4 2.5t-4 2.5q-25 15 -57 29t-66 23q-17 4 -34.5 6.5t-33.5 2.5q-40 0 -68.5 -19.5t-28.5 -69.5q0 -9 1 -19t3 -21q5 -21 34 -36.5t66 -16.5
q15 0 30 3t28 10z" />
    <glyph glyph-name="U" unicode="U" horiz-adv-x="661" 
d="M71 219v284q-1 22 -10 40.5t-27 18.5q-10 1 -22 -5.5t-27 -22.5l-16 17l157 158q9 -7 20 -13.5t22 -13.5q29 -19 52.5 -46t24.5 -73v-6q-1 -2 -1 -4v-380l79 -39l71 63v299q0 28 -18 45t-53 17v17q1 -1 2 -1h2l1 -1h2q14 0 30 7.5t32 19.5q21 16 41 38t36 45q3 4 5.5 8.5
t5.5 8.5q4 -8 9.5 -15.5t11.5 -15.5q26 -36 62 -65.5t75 -29.5v-15q-47 -1 -59 -20.5t-12 -43.5v-290q0 -28 12.5 -49.5t34.5 -21.5q11 0 25 7t30 23l8 -14l-173 -158q-22 16 -39 29t-30 25q-21 20 -31 45t-10 73l-189 -172q-10 9 -29.5 26t-43.5 35q-15 11 -30 21.5
t-31 19.5q-18 11 -36.5 19t-34.5 12v17q53 -1 62 17.5t9 59.5z" />
    <glyph glyph-name="V" unicode="V" horiz-adv-x="811" 
d="M433 614q7 52 46 78t86 26h7q4 0 8 -1q39 -3 74 -21t55 -51q3 -5 5.5 -10t5.5 -10q6 -16 8.5 -31t2.5 -29q0 -10 -1 -20t-2 -19t-2 -17t-1 -15q0 -16 7 -25t29 -9q7 0 15.5 1.5t18.5 2.5v-15q-7 -3 -14.5 -4.5t-14.5 -2.5q-8 -1 -15.5 -1.5t-14.5 -0.5q-27 0 -51 6
t-39 18q-10 -10 -14 -17.5t-4 -13.5q0 -8 6.5 -15t17.5 -13t24.5 -12.5t28.5 -14.5q20 -12 38.5 -29t28.5 -43q5 -13 7.5 -26t2.5 -27v-11q-7 -93 -100.5 -171t-204.5 -83h-11q-42 0 -83 13.5t-76 44.5q-56 49 -102.5 89.5t-81.5 41.5q-21 0 -38 -17.5t-30 -58.5l-16 1
q17 71 48.5 105.5t65.5 48.5q23 9 45 12t40 5q3 1 7 1.5t7 0.5q8 25 14.5 73t6.5 101v5q0 59 -10.5 113t-34.5 78q-7 8 -15 14t-16 10q-10 6 -20.5 8.5t-19.5 2.5q-27 0 -46 -16t-20 -38q0 -5 1 -10t3 -10q6 -13 19.5 -25t35.5 -23q35 -15 56 -48.5t21 -71.5v-9
q-4 -49 -47.5 -91t-140.5 -48v17q38 4 69 18t31 33q1 8 -6 17t-23 18q-43 26 -73.5 57.5t-30.5 75.5q0 16 4 33.5t14 37.5q24 55 79 83.5t116 33.5q6 0 12 0.5t12 0.5q66 0 121 -26t69 -76v1zM369 232q46 -30 86 -66q44 -38 81.5 -69.5t73.5 -31.5q13 0 25.5 5t25.5 16
q17 14 24 26.5t7 23.5q0 14 -9.5 26.5t-25.5 24.5q-13 10 -28.5 20t-30.5 20q-36 24 -65.5 54.5t-29.5 74.5v3q0 2 1 4v6q0 18 25 45.5t101 56.5q-6 2 -16 6t-20 11q-17 11 -31 33t-14 61q0 8 0.5 15.5t1.5 15.5v7q1 25 -12.5 40t-30.5 16h-3q-18 -2 -33 -24t-15 -70v-16
q1 -13 1 -26v-25q1 -87 -23.5 -133t-96.5 -83q-15 -8 -33 -16q-16 -8 -35 -15q54 -7 99 -36z" />
    <glyph glyph-name="W" unicode="W" horiz-adv-x="1055" 
d="M606 638q21 32 70.5 55t104.5 23h12q49 -3 95 -28.5t73 -82.5q5 -9 6.5 -20t2.5 -22v-11q2 -26 8.5 -46t40.5 -20h3q2 0 3 1h6v-15q-20 -3 -36.5 -4.5t-30.5 -1.5t-26.5 1t-24.5 4q-12 -10 -17 -18.5t-5 -16.5q0 -9 6 -17t16 -16t23.5 -16t27.5 -18q27 -18 50 -43.5
t23 -65.5q0 -28 -15 -65.5t-53 -85.5q-37 -47 -87.5 -83t-114.5 -36q-48 -1 -104 26t-120 93q-58 -75 -107 -100t-85 -25q-18 0 -32.5 4t-24.5 9q-6 3 -10.5 5.5t-7.5 4.5q-14 9 -30.5 20.5t-32.5 24.5q-7 5 -13 9.5t-12 8.5q-24 17 -46.5 29t-42.5 12t-36 -16t-24 -57
l-15 1q0 6 1 13.5t3 14.5q11 64 54.5 117.5t118.5 53.5q8 0 17 -0.5t18 -2.5q17 14 25.5 73t8.5 129v10q0 74 -10.5 137.5t-31.5 75.5q-16 11 -31 15.5t-29 4.5q-28 0 -45 -18.5t-18 -43.5q0 -4 0.5 -7.5t1.5 -7.5q3 -17 15.5 -33t34.5 -28q41 -24 61.5 -58t20.5 -70
q0 -52 -42 -99t-126 -64v17q2 -1 4 -0.5t4 0.5q28 5 51.5 20.5t23.5 34.5q0 5 -2 9.5t-5 9.5q-6 7 -17 14t-28 13q-43 17 -66 53.5t-23 82.5q0 13 2 27t6 28q7 24 21.5 47.5t36.5 45.5q29 29 70 45.5t86 16.5q14 0 29 -1.5t29 -5.5q32 -7 64 -25t60 -46q15 41 38 60t48 20
q6 0 12 -1t11 -3q22 -7 43 -26t37 -50v1zM311 205q28 -15 53 -33q16 -12 31.5 -22.5t30.5 -18.5q14 -8 28 -12.5t29 -4.5q20 0 41 10t43 32q23 23 32.5 42.5t9.5 36.5q0 20 -10 37.5t-25 34.5q-4 5 -8.5 10t-9.5 10q-17 20 -32.5 41t-19.5 48v9q0 28 10.5 68t76.5 128
q-22 23 -43 31.5t-41 9.5q-21 0 -38.5 -7.5t-30.5 -16.5q-4 -2 -7 -4.5t-6 -4.5q17 -45 26 -86t9 -78q0 -89 -51.5 -150.5t-154.5 -87.5q31 -7 57 -22zM890 472q-53 11 -80 37t-38 120q-4 28 -18.5 40t-34.5 12q-5 0 -10.5 -0.5t-10.5 -2.5q-28 -7 -51.5 -32t-24.5 -58
q0 -19 9 -38t30 -39q3 -3 6.5 -6t7.5 -7q22 -24 41 -59t19 -74q0 -9 -1 -17.5t-4 -17.5q-8 -29 -31.5 -57.5t-68.5 -53.5q4 1 7 1h8q44 0 80 -23.5t65 -52.5q30 -27 55 -50.5t48 -24.5q9 0 18 4t18 13q10 10 14 19t5 17q0 19 -19.5 36t-45.5 34q-5 3 -10.5 6t-10.5 7
q-26 16 -49.5 33t-32.5 37q-7 15 -10.5 29t-3.5 27t3.5 25.5t10.5 24.5q13 22 40 44t70 46v1z" />
    <glyph glyph-name="X" unicode="X" horiz-adv-x="661" 
d="M417 543q10 80 42 120.5t68 49.5l12 2q6 1 12 1q64 0 92.5 -31.5t33.5 -68.5q0 -4 0.5 -8.5t0.5 -8.5q1 -13 -1.5 -25.5t-7.5 -23.5q-11 -27 -31 -39t-43 -12q-34 0 -62 22.5t-28 56.5q0 14 5.5 28.5t17.5 30.5q8 11 12 19t4 14t-3.5 9t-10.5 3q-5 0 -11.5 -1.5
t-14.5 -4.5q-30 -11 -45 -59t-21 -103q-3 -31 -4 -60.5t-1 -52.5l79 1q4 -1 8 -1h9q26 1 47.5 10.5t21.5 44.5l16 1q1 -5 1 -10v-9q0 -62 -31.5 -96.5t-68.5 -35.5h-3l-79 1v-8q-1 -2 -1 -4v-3q0 -12 1.5 -24.5t4.5 -25.5q9 -42 34 -77.5t68 -35.5q24 0 54.5 15t66.5 52
l8 -15l-228 -189q-12 3 -24.5 7.5t-24.5 10.5q-38 20 -72.5 55t-51.5 84q-14 -70 -48.5 -106t-73.5 -47q-11 -3 -21.5 -4.5t-20.5 -1.5q-19 0 -36 5t-29 12q-28 19 -39.5 44t-11.5 51q0 40 23.5 71t59.5 31q45 0 69.5 -26.5t26.5 -57.5v-3q0 -21 -10 -40t-31 -31
q-12 -6 -17.5 -12t-5.5 -11t6 -9t17 -4q9 -1 21 2.5t26 10.5q41 22 57 68.5t20 98.5q2 24 2 48v68l-79 1q-41 -1 -57 -17t-22 -39l-15 1q1 2 1 5.5t1 6.5q1 11 3 23.5t5 25.5q7 31 24.5 57.5t59.5 30.5l79 1v11q0 79 -38 117.5t-85 38.5h-8q-27 -2 -53 -16.5t-44 -41.5
l-16 17l189 189q83 -25 140 -64.5t80 -110.5v1z" />
    <glyph glyph-name="Y" unicode="Y" horiz-adv-x="772" 
d="M409 614q6 44 35 68t68 24q13 0 26.5 -2.5t26.5 -8.5q60 -25 110 -109t50 -240v-23q0 -12 -1 -25v-17q-3 -194 -82.5 -355t-296.5 -162h-14q-102 0 -152.5 31.5t-59.5 68.5q-1 4 -1.5 8.5t-0.5 8.5q0 31 27 55.5t76 24.5q58 0 83 -23t25 -51v-5q-3 -30 -28 -54.5
t-64 -24.5h-8q12 -10 37 -17t56 -7q12 0 24.5 1t24.5 4q52 11 96 51.5t54 125.5q5 91 8 173.5t3 158.5q0 47 -1 92l-2 90q-2 33 -3.5 65t-4.5 65q-5 27 -16 43.5t-24 19.5h-4q-16 0 -29.5 -25.5t-13.5 -84.5q1 -14 2 -27l2 -26q2 -25 3.5 -47t1.5 -43q1 -44 -14 -80.5
t-61 -70.5q-20 -15 -46.5 -30t-60.5 -30q53 -18 88.5 -41.5t53.5 -53.5l63 56l7 -15l-181 -166q-21 36 -46.5 62t-51.5 39q-13 7 -26 10.5t-26 3.5q-27 1 -49.5 -14t-36.5 -47l-16 1q30 82 85 120.5t120 44.5q2 7 3.5 17.5t3.5 23.5q6 33 10 80.5t4 97.5v8q-1 74 -15 139.5
t-53 89.5q-5 3 -11.5 5t-12.5 3q-3 1 -6 1.5t-6 0.5q-28 0 -52 -19t-25 -46q0 -12 5.5 -25t18.5 -27q7 -6 15.5 -12.5t18.5 -13.5q30 -19 49 -58t19 -83q0 -5 -0.5 -10t-0.5 -10q-5 -46 -37 -88.5t-101 -65.5l-8 16q48 19 67.5 34t20.5 27q0 5 -2 9.5t-7 9.5q-9 10 -26 21
t-35 25q-20 14 -38 33t-27 45q-4 14 -6.5 28.5t-2.5 28.5q0 89 70.5 155t158.5 66q6 0 11.5 -0.5t11.5 -0.5q40 -5 79 -28t71 -68v1z" />
    <glyph glyph-name="Z" unicode="Z" horiz-adv-x="630" 
d="M39 496h-15v12q0 107 77 156t172 50h18q97 -5 179.5 -55.5t88.5 -139.5v-5q0 -2 1 -4v-10q0 -81 -51 -134.5t-163 -59.5q113 -23 182.5 -86t69.5 -158q0 -144 -90 -217t-198 -81q-7 0 -14.5 -0.5t-14.5 -0.5q-95 -1 -172 46t-85 136q-3 29 -13.5 48t-21.5 23
q-13 5 -24.5 -15.5t-11.5 -76.5v-13q1 -3 1 -6v-7h-17q-1 10 -1.5 19.5t-0.5 18.5q0 68 31 101t68 34h7q3 0 6 -1q83 -9 107.5 -50t30.5 -90q1 -6 1.5 -12.5t1.5 -12.5q5 -47 19.5 -82.5t75.5 -35.5h8q51 0 72.5 49.5t27.5 108.5q3 33 3.5 63.5t-0.5 53.5v28q0 3 1 5v9
q-1 92 -49.5 140t-109.5 48h-9q-49 -3 -93.5 -40t-62.5 -111l-16 1q12 49 32 80.5t42 49.5q12 9 23 15.5t21 10.5q-40 15 -63.5 41t-31.5 55q-2 7 -3 13.5t-1 13.5q0 33 21 57.5t61 24.5h9q31 -3 47.5 -23.5t17.5 -44.5v-3q0 -21 -12 -39.5t-37 -23.5q-10 -3 -15.5 -9.5
t-6.5 -14.5v-4q2 -8 11 -16t27 -11l18 -2q9 -1 16 -1q73 0 103 42.5t36 94.5q1 9 1.5 18t0.5 18t-0.5 18t-1.5 17q-5 85 -50 123t-101 38h-8q-4 0 -8 -1q-61 -5 -112.5 -50.5t-51.5 -119.5v-13z" />
    <glyph glyph-name="bracketleft" unicode="[" horiz-adv-x="331" 
d="M47 709h268v-24h-87q-29 -1 -38 -14t-9 -66v-747q0 -23 5 -39t34 -16h87v-23h-260v929z" />
    <glyph glyph-name="backslash" unicode="\" horiz-adv-x="252" 
d="M-8 709h79l205 -717h-79z" />
    <glyph glyph-name="bracketright" unicode="]" horiz-adv-x="331" 
d="M87 677h-63v24h259v-921h-267v23h78q30 0 43 14t13 49v748q0 46 -17 54t-46 8v1z" />
    <glyph glyph-name="asciicircum" unicode="^" horiz-adv-x="598" 
d="M79 315l173 362h102l174 -362h-51l-171 196l-183 -196h-44z" />
    <glyph glyph-name="underscore" unicode="_" 
d="M0 -71h496v-47h-496v47z" />
    <glyph glyph-name="grave" unicode="`" horiz-adv-x="354" 
d="M189 551q-10 3 -20 6.5t-20 7.5q-5 3 -11 5t-11 4q-34 14 -61 26.5t-35 20.5q-13 12 -19 23.5t-6 21.5q0 20 18 33.5t40 13.5h4q3 0 6 -1q7 -1 14.5 -4t13.5 -8q14 -9 34 -39t42 -64q7 -10 13.5 -20t13.5 -19z" />
    <glyph glyph-name="a" unicode="a" 
d="M291 528q7 -11 21 -23.5t33 -25.5q22 -16 49.5 -30.5t55.5 -24.5q8 -2 15.5 -4t14.5 -4v-14h-13q-22 1 -32 -12t-10 -29v-219q0 -28 7.5 -40.5t23.5 -12.5q8 0 18 3t22 9v-14q-29 -19 -61 -46.5t-73 -56.5l-4 4q-1 1 -3 2q-5 6 -11 10.5t-12 9.5q-18 16 -33.5 34
t-16.5 40v2q0 1 1 3v4q-21 -12 -41 -26.5t-39 -30.5q-18 -14 -35 -27t-34 -25q-27 18 -43.5 31.5t-26.5 26.5q-11 15 -14 32t-3 43v236q0 6 0.5 13t3.5 15q4 11 15.5 22.5t35.5 20.5q18 8 40.5 17t45.5 20q29 13 56 29.5t47 36.5v1zM189 126q0 -23 6.5 -34.5t18.5 -11.5
q5 0 10.5 1.5t11.5 4.5l40 24v268q-28 10 -47 25.5t-36 32.5l-4 4v-314z" />
    <glyph glyph-name="b" unicode="b" 
d="M236 441l150 94l55 -55q2 -3 3.5 -5.5t2.5 -4.5q19 -26 22 -62t3 -118q0 -88 -6 -133.5t-41 -63.5q-15 -9 -43.5 -18.5t-59.5 -21.5q-31 -13 -59 -30t-43 -39q-19 26 -52 51t-69 43q-17 10 -34.5 17.5t-33.5 13.5v17q24 -1 40 11t16 59v308q-6 44 -25.5 83t-41.5 68
q-1 1 -2 2.5t-2 2.5l15 9q3 -4 6 -7l6 -6q4 -5 8 -10.5t8 -11.5q6 -10 12.5 -22t15.5 -30q7 53 48.5 80.5t90.5 37.5q24 6 47.5 8t42.5 2q12 0 21.5 -0.5t16.5 -1.5v-15h-20q-53 0 -75.5 -26t-22.5 -70v-156zM315 394q1 2 1 5v5q0 17 -7.5 23.5t-19.5 6.5q-8 0 -17.5 -2.5
t-19.5 -7.5q-4 -1 -8 -3.5t-8 -4.5v-259l79 -63v300z" />
    <glyph glyph-name="c" unicode="c" horiz-adv-x="402" 
d="M189 480v-252q0 -45 34.5 -81t81.5 -36q11 0 22 2t23 7q11 4 22 11.5t22 17.5l15 -15q-17 -10 -43.5 -26.5t-55.5 -35.5q-6 -4 -12.5 -8.5t-12.5 -9.5q-25 -17 -46.5 -34t-33.5 -28q-9 8 -20.5 14t-23.5 13l-12 6q-6 3 -12 7q-37 20 -67.5 52.5t-30.5 103.5
q0 17 -0.5 34.5t-1.5 35.5q0 6 -0.5 12t-0.5 12t-0.5 12t-0.5 12q0 47 10 87.5t42 62.5l220 79l79 -149l-126 -63z" />
    <glyph glyph-name="d" unicode="d" 
d="M205 449q-64 21 -99.5 53.5t-46.5 67.5q-2 8 -3.5 16t-1.5 16q0 46 39 80t107 35h10q2 0 4.5 -0.5t5.5 -0.5v-15q-48 -1 -68 -11t-21 -24q0 -3 0.5 -5.5t1.5 -5.5q5 -9 15 -18.5t25 -15.5q7 -3 14.5 -6t16.5 -6q19 -7 40.5 -14t43.5 -16q59 -22 108 -60t53 -111v-224
q0 -56 -26 -75t-62 -31q-11 -3 -22.5 -7t-23.5 -9q-24 -9 -46.5 -25.5t-40.5 -44.5q-35 40 -85.5 69t-103.5 40v17q19 -1 25 11t7 27v269q11 -5 26 -8t31 -3q26 0 48 7.5t29 26.5v1zM252 144q14 -9 24 -19q7 -7 12.5 -13t10.5 -11v261q0 30 -17 49t-37 28q-6 3 -12.5 5.5
t-12.5 3.5v-291q18 -4 32 -13z" />
    <glyph glyph-name="e" unicode="e" horiz-adv-x="425" 
d="M299 535l110 -173l-220 -142q18 -56 48 -81t63 -28q3 -1 5 -1h6q28 0 54 12.5t44 33.5l8 -14q-16 -15 -32 -28t-33 -26q-33 -25 -64.5 -49t-59.5 -47q-88 28 -128.5 75t-53.5 97q-3 10 -4.5 20t-2.5 20q-1 15 -2 31t-1 33v13q0 7 1 14q2 50 19.5 95.5t61.5 65.5zM181 465
v-221l102 63z" />
    <glyph glyph-name="f" unicode="f" horiz-adv-x="331" 
d="M16 394v15q32 4 45 27t13 61q0 10 -0.5 21.5t-2.5 23.5q-1 9 -1 18v16q-1 79 24.5 107.5t56.5 28.5q20 1 39 -8t30 -20q18 -17 29.5 -26t18.5 -9q10 -1 12.5 16t2.5 51l16 1q2 -14 2.5 -26t0.5 -23q0 -76 -24.5 -103.5t-53.5 -28.5h-7q-16 0 -31 5.5t-27 12.5
q-6 3 -10 6.5t-7 5.5q-11 11 -20.5 16.5t-17.5 5.5q-7 0 -11 -4t-4 -12q0 -7 3 -16.5t10 -21.5q22 -37 74.5 -52t111.5 -18h27v-70h-71q0 -41 -8.5 -126.5t-20.5 -179.5q-6 -44 -12.5 -87t-13.5 -81q-8 -51 -16.5 -90t-15.5 -58h-15q-6 30 -14 79.5t-17 108.5
q-4 30 -8.5 60.5t-8.5 61.5q-10 81 -17 157.5t-7 125.5v15q0 7 1 13z" />
    <glyph glyph-name="g" unicode="g" 
d="M283 528q8 -9 21 -22t32 -27q25 -19 61 -35.5t83 -19.5v-15q-23 -1 -39 -9.5t-16 -38.5v-274q0 -18 7.5 -29.5t16.5 -22.5q1 -1 1.5 -2t1.5 -2q3 -4 6.5 -8t6.5 -8q8 -12 12.5 -28t4.5 -35q0 -12 -2 -24.5t-6 -24.5q-16 -52 -72 -95.5t-166 -43.5h-16q-80 0 -117 26.5
t-43 58.5q0 3 -0.5 6t-0.5 6q0 30 21 53t55 23h7q33 -4 55 -23t22 -44q0 -3 -0.5 -6.5t-1.5 -6.5q-4 -15 -18.5 -29.5t-41.5 -24.5v-1q-1 -8 14 -12t37 -4q11 0 23.5 1t24.5 3q34 6 63.5 20.5t34.5 39.5q2 8 3 16t1 15q0 23 -8 39t-19 31q-3 5 -6.5 9.5t-7.5 9.5
q-15 21 -28 48.5t-13 74.5q-20 -14 -37 -26.5t-33 -25.5q-8 -5 -15 -10.5t-14 -11.5q-10 -8 -21 -16.5t-22 -18.5l-2 1q-35 17 -61 41.5t-32 82.5v230q0 39 18.5 57t49.5 31q34 15 79.5 34.5t96.5 65.5v1zM276 378q-15 5 -27 11t-22 12q-10 5 -18 10l-16 10q-1 1 -2 1.5
t-2 1.5v-298q0 -20 6 -33.5t19 -13.5q11 0 26 8.5t36 29.5v261z" />
    <glyph glyph-name="h" unicode="h" 
d="M220 425l166 118q5 -6 11 -12.5t12 -13.5q18 -22 33.5 -51t15.5 -65v-8q0 -3 -1 -8v-298q0 -25 -16 -78.5t-80 -113.5q-33 -30 -81 -59.5t-115 -55.5l-8 15q63 22 94 55t43 68q10 28 11.5 55t1.5 48v356q-1 21 -8 39t-24 18q-10 0 -23.5 -7.5t-31.5 -25.5v-259
q0 -24 10 -34t26 -10q5 0 10 1l10 2v-14q-25 -13 -48.5 -30t-43.5 -34q-9 -8 -18 -15.5t-16 -15.5q-24 28 -57.5 52t-68.5 42v16q2 -1 4 -1h13q12 -1 21 6t9 34v371q0 13 -3.5 30t-8.5 35q-9 27 -22 52t-26 37h-2l-1 2l8 17q3 -4 5 -6.5t5 -4.5q18 -21 29 -41t16 -36
q15 55 58 83t92 38q19 4 37 5.5t35 1.5q11 0 20.5 -0.5t17.5 -1.5v-14q-7 -1 -14 -1.5t-15 -1.5q-31 -4 -56.5 -20t-25.5 -49v-212z" />
    <glyph glyph-name="i" unicode="i" horiz-adv-x="291" 
d="M16 417l-8 16q12 5 25 12.5t26 16.5q24 17 47.5 37t43.5 43q23 -29 53.5 -56.5t72.5 -45.5v-15h-11q-20 1 -30.5 -11t-13.5 -27q-1 -2 -1 -5v-232q0 -24 9 -38.5t22 -14.5q8 0 16 5t16 15l16 -7q-32 -26 -53 -45t-40 -34q-12 -10 -23.5 -19t-26.5 -16q-1 -1 -2.5 -2
t-3.5 -2q-47 28 -59 59t-12 66v277q0 19 -6.5 26.5t-15.5 7.5q-4 0 -8.5 -1t-9.5 -2q-2 -1 -4.5 -2t-5.5 -2t-6.5 -2.5t-6.5 -2.5v1zM134 559q-34 25 -49 51t-15 48q0 29 21.5 47t58.5 18q32 0 48.5 -19.5t17.5 -45.5q0 -6 -1 -12t-2 -11q-7 -23 -26.5 -44t-52.5 -33v1z" />
    <glyph glyph-name="j" unicode="j" horiz-adv-x="291" 
d="M-39 -181q53 0 82.5 13.5t35.5 96.5v441q0 25 -5 37.5t-15 13.5q-5 0 -12 -3t-16 -10l-7 17q15 8 32 21t35 27q8 7 16.5 14.5t16.5 15.5q9 8 17 15.5t16 15.5q4 -6 8.5 -12t10.5 -13q12 -12 26.5 -24.5t28.5 -22.5t27.5 -17.5t24.5 -12.5v-15q-4 1 -8.5 1.5t-9.5 0.5
q-16 0 -26.5 -12.5t-10.5 -45.5v-337q4 -39 10 -69.5t19 -60.5q5 -10 11.5 -21.5t14.5 -22.5l-15 -7q-9 12 -15.5 22.5t-11.5 20.5q-2 3 -3.5 6.5t-3.5 7.5q-3 7 -7 14l-7 15q-12 -59 -58 -87t-100 -36q-16 -3 -31.5 -4t-30.5 -1q-10 0 -19.5 0.5t-18.5 1.5zM142 551
q-11 8 -20.5 17.5t-16.5 19.5q-11 16 -17.5 31.5t-6.5 30.5q0 26 19.5 44.5t56.5 21.5q26 0 48 -21t22 -50q0 -9 -2.5 -18.5t-8.5 -18.5q-9 -15 -27 -30t-47 -28v1z" />
    <glyph glyph-name="k" unicode="k" horiz-adv-x="512" 
d="M228 409l158 119q19 -11 37 -25t31 -29q11 -13 17.5 -25t6.5 -22q0 -6 -3 -11t-10 -8l-79 -54q11 -10 20 -19t16 -18q16 -19 25.5 -38.5t17.5 -43.5q3 -7 4.5 -18t3.5 -23q0 -4 0.5 -8.5t1.5 -8.5q3 -27 10.5 -48.5t27.5 -21.5q6 0 13.5 2.5t16.5 7.5v-15
q-38 -26 -63.5 -48.5t-47.5 -41.5q-9 -8 -18.5 -14.5t-19.5 -13.5q-40 20 -51 59.5t-16 82.5q-5 42 -15 80t-44 61l-40 -23v-106q0 -16 4.5 -30t19.5 -14q5 0 11 1.5t13 5.5v-14q-4 -3 -8 -5.5t-8 -5.5q-36 -21 -62.5 -43.5t-47.5 -48.5q-24 34 -57.5 61t-68.5 33v16
q29 -1 42 8t13 39v355q0 13 -4 32t-11 39q-5 16 -11.5 31.5t-12.5 28.5q-7 12 -13 21t-11 12l8 17q15 -12 25.5 -28t18.5 -33q3 -9 6 -17.5t5 -16.5q0 54 44.5 83.5t97.5 41.5q25 5 48.5 7.5t42.5 2.5h14q7 0 13 -1v-15q-53 -1 -82 -27t-29 -61v-204zM228 260l126 86
q-2 2 -4.5 5t-5.5 6q-3 5 -6.5 10t-6.5 10q-11 16 -24 29.5t-30 13.5q-10 0 -22 -6t-27 -21v-133z" />
    <glyph glyph-name="l" unicode="l" horiz-adv-x="291" 
d="M71 598q17 70 85.5 92t150.5 33v-14q-59 -13 -73 -40.5t-14 -63.5v-448q0 -22 6 -37t29 -16q9 0 22 3t30 10v-15q-18 -8 -41.5 -23.5t-48.5 -34.5q-15 -12 -29 -24t-27 -24l-4 -4q-6 6 -12.5 12t-13.5 13q-25 24 -52 45.5t-55 30.5v17q5 -2 10 -3t9 -1q17 0 22 11t6 24
v387q0 11 -5.5 30t-14.5 40q-8 19 -18.5 37t-21.5 30l-3 3l8 17q1 -2 2 -3l2 -2q16 -17 28 -36t23 -47v1z" />
    <glyph glyph-name="m" unicode="m" horiz-adv-x="756" 
d="M362 543q35 -10 64 -37t33 -57q1 -2 1 -4v-8q0 -2 -1 -4q0 -3 -0.5 -5t-1.5 -4l165 119q1 -2 1 -3l33 -32q18 -17 39.5 -33t52.5 -27v-15q-4 0 -7.5 0.5t-7.5 0.5q-17 0 -28.5 -12t-11.5 -37v-224q0 -19 5.5 -35.5t22.5 -16.5q8 0 18.5 3.5t24.5 12.5v-15l-142 -118
q-53 34 -66 63t-13 46v293q0 23 -6 32.5t-17 9.5q-7 0 -15 -3.5t-16 -9.5q-4 -2 -7.5 -4.5t-6.5 -4.5q-5 -4 -9.5 -7t-8.5 -6v-248q0 -22 7 -41t24 -19v-14q-9 -1 -20.5 -5.5t-22.5 -12.5q-17 -13 -33 -31t-26 -38q-12 19 -25.5 35t-27.5 27q-16 12 -30.5 18t-26.5 6v16
q28 -1 33.5 18t5.5 41v233q0 28 -6 38.5t-17 10.5q-8 0 -19 -5t-22 -11q-1 -1 -2.5 -1.5t-2.5 -0.5q-4 -3 -8.5 -5t-9.5 -4v-258q0 -25 7 -38t25 -19v-14q-30 -1 -57.5 -27t-45.5 -60q-7 7 -14 15l-14 16q-19 21 -42 38t-56 17v16q21 -1 35 7.5t15 40.5q0 5 -0.5 10.5
t-1.5 11.5v214q0 26 -7.5 38.5t-18.5 12.5q-8 0 -17.5 -5.5t-19.5 -15.5l-8 17l126 118q7 -4 15.5 -8.5t16.5 -10.5q19 -14 36.5 -33.5t23.5 -40.5q2 -5 2.5 -9t0.5 -8v-5q0 -1 -1 -3z" />
    <glyph glyph-name="n" unicode="n" horiz-adv-x="535" 
d="M244 417l165 118q8 -9 17 -18.5t18 -19.5q19 -19 41.5 -36t49.5 -21v-15q-29 -1 -46 -12t-17 -52v-212q0 -3 1 -7q1 -15 7.5 -27t22.5 -13q8 0 17.5 3.5t22.5 11.5l8 -7l-149 -126q-53 40 -66 72t-13 61v261q0 25 -7 35t-18 10q-7 0 -14.5 -3t-15.5 -8q-6 -4 -12 -9
l-12 -10v-261q0 -4 1 -9q1 -9 6 -17.5t17 -12.5v-14q-24 -7 -52.5 -25t-58.5 -70q-7 20 -25.5 38t-39.5 32q-15 9 -29 15.5t-24 8.5v16q24 -1 39.5 9t15.5 46v213q0 3 -0.5 7.5t-0.5 9.5q-3 14 -9.5 25.5t-18.5 11.5q-8 1 -18 -4.5t-23 -18.5l-8 16l134 126q47 -24 70 -51
t24 -67z" />
    <glyph glyph-name="o" unicode="o" horiz-adv-x="480" 
d="M63 457q11 -2 24 -3t26 -1q38 0 85 9.5t95 38.5q12 7 23.5 15t22.5 18q21 -14 36.5 -27.5t27.5 -26.5q30 -37 34.5 -75.5t3.5 -88.5v-34q0 -9 0.5 -18t0.5 -17q0 -9 0.5 -17t0.5 -16q0 -49 -20 -88t-100 -56q-9 -2 -20 -7.5t-23 -12.5q-17 -12 -33 -29t-27 -37
q-4 10 -14.5 22t-26.5 24q-18 15 -40 29t-45 24q-18 8 -36 13t-34 5v17q17 -1 28 15t11 39v285zM299 370q0 30 -17.5 47t-37.5 24q-11 4 -21 5.5t-18 1.5v-283l94 -63v268z" />
    <glyph glyph-name="p" unicode="p" horiz-adv-x="535" 
d="M252 425l173 110q25 -18 41.5 -47t23.5 -61q3 -13 4.5 -25.5t1.5 -24.5v-212q0 -30 -19.5 -46t-46.5 -30q-7 -3 -13.5 -6.5t-13.5 -7.5q-28 -14 -53 -35t-35 -56q-18 17 -34.5 29t-28.5 17q-2 -22 -7.5 -50t-12.5 -57q-3 -15 -7 -29.5t-7 -28.5q-8 -31 -16 -56t-13 -37
h-16q-23 94 -39 174.5t-16 139.5q-5 7 -16 12.5t-24 6.5h-4q-14 0 -25 -8.5t-12 -31.5q0 -4 0.5 -9t1.5 -10l-15 1q-1 10 -2 19.5t-1 18.5q0 59 26.5 90.5t62.5 36.5v190q-36 15 -53 43t-17 59v6q2 45 36.5 82.5t94.5 37.5h9q5 0 9 -1v-15h-12q-22 0 -41 -9.5t-19 -23.5
q0 -3 1 -6.5t4 -6.5q5 -7 15.5 -13.5t27.5 -12.5q7 -2 17.5 -5.5t22.5 -10.5q18 -10 33 -30t15 -57v-7q-1 -2 -1 -4v-3zM268 171l18 -10q17 -11 33 -23.5t27 -28.5v261q0 26 -10.5 41t-27.5 16q-12 0 -26.5 -8.5t-29.5 -25.5v-212z" />
    <glyph glyph-name="q" unicode="q" 
d="M283 94l-141 -110q-12 8 -23 14.5t-20 13.5q-26 20 -39 43t-13 62v214q0 45 25.5 67.5t62.5 39.5q16 8 33 15.5t34 17.5q22 11 42.5 26.5t38.5 36.5q24 -35 78.5 -66.5t118.5 -43.5v-15q-29 -1 -42 -13.5t-13 -42.5v-290q-5 -63 -13 -118t-22 -108q-5 -16 -9.5 -32.5
t-10.5 -32.5h-16q-35 76 -53 154.5t-18 166.5v1zM283 118v260q-2 -1 -4.5 -1t-4.5 1q-20 3 -39.5 15.5t-34.5 27.5l-3 3v-267q0 -17 3.5 -28.5t12.5 -21.5q4 -5 10 -10.5t13 -10.5z" />
    <glyph glyph-name="r" unicode="r" horiz-adv-x="441" 
d="M236 409l126 119l87 -134l-103 -111l-78 126l-32 -23v-229q3 -23 16.5 -37t35.5 -14q19 0 43.5 11.5t54.5 38.5l8 -14l-189 -158q-11 9 -25.5 21t-31.5 26q-26 20 -56 38t-61 23q-2 0 -3.5 0.5t-3.5 0.5v17q5 -1 11 -0.5t13 2.5q14 3 26.5 13t12.5 31v198q0 27 -12 39
t-28 12h-4q-1 0 -3 -1q-9 -1 -17.5 -6t-14.5 -13l-8 17l142 133q35 -18 64 -52q29 -33 30 -74z" />
    <glyph glyph-name="s" unicode="s" 
d="M102 528v6q0 69 51.5 103.5t114.5 34.5h7q60 -2 111.5 -33t62.5 -89q3 -16 4.5 -29t1.5 -25q0 -39 -12 -61.5t-26 -35.5q-8 -8 -15.5 -13.5t-12.5 -11.5q-5 -5 -8 -10t-3 -11q44 -7 72.5 -41t28.5 -78q0 -11 -2 -22t-6 -22q-5 -14 -14.5 -28.5t-23.5 -28.5
q-15 -15 -29 -28.5t-27 -26.5l-16 -16q-19 -18 -37.5 -39t-40.5 -47q-8 5 -20.5 12t-28.5 14q-17 8 -36 15.5t-38 12.5q-12 3 -23 4.5t-22 1.5q-20 0 -38 -6.5t-30 -22.5l-16 1q8 10 16.5 23t17.5 26l20 28q13 21 24 41t17 38q-46 34 -65.5 63.5t-19.5 56.5q0 40 32.5 75.5
t71.5 67.5q22 18 43 35.5t36 34.5q6 8 11.5 15.5t8.5 14.5q11 -20 34.5 -33t48.5 -16q4 0 8 -0.5t8 -0.5q29 -1 51.5 14t22.5 48q0 10 -1.5 20.5t-6.5 22.5q-13 35 -53 54t-86 19h-6q-53 -2 -98 -32t-48 -96zM354 87q8 14 12 29t4 30q1 43 -28.5 73.5t-70.5 30.5
q-14 0 -29.5 -4t-30.5 -14q-18 -11 -35.5 -30t-33.5 -46q68 -5 119.5 -24.5t86.5 -41.5q2 -1 3.5 -2t2.5 -2v1zM165 425q-8 -14 -12 -27.5t-4 -26.5q0 -41 30.5 -71t70.5 -30q5 0 10.5 0.5t10.5 1.5q25 6 49 27t42 62q-12 -5 -24.5 -8t-25.5 -3q-31 0 -60 12.5t-50 27.5
q-14 10 -23.5 19t-13.5 15v1z" />
    <glyph glyph-name="t" unicode="t" horiz-adv-x="346" 
d="M87 394h-63v15q44 7 84.5 51.5t66.5 96.5q16 31 26 60t12 51l23 1v-204h103v-71h-103v-237q4 -21 13.5 -33t25.5 -12q12 0 28 7t36 22l7 -15q-33 -27 -55 -46t-41 -36l-2 -2l-1 -1q-15 -13 -30.5 -27t-35.5 -30q-13 22 -34 43t-44 35q-17 11 -34 17.5t-30 6.5v16
q30 -1 39 11t9 36v245z" />
    <glyph glyph-name="u" unicode="u" horiz-adv-x="535" 
d="M16 394l-16 15l150 119q23 -6 43.5 -32t29.5 -56q2 -8 3.5 -16t1.5 -16v-274q2 -26 10.5 -35.5t18.5 -9.5q5 0 10.5 2t11.5 5t11.5 7.5t11.5 9.5q4 3 7 6l6 6v245q0 28 -6 41t-18 13v17q22 3 40 20t33 37q6 8 11.5 15t10.5 14q7 -7 16 -17.5t20 -20.5q17 -17 39.5 -31
t50.5 -18v-15q-24 -1 -39.5 -13t-15.5 -35v-235q0 -20 10.5 -32.5t24.5 -12.5q9 0 18 5t18 15l7 -15l-133 -118q-53 28 -71 53t-18 46q0 5 0.5 9.5t1.5 8.5l-165 -117q-24 29 -53.5 55.5t-65.5 38.5v16q30 -1 39 12t9 43v205q0 24 -8 42t-22 18q-7 0 -15.5 -5t-17.5 -16v1z
" />
    <glyph glyph-name="v" unicode="v" horiz-adv-x="512" 
d="M472 378v-213q-3 -48 -23.5 -64.5t-53.5 -26.5q-34 -11 -77 -27.5t-90 -62.5q-7 8 -15 16t-17 16q-25 23 -56.5 44.5t-64.5 32.5q-9 3 -18 5t-18 3v17q36 -1 45.5 15t9.5 39v222q-30 6 -46.5 32t-16.5 57q0 5 0.5 10t1.5 9q6 42 44 76.5t113 35.5h11q6 0 12 -1v-15
q-60 -4 -79 -15.5t-16 -24.5q2 -9 10.5 -17t18.5 -14q5 -3 9.5 -5t8.5 -3q47 -12 63 -36t16 -59l142 104q4 -4 8.5 -8t8.5 -8q26 -23 47.5 -56t21.5 -78zM323 378q0 22 -12.5 33.5t-28.5 11.5q-17 0 -31.5 -13t-14.5 -41v-212q12 -10 23.5 -18.5t23.5 -17.5q11 -9 21 -17.5
t19 -17.5v292z" />
    <glyph glyph-name="w" unicode="w" horiz-adv-x="740" 
d="M87 394q-31 9 -49 35t-18 57v6q0 4 1 7q4 43 46 78.5t130 35.5v-15q-49 -3 -69 -13t-21 -22q-1 -13 16.5 -25.5t41.5 -18.5q38 -10 51.5 -29t14.5 -42q0 -6 -0.5 -12t-2.5 -12l158 104q1 -2 2.5 -3t2.5 -2q22 -19 42.5 -45t31.5 -54l149 111q6 -5 12.5 -11t12.5 -13
q16 -18 30 -41.5t20 -48.5q2 -7 3 -14t1 -14v-215q0 -49 -24.5 -67t-61.5 -29q-16 -6 -33.5 -11.5t-35.5 -14.5q-22 -10 -42.5 -25.5t-38.5 -38.5q-42 28 -71 48.5t-56 31.5q-11 5 -22.5 8.5t-24.5 5.5v16q18 -1 25 14t7 33v229q0 25 -8.5 37.5t-22.5 12.5q-11 0 -25.5 -7
t-30.5 -20v-236q0 -42 11 -53t29 -11v-14q-28 -13 -47 -26t-36 -31q-8 -8 -16.5 -18t-18.5 -20l-8 12q-4 6 -9 13q-17 24 -41 45.5t-61 30.5v17q36 -1 46 11t10 35v238zM551 386q0 19 -10 29.5t-25 10.5q-7 0 -16 -2.5t-18 -8.5q-4 -3 -8.5 -6.5t-8.5 -7.5v-267l86 -40v292z
" />
    <glyph glyph-name="x" unicode="x" horiz-adv-x="480" 
d="M102 362q-7 21 -21.5 33t-31.5 12q-3 0 -5.5 -0.5t-5.5 -0.5q-8 -2 -15.5 -7.5t-14.5 -13.5l-8 17l134 126q40 -1 64.5 -30t40.5 -63q8 -15 14 -29t12 -26q3 -6 5.5 -10.5t5.5 -8.5l70 167q5 -4 12 -8t15 -8q7 -4 14.5 -7.5t15.5 -5.5q7 -3 14 -4.5t14 -1.5q14 0 25.5 9
t15.5 32l16 1q-9 -74 -33.5 -110t-67.5 -36q-15 0 -33.5 4.5t-38.5 14.5l-32 -69l95 -189q3 -8 6 -14.5t6 -12.5q9 -16 18.5 -27t26.5 -11q10 0 23 4t30 12l8 -14l-205 -103l-86 166l-71 -166q-3 3 -7.5 6.5t-11.5 7.5q-11 5 -26.5 11t-32.5 6q-16 0 -30.5 -7t-25.5 -24h-16
q20 85 45.5 114t53.5 29q10 0 20.5 -2.5t20.5 -6.5q5 -2 9.5 -4t9.5 -4t10.5 -4.5t11.5 -4.5l32 72z" />
    <glyph glyph-name="y" unicode="y" horiz-adv-x="512" 
d="M87 402q-31 6 -46.5 30.5t-15.5 55.5q0 6 0.5 12t1.5 13q8 42 44.5 77.5t101.5 38.5v-15q-34 -9 -50.5 -21t-17.5 -25q0 -14 17.5 -27t50.5 -22q22 -6 35 -22.5t19 -35.5q5 -16 7 -30.5t2 -22.5l158 112q24 -19 40.5 -41.5t25.5 -46.5q6 -16 9 -32.5t3 -30.5v-259
q-5 -118 -74 -199t-217 -139v15q1 1 2 1.5t2 0.5q69 42 103.5 92t34.5 142v339q0 26 -7.5 39.5t-22.5 13.5q-10 0 -24.5 -7.5t-32.5 -22.5v-235q0 -25 9.5 -33t22.5 -8h7q7 0 14.5 2t12.5 4l3 1q1 1 2 1v-15q-25 -9 -50 -29.5t-50 -44.5q-10 -9 -20.5 -18.5t-21.5 -17.5
q-6 5 -12.5 10t-11.5 11q-10 9 -19 18t-18 17q-15 14 -30.5 24.5t-34.5 13.5v16q18 -1 33 10t15 29v261z" />
    <glyph glyph-name="z" unicode="z" horiz-adv-x="386" 
d="M31 394l182 134q35 -27 61 -60.5t30 -68.5q1 -3 1 -6v-5q0 -33 -26.5 -64.5t-89.5 -56.5q18 0 34.5 -5t28.5 -11q18 12 45.5 21.5t56.5 9.5v-14q-6 -3 -12.5 -4.5t-13.5 -3.5q-18 -4 -35 -10t-25 -15q52 -36 76 -91t25 -114v-6q-2 -92 -58.5 -170t-153.5 -82h-7
q-76 0 -115.5 55.5t-39.5 129.5q0 12 1 23.5t3 22.5q10 66 53 126t121 90q-11 6 -20 8.5t-17 2.5q-15 0 -24.5 -7.5t-17.5 -15.5q-6 -6 -11.5 -11t-11.5 -8q-3 -1 -6 -2.5t-6 -1.5q-2 -1 -3 -1h-3q-10 0 -16 6.5t-6 15.5q0 2 0.5 4.5t1.5 5.5q4 9 15 17.5t31 10.5
q48 8 68.5 31.5t20.5 50.5q0 29 -20 52.5t-51 24.5q-13 0 -27.5 -6t-30.5 -19zM181 205q-58 -21 -88 -79t-38 -124q-1 -10 -2 -21t-1 -22q0 -68 23 -120t64 -52h3q39 0 54.5 62.5t15.5 139.5v10q-1 70 -10 130.5t-21 74.5v1z" />
    <glyph glyph-name="braceleft" unicode="{" horiz-adv-x="331" 
d="M31 252q42 11 56.5 33.5t14.5 75.5v214q0 64 43.5 99t120.5 35h12q6 0 13 -1v-31q-29 -7 -46 -28.5t-17 -74.5v-212q0 -48 -13 -68t-29 -29q-5 -2 -9 -4l-8 -4q-3 -1 -6 -2.5t-6 -3.5v-1h2q29 -18 49 -43.5t20 -89.5v-180q0 -10 1.5 -22.5t4.5 -25.5q6 -26 20 -48t37 -22
v-32h-16q-84 -1 -118 24.5t-43 55.5q-3 11 -4 21.5t-1 19.5v9q0 4 1 7v194q0 52 -21.5 83.5t-57.5 49.5v1z" />
    <glyph glyph-name="bar" unicode="|" horiz-adv-x="220" 
d="M63 717h102v-725h-102v725z" />
    <glyph glyph-name="braceright" unicode="}" horiz-adv-x="331" 
d="M31 701q107 -1 145.5 -30.5t43.5 -112.5v-204q0 -54 18 -78.5t53 -24.5v-15q-4 -2 -8.5 -3.5t-9.5 -3.5q-20 -7 -36.5 -29t-16.5 -75v-212q-5 -83 -46.5 -108t-142.5 -25v31q24 0 43.5 31.5t19.5 78.5v205q0 40 13 67t66 50h-2l-1 1q-28 6 -52 26t-24 83v214
q0 52 -16.5 73.5t-46.5 27.5v33z" />
    <glyph glyph-name="asciitilde" unicode="~" horiz-adv-x="595" 
d="M71 177q23 124 54.5 144t66.5 20q17 0 34 -3.5t35 -10.5q11 -4 23 -9.5t23 -11.5l12 -8q8 -4 16 -9q13 -8 28.5 -14t32.5 -6q23 0 48.5 16t51.5 60l34 -15q-25 -126 -55.5 -147t-62.5 -21q-4 0 -9 0.5t-9 0.5q-23 3 -45 12.5t-42 20.5q-2 1 -4.5 2.5t-5.5 2.5
q-17 8 -35.5 15.5t-37.5 11.5q-6 1 -12.5 1.5t-12.5 0.5q-27 0 -52 -14t-45 -52z" />
    <glyph glyph-name="uni00A0" unicode="&#xa0;" horiz-adv-x="0" 
 />
    <glyph glyph-name="exclamdown" unicode="&#xa1;" horiz-adv-x="362" 
d="M181 276h16q2 -26 6 -52t10 -51q5 -23 11 -46t12 -45q15 -54 27.5 -102.5t12.5 -89.5q-3 -43 -31 -65.5t-61 -23.5q-31 0 -57.5 21.5t-32.5 67.5v13q0 41 14.5 84t32.5 102q12 38 22.5 83.5t17.5 102.5v1zM197 520q6 -37 25.5 -59.5t60.5 -28.5v-23q-35 -12 -57.5 -36
t-28.5 -59l-24 1q-4 24 -20.5 45t-35.5 34q-8 5 -15.5 8.5t-14.5 5.5v25q40 5 56.5 24t28.5 58q0 1 0.5 2t0.5 2z" />
    <glyph glyph-name="cent" unicode="&#xa2;" horiz-adv-x="567" 
d="M331 512q13 -1 26 -2.5t27 -4.5q54 -13 98.5 -48.5t45.5 -89.5q0 -14 -4 -29t-12 -32q-11 -20 -33.5 -30t-48.5 -10q-34 -1 -62 17.5t-28 53.5q0 8 1.5 15.5t4.5 16.5q4 10 14.5 18.5t22.5 16.5q2 2 4.5 3.5t5.5 3.5q12 8 20.5 16.5t8.5 18.5q1 5 -2 11.5t-11 13.5
q-11 11 -31 13.5t-42 2.5h-5v-463q4 -1 7 -1h7q75 -1 116 41t53 93q2 8 3.5 15.5t2.5 15.5l15 1q0 -16 -4.5 -38t-16.5 -46q-19 -40 -62 -72.5t-121 -32.5v-157h-24v157q-18 0 -36.5 3t-38.5 9q-64 22 -118 78t-59 137v12q0 95 42.5 151.5t93.5 85.5q34 19 65.5 27t50.5 8
v135h24v-134zM307 488q-42 -6 -58 -61t-20 -119q0 -17 -0.5 -33.5t-0.5 -31.5q0 -112 16 -163.5t63 -56.5v465z" />
    <glyph glyph-name="sterling" unicode="&#xa3;" horiz-adv-x="606" 
d="M150 346q-37 29 -59 69.5t-22 84.5q0 26 8 52.5t25 52.5q32 49 94 73.5t130 26.5h11q97 0 176 -42t80 -122q0 -5 -0.5 -10.5t-1.5 -11.5q-7 -43 -34 -62t-59 -19h-3q-36 1 -66 24t-31 62q0 6 1.5 12.5t2.5 13.5q4 16 17.5 26t29.5 16q6 3 11.5 5t10.5 4q11 4 18.5 9
t7.5 12t-7 16t-25 22t-45.5 19.5t-58.5 6.5h-13q-54 -3 -98 -25.5t-45 -66.5q0 -11 3.5 -24.5t11.5 -27.5q8 -18 21 -34.5t27 -32.5q3 -4 6 -7.5t7 -6.5q18 -21 32 -43t14 -48q0 -6 -1 -12t-3 -13l220 1v-23h-220q-30 -36 -66.5 -61t-83.5 -43q55 0 89.5 -12.5t64.5 -32.5
q8 -6 17 -12t18 -13q40 -27 73 -39.5t59 -12.5q36 -1 56.5 20t24.5 55l16 1q-10 -100 -70 -142t-130 -44h-3q-46 0 -88.5 15.5t-71.5 43.5q-40 40 -71 60.5t-53 20.5q-21 0 -33.5 -18t-15.5 -55l-16 1v7q0 53 26 85t57 53q15 11 30.5 20.5t26.5 18.5q11 8 18 17t7 19
t-7 21.5t-24 25.5l-149 1v23h126z" />
    <glyph glyph-name="currency" unicode="&#xa4;" horiz-adv-x="646" 
d="M150 575l47 -47q23 17 50 27.5t55 14.5q7 0 13 0.5t12 0.5q36 0 68.5 -11.5t53.5 -32.5l47 48l63 -63l-47 -47q17 -14 28 -49t11 -78q0 -9 -0.5 -17.5t-1.5 -17.5q-3 -26 -12 -52t-25 -47l47 -47l-63 -55l-47 48q-21 -20 -52.5 -30.5t-65.5 -12.5h-13q-37 0 -70 10.5
t-51 31.5l-55 -47l-55 63l47 40q-8 11 -14.5 23t-11.5 24q-8 20 -11.5 40t-3.5 39q0 34 8 63t18 47q4 8 8 14t7 9l-47 48zM331 457q-1 -1 -2 -1h-6q-59 0 -88 -36.5t-30 -80.5q0 -45 30 -82.5t88 -37.5q57 0 86.5 37.5t29.5 82.5v3q-1 41 -27.5 76t-80.5 38v1z" />
    <glyph glyph-name="yen" unicode="&#xa5;" horiz-adv-x="646" 
d="M370 362l134 244q5 9 8 17.5t3 15.5q0 23 -23 34t-59 11v33h213v-32q-24 -5 -38.5 -12.5t-27.5 -21.5q-7 -7 -14 -16.5t-15 -21.5l-142 -243h126v-31h-141v-103h141v-31h-141v-134q0 -31 24.5 -36t53.5 -5v-30h-291v31l1 -1h2q28 0 52 5.5t24 34.5v135h-142v31h142v103
h-142v31h118l-149 260q-18 28 -45.5 41t-56.5 13l-1 33h323v-32q-36 -1 -51.5 -9.5t-15.5 -26.5q0 -8 3 -19t9 -25z" />
    <glyph glyph-name="brokenbar" unicode="&#xa6;" horiz-adv-x="220" 
d="M55 724h110v-732h-110v732z" />
    <glyph glyph-name="section" unicode="&#xa7;" horiz-adv-x="606" 
d="M165 425q-27 23 -41.5 52t-17.5 59v12q-1 65 51.5 118t149.5 57q13 0 26.5 -1.5t27.5 -3.5q54 -11 98.5 -41t44.5 -78v-9q-3 -27 -25.5 -41t-48.5 -15h-3q-26 -1 -47.5 13t-21.5 42q0 5 1 11t3 13q2 11 10 18.5t17 12.5q6 3 11 6t9 6q3 2 5.5 4.5t2.5 5.5q0 4 -3.5 8.5
t-11.5 9.5q-13 9 -32 13.5t-40 4.5h-9q-4 0 -8 -1q-44 -3 -80 -25t-36 -63q3 -36 40 -56.5t86 -38.5q11 -4 21.5 -7.5t20.5 -7.5q48 -17 91 -40t64 -62q10 -18 17.5 -46.5t7.5 -61.5q0 -11 -1 -22.5t-4 -23.5q-7 -33 -26.5 -65t-56.5 -57q26 -22 41.5 -61.5t15.5 -82.5
q0 -6 -0.5 -11.5t-0.5 -11.5q-7 -70 -60 -128t-170 -58q-70 0 -116.5 39t-59.5 86q-3 8 -4 16t-1 16q3 33 26 48.5t51 16.5h3q32 -1 59 -20t27 -53q0 -16 -8 -29.5t-18 -25.5q-10 -11 -18 -20.5t-8 -18.5t9.5 -17t34.5 -15q5 -2 10 -3l10 -2q5 0 10 -0.5t10 -0.5
q53 0 95.5 33t42.5 77q0 5 -0.5 10.5t-2.5 10.5q-6 21 -25.5 42t-55.5 38q-11 4 -23 8.5t-24 9.5q-16 6 -33 11.5t-34 12.5q-66 25 -121.5 66.5t-55.5 126.5q0 44 9 74t32 57q11 14 26.5 28t34.5 30v1zM173 409q-3 -5 -7 -9.5t-8 -9.5q-12 -14 -22 -30t-10 -34q0 -23 25 -50
t93 -57q14 -6 29.5 -12t31.5 -12q13 -5 26.5 -9.5t25.5 -9.5q27 -10 49.5 -20.5t34.5 -22.5q23 22 34 41.5t11 36.5q0 36 -38.5 65.5t-101.5 53.5q-58 23 -98 42t-75 36v1z" />
    <glyph glyph-name="dieresis" unicode="&#xa8;" horiz-adv-x="449" 
d="M47 567q-32 23 -46 46.5t-14 42.5q-1 23 17.5 37.5t50.5 14.5q30 0 47 -16t17 -39q0 -7 -1.5 -15t-5.5 -15q-7 -16 -23 -30.5t-42 -26.5v1zM228 567q-21 11 -36 28.5t-21 35.5q-3 7 -4 13.5t-1 12.5q0 21 14.5 36t47.5 15q38 0 55 -15t17 -36q0 -5 -1 -10.5t-3 -11.5
q-6 -21 -24 -40t-44 -29v1z" />
    <glyph glyph-name="copyright" unicode="&#xa9;" horiz-adv-x="787" 
d="M402 717q187 -4 278 -114.5t91 -244.5v-3q-1 -136 -94.5 -249.5t-274.5 -113.5q-179 0 -273 113.5t-97 249.5v6q0 132 91 242t279 113v1zM402 661q-153 -6 -223.5 -95t-70.5 -197v-14q5 -115 79.5 -210.5t206.5 -98.5h7q149 0 222 94t73 207v3q-1 116 -75 213t-219 97v1z
M559 457h-24q-15 34 -39.5 52.5t-50.5 20.5h-6q-43 1 -79.5 -45t-36.5 -140q0 -78 37.5 -118.5t82.5 -40.5q33 0 63 22t45 67l24 1l-8 -79v-2q0 -2 -0.5 -3.5t-1.5 -3.5q-8 -16 -48 -29t-92 -13q-10 0 -20 0.5t-20 1.5q-68 9 -124 52.5t-56 143.5v17q3 93 57.5 136.5
t119.5 54.5q15 3 29.5 4t28.5 1q43 1 76 -8t43 -22v-70z" />
    <glyph glyph-name="ordfeminine" unicode="&#xaa;" horiz-adv-x="307" 
d="M31 638q7 -2 14 -2.5t14 -0.5h6q46 1 88 16.5t67 40.5q10 -8 19.5 -15t17.5 -14q15 -13 24.5 -27.5t9.5 -38.5v-125q0 -34 -20 -45.5t-46 -17.5l-12 -4q-22 -6 -41.5 -16.5t-29.5 -35.5q-6 6 -13.5 13t-16.5 14q-19 14 -43.5 27t-52.5 17v17q11 -1 13 8t2 19v170z
M189 425v153q-1 16 -13 30.5t-34 20.5v-164z" />
    <glyph glyph-name="guillemotleft" unicode="&#xab;" horiz-adv-x="402" 
d="M236 465l-86 -189l86 -197h-23l-150 165q-7 7 -11 13.5t-4 12.5q0 8 4 14.5t11 13.5l150 167h23zM370 465l-87 -189l87 -197h-24l-149 165q-7 7 -11 13.5t-4 12.5q0 8 4 14.5t11 13.5l149 167h24z" />
    <glyph glyph-name="logicalnot" unicode="&#xac;" horiz-adv-x="544" 
d="M53 323h443v-194h-82v107h-361v87z" />
    <glyph glyph-name="uni00AD" unicode="&#xad;" horiz-adv-x="441" 
d="M79 315h275v-79h-275v79z" />
    <glyph glyph-name="registered" unicode="&#xae;" horiz-adv-x="787" 
d="M394 709q191 -1 280.5 -108.5t90.5 -240.5v-17q-6 -135 -99.5 -246.5t-264.5 -112.5h-15q-170 3 -255.5 112.5t-86.5 242.5v3q1 134 88.5 247t261.5 119v1zM402 646q-142 -1 -215 -95.5t-75 -207.5v-3q0 -112 72 -205.5t218 -96.5q136 0 208 94t75 206v9q0 111 -69 203
t-214 95v1zM276 488q0 17 -8 24t-32 7v24h221q53 -1 78 -29.5t26 -64.5v-9q-3 -32 -23.5 -60.5t-57.5 -41.5l87 -125q6 -10 9.5 -15t6.5 -8l3 -3q1 -1 3 -2l4 -2q2 -1 5 -3v-23h-94q-11 -1 -16.5 3.5t-9.5 11.5q-3 5 -6 11t-7 13l-63 127h-32v-87q0 -24 6 -37t41 -19v-23
h-189v24q30 5 39 18t9 36v253zM402 354l1 -1h4q25 0 39 23t15 51v3q0 28 -14 50.5t-45 22.5l-32 1v-150h32z" />
    <glyph glyph-name="macron" unicode="&#xaf;" 
d="M-8 707h504v-59h-504v59z" />
    <glyph glyph-name="degree" unicode="&#xb0;" horiz-adv-x="276" 
d="M142 732q2 -1 4 -1h5q58 1 89.5 -26t32.5 -59v-3q0 -32 -30.5 -58.5t-92.5 -26.5q-64 0 -94.5 26.5t-31.5 57.5v3q1 32 31.5 59t86.5 27v1zM150 685q-21 -1 -32.5 -13.5t-12.5 -27.5q0 -15 11 -27t34 -12q20 0 30.5 12t10.5 27q1 15 -9.5 27.5t-31.5 12.5v1z" />
    <glyph glyph-name="plusminus" unicode="&#xb1;" horiz-adv-x="598" 
d="M559 101v-102h-512v102h512zM252 486v205h102v-205h205v-102h-205v-197h-102v197h-205v102h205z" />
    <glyph glyph-name="twosuperior" unicode="&#xb2;" horiz-adv-x="340" 
d="M56 400q18 7 37 9.5t38 2.5q11 0 22.5 -0.5t22.5 -1.5q11 0 21.5 -0.5t20.5 -0.5h18q31 0 56 7.5t25 49.5v9l14 1q-2 -98 -32 -136t-69 -38q-9 0 -18 1.5t-18 3.5q-25 8 -48.5 24t-41.5 36q-3 3 -6 5.5t-6 4.5q-9 9 -19 12.5t-18 3.5q-9 0 -16 -5t-7 -13q0 -4 2.5 -10
t8.5 -12q9 -12 13 -21t4 -16q0 -8 -5 -12t-12 -4h-3q-5 1 -9.5 3.5t-7.5 6.5q-3 6 -4.5 13t-1.5 15q0 26 19.5 59.5t62.5 68.5q28 23 50.5 48.5t35.5 50.5q9 16 13 31t4 30v6q0 4 -1 7q-1 7 -2.5 13t-4.5 12q-10 19 -27.5 28t-37.5 10h-3q-22 0 -42 -9t-28 -24
q-1 -4 -2 -6.5t-1 -4.5q0 -8 7 -10.5t14 -3.5q2 0 2 -1h2q3 0 6.5 -1t5.5 -1q23 -6 33 -18t10 -25v-5q-3 -21 -22.5 -38.5t-43.5 -17.5q-12 0 -24.5 5.5t-23.5 17.5q-10 12 -14.5 24.5t-4.5 25.5v7q3 37 42 68t110 31q12 0 25 -1t26 -3q11 -2 22 -5.5t23 -9.5
q30 -16 56 -44.5t26 -66.5q0 -14 -4 -28.5t-14 -30.5q-16 -24 -50.5 -39.5t-72.5 -26.5q-14 -4 -27.5 -7.5t-25.5 -7.5q-34 -9 -57 -19.5t-23 -26.5z" />
    <glyph glyph-name="threesuperior" unicode="&#xb3;" horiz-adv-x="340" 
d="M71 534h71q35 -1 46 22.5t11 62.5q0 47 -18.5 67.5t-40.5 23.5q-3 1 -6.5 1.5t-6.5 0.5q-14 0 -25.5 -4t-16.5 -9q-3 -4 -4.5 -6.5t-1.5 -4.5q0 -6 6 -10t14 -8q2 -1 4.5 -2t4.5 -2q10 -4 18.5 -10t10.5 -14q1 -4 2 -8.5t1 -7.5q0 -23 -19 -35.5t-41 -12.5h-2
q-22 0 -40.5 12t-18.5 38v3q0 50 40.5 73t91.5 23h14q51 -3 94 -25.5t48 -59.5q1 -5 1 -10v-9q0 -45 -21 -64.5t-46 -25.5q-6 -2 -12 -3t-12 -1q6 -3 22 -8.5t33 -14.5q22 -11 40.5 -31t18.5 -53v-7q-2 -54 -46 -79t-97 -30q-8 -1 -16.5 -1.5t-17.5 -0.5q-32 0 -58.5 4.5
t-39.5 12.5q-19 11 -30.5 24t-17.5 27q-3 7 -4 14.5t-1 14.5q-1 17 6 29.5t14 17.5q12 7 23.5 10t21.5 3q26 0 41.5 -17t15.5 -38v-3q-1 -15 -11.5 -29t-33.5 -20q-6 -2 -9 -5.5t-3 -8.5v-2q0 -1 1 -3t4 -4.5t7 -4.5q9 -4 21 -7.5t25 -3.5h7q25 2 46.5 21.5t23.5 69.5v29
q0 31 -11 56.5t-50 27.5l-71 1v14z" />
    <glyph glyph-name="acute" unicode="&#xb4;" horiz-adv-x="449" 
d="M71 559q5 9 11.5 20t13.5 23q5 8 10.5 16t11.5 16q13 18 25.5 33.5t21.5 24.5q12 12 24 17t23 5q23 1 39 -15t16 -36q0 -11 -5.5 -22t-17.5 -20q-8 -6 -17 -11.5t-20 -11.5q-21 -10 -51.5 -21t-76.5 -27z" />
    <glyph glyph-name="mu" unicode="&#xb5;" horiz-adv-x="529" 
d="M222 141q1 0 8.5 -43.5t23 -47t30 15.5t25.5 68v236q0 28 -6 41t-18 13v17q22 3 40 20t33 37q6 8 11.5 15t10.5 14q7 -7 16 -17.5t20 -20.5q17 -17 39.5 -31t50.5 -18v-15q-24 -1 -39.5 -13t-15.5 -35v-235q0 -20 10.5 -32.5t24.5 -12.5q9 0 18 5t18 15l7 -15l-133 -118
q-53 28 -67 50t-14 48q-24 -145 -105 -47q0 -5 -1 -10l-10 -72q-15 -97 -30 -129.5t-22 -48.5h-12q-5 25 -16.5 59t-28.5 112.5t-18 226.5l1 181q0 24 -8 42t-22 18q-7 0 -15.5 -5t-17.5 -16v1l-16 15l150 119q23 -6 43.5 -32t29.5 -56q2 -8 3.5 -16t1.5 -16v-267z" />
    <glyph glyph-name="paragraph" unicode="&#xb6;" horiz-adv-x="614" 
d="M205 299q-83 2 -124 63.5t-41 135.5v6q2 76 45.5 140t127.5 64l354 1v-24q-29 -1 -50 -8t-21 -48v-771q0 -26 6.5 -45t44.5 -19h10q5 0 10 1v-23h-189v913h-63v-913h-181v23q47 0 59 17t12 46v441z" />
    <glyph glyph-name="periodcentered" unicode="&#xb7;" horiz-adv-x="449" 
d="M165 354q44 -1 68 -28.5t27 -60.5v-6q0 -33 -23 -60t-72 -27t-73 27t-25 61v3q1 34 26 62t72 28v1z" />
    <glyph glyph-name="cedilla" unicode="&#xb8;" horiz-adv-x="449" 
d="M63 -87q-6 6 -9 9.5t-3 6.5t3 6.5t9 9.5l55 47q15 9 22.5 2.5t12.5 -16.5q1 -2 2 -4.5t2 -4.5q2 -4 4.5 -8.5t4.5 -10.5q5 -11 9 -25t4 -30q0 -12 -2.5 -24t-10.5 -25q-13 -22 -43 -43.5t-84 -38.5v16q25 10 38.5 26.5t13.5 38.5q0 14 -7 31t-21 37z" />
    <glyph glyph-name="onesuperior" unicode="&#xb9;" horiz-adv-x="313" 
d="M99 365v240q0 3 -1 6q-2 7 -7 12.5t-16 5.5l-47 1v14h42q29 -1 54 16.5t39 39.5q4 5 6.5 9.5t4.5 9.5h43v-359q0 -15 6.5 -24t16.5 -9h52v-14h-264v14h47q14 0 19 6t5 32z" />
    <glyph glyph-name="ordmasculine" unicode="&#xba;" horiz-adv-x="323" 
d="M173 425l-94 -63l-6 2q-3 1 -6 3q-19 10 -32.5 25t-18.5 56v135q3 19 14 28.5t30 16.5q21 9 53.5 20t75.5 36q4 -4 10 -9t13 -10q9 -6 18.5 -12t20.5 -11q12 -6 24 -10t22 -4h5q3 0 5 1v-15q-18 -1 -24.5 -12t-6.5 -28v-117q0 -12 4.5 -20t12.5 -9q5 0 10 2.5t12 9.5
l8 -15q-14 -9 -23.5 -16t-17.5 -14l-2 -2h-1q-8 -8 -18 -15.5t-25 -16.5q-4 2 -7 4.5t-6 4.5l-16 12q-8 7 -16 16.5t-18 25.5v1zM173 449v149q-11 3 -18.5 7t-13.5 10l-8 6l-7 8v-172q0 -19 7 -31t24 6z" />
    <glyph glyph-name="guillemotright" unicode="&#xbb;" horiz-adv-x="402" 
d="M126 276l-79 181h24l149 -166l7 -7q3 -3 5 -6q4 -7 2.5 -14.5t-14.5 -20.5l-149 -164h-24zM260 276l-79 181h24l149 -166l7 -7q3 -3 5 -6q4 -7 2.5 -14.5t-14.5 -20.5l-149 -164h-24z" />
    <glyph glyph-name="onequarter" unicode="&#xbc;" horiz-adv-x="759" 
d="M550 94h-166v24l204 288h75v-283h61v-24h-61v-61q0 -18 5 -21t23 -3h38v-14h-246v14h33q15 0 24.5 4.5t9.5 18.5v57zM519 717h79l-357 -725h-79zM96 362v240q0 3 -1 6q-2 7 -7 12.5t-16 5.5l-47 1v14h42q29 -1 54 16.5t39 39.5q4 5 6.5 9.5t4.5 9.5h43v-359
q0 -15 6.5 -24t16.5 -9h52v-14h-264v14h47q14 0 19 6t5 32zM550 123v198l-142 -198h142z" />
    <glyph glyph-name="onehalf" unicode="&#xbd;" horiz-adv-x="832" 
d="M525 94q17 7 36 9.5t38 2.5q12 0 23.5 -0.5t22.5 -1.5q11 0 21.5 -0.5t19.5 -0.5h19q31 0 55.5 7.5t24.5 49.5v9l14 1q-2 -98 -31.5 -136t-69.5 -38q-9 0 -18 1.5t-18 3.5q-24 8 -47.5 24t-42.5 36l-6 5q-2 3 -5 5q-10 9 -19.5 12.5t-17.5 3.5q-10 0 -16.5 -5t-6.5 -13
q-1 -4 2 -10t8 -12q10 -12 14 -21t4 -16q0 -8 -5.5 -12t-11.5 -4h-4q-5 1 -9 3.5t-7 6.5q-3 6 -5 13t-2 15q0 26 19.5 59.5t63.5 68.5q28 23 50.5 48.5t35.5 50.5q8 16 12.5 31t4.5 30q0 3 -0.5 6.5t-0.5 6.5q-1 7 -3 13t-5 12q-9 19 -27 28t-37 10h-3q-23 0 -42.5 -9
t-27.5 -24q-2 -4 -2.5 -6.5t-1.5 -4.5q0 -8 7 -10.5t15 -3.5l1 -1h3q3 0 6 -1t6 -1q22 -6 32 -18t10 -25v-5q-2 -21 -21.5 -38.5t-43.5 -17.5q-13 0 -25 5.5t-24 17.5q-9 12 -13.5 24.5t-4.5 25.5v7q3 37 42 68t109 31q12 0 25 -1t27 -3q10 -2 21 -5.5t23 -9.5
q31 -16 57 -44.5t26 -66.5q0 -14 -4.5 -28.5t-13.5 -30.5q-16 -24 -50.5 -39.5t-72.5 -26.5q-14 -4 -27.5 -7.5t-26.5 -7.5q-33 -9 -56 -19.5t-23 -26.5zM543 717h79l-357 -725h-79zM95 364v240q0 3 -1 6q-2 7 -7 12.5t-16 5.5l-47 1v14h42q29 -1 54 16.5t39 39.5
q4 5 6.5 9.5t4.5 9.5h43v-229q0 -145 6.5 -154t16.5 -9h52v-14h-264v14h47q14 0 19 6t5 32z" />
    <glyph glyph-name="threequarters" unicode="&#xbe;" horiz-adv-x="772" 
d="M594 89h-166v24l204 288h75v-283h62v-24h-62v-61q0 -18 5.5 -21t23.5 -3h37v-14h-246v14h33q15 0 24.5 4.5t9.5 18.5v57zM66 537h71q35 -1 46 22.5t11 62.5q0 47 -18.5 67.5t-40.5 23.5q-3 1 -6.5 1.5t-6.5 0.5q-14 0 -25.5 -4t-16.5 -9q-3 -4 -4.5 -6.5t-1.5 -4.5
q0 -6 6 -10t14 -8q2 -1 4.5 -2t4.5 -2q10 -4 18.5 -10t10.5 -14q1 -4 2 -8.5t1 -7.5q0 -23 -19 -35.5t-41 -12.5h-2q-22 0 -40.5 12t-18.5 38v3q0 50 40.5 73t91.5 23h14q51 -3 94 -25.5t48 -59.5q1 -5 1 -10v-9q0 -45 -21 -64.5t-46 -25.5q-6 -2 -12 -3t-12 -1
q6 -3 22 -8.5t33 -14.5q22 -11 40.5 -31t18.5 -53v-7q-2 -54 -46 -79t-97 -30q-8 -1 -16.5 -1.5t-17.5 -0.5q-32 0 -58.5 4.5t-39.5 12.5q-19 11 -30.5 24t-17.5 27q-3 7 -4 14.5t-1 14.5q-1 17 6 29.5t14 17.5q12 7 23.5 10t21.5 3q26 0 41.5 -17t15.5 -38v-3
q-1 -15 -11.5 -29t-33.5 -20q-6 -2 -9 -5.5t-3 -8.5v-2q0 -1 1 -3t4 -4.5t7 -4.5q9 -4 21 -7.5t25 -3.5h7q25 2 46.5 21.5t23.5 69.5v29q0 31 -11 56.5t-50 27.5l-71 1v14zM564 717h79l-357 -725h-79zM594 118l-2 181l-129 -183z" />
    <glyph glyph-name="questiondown" unicode="&#xbf;" horiz-adv-x="441" 
d="M118 150q-1 4 -1 9v9q0 60 28 88t62 29h3q34 0 61.5 -23.5t27.5 -65.5v-7q0 -35 -16 -68.5t-35 -65.5t-35 -62t-16 -59q0 -20 9 -38.5t30 -37.5q11 -10 24.5 -14t26.5 -4q23 0 43.5 9t29.5 20q2 3 3.5 5.5t1.5 5.5q0 7 -8 11.5t-26 6.5q-32 3 -48 21t-16 40v5
q2 25 22.5 45.5t56.5 20.5q41 0 61 -22.5t20 -54.5q0 -8 -1.5 -16t-3.5 -17q-13 -41 -57 -75t-121 -34q-108 0 -158.5 44.5t-55.5 98.5v11q0 17 4.5 33.5t12.5 31.5q15 28 44 45.5t61 32.5q3 1 5.5 2.5t5.5 2.5q41 19 73 42t32 64q0 20 -18 34t-41 14h-8q-25 -3 -46 -29.5
t-21 -88.5zM228 535q6 -36 26 -58.5t61 -28.5v-23q-35 -13 -58 -36.5t-29 -58.5l-23 1q-4 24 -21 45.5t-37 34.5q-8 5 -15 8t-14 5v25q41 5 58 24.5t29 60.5z" />
    <glyph glyph-name="Agrave" unicode="&#xc0;" horiz-adv-x="756" 
d="M512 591q19 38 55 60.5t75 33.5q32 9 62.5 12t51.5 3v-15q-50 -1 -67 -18.5t-19 -38.5q-1 -4 -1 -8v-415q0 -38 8.5 -62.5t25.5 -25.5q8 0 17 5.5t20 18.5l16 -7l-165 -142q-59 28 -77 64t-18 100l-181 -164q-5 8 -15.5 20.5t-26.5 26.5q-21 20 -48.5 36.5t-56.5 19.5h-7
q-25 1 -48 -14t-42 -51l-16 9q24 46 46 71.5t45 43.5q4 4 9 7.5t9 7.5q18 13 35.5 28t36.5 38q14 17 20.5 58t6.5 91v20q0 10 -1 20q-2 48 -8.5 93t-17.5 73q-14 37 -37 54t-48 19h-6q-31 0 -56 -19.5t-25 -45.5q0 -3 0.5 -5.5t0.5 -5.5q4 -16 20 -31.5t49 -28.5
q35 -15 58 -54.5t24 -85.5q0 -48 -31 -91t-106 -61v17q25 6 42.5 16t26.5 21q6 6 9 12.5t3 12.5q0 9 -6.5 15.5t-19.5 8.5q-56 17 -90.5 63.5t-34.5 103.5q0 15 2.5 30t8.5 30q9 25 25.5 49t41.5 46q28 24 64.5 36.5t75.5 12.5h11q76 -4 139.5 -60t63.5 -178
q0 -105 -36 -148t-95 -73q-17 -9 -35.5 -18t-38.5 -20q15 -4 31 -8.5t33 -11.5q38 -13 71.5 -33.5t45.5 -49.5l79 72v323q0 19 -2.5 46t-8.5 56q-6 23 -14.5 45.5t-21.5 40.5l16 9q23 -25 32 -53.5t15 -57.5v1zM488 732q-9 3 -19 6.5t-20 7.5q-6 2 -12 4.5t-11 4.5
q-34 14 -60.5 26.5t-34.5 20.5q-13 12 -19 23.5t-6 21.5q-1 20 17 33.5t40 13.5q11 0 21 -3t18 -10q13 -9 33 -39t43 -64q5 -8 10 -15t9 -15q2 -2 3.5 -4.5t3.5 -4.5z" />
    <glyph glyph-name="Aacute" unicode="&#xc1;" horiz-adv-x="756" 
d="M504 598q19 38 55 60.5t75 34.5q32 9 62.5 12t51.5 3v-15q-50 -1 -67 -18.5t-19 -38.5q-1 -4 -1 -8v-415q0 -38 8.5 -63t25.5 -26q8 0 17 6t20 19l16 -7l-165 -142q-59 28 -77 64t-18 100l-181 -164q-5 7 -15.5 20t-26.5 27q-21 20 -48.5 36.5t-56.5 19.5h-7
q-25 1 -48 -14t-42 -51l-16 9q24 46 46 71.5t45 43.5q4 4 9 7.5t9 7.5q18 13 35.5 28t36.5 38q14 17 20.5 58t6.5 91v18q0 9 -1 19q-2 48 -8.5 93.5t-17.5 74.5q-14 37 -37 54t-48 19h-6q-31 0 -56 -19.5t-25 -45.5q0 -5 1.5 -11t3.5 -11q7 -13 22.5 -25.5t42.5 -23.5
q35 -14 58 -54t24 -86v-5q-1 -46 -32.5 -87t-104.5 -59v17q27 7 45 17.5t27 22.5q5 5 7 11t2 11q0 8 -6.5 14.5t-19.5 8.5q-56 18 -90.5 64.5t-34.5 102.5q0 13 2 26.5t6 26.5q9 27 26 53t44 50q28 24 64.5 36.5t75.5 12.5h11q76 -4 139.5 -60t63.5 -178q0 -106 -36 -149
t-96 -74q-17 -8 -35 -17.5t-38 -19.5q15 -3 31 -8t33 -11q38 -13 71.5 -33.5t45.5 -49.5l79 72v323q0 19 -2.5 46t-8.5 56q-6 23 -14.5 45.5t-21.5 40.5l16 9q23 -25 32 -53.5t15 -58.5v1zM381 757q5 9 11.5 20t13.5 23q5 8 10.5 16t11.5 16q13 18 25.5 33.5t21.5 24.5
q12 12 24 17t23 5q23 1 39 -15t16 -36q0 -11 -5.5 -22t-17.5 -20q-8 -6 -17 -11.5t-20 -11.5q-21 -10 -51.5 -21t-76.5 -27z" />
    <glyph glyph-name="Acircumflex" unicode="&#xc2;" horiz-adv-x="756" 
d="M512 598q19 38 55 60.5t75 34.5q32 9 62.5 12t51.5 3v-15q-50 -1 -67 -18.5t-19 -38.5q-1 -4 -1 -8v-415q0 -38 8.5 -63t25.5 -26q8 0 17 6t20 19l16 -7l-165 -142q-59 28 -77 64t-18 100l-181 -164q-5 7 -15.5 20t-26.5 27q-21 20 -48.5 36.5t-56.5 19.5h-7
q-25 1 -48 -14t-42 -51l-16 9q24 46 46 71.5t45 43.5q4 4 9 7.5t9 7.5q18 13 35.5 28t36.5 38q14 17 20.5 58t6.5 91v18q0 9 -1 19q-2 48 -8.5 93.5t-17.5 74.5q-14 37 -37 54t-48 19h-6q-31 0 -56 -19.5t-25 -45.5q0 -5 1.5 -11t3.5 -11q7 -13 22.5 -25.5t42.5 -23.5
q35 -14 58 -54t24 -86v-5q-1 -46 -32.5 -87t-104.5 -59v17q27 7 45 17.5t27 22.5q5 5 7 11t2 11q0 8 -6.5 14.5t-19.5 8.5q-56 18 -90.5 64.5t-34.5 102.5q0 13 2 26.5t6 26.5q9 27 26 53t44 50q28 24 64.5 36.5t75.5 12.5h11q76 -4 139.5 -60t63.5 -178q0 -106 -36 -149
t-96 -74q-17 -8 -35 -17.5t-38 -19.5q15 -3 31 -8t33 -11q38 -13 71.5 -33.5t45.5 -49.5l79 72v323q0 19 -2.5 46t-8.5 56q-6 23 -14.5 45.5t-21.5 40.5l16 9q23 -25 32 -53.5t15 -58.5v1zM291 780q9 7 20 19t23 24q1 1 1.5 2t1.5 2q20 22 36.5 40t20.5 22q11 11 20.5 15.5
t18.5 4.5q11 0 20.5 -5.5t18.5 -14.5l103 -109q5 -6 7.5 -11t3.5 -10q0 -7 -6.5 -9t-20.5 5l-126 56l-118 -47q-10 -7 -17 -10t-12 -3q-4 0 -6 1.5t-2 4.5q0 4 3 9.5t10 12.5v1z" />
    <glyph glyph-name="Atilde" unicode="&#xc3;" horiz-adv-x="756" 
d="M504 598q19 38 55 60.5t75 34.5q32 9 62.5 12t51.5 3v-15q-50 -1 -67 -18.5t-19 -38.5q-1 -4 -1 -8v-415q0 -38 8.5 -63t25.5 -26q8 0 17 6t20 19l16 -7l-165 -142q-59 28 -77 64t-18 100l-181 -164q-5 7 -15.5 20t-26.5 27q-21 20 -48.5 36.5t-56.5 19.5h-7
q-25 1 -48 -14t-42 -51l-16 9q24 46 46 71.5t45 43.5q4 4 9 7.5t9 7.5q18 13 35.5 28t36.5 38q14 17 20.5 58t6.5 91v18q0 9 -1 19q-2 48 -8.5 93.5t-17.5 74.5q-14 37 -37 54t-48 19h-6q-31 0 -56 -19.5t-25 -45.5q0 -5 1.5 -11t3.5 -11q7 -13 22.5 -25.5t42.5 -23.5
q35 -14 58 -54t24 -86v-5q-1 -46 -32.5 -87t-104.5 -59v17q27 7 45 17.5t27 22.5q5 5 7 11t2 11q0 8 -6.5 14.5t-19.5 8.5q-56 18 -90.5 64.5t-34.5 102.5q0 13 2 26.5t6 26.5q9 27 26 53t44 50q28 24 64.5 36.5t75.5 12.5h11q76 -4 139.5 -60t63.5 -178q0 -106 -36 -149
t-96 -74q-17 -8 -35 -17.5t-38 -19.5q15 -3 31 -8t33 -11q38 -13 71.5 -33.5t45.5 -49.5l79 72v323q0 19 -2.5 46t-8.5 56q-6 23 -14.5 45.5t-21.5 40.5l16 9q23 -25 32 -53.5t15 -58.5v1zM252 780q10 62 37.5 89.5t58.5 32.5q5 1 10 1.5t10 0.5q19 0 36 -4.5t29 -10.5
q4 -2 8.5 -5t8.5 -5q20 -12 39.5 -22.5t38.5 -10.5q15 0 29 9.5t26 33.5l15 1q-7 -68 -37 -97t-64 -32q-4 -1 -7 -1h-6q-19 0 -36.5 5.5t-30.5 13.5q-28 19 -54.5 30t-46.5 11q-18 1 -30.5 -9t-17.5 -32z" />
    <glyph glyph-name="Adieresis" unicode="&#xc4;" horiz-adv-x="756" 
d="M504 598q19 38 55 60.5t75 34.5q32 9 62.5 12t51.5 3v-15q-50 -1 -67 -18.5t-19 -38.5q-1 -4 -1 -8v-415q0 -38 8.5 -63t25.5 -26q8 0 17 6t20 19l16 -7l-165 -142q-59 28 -77 64t-18 100l-181 -164q-5 7 -15.5 20t-26.5 27q-21 20 -48.5 36.5t-56.5 19.5h-7
q-25 1 -48 -14t-42 -51l-16 9q24 46 46 71.5t45 43.5q4 4 9 7.5t9 7.5q18 13 35.5 28t36.5 38q14 17 20.5 58t6.5 91v18q0 9 -1 19q-2 48 -8.5 93.5t-17.5 74.5q-14 37 -37 54t-48 19h-6q-31 0 -56 -19.5t-25 -45.5q0 -5 1.5 -11t3.5 -11q7 -13 22.5 -25.5t42.5 -23.5
q35 -14 58 -54t24 -86v-5q-1 -46 -32.5 -87t-104.5 -59v17q27 7 45 17.5t27 22.5q5 5 7 11t2 11q0 8 -6.5 14.5t-19.5 8.5q-56 18 -90.5 64.5t-34.5 102.5q0 13 2 26.5t6 26.5q9 27 26 53t44 50q28 24 64.5 36.5t75.5 12.5h11q76 -4 139.5 -60t63.5 -178q0 -106 -36 -149
t-96 -74q-17 -8 -35 -17.5t-38 -19.5q15 -3 31 -8t33 -11q38 -13 71.5 -33.5t45.5 -49.5l79 72v323q0 19 -2.5 46t-8.5 56q-6 23 -14.5 45.5t-21.5 40.5l16 9q23 -25 32 -53.5t15 -58.5v1zM512 756q-21 10 -35.5 27.5t-21.5 35.5q-3 7 -4.5 14t-1.5 14q0 21 15 35.5t48 14.5
q38 0 54.5 -15t16.5 -36q0 -5 -0.5 -10.5t-2.5 -11.5q-6 -21 -24 -40t-44 -29v1zM331 756q-32 23 -47 46.5t-15 42.5q0 23 19 37.5t51 14.5q30 0 46.5 -16t17.5 -39q0 -7 -2 -15t-6 -15q-7 -16 -23 -30.5t-41 -26.5v1z" />
    <glyph glyph-name="Aring" unicode="&#xc5;" horiz-adv-x="756" 
d="M504 598q19 38 55 60.5t75 34.5q32 9 62.5 12t51.5 3v-15q-50 -1 -67 -18.5t-19 -38.5q-1 -4 -1 -8v-415q0 -38 8.5 -63t25.5 -26q8 0 17 6t20 19l16 -7l-165 -142q-59 28 -77 64t-18 100l-181 -164q-5 7 -15.5 20t-26.5 27q-21 20 -48.5 36.5t-56.5 19.5h-7
q-25 1 -48 -14t-42 -51l-16 9q24 46 46 71.5t45 43.5q4 4 9 7.5t9 7.5q18 13 35.5 28t36.5 38q14 17 20.5 58t6.5 91v18q0 9 -1 19q-2 48 -8.5 93.5t-17.5 74.5q-14 37 -37 54t-48 19h-6q-31 0 -56 -19.5t-25 -45.5q0 -5 1.5 -11t3.5 -11q7 -13 22.5 -25.5t42.5 -23.5
q35 -14 58 -54t24 -86v-5q-1 -46 -32.5 -87t-104.5 -59v17q27 7 45 17.5t27 22.5q5 5 7 11t2 11q0 8 -6.5 14.5t-19.5 8.5q-56 18 -90.5 64.5t-34.5 102.5q0 13 2 26.5t6 26.5q9 27 26 53t44 50q28 24 64.5 36.5t75.5 12.5h11q76 -4 139.5 -60t63.5 -178q0 -106 -36 -149
t-96 -74q-17 -8 -35 -17.5t-38 -19.5q15 -3 31 -8t33 -11q38 -13 71.5 -33.5t45.5 -49.5l79 72v323q0 19 -2.5 46t-8.5 56q-6 23 -14.5 45.5t-21.5 40.5l16 9q23 -25 32 -53.5t15 -58.5v1zM402 906q2 -1 4 -1h5q57 1 88 -25.5t34 -58.5v-5q0 -32 -30.5 -58.5t-93.5 -26.5
q-64 0 -94.5 26.5t-30.5 58.5v3q1 32 31.5 59t86.5 27v1zM409 858q-20 -1 -31.5 -13t-12.5 -26v-3q0 -14 10.5 -25.5t33.5 -11.5q21 0 31.5 12t10.5 26q0 15 -10.5 27.5t-31.5 12.5v1z" />
    <glyph glyph-name="AE" unicode="&#xc6;" horiz-adv-x="1000" 
d="M449 598q25 36 58.5 62t69.5 39q15 5 30 8t30 3q34 0 61.5 -15.5t41.5 -49.5l118 79q8 -36 24.5 -56t38.5 -20q15 0 31 8.5t32 27.5v-15q-37 -60 -70 -82.5t-61 -22.5q-26 0 -46.5 13t-35.5 29q-8 9 -13.5 17t-9.5 14q-13 -7 -18.5 -17t-6.5 -21q0 -18 10.5 -39t24.5 -42
q2 -3 3.5 -6t3.5 -5q12 -18 22.5 -35t15.5 -32q11 33 35.5 48t51.5 15q29 0 54.5 -15t31.5 -40q2 -10 3.5 -18.5t1.5 -16.5q0 -37 -19 -55t-42 -20h-5q-22 0 -40.5 13.5t-18.5 37.5q0 12 6 27t20 32q5 6 7 11t2 9q0 6 -3.5 9t-9.5 3q-5 0 -11 -1.5t-12 -4.5
q-13 -8 -24.5 -24.5t-11.5 -41.5q0 -16 6.5 -36t13.5 -42q4 -11 7.5 -23t6.5 -23t4.5 -22t1.5 -21q0 -25 -10.5 -46.5t-37.5 -38.5q-23 -15 -44 -22t-39 -7q-58 0 -86 60.5t-28 142.5l16 1q4 -72 21 -112t37 -55q8 -6 15 -9t14 -3q13 0 21.5 10t8.5 26q1 10 -3 22t-12 25
q-10 18 -23 38t-27 42q-17 28 -33.5 57.5t-26.5 59.5q-4 11 -6 22.5t-2 21.5q0 15 4 30t11 30q13 25 36.5 50t58.5 51q-11 25 -25 35.5t-28 10.5h-3q-30 -2 -55.5 -38t-29.5 -79q-4 -39 -7 -80t-4 -82v-33q0 -133 26 -240.5t95 -115.5q3 0 6 -0.5t7 -0.5q3 -1 6 -1h13
q4 0 8 1q61 5 113.5 47t59.5 92v3l15 1q-12 -79 -66 -117.5t-117 -47.5q-12 -2 -25 -3t-25 -1q-13 0 -25.5 1t-24.5 3q-58 8 -102 42t-72 72q-10 13 -17.5 25.5t-13.5 24.5l-36 -40q-27 -30 -58 -61.5t-71 -70.5q-3 8 -8.5 19t-13.5 23q-15 21 -38 39.5t-53 18.5
q-22 1 -47 -11.5t-53 -42.5l-16 1q33 61 58.5 89.5t48.5 49.5l8 8q13 11 25.5 24.5t25.5 32.5q17 26 25.5 73t8.5 100v20q-2 67 -15 127t-35 82q-14 14 -28 20t-27 6q-26 1 -45.5 -19.5t-22.5 -44.5v-8q0 -15 8.5 -28.5t27.5 -20.5q49 -17 75 -57.5t26 -87.5v-9
q-3 -48 -33 -90.5t-91 -62.5l-8 17q41 17 56.5 32.5t16.5 28.5q0 14 -13.5 25.5t-29.5 21.5q-8 5 -16 9t-14 8q-27 15 -40.5 48t-13.5 73q0 10 1 20l2 20q11 66 57 121t129 55q13 0 26.5 -1.5t27.5 -4.5q56 -13 98.5 -75.5t42.5 -144.5q0 -20 -3 -41t-9 -42
q-18 -54 -62 -106.5t-122 -94.5q14 0 31 -5t35 -14q28 -13 53 -32.5t37 -40.5l1 -3l71 72q-2 17 -2.5 40t-0.5 48q-1 9 -1 17v57q0 29 0.5 57t1.5 53q1 34 1.5 59.5t0.5 37.5q0 41 -12 79.5t-35 62.5l8 17q23 -19 36 -47.5t19 -64.5v1z" />
    <glyph glyph-name="Ccedilla" unicode="&#xc7;" horiz-adv-x="740" 
d="M449 630l134 87q28 -53 54 -72.5t49 -19.5q17 0 32.5 6.5t29.5 13.5v-15q-22 -40 -56.5 -61.5t-75.5 -22.5q-34 0 -72.5 16.5t-78.5 50.5q-13 -9 -20 -20t-7 -24t6.5 -27t20.5 -31q55 -61 89 -109t46 -93q3 -12 4.5 -24.5t1.5 -25.5q-3 -62 -49 -99t-102 -37h-7
q-54 2 -101 45t-56 138l16 1q3 -14 9 -35t16 -44q8 -17 19.5 -34t26.5 -30q7 -6 15.5 -9.5t17.5 -5.5q2 0 5 -0.5t6 -0.5q15 -1 25.5 7t10.5 24q0 18 -15.5 47.5t-56.5 71.5q-46 48 -63.5 86.5t-17.5 67.5q0 28 11 49t24 36q9 10 17 17t13 12l63 56q-14 31 -36 49t-45 18h-5
q-2 0 -4 -1q-41 -6 -76 -79t-39 -240q-3 -189 72 -269.5t167 -80.5h13q86 5 159.5 67t84.5 157l16 1q-7 -127 -103 -191t-216 -64q-10 0 -20 0.5t-20 1.5q-135 10 -248.5 104t-116.5 274q0 141 68.5 224.5t150.5 110.5q20 6 39.5 9.5t38.5 3.5q49 0 86.5 -22t49.5 -66v1z
M346 -102q-5 5 -8 8.5t-3 6.5t2.5 6.5t8.5 9.5l56 47q4 3 7.5 4t6.5 1q8 1 12.5 -5.5t8.5 -14.5l4 -8q2 -4 4.5 -8.5t4.5 -10.5q5 -11 9 -25t4 -30q0 -12 -2.5 -24t-10.5 -25q-13 -22 -43 -43.5t-84 -38.5v16q24 10 37.5 26.5t13.5 38.5q1 15 -6 32t-22 37z" />
    <glyph glyph-name="Egrave" unicode="&#xc8;" horiz-adv-x="795" 
d="M465 646l141 78q4 -8 9.5 -16.5t11.5 -18.5q13 -18 31.5 -33t43.5 -15q17 0 36 8t42 27v-15q-3 -7 -6.5 -14t-7.5 -13q-22 -32 -61.5 -58.5t-84.5 -26.5q-11 0 -22 2t-23 6q-22 8 -44 25.5t-43 46.5q-22 -3 -30 -13t-8 -23q0 -3 0.5 -6t0.5 -5q2 -9 6 -17.5t8 -14.5
q23 -35 51.5 -76.5t58.5 -88.5v9q0 52 31 80t68 28q32 0 60 -21t38 -65q1 -4 1 -7v-6q0 -34 -22 -58t-60 -24h-7q-3 0 -7 1q-23 4 -34 21.5t-11 38.5q0 17 6 32.5t16 25.5q5 5 7.5 10.5t2.5 10.5q1 8 -5.5 13.5t-15.5 5.5q-5 0 -10.5 -2t-11.5 -6q-4 -3 -7.5 -7t-7.5 -9
q-10 -16 -14.5 -33.5t-4.5 -34.5t3 -34t7 -33q4 -15 7 -28.5t3 -24.5v-5q0 -2 -1 -4q-13 -65 -56.5 -99.5t-93.5 -35.5h-6q-57 3 -104.5 51.5t-54.5 146.5l16 1q9 -61 27 -98.5t37 -55.5q10 -9 20 -13t18 -4q14 0 23.5 11t9.5 31q0 22 -12.5 52.5t-43.5 67.5
q-23 26 -39.5 60t-20.5 69q0 5 -0.5 9.5t-0.5 9.5q0 31 12.5 60t40.5 52l79 64q-17 17 -37 29.5t-40 16.5q-4 1 -8 1.5t-8 0.5q-43 1 -80 -60t-48 -225l-2 -38q-1 -19 -2 -36q0 -175 70 -244t156 -69h15q75 5 141 46.5t87 95.5l16 1q-15 -76 -101 -119.5t-193 -44.5
q-12 0 -24.5 0.5t-25.5 2.5q-131 12 -239.5 103t-109.5 283v19q3 116 74 199.5t156 113.5q20 7 39 10.5t38 3.5q43 0 79 -20t55 -63v1zM504 732q-10 3 -20 6.5t-20 7.5q-5 3 -11 5t-11 4q-34 14 -61 26.5t-35 20.5q-13 12 -19 23.5t-6 21.5q0 20 18 33.5t40 13.5h4q3 0 6 -1
q7 -1 14.5 -4t13.5 -8q14 -9 34 -39t42 -64q7 -10 13.5 -20t13.5 -19z" />
    <glyph glyph-name="Eacute" unicode="&#xc9;" horiz-adv-x="795" 
d="M465 646l141 78q4 -8 9.5 -16.5t11.5 -18.5q13 -18 31.5 -33t43.5 -15q17 0 36 8t42 27v-15q-3 -7 -6.5 -14t-7.5 -13q-22 -32 -61.5 -58.5t-84.5 -26.5q-11 0 -22 2t-23 6q-22 8 -44 25.5t-43 46.5q-22 -3 -30 -13t-8 -23q0 -3 0.5 -6t0.5 -5q2 -9 6 -17.5t8 -14.5
q23 -35 51.5 -76.5t58.5 -88.5v9q0 52 31 80t68 28q32 0 60 -21t38 -65q1 -4 1 -7v-6q0 -34 -22 -58t-60 -24h-7q-3 0 -7 1q-23 4 -34 21.5t-11 38.5q0 17 6 32.5t16 25.5q5 5 7.5 10.5t2.5 10.5q1 8 -5.5 13.5t-15.5 5.5q-5 0 -10.5 -2t-11.5 -6q-4 -3 -7.5 -7t-7.5 -9
q-10 -16 -14.5 -33.5t-4.5 -34.5t3 -34t7 -33q4 -15 7 -28.5t3 -24.5v-5q0 -2 -1 -4q-13 -65 -56.5 -99.5t-93.5 -35.5h-6q-57 3 -104.5 51.5t-54.5 146.5l16 1q9 -61 27 -98.5t37 -55.5q10 -9 20 -13t18 -4q14 0 23.5 11t9.5 31q0 22 -12.5 52.5t-43.5 67.5
q-23 26 -39.5 60t-20.5 69q0 5 -0.5 9.5t-0.5 9.5q0 31 12.5 60t40.5 52l79 64q-17 17 -37 29.5t-40 16.5q-4 1 -8 1.5t-8 0.5q-43 1 -80 -60t-48 -225l-2 -38q-1 -19 -2 -36q0 -175 70 -244t156 -69h15q75 5 141 46.5t87 95.5l16 1q-15 -76 -101 -119.5t-193 -44.5
q-12 0 -24.5 0.5t-25.5 2.5q-131 12 -239.5 103t-109.5 283v19q3 116 74 199.5t156 113.5q20 7 39 10.5t38 3.5q43 0 79 -20t55 -63v1zM362 748q5 9 11.5 20t14.5 23q5 8 10.5 16t11.5 16q13 18 25.5 33.5t21.5 24.5q12 12 24 17t23 5q23 1 38.5 -15t15.5 -36
q0 -11 -5.5 -22t-17.5 -20q-8 -6 -17 -11.5t-20 -11.5q-21 -10 -51 -21t-77 -27z" />
    <glyph glyph-name="Ecircumflex" unicode="&#xca;" horiz-adv-x="795" 
d="M465 646l141 78q4 -8 9.5 -16.5t11.5 -18.5q13 -18 31.5 -33t43.5 -15q17 0 36 8t42 27v-15q-3 -7 -6.5 -14t-7.5 -13q-22 -32 -61.5 -58.5t-84.5 -26.5q-11 0 -22 2t-23 6q-22 8 -44 25.5t-43 46.5q-22 -3 -30 -13t-8 -23q0 -3 0.5 -6t0.5 -5q2 -9 6 -17.5t8 -14.5
q23 -35 51.5 -76.5t58.5 -88.5v9q0 52 31 80t68 28q32 0 60 -21t38 -65q1 -4 1 -7v-6q0 -34 -22 -58t-60 -24h-7q-3 0 -7 1q-23 4 -34 21.5t-11 38.5q0 17 6 32.5t16 25.5q5 5 7.5 10.5t2.5 10.5q1 8 -5.5 13.5t-15.5 5.5q-5 0 -10.5 -2t-11.5 -6q-4 -3 -7.5 -7t-7.5 -9
q-10 -16 -14.5 -33.5t-4.5 -34.5t3 -34t7 -33q4 -15 7 -28.5t3 -24.5v-5q0 -2 -1 -4q-13 -65 -56.5 -99.5t-93.5 -35.5h-6q-57 3 -104.5 51.5t-54.5 146.5l16 1q9 -61 27 -98.5t37 -55.5q10 -9 20 -13t18 -4q14 0 23.5 11t9.5 31q0 22 -12.5 52.5t-43.5 67.5
q-23 26 -39.5 60t-20.5 69q0 5 -0.5 9.5t-0.5 9.5q0 31 12.5 60t40.5 52l79 64q-17 17 -37 29.5t-40 16.5q-4 1 -8 1.5t-8 0.5q-43 1 -80 -60t-48 -225l-2 -38q-1 -19 -2 -36q0 -175 70 -244t156 -69h15q75 5 141 46.5t87 95.5l16 1q-15 -76 -101 -119.5t-193 -44.5
q-12 0 -24.5 0.5t-25.5 2.5q-131 12 -239.5 103t-109.5 283v19q3 116 74 199.5t156 113.5q20 7 39 10.5t38 3.5q43 0 79 -20t55 -63v1zM257 783q9 8 20 19.5t23 24.5l1 1l1 2q20 22 36.5 40t20.5 22q11 11 21 16t18 5q11 0 20.5 -5.5t19.5 -15.5l102 -109q5 -6 7.5 -11
t3.5 -10q0 -7 -6 -9t-20 5l-126 56l-118 -47q-10 -7 -17.5 -10t-11.5 -3q-9 0 -7.5 8t12.5 20v1z" />
    <glyph glyph-name="Edieresis" unicode="&#xcb;" horiz-adv-x="795" 
d="M465 646l141 78q4 -8 9.5 -16.5t11.5 -18.5q13 -18 31.5 -33t43.5 -15q17 0 36 8t42 27v-15q-3 -7 -6.5 -14t-7.5 -13q-22 -32 -61.5 -58.5t-84.5 -26.5q-11 0 -22 2t-23 6q-22 8 -44 25.5t-43 46.5q-22 -3 -30 -13t-8 -23q0 -3 0.5 -6t0.5 -5q2 -9 6 -17.5t8 -14.5
q23 -35 51.5 -76.5t58.5 -88.5v9q0 52 31 80t68 28q32 0 60 -21t38 -65q1 -4 1 -7v-6q0 -34 -22 -58t-60 -24h-7q-3 0 -7 1q-23 4 -34 21.5t-11 38.5q0 17 6 32.5t16 25.5q5 5 7.5 10.5t2.5 10.5q1 8 -5.5 13.5t-15.5 5.5q-5 0 -10.5 -2t-11.5 -6q-4 -3 -7.5 -7t-7.5 -9
q-10 -16 -14.5 -33.5t-4.5 -34.5t3 -34t7 -33q4 -15 7 -28.5t3 -24.5v-5q0 -2 -1 -4q-13 -65 -56.5 -99.5t-93.5 -35.5h-6q-57 3 -104.5 51.5t-54.5 146.5l16 1q9 -61 27 -98.5t37 -55.5q10 -9 20 -13t18 -4q14 0 23.5 11t9.5 31q0 22 -12.5 52.5t-43.5 67.5
q-23 26 -39.5 60t-20.5 69q0 5 -0.5 9.5t-0.5 9.5q0 31 12.5 60t40.5 52l79 64q-17 17 -37 29.5t-40 16.5q-4 1 -8 1.5t-8 0.5q-43 1 -80 -60t-48 -225l-2 -38q-1 -19 -2 -36q0 -175 70 -244t156 -69h15q75 5 141 46.5t87 95.5l16 1q-15 -76 -101 -119.5t-193 -44.5
q-12 0 -24.5 0.5t-25.5 2.5q-131 12 -239.5 103t-109.5 283v19q3 116 74 199.5t156 113.5q20 7 39 10.5t38 3.5q43 0 79 -20t55 -63v1zM528 740q-19 10 -33.5 26t-22.5 33q-3 8 -5 16.5t-2 15.5q0 21 15 35.5t48 14.5q38 0 54.5 -15t16.5 -36q0 -6 -1.5 -12.5t-3.5 -13.5
q-8 -19 -25 -37t-41 -28v1zM346 740q-32 23 -46.5 46.5t-14.5 42.5q0 23 18.5 37.5t50.5 14.5q30 0 47 -16t17 -39q0 -7 -1.5 -15t-5.5 -15q-7 -16 -23 -30.5t-42 -26.5v1z" />
    <glyph glyph-name="Igrave" unicode="&#xcc;" horiz-adv-x="661" 
d="M613 399q-14 19 -29 30q-10 8 -20 11.5t-19 3.5q-15 0 -25 -9.5t-10 -29.5q0 -18 9.5 -42.5t31.5 -56.5q33 -46 47.5 -86.5t14.5 -75.5q0 -90 -75.5 -138t-167.5 -48q-77 0 -145 36.5t-91 114.5q-6 22 -12.5 38.5t-13.5 27.5q-8 16 -16.5 23t-16.5 7q-16 1 -27 -27
t-11 -74q0 -10 0.5 -20.5t1.5 -21.5l-15 1q-4 16 -5.5 31t-1.5 28q0 74 40.5 110.5t90.5 36.5h4q45 -1 84.5 -29.5t54.5 -83.5q1 -3 1.5 -5.5t1.5 -5.5q21 -80 45.5 -121.5t65.5 -41.5h10q5 0 10 2q24 4 35 16t11 32q0 29 -21 79t-56 124q-13 26 -18.5 49t-5.5 44
q-1 65 43.5 103t99.5 39h5q42 -2 79 -28t56 -80l-15 -8q-11 27 -25 45zM276 465l7 -16q-28 -12 -53.5 -17t-48.5 -5q-61 -1 -96.5 31.5t-35.5 82.5q0 22 7 46.5t23 49.5q31 52 71.5 72.5t85.5 20.5q16 0 33 -2t34 -6q33 -7 66.5 -20t63.5 -27q17 -8 33 -15.5t30 -14.5
q20 -9 35 -13t26 -4q19 0 27.5 8.5t8.5 19.5q0 3 -0.5 6.5t-1.5 7.5q-4 11 -14.5 21.5t-25.5 16.5l8 24q38 -22 55.5 -50.5t18.5 -58.5q0 -47 -38.5 -85.5t-103.5 -38.5q-31 0 -68 11.5t-77 39.5q-48 34 -87 48t-71 15q-46 0 -73 -24t-35 -52q-1 -6 -2 -11.5t-1 -11.5
q0 -16 6 -29.5t19 -20.5q3 -2 8 -5t12 -6q10 -4 24 -8t33 -4t43 5t54 18v1zM386 740q-10 3 -20 6.5t-20 7.5q-5 3 -11 5t-11 4q-34 14 -61 26.5t-35 20.5q-13 12 -19 23.5t-6 21.5q0 20 18 33.5t40 13.5h4q3 0 6 -1q7 -1 14.5 -4t13.5 -8q14 -9 34 -39t42 -64
q7 -10 13.5 -20t13.5 -19zM654 362h-1l1 -1v1z" />
    <glyph glyph-name="Iacute" unicode="&#xcd;" horiz-adv-x="661" 
d="M605 399q-14 19 -29 30q-10 8 -20 11.5t-19 3.5q-15 0 -25 -9.5t-10 -29.5q0 -18 9.5 -42.5t31.5 -56.5q33 -46 47.5 -86.5t14.5 -75.5q0 -90 -75.5 -138t-167.5 -48q-77 0 -145 36.5t-91 114.5q-6 22 -12.5 38.5t-13.5 27.5q-8 16 -16.5 23t-16.5 7q-16 1 -27 -27
t-11 -74q0 -10 0.5 -20.5t1.5 -21.5l-15 1q-4 16 -5.5 31t-1.5 28q0 74 40.5 110.5t90.5 36.5h4q45 -1 84.5 -29.5t54.5 -83.5q1 -3 1.5 -5.5t1.5 -5.5q21 -80 45.5 -121.5t65.5 -41.5h10q5 0 10 2q24 4 35 16t11 32q0 29 -21 79t-56 124q-13 26 -18.5 49t-5.5 44
q0 65 44 103t99 39h5q42 -2 79 -28t56 -80l-15 -8q-11 27 -25 45zM268 465l8 -16q-28 -12 -53.5 -17t-48.5 -5q-61 -1 -97 31.5t-36 82.5q0 22 7 46.5t23 49.5q31 52 71.5 72.5t85.5 20.5q16 0 33 -2t34 -6q33 -7 66.5 -20t63.5 -27q17 -8 33 -15.5t30 -14.5q20 -9 35 -13
t26 -4q19 0 27.5 8.5t8.5 19.5q0 3 -0.5 6.5t-1.5 7.5q-4 11 -14.5 21.5t-25.5 16.5l8 24q38 -22 55.5 -50.5t18.5 -58.5q0 -47 -38.5 -85.5t-102.5 -38.5q-31 0 -68 11.5t-77 39.5q-48 34 -87.5 48t-70.5 15q-47 0 -74 -24t-35 -52q-1 -6 -2 -11.5t-1 -11.5q0 -16 6 -29.5
t19 -20.5q3 -2 8 -5t12 -6q10 -4 24 -8t33 -4t43 5t54 18v1zM260 740q5 9 11.5 20t13.5 23q5 8 10.5 16t11.5 16q13 18 25.5 33.5t21.5 24.5q12 12 24 17t23 5q23 1 39 -15t16 -36q0 -11 -5.5 -22t-17.5 -20q-7 -5 -15 -10t-17 -10q-21 -11 -52.5 -22.5t-80.5 -28.5z
M646 362h-1l1 -1v1z" />
    <glyph glyph-name="Icircumflex" unicode="&#xce;" horiz-adv-x="661" 
d="M605 399q-14 19 -29 30q-10 8 -20 11.5t-19 3.5q-15 0 -25 -9.5t-10 -29.5q0 -18 9.5 -42.5t31.5 -56.5q33 -46 47.5 -86.5t14.5 -75.5q0 -90 -75.5 -138t-167.5 -48q-77 0 -145 36.5t-91 114.5q-6 22 -12.5 38.5t-13.5 27.5q-8 16 -16.5 23t-16.5 7q-16 1 -27 -27
t-11 -74q0 -10 0.5 -20.5t1.5 -21.5l-15 1q-4 16 -5.5 31t-1.5 28q0 74 40.5 110.5t90.5 36.5h4q45 -1 84.5 -29.5t54.5 -83.5q1 -3 1.5 -5.5t1.5 -5.5q21 -80 45.5 -121.5t65.5 -41.5h10q5 0 10 2q24 4 35 16t11 32q0 29 -21 79t-56 124q-13 26 -18.5 49t-5.5 44
q0 65 44 103t99 39h5q42 -2 79 -28t56 -80l-15 -8q-11 27 -25 45zM268 465l8 -16q-28 -12 -53.5 -17t-48.5 -5q-61 -1 -97 31.5t-36 82.5q0 22 7 46.5t23 49.5q31 52 71.5 72.5t85.5 20.5q16 0 33 -2t34 -6q33 -7 66.5 -20t63.5 -27q17 -8 33 -15.5t30 -14.5q20 -9 35 -13
t26 -4q19 0 27.5 8.5t8.5 19.5q0 3 -0.5 6.5t-1.5 7.5q-4 11 -14.5 21.5t-25.5 16.5l8 24q38 -22 55.5 -50.5t18.5 -58.5q0 -47 -38.5 -85.5t-102.5 -38.5q-31 0 -68 11.5t-77 39.5q-48 34 -87.5 48t-70.5 15q-47 0 -74 -24t-35 -52q-1 -6 -2 -11.5t-1 -11.5q0 -16 6 -29.5
t19 -20.5q3 -2 8 -5t12 -6q10 -4 24 -8t33 -4t43 5t54 18v1zM189 772q9 8 20 19.5t23 24.5l1 1l1 2q20 22 36.5 40t20.5 22q11 11 21 16t18 5q11 0 20.5 -5.5t19.5 -15.5l102 -109q5 -6 7.5 -11t3.5 -10q0 -7 -6 -9t-20 5l-126 56l-118 -47q-10 -7 -17.5 -10t-12.5 -3
q-9 0 -7.5 8t13.5 20v1zM646 362h-1l1 -1v1z" />
    <glyph glyph-name="Idieresis" unicode="&#xcf;" horiz-adv-x="661" 
d="M605 399q-14 19 -29 30q-10 8 -20 11.5t-19 3.5q-15 0 -25 -9.5t-10 -29.5q0 -18 9.5 -42.5t31.5 -56.5q33 -46 47.5 -86.5t14.5 -75.5q0 -90 -75.5 -138t-167.5 -48q-77 0 -145 36.5t-91 114.5q-6 22 -12.5 38.5t-13.5 27.5q-8 16 -16.5 23t-16.5 7q-16 1 -27 -27
t-11 -74q0 -10 0.5 -20.5t1.5 -21.5l-15 1q-4 16 -5.5 31t-1.5 28q0 74 40.5 110.5t90.5 36.5h4q45 -1 84.5 -29.5t54.5 -83.5q1 -3 1.5 -5.5t1.5 -5.5q21 -80 45.5 -121.5t65.5 -41.5h10q5 0 10 2q24 4 35 16t11 32q0 29 -21 79t-56 124q-13 26 -18.5 49t-5.5 44
q0 65 44 103t99 39h5q42 -2 79 -28t56 -80l-15 -8q-11 27 -25 45zM268 465l8 -16q-28 -12 -53.5 -17t-48.5 -5q-61 -1 -97 31.5t-36 82.5q0 22 7 46.5t23 49.5q31 52 71.5 72.5t85.5 20.5q16 0 33 -2t34 -6q33 -7 66.5 -20t63.5 -27q17 -8 33 -15.5t30 -14.5q20 -9 35 -13
t26 -4q19 0 27.5 8.5t8.5 19.5q0 3 -0.5 6.5t-1.5 7.5q-4 11 -14.5 21.5t-25.5 16.5l8 24q38 -22 55.5 -50.5t18.5 -58.5q0 -47 -38.5 -85.5t-102.5 -38.5q-31 0 -68 11.5t-77 39.5q-48 34 -87.5 48t-70.5 15q-47 0 -74 -24t-35 -52q-1 -6 -2 -11.5t-1 -11.5q0 -16 6 -29.5
t19 -20.5q3 -2 8 -5t12 -6q10 -4 24 -8t33 -4t43 5t54 18v1zM417 756q-21 11 -36 28.5t-21 35.5q-3 7 -4 13.5t-1 12.5q0 21 14.5 36t47.5 15q38 0 55 -15t17 -36q0 -5 -1 -10.5t-3 -11.5q-6 -21 -24 -40t-44 -29v1zM236 756q-32 23 -46.5 46.5t-14.5 42.5q-1 23 18 37.5
t51 14.5q30 0 47 -16t17 -39q0 -7 -1.5 -15t-5.5 -15q-7 -16 -23 -30.5t-42 -26.5v1zM646 362h-1l1 -1v1z" />
    <glyph glyph-name="Eth" unicode="&#xd0;" horiz-adv-x="795" 
d="M53 301q-33 87 -33 152q0 21 4.5 43.5t14.5 45.5q36 80 131.5 125.5t204.5 45.5h13q7 0 14 -1q135 -6 250 -93t128 -274v-6q0 -2 1 -4v-10q0 -152 -102 -240.5t-225 -93.5h-14q-32 -1 -64 5t-61 19q-12 5 -30 16.5t-39 25.5q-14 8 -29 16.5t-30 14.5q-14 6 -28 9.5
t-27 3.5q-25 1 -45 -15t-32 -56l-16 1q29 104 85 145.5t122 42.5q19 0 38 -2.5t38 -7.5q24 -7 48 -16t47 -21q15 12 21.5 22.5t7.5 19.5q0 21 -26 36t-58 29h-1l-1 1l-28 12q-9 5 -18 9h-261zM362 543q-7 -13 -10.5 -22t-3.5 -16q0 -17 15 -26t38 -15q11 -4 23.5 -7.5
t24.5 -7.5q22 -8 43 -21t36 -35q9 -15 13 -29t4 -28q0 -5 -1 -10h76l2 -25h-83q-4 -14 -13 -27q-18 -29 -41 -53q-15 -16 -29.5 -30.5t-22.5 -26.5q48 -31 88.5 -45t73.5 -14q64 -1 101 38t48 86q2 10 3 19.5t1 18.5v7q1 96 -108 170t-239 93q-10 2 -19.5 3t-19.5 2v1z
M279 326q-6 6 -10 13q-11 18 -11 37q0 20 9 41t23 42q5 8 11 16.5t12 17.5q8 12 17 24.5t16 24.5v1q-2 -1 -4 -1h-2q-48 -1 -94 -9t-81 -18q-11 -3 -21 -6t-18 -6q-38 -15 -57 -39.5t-21 -50.5v-6q0 -34 28 -62t203 -19z" />
    <glyph glyph-name="Ntilde" unicode="&#xd1;" horiz-adv-x="772" 
d="M63 268q54 19 76 31.5t23 22.5q0 4 -2.5 7.5t-7.5 6.5q-10 7 -27.5 14.5t-35.5 17.5q-26 14 -48.5 34.5t-24.5 53.5v10q-1 2 -1 4v5q0 122 69.5 185t152.5 69q4 1 8 1h8q61 0 113.5 -31.5t74.5 -93.5q10 44 33.5 67t48.5 33q19 7 37 9t31 2q84 -6 107.5 -43.5t26.5 -82.5
q1 -7 1 -15v-15q1 -39 9 -67.5t52 -28.5h8v-15h-21q-41 1 -73 -24t-32 -87q-1 -18 -2 -38t-1 -40v-3q0 -58 10.5 -107t43.5 -49q12 0 26.5 7.5t33.5 24.5l15 -15l-181 -134q-25 15 -43 28t-31 27q-26 28 -32.5 58.5t-9.5 77.5q0 8 -0.5 17.5t-1.5 19.5q-1 12 -1.5 24
t-0.5 22q0 109 48.5 140t133.5 47q4 1 8.5 1.5t8.5 1.5q-77 3 -103 35.5t-32 71.5q-2 9 -3 18.5t-2 18.5q-2 29 -8.5 49.5t-32.5 20.5q-4 0 -7.5 -0.5t-8.5 -1.5q-23 -9 -31 -36t-8 -65q0 -19 1.5 -40.5t2.5 -44.5q1 -11 1.5 -22.5t1.5 -22.5q0 -12 0.5 -23.5t0.5 -22.5
q0 -22 -1.5 -43.5t-6.5 -41.5q-8 -26 -36.5 -65t-64.5 -80q-9 -11 -19 -22l-20 -22q-39 -41 -74.5 -75t-53.5 -50l-118 110l-47 -47l-16 16l157 157l126 -102q0 -1 0.5 8.5t1.5 25.5q0 17 0.5 40t0.5 50q0 37 -1 80t-5 87q-2 39 -7 77t-13 72q-7 36 -36 61t-63 30
q-4 1 -8.5 1.5t-8.5 0.5q-22 0 -42 -10.5t-31 -35.5q-1 -4 -2 -7.5t-1 -7.5q0 -15 11.5 -27t29.5 -24q7 -5 15 -9.5t15 -9.5q17 -11 32.5 -22.5t25.5 -26.5q11 -15 17 -33t6 -38v-10q0 -4 -1 -9q-6 -47 -46.5 -86.5t-117.5 -43.5v17zM213 791q11 64 39 91t60 32q4 0 8.5 0.5
t8.5 0.5q19 0 36 -4.5t29 -10.5q4 -2 8.5 -5t8.5 -5q20 -12 39.5 -22.5t38.5 -10.5q15 0 28.5 9.5t25.5 33.5l16 1q-7 -66 -35.5 -94.5t-61.5 -34.5q-4 0 -8.5 -0.5t-8.5 -0.5q-19 0 -37 5.5t-30 13.5q-28 19 -54.5 30t-46.5 11q-18 1 -30.5 -9t-17.5 -32z" />
    <glyph glyph-name="Ograve" unicode="&#xd2;" horiz-adv-x="811" 
d="M307 693q-46 -14 -64.5 -33.5t-18.5 -44.5q0 -26 14.5 -56t32.5 -61q1 -1 1.5 -2t1.5 -2q16 -30 30 -58.5t14 -54.5q0 -5 -0.5 -10t-2.5 -10q-12 -49 -58 -78t-99 -29q-55 0 -102 34.5t-56 112.5l16 1q0 -10 2.5 -21t8.5 -23q11 -27 34 -49t51 -23h5q3 0 6 1q3 0 5.5 1
t5.5 2q11 4 15.5 10t4.5 13q0 14 -12 32t-26 40q-12 16 -22.5 34.5t-14.5 36.5q-1 4 -1.5 8t-1.5 8q0 4 -0.5 8t-0.5 8v12q6 68 67 127.5t157 80.5q29 5 55.5 6.5t51.5 1.5q158 1 236 -64t111 -143q6 -13 10.5 -26.5t8.5 -26.5q9 -30 13 -59.5t4 -58.5q0 -142 -90 -248
t-240 -106q-26 0 -54.5 4t-58.5 12q-27 7 -51.5 23t-48.5 36q-5 3 -9.5 7t-9.5 8q-28 24 -58.5 45t-66.5 30h-3q-1 0 -3 1h-6q-30 0 -45 -15.5t-22 -33.5l-4 -12q-2 -6 -3 -11l-16 1q14 53 64.5 98.5t107.5 64.5q15 5 30 7.5t29 2.5h7q1 -1 3 -1h3q33 -4 75.5 -26t89.5 -48
q16 -9 33 -18l34 -18q35 -17 69.5 -28t66.5 -11t60.5 14t51.5 48q18 24 27.5 54t11.5 61v16q-1 57 -25.5 108t-68.5 76q-28 16 -59 22.5t-63 7.5h-21q-12 0 -24 -0.5t-23 -0.5q-12 0 -23 -0.5t-22 -0.5q-28 0 -52.5 4t-42.5 16q-2 2 -10.5 8t-18.5 16q-11 12 -20 29t-9 40
q0 15 6 33.5t20 38.5v1zM489 751q-10 3 -20 6.5t-20 7.5q-5 3 -11 5t-11 4q-34 14 -61 26.5t-35 20.5q-13 12 -19 23.5t-6 21.5q0 20 18 33.5t40 13.5h4q3 0 6 -1q7 -1 14.5 -4t13.5 -8q14 -9 34 -39t42 -64q7 -10 13.5 -20t13.5 -19z" />
    <glyph glyph-name="Oacute" unicode="&#xd3;" horiz-adv-x="811" 
d="M299 685q-46 -13 -64 -32.5t-19 -44.5q0 -26 14.5 -56t32.5 -61q1 -1 1.5 -2t1.5 -2q16 -30 30 -58.5t14 -54.5q0 -5 -0.5 -10.5t-2.5 -10.5q-11 -49 -57.5 -78t-99.5 -29q-55 0 -102 34.5t-55 112.5l15 1q0 -10 2.5 -21t8.5 -23q11 -27 34 -49t51 -23h5q3 0 6 1
q3 0 5.5 1t5.5 2q11 5 15.5 11t4.5 13q0 14 -12 32l-26 39q-12 17 -22.5 35t-14.5 36q-1 4 -1.5 8t-1.5 8q0 4 -0.5 8t-0.5 8v12q6 68 67 127.5t157 80.5q29 5 55.5 6.5t51.5 1.5q158 1 236 -64t111 -143q6 -13 10.5 -26.5t8.5 -26.5q9 -30 13 -60t5 -59
q0 -142 -90.5 -247.5t-240.5 -105.5q-26 0 -54.5 4t-57.5 12q-28 8 -53 24.5t-50 36.5q-4 3 -8 6.5t-9 6.5q-28 24 -58.5 45t-66.5 30q-4 1 -7 1h-6q-29 0 -44 -15.5t-22 -33.5l-4 -12q-2 -6 -3 -11l-16 1q14 53 64.5 98.5t107.5 64.5q15 5 30 7.5t29 2.5h7q1 -1 3 -1h3
q33 -4 75.5 -26t89.5 -48q17 -10 35 -19.5t35 -17.5q35 -16 69 -27t65 -11q32 0 60.5 14t51.5 48q20 26 29 58.5t9 66.5v5q-1 57 -25.5 108t-68.5 77q-28 16 -59 22.5t-63 7.5h-21q-12 0 -24 -0.5t-23 -0.5q-12 0 -23 -0.5t-22 -0.5q-28 0 -52.5 4t-42.5 16q-2 2 -10.5 8.5
t-18.5 16.5q-11 12 -20 29t-9 39q0 15 6 33.5t20 38.5v1zM323 732q5 9 11 19.5t12 21.5q6 8 12 17t12 17q13 19 25.5 34t21.5 24q4 4 8 7l8 6q8 5 16.5 7t15.5 2q23 1 38.5 -15t15.5 -36q0 -3 -0.5 -7t-1.5 -7q-3 -7 -8 -14t-13 -14q-7 -5 -15 -10t-17 -10
q-21 -11 -52.5 -22.5t-80.5 -28.5z" />
    <glyph glyph-name="Ocircumflex" unicode="&#xd4;" horiz-adv-x="811" 
d="M307 693q-46 -14 -64.5 -33.5t-18.5 -44.5q0 -26 14.5 -56t32.5 -61q1 -1 1.5 -2t1.5 -2q16 -30 30 -58.5t14 -54.5q0 -5 -0.5 -10t-2.5 -10q-12 -49 -58 -78t-99 -29q-55 0 -102 34.5t-56 112.5l16 1q0 -10 2.5 -21t8.5 -23q11 -27 34 -49t51 -23h5q3 0 6 1q3 0 5.5 1
t5.5 2q11 4 15.5 10t4.5 13q0 14 -12 32t-26 40q-12 16 -22.5 34.5t-14.5 36.5q-1 4 -1.5 8t-1.5 8q0 4 -0.5 8t-0.5 8v12q6 68 67 127.5t157 80.5q29 5 55.5 6.5t51.5 1.5q158 1 236 -64t111 -143q6 -13 10.5 -26.5t8.5 -26.5q9 -30 13 -59.5t4 -58.5q0 -142 -90 -248
t-240 -106q-26 0 -54.5 4t-58.5 12q-27 7 -51.5 23t-48.5 36q-5 3 -9.5 7t-9.5 8q-28 24 -58.5 45t-66.5 30h-3q-1 0 -3 1h-6q-30 0 -45 -15.5t-22 -33.5l-4 -12q-2 -6 -3 -11l-16 1q14 53 64.5 98.5t107.5 64.5q15 5 30 7.5t29 2.5h7q1 -1 3 -1h3q33 -4 75.5 -26t89.5 -48
q16 -9 33 -18l34 -18q35 -17 69.5 -28t66.5 -11t60.5 14t51.5 48q18 24 27.5 54t11.5 61v16q-1 57 -25.5 108t-68.5 76q-28 16 -59 22.5t-63 7.5h-21q-12 0 -24 -0.5t-23 -0.5q-12 0 -23 -0.5t-22 -0.5q-28 0 -52.5 4t-42.5 16q-2 2 -10.5 8t-18.5 16q-11 12 -20 29t-9 40
q0 15 6 33.5t20 38.5v1zM268 787q9 8 20 20t23 25v1l2 1q20 22 36.5 40.5t20.5 22.5q11 11 21 15.5t18 4.5q11 0 20.5 -5.5t19.5 -14.5l102 -110q2 -3 3.5 -5t3.5 -4q1 -3 2.5 -6t1.5 -5q0 -7 -6.5 -9t-20.5 5l-126 56l-118 -47q-10 -7 -17 -10t-12 -3q-9 0 -7.5 8t13.5 19
v1z" />
    <glyph glyph-name="Otilde" unicode="&#xd5;" horiz-adv-x="811" 
d="M307 693q-46 -14 -64.5 -33.5t-18.5 -44.5q0 -26 14.5 -56t32.5 -61q1 -1 1.5 -2t1.5 -2q16 -30 30 -58.5t14 -54.5q0 -5 -0.5 -10t-2.5 -10q-12 -49 -58 -78t-99 -29q-55 0 -102 34.5t-56 112.5l16 1q0 -10 2.5 -21t8.5 -23q11 -27 34 -49t51 -23h5q3 0 6 1q3 0 5.5 1
t5.5 2q11 4 15.5 10t4.5 13q0 14 -12 32t-26 40q-12 16 -22.5 34.5t-14.5 36.5q-1 4 -1.5 8t-1.5 8q0 4 -0.5 8t-0.5 8v12q6 68 67 127.5t157 80.5q29 5 55.5 6.5t51.5 1.5q158 1 236 -64t111 -143q6 -13 10.5 -26.5t8.5 -26.5q9 -30 13 -59.5t4 -58.5q0 -142 -90 -248
t-240 -106q-26 0 -54.5 4t-58.5 12q-27 7 -51.5 23t-48.5 36q-5 3 -9.5 7t-9.5 8q-28 24 -58.5 45t-66.5 30h-3q-1 0 -3 1h-6q-30 0 -45 -15.5t-22 -33.5l-4 -12q-2 -6 -3 -11l-16 1q14 53 64.5 98.5t107.5 64.5q15 5 30 7.5t29 2.5h7q1 -1 3 -1h3q33 -4 75.5 -26t89.5 -48
q16 -9 33 -18l34 -18q35 -17 69.5 -28t66.5 -11t60.5 14t51.5 48q18 24 27.5 54t11.5 61v16q-1 57 -25.5 108t-68.5 76q-28 16 -59 22.5t-63 7.5h-21q-12 0 -24 -0.5t-23 -0.5q-12 0 -23 -0.5t-22 -0.5q-28 0 -52.5 4t-42.5 16q-2 2 -10.5 8t-18.5 16q-11 12 -20 29t-9 40
q0 15 6 33.5t20 38.5v1zM228 787q11 64 39.5 91.5t60.5 32.5q4 0 8.5 0.5t8.5 0.5q19 0 35.5 -4.5t28.5 -10.5q4 -2 8.5 -5t8.5 -5q20 -12 40 -22.5t39 -10.5q15 0 28.5 9.5t25.5 33.5l16 1q-7 -66 -35.5 -95t-61.5 -34q-5 0 -9.5 -0.5t-8.5 -0.5q-19 0 -36.5 5t-29.5 13
q-28 19 -54 30.5t-47 11.5q-18 0 -30.5 -9.5t-18.5 -32.5z" />
    <glyph glyph-name="Odieresis" unicode="&#xd6;" horiz-adv-x="811" 
d="M291 693q-46 -13 -64 -32.5t-18 -44.5q0 -26 14.5 -56t32.5 -62v-2l2 -1q16 -30 30 -58.5t14 -54.5q0 -5 -0.5 -10.5t-2.5 -10.5q-11 -49 -57.5 -78t-99.5 -29q-55 0 -101.5 34.5t-55.5 112.5l15 1q0 -10 2.5 -21t8.5 -23q11 -27 34 -49t51 -23h5q3 0 6 1q3 0 5.5 1
t5.5 2q11 5 15.5 11t4.5 13q0 14 -12 32l-26 39q-12 17 -22.5 35t-14.5 36q-1 4 -1.5 8t-1.5 8q0 4 -0.5 8t-0.5 8v12q6 68 67 127.5t157 80.5q29 5 55.5 6.5t51.5 1.5q158 1 236 -64t111 -143q6 -13 10.5 -26.5t8.5 -26.5q9 -30 13 -60t5 -59q0 -142 -90.5 -247.5
t-239.5 -105.5q-27 0 -55 4t-58 12q-28 7 -54 24.5t-51 37.5q-3 3 -7 6t-7 6q-29 24 -59.5 45t-65.5 30h-3q-1 0 -3 1h-6q-30 0 -45.5 -15.5t-22.5 -33.5l-4 -12q-2 -6 -3 -11l-16 1q15 53 65 98.5t107 64.5q15 5 30 7.5t29 2.5h7q1 -1 3 -1h3q33 -4 75.5 -26t89.5 -48
q17 -10 35 -19.5t35 -17.5q35 -16 69 -27t65 -11q32 0 60.5 14t51.5 48q20 26 29.5 58.5t9.5 66.5v5q-1 57 -26 108t-68 77q-23 13 -48.5 19.5t-50.5 8.5q-11 1 -22 1.5t-22 0.5q-12 0 -24 -0.5t-23 -0.5q-12 0 -23 -0.5t-22 -0.5q-28 0 -53 4t-43 16q-2 2 -10.5 8t-18.5 16
q-11 12 -20 29t-9 40q0 15 6 33.5t20 38.5v1zM480 772q-21 11 -36 28.5t-21 35.5q-3 7 -4 13.5t-1 12.5q0 21 14.5 35.5t47.5 14.5q38 0 55 -15t17 -36q0 -6 -1 -12t-4 -12q-7 -20 -24.5 -38t-42.5 -28v1zM299 772q-32 23 -46.5 46t-14.5 42q-1 23 18 37.5t51 14.5
q30 0 47 -15.5t17 -38.5q0 -7 -1.5 -15t-5.5 -15q-7 -16 -23 -30.5t-42 -26.5v1z" />
    <glyph glyph-name="multiply" unicode="&#xd7;" horiz-adv-x="598" 
d="M300 321l145 145l72 -72l-145 -145l145 -145l-72 -72l-145 145l-139 -139l-72 72l139 139l-145 145l72 72z" />
    <glyph glyph-name="Oslash" unicode="&#xd8;" horiz-adv-x="811" 
d="M543 701q79 -30 127.5 -78.5t74.5 -101.5q16 -34 24.5 -67t10.5 -61q1 -11 1.5 -22t0.5 -22q1 -164 -89.5 -251t-198.5 -103q-13 -2 -25.5 -3t-24.5 -1q-37 0 -72.5 8t-64.5 24l-47 -117h-24l47 125q-18 6 -38.5 22.5t-42.5 34.5q-9 7 -18.5 15t-18.5 14q-20 14 -39 23.5
t-37 9.5q-21 0 -40 -16t-33 -56l-16 1q19 83 69.5 123t108.5 48q9 2 18 2.5t18 0.5q41 0 76.5 -11.5t55.5 -29.5l111 308q-8 -2 -16.5 -3t-17.5 -1q-11 0 -22.5 1t-22.5 4q-21 4 -41 13.5t-38 23.5q-13 11 -18.5 25.5t-5.5 30.5q0 8 1 17t4 18q3 13 8 26t11 25
q-43 -15 -59.5 -35t-16.5 -44q0 -26 14.5 -55t31.5 -59l1 -3q17 -29 31 -57t14 -54q0 -52 -50 -92t-110 -42h-6q-49 -1 -91 31.5t-58 110.5l16 1q10 -31 21.5 -52.5t23.5 -35.5q12 -16 24.5 -23t23.5 -7q14 0 23 10.5t9 26.5q0 12 -5.5 26.5t-17.5 29.5q-12 14 -20.5 28.5
t-14.5 29.5q-6 14 -8.5 28.5t-2.5 28.5q0 93 97 162.5t231 69.5q20 0 40 -1.5t40 -5.5l20 -4q10 -2 20 -5l39 111h24zM480 520l-110 -315q62 -49 119.5 -72t105.5 -24q65 0 108 42t53 124q1 4 1.5 8.5t0.5 8.5v31q-4 74 -59 135.5t-185 61.5h-17q-8 0 -17 -1v1z" />
    <glyph glyph-name="Ugrave" unicode="&#xd9;" horiz-adv-x="661" 
d="M71 219v284q-1 22 -10 40.5t-27 18.5q-10 1 -22 -5.5t-27 -22.5l-16 17l157 158q9 -7 20 -13.5t22 -13.5q29 -19 52.5 -46t24.5 -73v-6q-1 -2 -1 -4v-380l79 -39l71 63v299q0 28 -18 45t-53 17v17q1 -1 2 -1h2l1 -1h2q14 0 30 7.5t32 19.5q21 16 41 38t36 45q3 4 5.5 8.5
t5.5 8.5q4 -8 9.5 -15.5t11.5 -15.5q26 -36 62 -65.5t75 -29.5v-15q-47 -1 -59 -20.5t-12 -43.5v-290q0 -28 12.5 -49.5t34.5 -21.5q11 0 25 7t30 23l8 -14l-173 -158q-22 16 -39 29t-30 25q-21 20 -31 45t-10 73l-189 -172q-10 9 -29.5 26t-43.5 35q-15 11 -30 21.5
t-31 19.5q-18 11 -36.5 19t-34.5 12v17q53 -1 62 17.5t9 59.5zM409 740q-9 3 -18.5 6.5t-19.5 7.5q-6 2 -12 4.5t-12 4.5q-33 14 -60 26.5t-35 20.5q-13 12 -19 23.5t-6 21.5q0 20 18 33.5t40 13.5h4q3 0 6 -1q7 -1 14.5 -4t13.5 -8q13 -9 33 -39t43 -64q5 -8 10 -15t9 -15
q2 -2 3.5 -4.5t3.5 -4.5z" />
    <glyph glyph-name="Uacute" unicode="&#xda;" horiz-adv-x="661" 
d="M71 219v284q-1 22 -10 40.5t-27 18.5q-10 1 -22 -5.5t-27 -22.5l-16 17l157 158q9 -7 20 -13.5t22 -13.5q29 -19 52.5 -46t24.5 -73v-6q-1 -2 -1 -4v-380l79 -39l71 63v299q0 28 -18 45t-53 17v17q1 -1 2 -1h2l1 -1h2q14 0 30 7.5t32 19.5q21 16 41 38t36 45q3 4 5.5 8.5
t5.5 8.5q4 -8 9.5 -15.5t11.5 -15.5q26 -36 62 -65.5t75 -29.5v-15q-47 -1 -59 -20.5t-12 -43.5v-290q0 -28 12.5 -49.5t34.5 -21.5q11 0 25 7t30 23l8 -14l-173 -158q-22 16 -39 29t-30 25q-21 20 -31 45t-10 73l-189 -172q-10 9 -29.5 26t-43.5 35q-15 11 -30 21.5
t-31 19.5q-18 11 -36.5 19t-34.5 12v17q53 -1 62 17.5t9 59.5zM260 756q5 9 11.5 20t13.5 23q5 8 10.5 16t11.5 16q13 18 25.5 33.5t21.5 24.5q12 12 24 17t23 5q23 1 39 -15t16 -36q0 -11 -5.5 -22t-17.5 -20q-8 -6 -17 -11.5t-20 -11.5q-21 -10 -51.5 -21t-76.5 -27z" />
    <glyph glyph-name="Ucircumflex" unicode="&#xdb;" horiz-adv-x="661" 
d="M71 219v284q-1 22 -10 40.5t-27 18.5q-10 1 -22 -5.5t-27 -22.5l-16 17l157 158q9 -7 20 -13.5t22 -13.5q29 -19 52.5 -46t24.5 -73v-6q-1 -2 -1 -4v-380l79 -39l71 63v299q0 28 -18 45t-53 17v17q1 -1 2 -1h2l1 -1h2q14 0 30 7.5t32 19.5q21 16 41 38t36 45q3 4 5.5 8.5
t5.5 8.5q4 -8 9.5 -15.5t11.5 -15.5q26 -36 62 -65.5t75 -29.5v-15q-47 -1 -59 -20.5t-12 -43.5v-290q0 -28 12.5 -49.5t34.5 -21.5q11 0 25 7t30 23l8 -14l-173 -158q-22 16 -39 29t-30 25q-21 20 -31 45t-10 73l-189 -172q-10 9 -29.5 26t-43.5 35q-15 11 -30 21.5
t-31 19.5q-18 11 -36.5 19t-34.5 12v17q53 -1 62 17.5t9 59.5zM197 787q9 8 20 20t23 25v1l2 1q20 22 36.5 40.5t20.5 22.5q11 11 21 15.5t18 4.5q11 0 20.5 -5.5t19.5 -14.5l102 -110q2 -3 3.5 -5t3.5 -4q1 -3 2.5 -6t1.5 -5q0 -7 -6 -9t-20 5l-126 56l-119 -47
q-10 -7 -17 -10t-12 -3q-9 0 -7.5 8t13.5 19v1z" />
    <glyph glyph-name="Udieresis" unicode="&#xdc;" horiz-adv-x="661" 
d="M71 219v284q-1 22 -10 40.5t-27 18.5q-10 1 -22 -5.5t-27 -22.5l-16 17l157 158q9 -7 20 -13.5t22 -13.5q29 -19 52.5 -46t24.5 -73v-6q-1 -2 -1 -4v-380l79 -39l71 63v299q0 28 -18 45t-53 17v17q1 -1 2 -1h2l1 -1h2q14 0 30 7.5t32 19.5q21 16 41 38t36 45q3 4 5.5 8.5
t5.5 8.5q4 -8 9.5 -15.5t11.5 -15.5q26 -36 62 -65.5t75 -29.5v-15q-47 -1 -59 -20.5t-12 -43.5v-290q0 -28 12.5 -49.5t34.5 -21.5q11 0 25 7t30 23l8 -14l-173 -158q-22 16 -39 29t-30 25q-21 20 -31 45t-10 73l-189 -172q-10 9 -29.5 26t-43.5 35q-15 11 -30 21.5
t-31 19.5q-18 11 -36.5 19t-34.5 12v17q53 -1 62 17.5t9 59.5zM417 772q-21 11 -36 28.5t-21 35.5q-3 7 -4 13.5t-1 12.5q0 21 14.5 35.5t47.5 14.5q38 0 55 -15t17 -36q0 -6 -1 -12t-4 -12q-7 -20 -24.5 -38t-42.5 -28v1zM236 772q-32 23 -46.5 46t-14.5 42q-1 23 18 37.5
t51 14.5q30 0 47 -15.5t17 -38.5q0 -7 -1.5 -15t-5.5 -15q-7 -16 -23 -30.5t-42 -26.5v1z" />
    <glyph glyph-name="Yacute" unicode="&#xdd;" horiz-adv-x="772" 
d="M409 614q6 44 35 68t68 24q13 0 26.5 -2.5t26.5 -8.5q60 -25 110 -109t50 -240v-23q0 -12 -1 -25v-17q-3 -194 -82.5 -355t-296.5 -162h-14q-102 0 -152.5 31.5t-59.5 68.5q-1 4 -1.5 8.5t-0.5 8.5q0 31 27 55.5t76 24.5q58 0 83 -23t25 -51v-5q-3 -30 -28 -54.5
t-64 -24.5h-8q12 -10 37 -17t56 -7q12 0 24.5 1t24.5 4q52 11 96 51.5t54 125.5q5 91 8 173.5t3 158.5q0 47 -1 92l-2 90q-2 33 -3.5 65t-4.5 65q-5 27 -16 43.5t-24 19.5h-4q-16 0 -29.5 -25.5t-13.5 -84.5q1 -14 2 -27l2 -26q2 -25 3.5 -47t1.5 -43q1 -44 -14 -80.5
t-61 -70.5q-20 -15 -46.5 -30t-60.5 -30q53 -18 88.5 -41.5t53.5 -53.5l63 56l7 -15l-181 -166q-21 36 -46.5 62t-51.5 39q-13 7 -26 10.5t-26 3.5q-27 1 -49.5 -14t-36.5 -47l-16 1q30 82 85 120.5t120 44.5q2 7 3.5 17.5t3.5 23.5q6 33 10 80.5t4 97.5v8q-1 74 -15 139.5
t-53 89.5q-5 3 -11.5 5t-12.5 3q-3 1 -6 1.5t-6 0.5q-28 0 -52 -19t-25 -46q0 -12 5.5 -25t18.5 -27q7 -6 15.5 -12.5t18.5 -13.5q30 -19 49 -58t19 -83q0 -5 -0.5 -10t-0.5 -10q-5 -46 -37 -88.5t-101 -65.5l-8 16q48 19 67.5 34t20.5 27q0 5 -2 9.5t-7 9.5q-9 10 -26 21
t-35 25q-20 14 -38 33t-27 45q-4 14 -6.5 28.5t-2.5 28.5q0 89 70.5 155t158.5 66q6 0 11.5 -0.5t11.5 -0.5q40 -5 79 -28t71 -68v1zM288 759q5 9 11.5 20t13.5 23q5 8 10.5 16t11.5 16q13 18 25.5 33.5t21.5 24.5q12 12 24 17t23 5q23 1 39 -15t16 -36q0 -11 -5.5 -22
t-17.5 -20q-8 -6 -17 -11.5t-20 -11.5q-21 -10 -51.5 -21t-76.5 -27z" />
    <glyph glyph-name="Thorn" unicode="&#xde;" horiz-adv-x="811" 
d="M690 492h53v-15q-100 -1 -110.5 -18t45.5 -40q31 -16 73.5 -55.5t42.5 -73.5q0 -10 -1.5 -19.5t-5.5 -19.5q-7 -19 -17.5 -40.5t-22.5 -42.5q-41 -67 -103.5 -122.5t-135.5 -55.5q-19 0 -37.5 4t-37.5 13q-6 -26 -16 -57.5t-21 -63.5q-7 -17 -13.5 -34.5t-13.5 -33.5
q-6 -14 -11.5 -28t-11.5 -26h-15q-6 17 -14 46t-17 68q-9 41 -17.5 91.5t-14.5 108.5q-4 5 -8.5 10t-11.5 10q-12 10 -29 20t-34 15q-6 2 -12 3t-12 1q-22 0 -40.5 -16t-26.5 -59l-15 1q2 14 7 37t15 48q15 40 46 72.5t85 32.5h14q7 0 14 -2v245q0 58 -15 108.5t-56 55.5
q-8 2 -16.5 2.5t-16.5 0.5q-30 0 -52.5 -10t-22.5 -30q-1 -18 22 -44t78 -60q19 -13 29 -36.5t11 -52.5q0 -9 -1 -18t-3 -19q-11 -44 -48 -83t-106 -51v17q30 2 47.5 15t20.5 28v3q0 11 -8.5 21.5t-28.5 17.5q-47 20 -69 59t-22 88q0 12 1.5 24.5t3.5 25.5q17 81 77 116.5
t129 35.5h2q1 0 37.5 -0.5t99 -33.5t80.5 -86q1 145 138 124l-8 -30q-70 33 -103 -46q-9 -39 -11 -86v-152q68 49 99 67q37 21 142 25zM583 102q11 -8 22.5 -12t23.5 -4q25 0 44.5 14t19.5 36q0 15 -10.5 32.5t-36.5 35.5q-10 8 -24.5 18.5t-30.5 23.5q-70 50 -91.5 77
t-21.5 55q0 7 1 13q1 3 2 5l-32 -19v-180z" />
    <glyph glyph-name="germandbls" unicode="&#xdf;" horiz-adv-x="535" 
d="M252 409q10 7 21 14.5t21 15.5q10 7 19 14l18 14q22 17 42 34t36 33q7 -4 16 -13.5t18 -23.5q17 -23 32 -56.5t17 -68.5q1 -4 1 -8v-6q1 -43 -25.5 -81t-97.5 -58q66 -4 100.5 -45.5t34.5 -103.5q0 -33 -10 -68.5t-30 -72.5t-56 -59t-75 -26q-4 -1 -8 -1h-7
q-38 0 -71.5 20.5t-50.5 65.5q-6 -35 -13 -71.5t-19 -77.5h-15q-30 153 -48.5 307t-30.5 314l-55 1v15q4 -1 8 -0.5t8 2.5q15 4 27 20t12 48q0 6 -0.5 13.5t-0.5 16.5t-0.5 19.5t-0.5 21.5v18q0 9 1 18q3 42 19.5 78.5t60.5 43.5q2 0 3.5 0.5t3.5 0.5h7q25 0 46 -10t37 -22
q17 -12 29 -22t20 -10q6 0 9 8.5t3 29.5v11q0 7 -1 14l16 1q2 -13 2.5 -23.5t0.5 -20.5q0 -63 -22.5 -89.5t-49.5 -31.5q-5 -1 -9.5 -1.5t-8.5 -0.5q-24 2 -43.5 12.5t-35.5 22.5q-18 13 -31.5 24t-21.5 11q-3 0 -5.5 -1.5t-4.5 -5.5q-3 -6 -4 -11.5t-1 -10.5q-1 -18 12 -31
t32 -25q9 -6 18.5 -11.5t19.5 -11.5q28 -18 52 -42t29 -62v1zM231 129q-2 -10 -4 -21q-5 -25 -9.5 -57t-4.5 -75q0 -49 19.5 -74t43.5 -25q20 0 37.5 16.5t25.5 51.5q3 13 5.5 35.5t2.5 47.5v18q-2 44 -16 81.5t-47 38.5q-10 0 -22 -4t-26 -13q-2 -11 -5 -20zM250 337
q-1 -30 -3 -63q-2 -32 -5 -62t-6 -48q61 22 82.5 52.5t25.5 61.5q2 11 2 22v22q0 37 -11 62t-34 25q-10 0 -22.5 -5.5t-26.5 -18.5q0 -19 -2 -48z" />
    <glyph glyph-name="agrave" unicode="&#xe0;" 
d="M291 528q7 -11 21 -23.5t33 -25.5q22 -16 49.5 -30.5t55.5 -24.5q8 -2 15.5 -4t14.5 -4v-14h-13q-22 1 -32 -12t-10 -29v-219q0 -28 7.5 -40.5t23.5 -12.5q8 0 18 3t22 9v-14q-29 -19 -61 -46.5t-73 -56.5l-4 4q-1 1 -3 2q-5 6 -11 10.5t-12 9.5q-18 16 -33.5 34
t-16.5 40v2q0 1 1 3v4q-21 -12 -41 -26.5t-39 -30.5q-18 -14 -35 -27t-34 -25q-27 18 -43.5 31.5t-26.5 26.5q-11 15 -14 32t-3 43v236q0 6 0.5 13t3.5 15q4 11 15.5 22.5t35.5 20.5q18 8 40.5 17t45.5 20q29 13 56 29.5t47 36.5v1zM189 126q0 -23 6.5 -34.5t18.5 -11.5
q5 0 10.5 1.5t11.5 4.5l40 24v268q-28 10 -47 25.5t-36 32.5l-4 4v-314zM299 543q-9 3 -19 6.5t-20 7.5q-6 2 -12 4.5t-11 4.5q-34 14 -60.5 26.5t-34.5 20.5q-13 12 -19 23.5t-6 21.5q-1 20 17 33.5t40 13.5q11 0 21 -3t18 -10q13 -9 33 -39t43 -64q5 -8 10 -15t9 -15
q2 -2 3.5 -4.5t3.5 -4.5z" />
    <glyph glyph-name="aacute" unicode="&#xe1;" 
d="M291 528q7 -11 21 -23.5t33 -25.5q22 -16 49.5 -30.5t55.5 -24.5q8 -2 15.5 -4t14.5 -4v-14h-13q-22 1 -32 -12t-10 -29v-219q0 -28 7.5 -40.5t23.5 -12.5q8 0 18 3t22 9v-14q-29 -19 -61 -46.5t-73 -56.5l-4 4q-1 1 -3 2q-5 6 -11 10.5t-12 9.5q-18 16 -33.5 34
t-16.5 40v2q0 1 1 3v4q-21 -12 -41 -26.5t-39 -30.5q-18 -14 -35 -27t-34 -25q-27 18 -43.5 31.5t-26.5 26.5q-11 15 -14 32t-3 43v236q0 6 0.5 13t3.5 15q4 11 15.5 22.5t35.5 20.5q18 8 40.5 17t45.5 20q29 13 56 29.5t47 36.5v1zM189 126q0 -23 6.5 -34.5t18.5 -11.5
q5 0 10.5 1.5t11.5 4.5l40 24v268q-28 10 -47 25.5t-36 32.5l-4 4v-314zM173 551q5 9 11.5 20t14.5 23q5 8 10.5 16t11.5 16q13 18 25.5 33.5t21.5 24.5q12 12 24 17t23 5q23 1 38.5 -15t15.5 -36q0 -11 -5.5 -22t-17.5 -20q-7 -5 -15 -10t-17 -10q-21 -11 -52 -22.5
t-81 -28.5z" />
    <glyph glyph-name="acircumflex" unicode="&#xe2;" 
d="M291 528q7 -11 21 -23.5t33 -25.5q22 -16 49.5 -30.5t55.5 -24.5q8 -2 15.5 -4t14.5 -4v-14h-13q-22 1 -32 -12t-10 -29v-219q0 -28 7.5 -40.5t23.5 -12.5q8 0 18 3t22 9v-14q-29 -19 -61 -46.5t-73 -56.5l-4 4q-1 1 -3 2q-5 6 -11 10.5t-12 9.5q-18 16 -33.5 34
t-16.5 40v2q0 1 1 3v4q-21 -12 -41 -26.5t-39 -30.5q-18 -14 -35 -27t-34 -25q-27 18 -43.5 31.5t-26.5 26.5q-11 15 -14 32t-3 43v236q0 6 0.5 13t3.5 15q4 11 15.5 22.5t35.5 20.5q18 8 40.5 17t45.5 20q29 13 56 29.5t47 36.5v1zM189 126q0 -23 6.5 -34.5t18.5 -11.5
q5 0 10.5 1.5t11.5 4.5l40 24v268q-28 10 -47 25.5t-36 32.5l-4 4v-314zM120 579q9 7 20 19t23 24q1 1 1.5 2t1.5 2q20 22 36.5 40t20.5 22q11 11 20.5 16t18.5 5q11 0 20.5 -5.5t19.5 -15.5l102 -109q5 -6 7.5 -11t3.5 -10q0 -7 -6.5 -9t-20.5 5l-126 56l-118 -47
q-10 -7 -17 -10t-12 -3q-4 0 -6 1.5t-2 4.5q0 4 3 9.5t10 12.5v1z" />
    <glyph glyph-name="atilde" unicode="&#xe3;" 
d="M291 528q7 -11 21 -23.5t33 -25.5q22 -16 49.5 -30.5t55.5 -24.5q8 -2 15.5 -4t14.5 -4v-14h-13q-22 1 -32 -12t-10 -29v-219q0 -28 7.5 -40.5t23.5 -12.5q8 0 18 3t22 9v-14q-29 -19 -61 -46.5t-73 -56.5l-4 4q-1 1 -3 2q-5 6 -11 10.5t-12 9.5q-18 16 -33.5 34
t-16.5 40v2q0 1 1 3v4q-21 -12 -41 -26.5t-39 -30.5q-18 -14 -35 -27t-34 -25q-27 18 -43.5 31.5t-26.5 26.5q-11 15 -14 32t-3 43v236q0 6 0.5 13t3.5 15q4 11 15.5 22.5t35.5 20.5q18 8 40.5 17t45.5 20q29 13 56 29.5t47 36.5v1zM95 582q11 64 39.5 91t60.5 32
q4 0 8.5 0.5t8.5 0.5q19 0 35.5 -4.5t28.5 -10.5q4 -2 8.5 -5t8.5 -5q20 -12 39.5 -22.5t38.5 -10.5q15 0 29 9.5t26 33.5l15 1q-7 -68 -37 -97t-64 -32q-4 -1 -7 -1h-6q-19 0 -36.5 5.5t-30.5 13.5q-28 19 -54.5 30t-46.5 11q-18 1 -30.5 -9t-17.5 -32zM189 126
q0 -23 6.5 -34.5t18.5 -11.5q5 0 10.5 1.5t11.5 4.5l40 24v268q-28 10 -47 25.5t-36 32.5l-4 4v-314z" />
    <glyph glyph-name="adieresis" unicode="&#xe4;" 
d="M291 528q7 -11 21 -23.5t33 -25.5q22 -16 49.5 -30.5t55.5 -24.5q8 -2 15.5 -4t14.5 -4v-14h-13q-22 1 -32 -12t-10 -29v-219q0 -28 7.5 -40.5t23.5 -12.5q8 0 18 3t22 9v-14q-29 -19 -61 -46.5t-73 -56.5l-4 4q-1 1 -3 2q-5 6 -11 10.5t-12 9.5q-18 16 -33.5 34
t-16.5 40v2q0 1 1 3v4q-21 -12 -41 -26.5t-39 -30.5q-18 -14 -35 -27t-34 -25q-27 18 -43.5 31.5t-26.5 26.5q-11 15 -14 32t-3 43v236q0 6 0.5 13t3.5 15q4 11 15.5 22.5t35.5 20.5q18 8 40.5 17t45.5 20q29 13 56 29.5t47 36.5v1zM189 126q0 -23 6.5 -34.5t18.5 -11.5
q5 0 10.5 1.5t11.5 4.5l40 24v268q-28 10 -47 25.5t-36 32.5l-4 4v-314zM323 567q-21 10 -35.5 27.5t-21.5 35.5q-3 7 -4.5 14t-1.5 14q0 21 15 35.5t48 14.5q38 0 54.5 -15t16.5 -36q0 -5 -0.5 -10.5t-2.5 -11.5q-6 -21 -24 -40t-44 -29v1zM142 567q-32 23 -47 46.5
t-15 42.5q0 23 19 37.5t51 14.5q30 0 46.5 -16t17.5 -39q0 -7 -2 -15t-6 -15q-7 -16 -23 -30.5t-41 -26.5v1z" />
    <glyph glyph-name="aring" unicode="&#xe5;" 
d="M291 528q7 -11 21 -23.5t33 -25.5q22 -16 49.5 -30.5t55.5 -24.5q8 -2 15.5 -4t14.5 -4v-14h-13q-22 1 -32 -12t-10 -29v-219q0 -28 7.5 -40.5t23.5 -12.5q8 0 18 3t22 9v-14q-29 -19 -61 -46.5t-73 -56.5l-4 4q-1 1 -3 2q-5 6 -11 10.5t-12 9.5q-18 16 -33.5 34
t-16.5 40v2q0 1 1 3v4q-21 -12 -41 -26.5t-39 -30.5q-18 -14 -35 -27t-34 -25q-27 18 -43.5 31.5t-26.5 26.5q-11 15 -14 32t-3 43v236q0 6 0.5 13t3.5 15q4 11 15.5 22.5t35.5 20.5q18 8 40.5 17t45.5 20q29 13 56 29.5t47 36.5v1zM236 732q2 -1 4 -1h6q58 1 89 -26t32 -59
v-3q0 -32 -30 -58.5t-93 -26.5q-64 0 -94.5 26.5t-30.5 57.5v3q1 32 31 59t86 27v1zM189 126q0 -23 6.5 -34.5t18.5 -11.5q5 0 10.5 1.5t11.5 4.5l40 24v268q-28 10 -47 25.5t-36 32.5l-4 4v-314zM244 685q-20 -1 -31.5 -13t-12.5 -26v-3q0 -14 10.5 -26t33.5 -12
q20 0 30.5 12t10.5 27q1 15 -9.5 27.5t-31.5 12.5v1z" />
    <glyph glyph-name="ae" unicode="&#xe6;" horiz-adv-x="646" 
d="M378 488q16 2 35.5 8.5t39.5 14.5q6 3 12 5.5t12 4.5q19 8 36.5 16t29.5 13l111 -188l-237 -134q4 -10 9.5 -20.5t13.5 -21.5q17 -26 45 -47.5t67 -21.5q20 0 43.5 7.5t50.5 24.5l8 -15q-18 -10 -45.5 -27.5t-56.5 -38.5q-5 -3 -10 -6.5t-9 -7.5q-25 -17 -47 -34t-37 -28
q-14 6 -29 13.5t-31 16.5q-18 11 -36 23t-34 25q-10 8 -19 15.5t-17 15.5q-12 -12 -31 -26.5t-39 -30.5q-2 -1 -3.5 -2t-2.5 -2q-18 -13 -35 -25.5t-30 -22.5q-23 11 -39.5 20.5t-27.5 18.5q-19 16 -25 35t-9 50q-1 4 -1.5 8t-0.5 9v213q3 48 20 66.5t48 31.5q32 12 78 32
t106 74q4 -5 7.5 -9t6.5 -8q7 -6 13.5 -11.5t14.5 -10.5q9 -5 20 -11t25 -13v1zM283 394q-34 10 -54 26t-37 33l-3 3v-314q0 -23 2.5 -41.5t16.5 -18.5q5 0 12 2.5t16 8.5l47 33v268zM425 488q0 -20 -1.5 -42.5t-3.5 -47.5q-1 -10 -1.5 -19.5t-1.5 -19.5q-1 -16 -1.5 -31
t-0.5 -30q0 -13 0.5 -24.5t1.5 -22.5l103 56z" />
    <glyph glyph-name="ccedilla" unicode="&#xe7;" horiz-adv-x="402" 
d="M189 480v-252q0 -45 34.5 -81t81.5 -36q11 0 22 2t23 7q11 4 22 11.5t22 17.5l15 -15q-17 -10 -43.5 -26.5t-55.5 -35.5q-6 -4 -12.5 -8.5t-12.5 -9.5q-25 -17 -46.5 -34t-33.5 -28q-9 8 -20.5 14t-23.5 13l-12 6q-6 3 -12 7q-37 20 -67.5 52.5t-30.5 103.5
q0 17 -0.5 34.5t-1.5 35.5q0 6 -0.5 12t-0.5 12t-0.5 12t-0.5 12q0 47 10 87.5t42 62.5l220 79l79 -149l-126 -63zM142 -94q-6 5 -9 8.5t-3 6.5t3 6.5t9 9.5l55 47q14 10 21.5 3t12.5 -17q2 -2 3 -4.5t2 -4.5q2 -4 4.5 -8.5t4.5 -10.5q5 -11 9 -25t4 -30q0 -12 -2.5 -24
t-10.5 -25q-13 -22 -43 -43.5t-84 -38.5v16q25 10 38.5 26.5t13.5 38.5q0 15 -7 32t-21 37z" />
    <glyph glyph-name="egrave" unicode="&#xe8;" horiz-adv-x="425" 
d="M299 535l110 -173l-220 -142q18 -56 48 -81t63 -28q3 -1 5 -1h6q28 0 54 12.5t44 33.5l8 -14q-16 -15 -32 -28t-33 -26q-33 -25 -64.5 -49t-59.5 -47q-88 28 -128.5 75t-53.5 97q-3 10 -4.5 20t-2.5 20q-1 15 -2 31t-1 33v13q0 7 1 14q2 50 19.5 95.5t61.5 65.5zM268 559
q-10 3 -20 6.5t-20 7.5q-5 3 -11 5t-11 4q-34 14 -61 26.5t-35 20.5q-13 12 -19 23.5t-6 21.5q0 20 18 33.5t40 13.5h4q3 0 6 -1q7 -1 14.5 -4t13.5 -8q14 -9 34 -39t42 -64q6 -10 12.5 -20t13.5 -19zM181 465v-221l102 63z" />
    <glyph glyph-name="eacute" unicode="&#xe9;" horiz-adv-x="425" 
d="M299 535l110 -173l-220 -142q18 -56 48 -81t63 -28q3 -1 5 -1h6q28 0 54 12.5t44 33.5l8 -14q-16 -15 -32 -28t-33 -26q-33 -25 -64.5 -49t-59.5 -47q-88 28 -128.5 75t-53.5 97q-3 10 -4.5 20t-2.5 20q-1 15 -2 31t-1 33v13q0 7 1 14q2 50 19.5 95.5t61.5 65.5zM142 575
q5 9 11.5 20t13.5 23q5 8 10.5 16t11.5 16q13 18 25.5 33.5t21.5 24.5q12 12 24 17t23 5q23 1 39 -15t16 -36q0 -11 -5.5 -22t-17.5 -20q-8 -6 -17.5 -12t-20.5 -11q-21 -10 -51 -21.5t-76 -26.5zM181 465v-221l102 63z" />
    <glyph glyph-name="ecircumflex" unicode="&#xea;" horiz-adv-x="425" 
d="M299 535l110 -173l-220 -142q18 -56 48 -81t63 -28q3 -1 5 -1h6q28 0 54 12.5t44 33.5l8 -14q-16 -15 -32 -28t-33 -26q-33 -25 -64.5 -49t-59.5 -47q-88 28 -128.5 75t-53.5 97q-3 10 -4.5 20t-2.5 20q-1 15 -2 31t-1 33v13q0 7 1 14q2 50 19.5 95.5t61.5 65.5zM71 598
q9 8 20 20t23 25v1l2 1q20 22 36.5 40.5t20.5 22.5q11 11 21 15.5t18 4.5q11 0 20.5 -5.5t19.5 -14.5l102 -110q2 -3 3.5 -5t3.5 -4q1 -3 2.5 -6t1.5 -5q0 -7 -6 -9t-20 5l-126 56l-119 -47q-10 -7 -17 -10t-12 -3q-9 0 -7.5 8t13.5 19v1zM181 465v-221l102 63z" />
    <glyph glyph-name="edieresis" unicode="&#xeb;" horiz-adv-x="425" 
d="M299 535l110 -173l-220 -142q18 -56 48 -81t63 -28q3 -1 5 -1h6q28 0 54 12.5t44 33.5l8 -14q-16 -15 -32 -28t-33 -26q-33 -25 -64.5 -49t-59.5 -47q-88 28 -128.5 75t-53.5 97q-3 10 -4.5 20t-2.5 20q-1 15 -2 31t-1 33v13q0 7 1 14q2 50 19.5 95.5t61.5 65.5zM291 575
q-21 11 -36 28.5t-21 35.5q-3 7 -4 13.5t-1 12.5q0 21 14.5 36t47.5 15q38 0 55 -15t17 -36q0 -5 -1 -10.5t-3 -11.5q-6 -21 -24 -40t-44 -29v1zM110 575q-32 23 -46.5 46.5t-14.5 42.5q-1 23 18 37.5t51 14.5q30 0 47 -16t17 -39q0 -7 -1.5 -15t-5.5 -15q-7 -16 -23 -30.5
t-42 -26.5v1zM181 465v-221l102 63z" />
    <glyph glyph-name="igrave" unicode="&#xec;" horiz-adv-x="291" 
d="M71 370q0 25 -6 37t-17 12q-7 0 -15 -4.5t-17 -13.5l-8 16q41 35 75.5 64.5t58.5 52.5q10 -10 20.5 -21t22.5 -23q18 -16 38.5 -31.5t44.5 -26.5v-15q-30 -1 -39 -9t-9 -31v-235q0 -23 7.5 -33.5t19.5 -10.5q8 0 17 4.5t19 14.5l8 -15l-141 -118q-6 3 -12.5 7t-12.5 9
q-20 17 -37 45t-17 64v261zM205 551q-10 3 -20 6.5t-20 7.5q-5 3 -11 5t-11 4q-34 14 -61 26.5t-35 20.5q-13 12 -19 23.5t-6 21.5q0 20 18 33.5t40 13.5h4q3 0 6 -1q7 -1 14.5 -4t13.5 -8q14 -9 34 -39t42 -64q6 -10 12.5 -20t13.5 -19z" />
    <glyph glyph-name="iacute" unicode="&#xed;" horiz-adv-x="291" 
d="M71 370q0 25 -6 37t-17 12q-7 0 -15 -4.5t-17 -13.5l-8 16q41 35 75.5 64.5t58.5 52.5q10 -10 20.5 -21t22.5 -23q18 -16 38.5 -31.5t44.5 -26.5v-15q-30 -1 -39 -9t-9 -31v-235q0 -23 7.5 -33.5t19.5 -10.5q8 0 17 4.5t19 14.5l8 -15l-141 -118q-6 3 -12.5 7t-12.5 9
q-20 17 -37 45t-17 64v261zM71 551q5 9 11.5 20t13.5 23q5 8 10.5 16t11.5 16q13 18 25.5 33.5t21.5 24.5q12 12 24 17t23 5q23 1 39 -15t16 -36q0 -11 -5.5 -22t-17.5 -20q-7 -5 -15 -10t-17 -10q-21 -11 -52.5 -22.5t-80.5 -28.5z" />
    <glyph glyph-name="icircumflex" unicode="&#xee;" horiz-adv-x="291" 
d="M71 370q0 25 -6 37t-17 12q-7 0 -15 -4.5t-17 -13.5l-8 16q41 35 75.5 64.5t58.5 52.5q10 -10 20.5 -21t22.5 -23q18 -16 38.5 -31.5t44.5 -26.5v-15q-30 -1 -39 -9t-9 -31v-235q0 -23 7.5 -33.5t19.5 -10.5q8 0 17 4.5t19 14.5l8 -15l-141 -118q-6 3 -12.5 7t-12.5 9
q-20 17 -37 45t-17 64v261zM0 583q9 8 20 19.5t23 24.5l1 1l1 2q20 22 36.5 40t20.5 22q11 11 21 16t18 5q11 0 20.5 -5.5t19.5 -15.5l102 -109q5 -6 7.5 -11t3.5 -10q0 -7 -6 -9t-20 5l-126 56l-118 -47q-10 -7 -17.5 -10t-11.5 -3q-9 0 -7.5 8t12.5 20v1z" />
    <glyph glyph-name="idieresis" unicode="&#xef;" horiz-adv-x="291" 
d="M71 370q0 25 -6 37t-17 12q-7 0 -15 -4.5t-17 -13.5l-8 16q41 35 75.5 64.5t58.5 52.5q10 -10 20.5 -21t22.5 -23q18 -16 38.5 -31.5t44.5 -26.5v-15q-30 -1 -39 -9t-9 -31v-235q0 -23 7.5 -33.5t19.5 -10.5q8 0 17 4.5t19 14.5l8 -15l-141 -118q-6 3 -12.5 7t-12.5 9
q-20 17 -37 45t-17 64v261zM47 567q-32 23 -46 46.5t-14 42.5q-1 23 17.5 37.5t50.5 14.5q30 0 47 -16t17 -39q0 -7 -1.5 -15t-5.5 -15q-7 -16 -23 -30.5t-42 -26.5v1zM228 567q-21 11 -36 28.5t-21 35.5q-3 7 -4 13.5t-1 12.5q0 21 14.5 36t47.5 15q38 0 55 -15t17 -36
q0 -5 -1 -10.5t-3 -11.5q-6 -21 -24 -40t-44 -29v1z" />
    <glyph glyph-name="eth" unicode="&#xf0;" 
d="M40 428q-18 62 -6 89q9 20 30 37q-3 8 -5 16t-3.5 16t-1.5 16q0 46 39 80t107 35h10q2 0 4.5 -0.5t5.5 -0.5v-15q-48 -1 -68 -11t-21 -24q0 -3 0.5 -5.5t1.5 -5.5q5 -9 15 -18.5t25 -15.5q7 -3 14.5 -6t16.5 -6q19 -7 40 -14q7 -3 15 -5l4 2q13 6 21.5 21t3.5 61l12 8
q23 -60 7 -91q-4 -9 -9 -16q53 -22 98 -56q49 -38 53 -111v-224q0 -56 -26 -75t-62 -31q-11 -3 -22.5 -7t-23.5 -9q-24 -9 -46.5 -25.5t-40.5 -44.5q-35 40 -85.5 69t-103.5 40v17q19 -1 25 11t7 27v269q11 -5 26 -8t31 -3q26 0 48 7.5t29 26.5v1q-64 21 -100 53l-18 18
q-7 -3 -13 -6q-16 -7 -20 -32t1 -47zM252 144q14 -9 24 -19q7 -7 12.5 -13t10.5 -11v261q0 30 -17 49t-37 28q-6 3 -12.5 5.5t-12.5 3.5v-291q18 -4 32 -13z" />
    <glyph glyph-name="ntilde" unicode="&#xf1;" horiz-adv-x="535" 
d="M220 417l166 118q8 -9 16.5 -18.5t18.5 -19.5q19 -19 41.5 -36t49.5 -21v-15q-30 -1 -46.5 -12t-16.5 -52v-212q0 -3 1 -7q1 -15 7.5 -27t22.5 -13q8 0 17.5 3.5t22.5 11.5l8 -7l-150 -126q-53 40 -66 72t-13 61v261q0 25 -7 35t-18 10q-7 0 -14.5 -3t-15.5 -8
q-6 -4 -12 -9l-12 -10v-261q0 -4 1 -9q1 -9 6 -17.5t17 -12.5v-14q-21 -6 -46.5 -20.5t-51.5 -55.5q-3 -4 -6 -9l-6 -10q-7 19 -25.5 37t-39.5 32q-15 9 -29 15.5t-24 9.5v16q23 -1 39 9t16 46v213q0 3 -0.5 7.5t-1.5 9.5q-2 14 -9 25.5t-19 11.5q-7 1 -17.5 -4.5
t-23.5 -18.5l-8 16l134 126q47 -24 70 -51t24 -67zM79 583q10 63 38 90t60 32q4 1 9 1.5t10 0.5q19 0 35.5 -4.5t28.5 -10.5q4 -2 8.5 -5t8.5 -5q20 -12 39.5 -22.5t38.5 -10.5q15 0 28.5 9.5t25.5 33.5l16 1q-7 -66 -35.5 -94.5t-61.5 -34.5q-4 0 -8.5 -0.5t-8.5 -0.5
q-19 0 -37 5.5t-30 13.5q-28 19 -54.5 30t-46.5 11q-18 1 -31 -9t-18 -32z" />
    <glyph glyph-name="ograve" unicode="&#xf2;" horiz-adv-x="480" 
d="M63 457q11 -2 24 -3t26 -1q38 0 85 9.5t95 38.5q12 7 23.5 15t22.5 18q21 -14 36.5 -27.5t27.5 -26.5q30 -37 34.5 -75.5t3.5 -88.5v-34q0 -9 0.5 -18t0.5 -17q0 -9 0.5 -17t0.5 -16q0 -49 -20 -88t-100 -56q-9 -2 -20 -7.5t-23 -12.5q-17 -12 -33 -29t-27 -37
q-4 10 -14.5 22t-26.5 24q-18 15 -40 29t-45 24q-18 8 -36 13t-34 5v17q17 -1 28 15t11 39v285zM299 370q0 30 -17.5 47t-37.5 24q-11 4 -21 5.5t-18 1.5v-283l94 -63v268zM299 551q-9 3 -19 6.5t-20 7.5q-6 2 -12 4.5t-11 4.5q-34 14 -60.5 26.5t-34.5 20.5
q-13 12 -19 23.5t-6 21.5q-1 20 17 33.5t40 13.5q11 0 21 -3t18 -10q13 -9 33 -39t43 -64q5 -8 10 -15t9 -15q2 -2 3.5 -4.5t3.5 -4.5z" />
    <glyph glyph-name="oacute" unicode="&#xf3;" horiz-adv-x="480" 
d="M63 457q11 -2 24 -3t26 -1q38 0 85 9.5t95 38.5q12 7 23.5 15t22.5 18q21 -14 36.5 -27.5t27.5 -26.5q30 -37 34.5 -75.5t3.5 -88.5v-34q0 -9 0.5 -18t0.5 -17q0 -9 0.5 -17t0.5 -16q0 -49 -20 -88t-100 -56q-9 -2 -20 -7.5t-23 -12.5q-17 -12 -33 -29t-27 -37
q-4 10 -14.5 22t-26.5 24q-18 15 -40 29t-45 24q-18 8 -36 13t-34 5v17q17 -1 28 15t11 39v285zM299 370q0 30 -17.5 47t-37.5 24q-11 4 -21 5.5t-18 1.5v-283l94 -63v268zM173 567q5 9 11.5 20t14.5 23q5 8 10.5 16t11.5 16q13 18 25.5 33.5t21.5 24.5q12 12 24 17t23 5
q23 1 38.5 -15t15.5 -36q0 -11 -5.5 -22t-17.5 -20q-8 -6 -17 -11.5t-20 -11.5q-21 -10 -51 -21t-77 -27z" />
    <glyph glyph-name="ocircumflex" unicode="&#xf4;" horiz-adv-x="480" 
d="M63 457q11 -2 24 -3t26 -1q38 0 85 9.5t95 38.5q12 7 23.5 15t22.5 18q21 -14 36.5 -27.5t27.5 -26.5q30 -37 34.5 -75.5t3.5 -88.5v-34q0 -9 0.5 -18t0.5 -17q0 -9 0.5 -17t0.5 -16q0 -49 -20 -88t-100 -56q-9 -2 -20 -7.5t-23 -12.5q-17 -12 -33 -29t-27 -37
q-4 10 -14.5 22t-26.5 24q-18 15 -40 29t-45 24q-18 8 -36 13t-34 5v17q17 -1 28 15t11 39v285zM299 370q0 30 -17.5 47t-37.5 24q-11 4 -21 5.5t-18 1.5v-283l94 -63v268zM94 583q9 7 20 19t23 24q1 1 1.5 2t1.5 2q20 22 36.5 40t20.5 22q11 11 20.5 16t18.5 5
q11 0 20.5 -5.5t19.5 -15.5l102 -109q5 -6 7.5 -11t3.5 -10q0 -7 -6.5 -9t-20.5 5l-126 56l-118 -47q-10 -7 -17 -10t-12 -3q-4 0 -6 1.5t-2 4.5q0 4 3 9.5t10 12.5v1z" />
    <glyph glyph-name="otilde" unicode="&#xf5;" horiz-adv-x="480" 
d="M63 457q11 -2 24 -3t26 -1q38 0 85 9.5t95 38.5q12 7 23.5 15t22.5 18q21 -14 36.5 -27.5t27.5 -26.5q30 -37 34.5 -75.5t3.5 -88.5v-34q0 -9 0.5 -18t0.5 -17q0 -9 0.5 -17t0.5 -16q0 -49 -20 -88t-100 -56q-9 -2 -20 -7.5t-23 -12.5q-17 -12 -33 -29t-27 -37
q-4 10 -14.5 22t-26.5 24q-18 15 -40 29t-45 24q-18 8 -36 13t-34 5v17q17 -1 28 15t11 39v285zM82 589q10 62 37.5 89.5t58.5 32.5q5 1 10 1.5t10 0.5q19 0 36 -4.5t29 -10.5q4 -2 8.5 -5t8.5 -5q20 -12 39.5 -22.5t38.5 -10.5q15 0 29 9.5t26 33.5l16 1q-7 -67 -36.5 -96
t-63.5 -33q-4 -1 -8 -1h-7q-19 0 -36.5 5.5t-30.5 13.5q-28 19 -54 30t-46 11q-18 1 -31 -9t-18 -32zM299 370q0 30 -17.5 47t-37.5 24q-11 4 -21 5.5t-18 1.5v-283l94 -63v268z" />
    <glyph glyph-name="odieresis" unicode="&#xf6;" horiz-adv-x="480" 
d="M63 457q11 -2 24 -3t26 -1q38 0 85 9.5t95 38.5q12 7 23.5 15t22.5 18q21 -14 36.5 -27.5t27.5 -26.5q30 -37 34.5 -75.5t3.5 -88.5v-34q0 -9 0.5 -18t0.5 -17q0 -9 0.5 -17t0.5 -16q0 -49 -20 -88t-100 -56q-9 -2 -20 -7.5t-23 -12.5q-17 -12 -33 -29t-27 -37
q-4 10 -14.5 22t-26.5 24q-18 15 -40 29t-45 24q-18 8 -36 13t-34 5v17q17 -1 28 15t11 39v285zM299 370q0 30 -17.5 47t-37.5 24q-11 4 -21 5.5t-18 1.5v-283l94 -63v268zM315 567q-21 10 -35.5 27.5t-21.5 35.5q-3 7 -4.5 14t-1.5 14q0 21 15 35.5t48 14.5q38 0 54.5 -15
t16.5 -36q0 -5 -0.5 -10.5t-2.5 -11.5q-6 -21 -24 -40t-44 -29v1zM134 567q-32 23 -47 46.5t-15 42.5q0 23 19 37.5t51 14.5q30 0 46.5 -16t17.5 -39q0 -7 -2 -15t-6 -15q-7 -16 -23 -30.5t-41 -26.5v1z" />
    <glyph glyph-name="divide" unicode="&#xf7;" horiz-adv-x="431" 
d="M221 197q6 -36 26 -59t61 -29v-22q-35 -13 -58 -37t-29 -58h-23q-4 24 -20.5 45t-35.5 34q-8 6 -16 9.5t-15 5.5v24q41 5 58 25t29 61zM224 559q6 -37 26 -59.5t61 -28.5v-23q-35 -12 -58 -36t-29 -59l-23 1q-4 24 -20.5 45t-35.5 34q-8 5 -16 8.5t-15 5.5v25q41 5 58 25
t29 61zM79 315h275v-79h-275v79z" />
    <glyph glyph-name="oslash" unicode="&#xf8;" horiz-adv-x="480" 
d="M339 528l39 110h24l-40 -118q47 -30 68.5 -79t27.5 -102q2 -13 2.5 -26.5t0.5 -26.5q1 -36 -3 -67.5t-9 -54.5q-2 -10 -4 -18t-4 -13q-8 -29 -29 -40.5t-47 -19.5q-11 -3 -22 -6.5t-22 -7.5q-23 -9 -45.5 -26t-39.5 -49q-6 6 -13 10.5t-14 8.5q-8 5 -15 9.5t-13 10.5
l-39 -110h-24l39 118q-4 5 -12 12t-19 14q-10 6 -21.5 12t-23.5 12q-16 7 -31 12.5t-26 7.5v17l1 -1h2q16 1 30 12t14 51v261q89 -1 163.5 21.5t104.5 64.5v1zM299 402q-2 1 -4.5 3.5t-4.5 3.5q-17 14 -32.5 18.5t-29.5 8.5q-4 1 -7.5 2t-7.5 2v-259zM299 101v253l-71 -197
q18 -12 36 -25t35 -31z" />
    <glyph glyph-name="ugrave" unicode="&#xf9;" horiz-adv-x="535" 
d="M16 394l-16 15l150 119q23 -6 43.5 -32t29.5 -56q2 -8 3.5 -16t1.5 -16v-274q2 -26 10.5 -35.5t18.5 -9.5q5 0 10.5 2t11.5 5t11.5 7.5t11.5 9.5q4 3 7 6l6 6v245q0 28 -6 41t-18 13v17q22 3 40 20t33 37q6 8 11.5 15t10.5 14q7 -7 16 -17.5t20 -20.5q17 -17 39.5 -31
t50.5 -18v-15q-24 -1 -39.5 -13t-15.5 -35v-235q0 -20 10.5 -32.5t24.5 -12.5q9 0 18 5t18 15l7 -15l-133 -118q-53 28 -71 53t-18 46q0 5 0.5 9.5t1.5 8.5l-165 -117q-24 29 -53.5 55.5t-65.5 38.5v16q30 -1 39 12t9 43v205q0 24 -8 42t-22 18q-7 0 -15.5 -5t-17.5 -16v1z
M315 543q-10 3 -20 6.5t-20 7.5q-5 3 -11 5t-11 4q-34 14 -61 26.5t-35 20.5q-13 12 -19 23.5t-6 21.5q0 20 18 33.5t40 13.5h4q3 0 6 -1q7 -1 14.5 -4t13.5 -8q14 -9 34 -39t42 -64q7 -10 13.5 -20t13.5 -19z" />
    <glyph glyph-name="uacute" unicode="&#xfa;" horiz-adv-x="535" 
d="M16 394l-16 15l150 119q23 -6 43.5 -32t29.5 -56q2 -8 3.5 -16t1.5 -16v-274q2 -26 10.5 -35.5t18.5 -9.5q5 0 10.5 2t11.5 5t11.5 7.5t11.5 9.5q4 3 7 6l6 6v245q0 28 -6 41t-18 13v17q22 3 40 20t33 37q6 8 11.5 15t10.5 14q7 -7 16 -17.5t20 -20.5q17 -17 39.5 -31
t50.5 -18v-15q-24 -1 -39.5 -13t-15.5 -35v-235q0 -20 10.5 -32.5t24.5 -12.5q9 0 18 5t18 15l7 -15l-133 -118q-53 28 -71 53t-18 46q0 5 0.5 9.5t1.5 8.5l-165 -117q-24 29 -53.5 55.5t-65.5 38.5v16q30 -1 39 12t9 43v205q0 24 -8 42t-22 18q-7 0 -15.5 -5t-17.5 -16v1z
M189 551q5 9 11.5 20t14.5 23q5 7 10 15t10 15q14 19 26.5 35t21.5 25q12 12 24 17t23 5q23 1 39 -15t16 -36q0 -11 -5.5 -22t-17.5 -20q-7 -5 -15 -10t-17 -10q-21 -11 -52.5 -22.5t-80.5 -28.5z" />
    <glyph glyph-name="ucircumflex" unicode="&#xfb;" horiz-adv-x="535" 
d="M16 394l-16 15l150 119q23 -6 43.5 -32t29.5 -56q2 -8 3.5 -16t1.5 -16v-274q2 -26 10.5 -35.5t18.5 -9.5q5 0 10.5 2t11.5 5t11.5 7.5t11.5 9.5q4 3 7 6l6 6v245q0 28 -6 41t-18 13v17q22 3 40 20t33 37q6 8 11.5 15t10.5 14q7 -7 16 -17.5t20 -20.5q17 -17 39.5 -31
t50.5 -18v-15q-24 -1 -39.5 -13t-15.5 -35v-235q0 -20 10.5 -32.5t24.5 -12.5q9 0 18 5t18 15l7 -15l-133 -118q-53 28 -71 53t-18 46q0 5 0.5 9.5t1.5 8.5l-165 -117q-24 29 -53.5 55.5t-65.5 38.5v16q30 -1 39 12t9 43v205q0 24 -8 42t-22 18q-7 0 -15.5 -5t-17.5 -16v1z
M126 583q9 8 20 19.5t23 24.5l1 1l1 2q20 22 36.5 40t20.5 22q11 11 21 16t18 5q11 0 20.5 -5.5t19.5 -15.5l102 -109q5 -6 7.5 -11t3.5 -10q0 -7 -6 -9t-20 5l-126 56l-118 -47q-10 -7 -17.5 -10t-12.5 -3q-9 0 -7.5 8t13.5 20v1z" />
    <glyph glyph-name="udieresis" unicode="&#xfc;" horiz-adv-x="535" 
d="M16 394l-16 15l150 119q23 -6 43.5 -32t29.5 -56q2 -8 3.5 -16t1.5 -16v-274q2 -26 10.5 -35.5t18.5 -9.5q5 0 10.5 2t11.5 5t11.5 7.5t11.5 9.5q4 3 7 6l6 6v245q0 28 -6 41t-18 13v17q22 3 40 20t33 37q6 8 11.5 15t10.5 14q7 -7 16 -17.5t20 -20.5q17 -17 39.5 -31
t50.5 -18v-15q-24 -1 -39.5 -13t-15.5 -35v-235q0 -20 10.5 -32.5t24.5 -12.5q9 0 18 5t18 15l7 -15l-133 -118q-53 28 -71 53t-18 46q0 5 0.5 9.5t1.5 8.5l-165 -117q-24 29 -53.5 55.5t-65.5 38.5v16q30 -1 39 12t9 43v205q0 24 -8 42t-22 18q-7 0 -15.5 -5t-17.5 -16v1z
M346 567q-20 10 -34.5 27.5t-21.5 35.5q-3 7 -4.5 14t-1.5 14q0 21 14.5 35.5t47.5 14.5q38 0 55 -15t17 -36q0 -5 -1 -10.5t-3 -11.5q-6 -21 -24 -40t-44 -29v1zM165 567q-32 23 -46.5 46.5t-14.5 42.5q-1 23 18 37.5t51 14.5q30 0 47 -16t17 -39q0 -7 -1.5 -15t-5.5 -15
q-7 -16 -23 -30.5t-42 -26.5v1z" />
    <glyph glyph-name="yacute" unicode="&#xfd;" horiz-adv-x="512" 
d="M87 402q-31 6 -46.5 30.5t-15.5 55.5q0 6 0.5 12t1.5 13q8 42 44.5 77.5t101.5 38.5v-15q-34 -9 -50.5 -21t-17.5 -25q0 -14 17.5 -27t50.5 -22q22 -6 35 -22.5t19 -35.5q5 -16 7 -30.5t2 -22.5l158 112q24 -19 40.5 -41.5t25.5 -46.5q6 -16 9 -32.5t3 -30.5v-259
q-5 -118 -74 -199t-217 -139v15q1 1 2 1.5t2 0.5q69 42 103.5 92t34.5 142v339q0 26 -7.5 39.5t-22.5 13.5q-10 0 -24.5 -7.5t-32.5 -22.5v-235q0 -25 9.5 -33t22.5 -8h7q7 0 14.5 2t12.5 4l3 1q1 1 2 1v-15q-25 -9 -50 -29.5t-50 -44.5q-10 -9 -20.5 -18.5t-21.5 -17.5
q-6 5 -12.5 10t-11.5 11q-10 9 -19 18t-18 17q-15 14 -30.5 24.5t-34.5 13.5v16q18 -1 33 10t15 29v261zM158 559q5 9 11.5 20t13.5 23q5 8 10.5 16t11.5 16q13 18 25.5 33.5t21.5 24.5q12 12 24 17t23 5q23 1 39 -15t16 -36q0 -11 -5.5 -22t-17.5 -20q-8 -6 -17 -11.5
t-20 -11.5q-21 -10 -51.5 -21t-76.5 -27z" />
    <glyph glyph-name="thorn" unicode="&#xfe;" horiz-adv-x="535" 
d="M106 598q17 70 85.5 92t150.5 33v-14q-59 -13 -73 -40.5t-14 -63.5v-178l170 108q25 -18 41.5 -47t23.5 -61q3 -13 4.5 -25.5t1.5 -24.5v-212q0 -30 -19.5 -46t-46.5 -30q-7 -3 -13.5 -6.5t-13.5 -7.5q-28 -14 -53 -35t-35 -56q-18 17 -34.5 29t-28.5 17q-2 -22 -7.5 -50
t-12.5 -57q-3 -15 -7 -29.5t-7 -28.5q-8 -31 -16 -56t-13 -37h-16q-23 94 -39 174.5t-16 139.5q-5 7 -16 12.5t-24 6.5h-4q-14 0 -25 -8.5t-12 -31.5q0 -4 0.5 -9t1.5 -10l-15 1q-1 10 -2 19.5t-1 18.5q0 59 26 90q25 30 59 36v317q0 11 -5.5 30t-14.5 40q-8 19 -18.5 37
t-21.5 30l-3 3l8 17q1 -2 2 -3l2 -2q16 -17 28 -36t23 -47v1zM268 171l18 -10q17 -11 33 -23.5t27 -28.5v261q0 26 -10.5 41t-27.5 16q-12 0 -27 -9q-13 -7 -26 -22v-218q7 -3 13 -7z" />
    <glyph glyph-name="ydieresis" unicode="&#xff;" horiz-adv-x="512" 
d="M236 425l158 110q47 -48 60 -110t13 -147v-52q0 -27 -1 -56q0 -21 -0.5 -44.5t-0.5 -47.5q-12 -124 -95.5 -194.5t-196.5 -111.5l-8 15q107 36 128.5 110.5t21.5 156.5v324q0 22 -7 34t-20 12q-10 0 -23 -7.5t-29 -23.5v-243q0 -21 7 -29t18 -8q8 0 18 3.5t20 8.5v-15
q-23 -18 -55 -43t-79 -83q-4 7 -9 13.5t-10 13.5q-20 24 -47.5 46.5t-59.5 35.5v17q5 -1 9 -1h8q13 -1 22 6t9 34v260l-1 -1h-3q-28 -1 -48.5 27.5t-20.5 65.5q0 7 1 13.5t2 13.5q7 26 27 51t58 42q-3 8 -4 15t-1 14q0 29 20.5 43.5t45.5 15.5q25 0 45.5 -14.5t20.5 -44.5
v-6q0 -2 -0.5 -3.5t-0.5 -3.5q0 -6 -4.5 -15.5t-12.5 -19.5q-9 -11 -22.5 -20.5t-31.5 -15.5q-8 3 -14 7t-11 8q-2 1 -3.5 3t-3.5 3q-4 3 -7.5 5.5t-7.5 4.5q-10 -7 -14 -13t-5 -10q0 -5 5 -9t13 -7q10 -4 24.5 -9t30.5 -13q25 -13 47 -38.5t25 -72.5zM339 567
q-22 10 -37 27.5t-22 35.5q-2 7 -3.5 14t-1.5 13q0 21 14.5 36t46.5 15h10q26 0 44 -17t18 -41q0 -8 -2.5 -17t-8.5 -18q-8 -13 -22 -25.5t-36 -23.5v1z" />
    <glyph glyph-name="Amacron" unicode="&#x100;" horiz-adv-x="756" 
d="M504 598q19 38 55 60.5t75 34.5q32 9 62.5 12t51.5 3v-15q-50 -1 -67 -18.5t-19 -38.5q-1 -4 -1 -8v-415q0 -38 8.5 -63t25.5 -26q8 0 17 6t20 19l16 -7l-165 -142q-59 28 -77 64t-18 100l-181 -164q-5 7 -15.5 20t-26.5 27q-21 20 -48.5 36.5t-56.5 19.5h-7
q-25 1 -48 -14t-42 -51l-16 9q24 46 46 71.5t45 43.5q4 4 9 7.5t9 7.5q18 13 35.5 28t36.5 38q14 17 20.5 58t6.5 91v18q0 9 -1 19q-2 48 -8.5 93.5t-17.5 74.5q-14 37 -37 54t-48 19h-6q-31 0 -56 -19.5t-25 -45.5q0 -5 1.5 -11t3.5 -11q7 -13 22.5 -25.5t42.5 -23.5
q35 -14 58 -54t24 -86v-5q-1 -46 -32.5 -87t-104.5 -59v17q27 7 45 17.5t27 22.5q5 5 7 11t2 11q0 8 -6.5 14.5t-19.5 8.5q-56 18 -90.5 64.5t-34.5 102.5q0 13 2 26.5t6 26.5q9 27 26 53t44 50q28 24 64.5 36.5t75.5 12.5h11q76 -4 139.5 -60t63.5 -178q0 -106 -36 -149
t-96 -74q-17 -8 -35 -17.5t-38 -19.5q15 -3 31 -8t33 -11q38 -13 71.5 -33.5t45.5 -49.5l79 72v323q0 19 -2.5 46t-8.5 56q-6 23 -14.5 45.5t-21.5 40.5l16 9q23 -25 32 -53.5t15 -58.5v1zM190 829h504v-59h-504v59z" />
    <glyph glyph-name="amacron" unicode="&#x101;" 
d="M291 528q7 -11 21 -23.5t33 -25.5q22 -16 49.5 -30.5t55.5 -24.5q8 -2 15.5 -4t14.5 -4v-14h-13q-22 1 -32 -12t-10 -29v-219q0 -28 7.5 -40.5t23.5 -12.5q8 0 18 3t22 9v-14q-29 -19 -61 -46.5t-73 -56.5l-4 4q-1 1 -3 2q-5 6 -11 10.5t-12 9.5q-18 16 -33.5 34
t-16.5 40v2q0 1 1 3v4q-21 -12 -41 -26.5t-39 -30.5q-18 -14 -35 -27t-34 -25q-27 18 -43.5 31.5t-26.5 26.5q-11 15 -14 32t-3 43v236q0 6 0.5 13t3.5 15q4 11 15.5 22.5t35.5 20.5q18 8 40.5 17t45.5 20q29 13 56 29.5t47 36.5v1zM189 126q0 -23 6.5 -34.5t18.5 -11.5
q5 0 10.5 1.5t11.5 4.5l40 24v268q-28 10 -47 25.5t-36 32.5l-4 4v-314zM41 646h401v-59h-401v59z" />
    <glyph glyph-name="Aogonek" unicode="&#x104;" horiz-adv-x="756" 
d="M724 -164l6 -12q-80 -19 -138 -2.5t-79 51.5l-2 2l-1 1q-19 34 0 76q14 31 55 56q-44 25 -59 56q-18 36 -18 100l-181 -164q-5 7 -15.5 20t-26.5 27q-21 20 -48.5 36.5t-56.5 19.5h-7q-25 1 -48 -14t-42 -51l-16 9q24 46 46 71.5t45 43.5q4 4 9 7.5t9 7.5q18 13 35.5 28
t36.5 38q14 17 20.5 58t6.5 91v18q0 9 -1 19q-2 48 -8.5 93.5t-17.5 74.5q-14 37 -37 54t-48 19h-6q-31 0 -56 -19.5t-25 -45.5q0 -5 1.5 -11t3.5 -11q7 -13 22.5 -25.5t42.5 -23.5q35 -14 58 -54t24 -86v-5q-1 -46 -32.5 -87t-104.5 -59v17q27 7 45 17.5t27 22.5q5 5 7 11
t2 11q0 8 -6.5 14.5t-19.5 8.5q-56 18 -90.5 64.5t-34.5 102.5q0 13 2 26.5t6 26.5q9 27 26 53t44 50q28 24 64.5 36.5t75.5 12.5h11q76 -4 139.5 -60t63.5 -178q0 -106 -36 -149t-96 -74q-17 -8 -35 -17.5t-38 -19.5q15 -3 31 -8t33 -11q38 -13 71.5 -33.5t45.5 -49.5
l79 72v323q0 19 -2.5 46t-8.5 56q-6 23 -14.5 45.5t-21.5 40.5l16 9q23 -25 32 -53.5t15 -58.5v1q19 38 55 60.5t75 34.5q32 9 62.5 12t51.5 3v-15q-50 -1 -67 -18.5t-19 -38.5q-1 -4 -1 -8v-415q0 -38 8.5 -63t25.5 -26q8 0 17 6t20 19l16 -7l-141 -122q-29 -20 -29 -49.5
t18 -58.5q1 -1 2 -3t2 -3q23 -33 58.5 -55t64.5 -16z" />
    <glyph glyph-name="aogonek" unicode="&#x105;" 
d="M516 -169l6 -12q-80 -19 -138 -2.5t-79 51.5l-2 2l-1 1q-19 34 0 76q13 27 46 50q-2 2 -4 3l-12 10q-18 16 -33.5 34t-16.5 40v2q0 1 1 3v4q-21 -12 -41 -26.5t-39 -30.5q-18 -14 -35 -27t-34 -25q-27 18 -43.5 31.5t-26.5 26.5q-11 15 -14 32t-3 43v236q0 6 0.5 13
t3.5 15q4 11 15.5 22.5t35.5 20.5q18 8 40.5 17t45.5 20q29 13 56 29.5t47 36.5v1q7 -11 21 -23.5t33 -25.5q22 -16 49.5 -30.5t55.5 -24.5q8 -2 15.5 -4t14.5 -4v-14h-13q-22 1 -32 -12t-10 -29v-219q0 -28 7.5 -40.5t23.5 -12.5q8 0 18 3t22 9v-14q-29 -19 -61 -47
q-24 -20 -54 -42q-11 -14 -11 -32q0 -30 18 -59q1 -1 2 -3t2 -3q23 -33 58.5 -55t64.5 -16zM189 126q0 -23 6.5 -34.5t18.5 -11.5q5 0 10.5 1.5t11.5 4.5l40 24v268q-28 10 -47 25.5t-36 32.5l-4 4v-314z" />
    <glyph glyph-name="Ccaron" unicode="&#x10c;" horiz-adv-x="740" 
d="M449 630l134 87q28 -53 54 -72.5t49 -19.5q17 0 32.5 6.5t29.5 13.5v-15q-22 -40 -56.5 -61.5t-75.5 -22.5q-34 0 -72.5 16.5t-78.5 50.5q-13 -9 -20 -20t-7 -24t6.5 -27t20.5 -31q55 -61 89 -109t46 -93q3 -12 4.5 -24.5t1.5 -25.5q-3 -62 -49 -99t-102 -37h-7
q-54 2 -101 45t-56 138l16 1q3 -14 9 -35t16 -44q8 -17 19.5 -34t26.5 -30q7 -6 15.5 -9.5t17.5 -5.5q2 0 5 -0.5t6 -0.5q15 -1 25.5 7t10.5 24q0 18 -15.5 47.5t-56.5 71.5q-46 48 -63.5 86.5t-17.5 67.5q0 28 11 49t24 36q9 10 17 17t13 12l63 56q-14 31 -36 49t-45 18h-5
q-2 0 -4 -1q-41 -6 -76 -79t-39 -240q-3 -189 72 -269.5t167 -80.5h13q86 5 159.5 67t84.5 157l16 1q-7 -127 -103 -191t-216 -64q-10 0 -20 0.5t-20 1.5q-135 10 -248.5 104t-116.5 274q0 141 68.5 224.5t150.5 110.5q20 6 39.5 9.5t38.5 3.5q49 0 86.5 -22t49.5 -66v1z
M510 876q-9 -8 -20 -19.5t-23 -24.5l-2 -2v-1q-20 -22 -36.5 -40t-20.5 -22q-11 -11 -21 -16t-18 -5q-11 0 -20.5 5.5t-19.5 15.5l-102 109q-5 6 -7.5 11t-3.5 10q0 7 6 9t20 -5l126 -56l118 47q10 7 17.5 10t11.5 3q9 0 7.5 -8t-12.5 -20v-1z" />
    <glyph glyph-name="ccaron" unicode="&#x10d;" horiz-adv-x="402" 
d="M189 480v-252q0 -45 34.5 -81t81.5 -36q11 0 22 2t23 7q11 4 22 11.5t22 17.5l15 -15q-17 -10 -43.5 -26.5t-55.5 -35.5q-6 -4 -12.5 -8.5t-12.5 -9.5q-25 -17 -46.5 -34t-33.5 -28q-9 8 -20.5 14t-23.5 13l-12 6q-6 3 -12 7q-37 20 -67.5 52.5t-30.5 103.5
q0 17 -0.5 34.5t-1.5 35.5q0 6 -0.5 12t-0.5 12t-0.5 12t-0.5 12q0 47 10 87.5t42 62.5l220 79l79 -149l-126 -63zM341 681q-9 -8 -20 -19.5t-23 -24.5l-2 -2v-1q-20 -22 -36.5 -40t-20.5 -22q-11 -11 -21 -16t-18 -5q-11 0 -20.5 5.5t-19.5 15.5l-102 109q-5 6 -7.5 11
t-3.5 10q0 7 6 9t20 -5l126 -56l118 47q10 7 17.5 10t11.5 3q9 0 7.5 -8t-12.5 -20v-1z" />
    <glyph glyph-name="Dcaron" unicode="&#x10e;" horiz-adv-x="795" 
d="M346 543q-2 -1 -4 -1h-2q-48 -1 -94 -9t-81 -18q-11 -3 -21 -6t-18 -6q-38 -15 -57 -39.5t-21 -50.5v-6q0 -34 28 -62t80 -28q17 0 34.5 3t37.5 10v-15q-19 -8 -36 -12t-34 -4q-61 -1 -99.5 44t-38.5 110q0 21 4.5 43.5t14.5 45.5q36 80 131.5 125.5t204.5 45.5h13
q7 0 14 -1q135 -6 250 -93t128 -274v-6q0 -2 1 -4v-10q0 -152 -102 -240.5t-225 -93.5h-14q-32 -1 -64 5t-61 19q-12 5 -30 16.5t-39 25.5q-14 8 -29 16.5t-30 14.5q-14 6 -28 9.5t-27 3.5q-25 1 -45 -15t-32 -56l-16 1q29 104 85 145.5t122 42.5q19 0 38 -2.5t38 -7.5
q24 -7 48 -16t47 -21q15 12 21.5 22.5t7.5 19.5q0 21 -26 36t-58 29h-1l-1 1q-14 6 -28 12.5t-25 13.5q-27 15 -38 33t-11 37q0 20 9 41t23 42q5 8 11 16.5t12 17.5q8 12 17 24.5t16 24.5v1zM362 543q-7 -13 -10.5 -22t-3.5 -16q0 -17 15 -26t38 -15q11 -4 23.5 -7.5
t24.5 -7.5q22 -8 43 -21t36 -35q9 -15 13 -29t4 -28q0 -33 -18.5 -62t-41.5 -53q-15 -16 -29.5 -30.5t-22.5 -26.5q48 -31 88.5 -45t73.5 -14q64 -1 101 38t48 86q2 10 3 19.5t1 18.5v7q1 96 -108 170t-239 93q-10 2 -19.5 3t-19.5 2v1zM537 881q-9 -8 -20 -19.5t-23 -24.5
l-2 -2v-1q-20 -22 -36.5 -40t-20.5 -22q-11 -11 -21 -16t-18 -5q-11 0 -20.5 5.5t-19.5 15.5l-102 109q-5 6 -7.5 11t-3.5 10q0 7 6 9t20 -5l126 -56l118 47q10 7 17.5 10t11.5 3q9 0 7.5 -8t-12.5 -20v-1z" />
    <glyph glyph-name="dcaron" unicode="&#x10f;" horiz-adv-x="506" 
d="M205 449q-64 21 -99.5 53.5t-46.5 67.5q-2 8 -3.5 16t-1.5 16q0 46 39 80t107 35h10q2 0 4.5 -0.5t5.5 -0.5v-15q-48 -1 -68 -11t-21 -24q0 -3 0.5 -5.5t1.5 -5.5q5 -9 15 -18.5t25 -15.5q7 -3 14.5 -6t16.5 -6q19 -7 40.5 -14t43.5 -16q59 -22 108 -60t53 -111v-224
q0 -56 -26 -75t-62 -31q-11 -3 -22.5 -7t-23.5 -9q-24 -9 -46.5 -25.5t-40.5 -44.5q-35 40 -85.5 69t-103.5 40v17q19 -1 25 11t7 27v269q11 -5 26 -8t31 -3q26 0 48 7.5t29 26.5v1zM345 603v16q39 16 57.5 49t31.5 73q4 11 8.5 22.5t8.5 23.5q13 33 33.5 65t57.5 58v-15
q-31 -28 -50.5 -66t-21.5 -78v-8q0 -35 17 -67.5t55 -57.5v-14q-30 -13 -52.5 -37t-34.5 -59l-16 1q-11 30 -27 49t-33 30q-9 6 -17.5 9.5t-16.5 5.5zM252 144q14 -9 24 -19q7 -7 12.5 -13t10.5 -11v261q0 30 -17 49t-37 28q-6 3 -12.5 5.5t-12.5 3.5v-291q18 -4 32 -13z
" />
    <glyph glyph-name="Emacron" unicode="&#x112;" horiz-adv-x="795" 
d="M465 646l141 78q4 -8 9.5 -16.5t11.5 -18.5q13 -18 31.5 -33t43.5 -15q17 0 36 8t42 27v-15q-3 -7 -6.5 -14t-7.5 -13q-22 -32 -61.5 -58.5t-84.5 -26.5q-11 0 -22 2t-23 6q-22 8 -44 25.5t-43 46.5q-22 -3 -30 -13t-8 -23q0 -3 0.5 -6t0.5 -5q2 -9 6 -17.5t8 -14.5
q23 -35 51.5 -76.5t58.5 -88.5v9q0 52 31 80t68 28q32 0 60 -21t38 -65q1 -4 1 -7v-6q0 -34 -22 -58t-60 -24h-7q-3 0 -7 1q-23 4 -34 21.5t-11 38.5q0 17 6 32.5t16 25.5q5 5 7.5 10.5t2.5 10.5q1 8 -5.5 13.5t-15.5 5.5q-5 0 -10.5 -2t-11.5 -6q-4 -3 -7.5 -7t-7.5 -9
q-10 -16 -14.5 -33.5t-4.5 -34.5t3 -34t7 -33q4 -15 7 -28.5t3 -24.5v-5q0 -2 -1 -4q-13 -65 -56.5 -99.5t-93.5 -35.5h-6q-57 3 -104.5 51.5t-54.5 146.5l16 1q9 -61 27 -98.5t37 -55.5q10 -9 20 -13t18 -4q14 0 23.5 11t9.5 31q0 22 -12.5 52.5t-43.5 67.5
q-23 26 -39.5 60t-20.5 69q0 5 -0.5 9.5t-0.5 9.5q0 31 12.5 60t40.5 52l79 64q-17 17 -37 29.5t-40 16.5q-4 1 -8 1.5t-8 0.5q-43 1 -80 -60t-48 -225l-2 -38q-1 -19 -2 -36q0 -175 70 -244t156 -69h15q75 5 141 46.5t87 95.5l16 1q-15 -76 -101 -119.5t-193 -44.5
q-12 0 -24.5 0.5t-25.5 2.5q-131 12 -239.5 103t-109.5 283v19q3 116 74 199.5t156 113.5q20 7 39 10.5t38 3.5q43 0 79 -20t55 -63v1zM187 829h504v-59h-504v59z" />
    <glyph glyph-name="emacron" unicode="&#x113;" horiz-adv-x="425" 
d="M299 535l110 -173l-220 -142q18 -56 48 -81t63 -28q3 -1 5 -1h6q28 0 54 12.5t44 33.5l8 -14q-16 -15 -32 -28t-33 -26q-33 -25 -64.5 -49t-59.5 -47q-88 28 -128.5 75t-53.5 97q-3 10 -4.5 20t-2.5 20q-1 15 -2 31t-1 33v13q0 7 1 14q2 50 19.5 95.5t61.5 65.5zM181 465
v-221l102 63zM50.9199 629.105h320.015v-54.002h-320.015v54.002z" />
    <glyph glyph-name="Eogonek" unicode="&#x118;" horiz-adv-x="795" 
d="M716 -148l6 -12q-80 -19 -138 -2.5t-79 51.5l-2 2l-1 1q-19 34 0 76q10 21 31 39q-52 -13 -110 -14q-12 0 -24.5 0.5t-25.5 2.5q-131 12 -239.5 103t-109.5 283v19q3 116 74 199.5t156 113.5q20 7 39 10.5t38 3.5q43 0 79 -20t55 -63v1l141 78q4 -8 9.5 -16.5t11.5 -18.5
q13 -18 31.5 -33t43.5 -15q17 0 36 8t42 27v-15q-3 -7 -6.5 -14t-7.5 -13q-22 -32 -61.5 -58.5t-84.5 -26.5q-11 0 -22 2t-23 6q-22 8 -44 25.5t-43 46.5q-22 -3 -30 -13t-8 -23q0 -3 0.5 -6t0.5 -5q2 -9 6 -17.5t8 -14.5q23 -35 51.5 -76.5t58.5 -88.5v9q0 52 31 80t68 28
q32 0 60 -21t38 -65q1 -4 1 -7v-6q0 -34 -22 -58t-60 -24h-7q-3 0 -7 1q-23 4 -34 21.5t-11 38.5q0 17 6 32.5t16 25.5q5 5 7.5 10.5t2.5 10.5q1 8 -5.5 13.5t-15.5 5.5q-5 0 -10.5 -2t-11.5 -6q-4 -3 -7.5 -7t-7.5 -9q-10 -16 -14.5 -33.5t-4.5 -34.5t3 -34t7 -33
q4 -15 7 -28.5t3 -24.5v-5q0 -2 -1 -4q-13 -65 -56.5 -99.5t-93.5 -35.5h-6q-57 3 -104.5 51.5t-54.5 146.5l16 1q9 -61 27 -98.5t37 -55.5q10 -9 20 -13t18 -4q14 0 23.5 11t9.5 31q0 22 -12.5 52.5t-43.5 67.5q-23 26 -39.5 60t-20.5 69q0 5 -0.5 9.5t-0.5 9.5
q0 31 12.5 60t40.5 52l79 64q-17 17 -37 29.5t-40 16.5q-4 1 -8 1.5t-8 0.5q-43 1 -80 -60t-48 -225l-2 -38q-1 -19 -2 -36q0 -175 70 -244t156 -69h15q75 5 141 46.5t87 95.5l16 1q-15 -76 -101 -120q-14 -7 -29 -13q-17 -16 -17 -37q0 -30 18 -59q1 -1 2 -3t2 -3
q23 -33 58.5 -55t64.5 -16z" />
    <glyph glyph-name="eogonek" unicode="&#x119;" horiz-adv-x="425" 
d="M389 -160l6 -12q-80 -19 -138 -2.5t-79 51.5l-2 2l-1 1q-19 34 0 76q10 22 35 42q-75 27 -111 69q-40 47 -53 97q-3 10 -4.5 20t-2.5 20q-1 15 -2 31t-1 33v13q0 7 1 14q2 50 19.5 95.5t61.5 65.5l181 79l110 -173l-220 -142q18 -56 48 -81t63 -28q3 -1 5 -1h6
q28 0 54 12.5t44 33.5l8 -14q-16 -15 -32 -28t-33 -26q-33 -25 -65 -49l-17 -13l4 -4q-31 -18 -31 -47.5t18 -58.5q1 -1 2 -3t2 -3q23 -33 58.5 -55t64.5 -16zM181 465v-221l102 63z" />
    <glyph glyph-name="Ecaron" unicode="&#x11a;" horiz-adv-x="795" 
d="M465 646l141 78q4 -8 9.5 -16.5t11.5 -18.5q13 -18 31.5 -33t43.5 -15q17 0 36 8t42 27v-15q-3 -7 -6.5 -14t-7.5 -13q-22 -32 -61.5 -58.5t-84.5 -26.5q-11 0 -22 2t-23 6q-22 8 -44 25.5t-43 46.5q-22 -3 -30 -13t-8 -23q0 -3 0.5 -6t0.5 -5q2 -9 6 -17.5t8 -14.5
q23 -35 51.5 -76.5t58.5 -88.5v9q0 52 31 80t68 28q32 0 60 -21t38 -65q1 -4 1 -7v-6q0 -34 -22 -58t-60 -24h-7q-3 0 -7 1q-23 4 -34 21.5t-11 38.5q0 17 6 32.5t16 25.5q5 5 7.5 10.5t2.5 10.5q1 8 -5.5 13.5t-15.5 5.5q-5 0 -10.5 -2t-11.5 -6q-4 -3 -7.5 -7t-7.5 -9
q-10 -16 -14.5 -33.5t-4.5 -34.5t3 -34t7 -33q4 -15 7 -28.5t3 -24.5v-5q0 -2 -1 -4q-13 -65 -56.5 -99.5t-93.5 -35.5h-6q-57 3 -104.5 51.5t-54.5 146.5l16 1q9 -61 27 -98.5t37 -55.5q10 -9 20 -13t18 -4q14 0 23.5 11t9.5 31q0 22 -12.5 52.5t-43.5 67.5
q-23 26 -39.5 60t-20.5 69q0 5 -0.5 9.5t-0.5 9.5q0 31 12.5 60t40.5 52l79 64q-17 17 -37 29.5t-40 16.5q-4 1 -8 1.5t-8 0.5q-43 1 -80 -60t-48 -225l-2 -38q-1 -19 -2 -36q0 -175 70 -244t156 -69h15q75 5 141 46.5t87 95.5l16 1q-15 -76 -101 -119.5t-193 -44.5
q-12 0 -24.5 0.5t-25.5 2.5q-131 12 -239.5 103t-109.5 283v19q3 116 74 199.5t156 113.5q20 7 39 10.5t38 3.5q43 0 79 -20t55 -63v1zM608 855q-9 -8 -20 -19.5t-23 -24.5l-2 -2v-1q-20 -22 -36.5 -40t-20.5 -22q-11 -11 -21 -16t-18 -5q-11 0 -20.5 5.5t-19.5 15.5
l-102 109q-5 6 -7.5 11t-3.5 10q0 7 6 9t20 -5l126 -56l118 47q10 7 17.5 10t11.5 3q9 0 7.5 -8t-12.5 -20v-1z" />
    <glyph glyph-name="ecaron" unicode="&#x11b;" horiz-adv-x="425" 
d="M299 535l110 -173l-220 -142q18 -56 48 -81t63 -28q3 -1 5 -1h6q28 0 54 12.5t44 33.5l8 -14q-16 -15 -32 -28t-33 -26q-33 -25 -64.5 -49t-59.5 -47q-88 28 -128.5 75t-53.5 97q-3 10 -4.5 20t-2.5 20q-1 15 -2 31t-1 33v13q0 7 1 14q2 50 19.5 95.5t61.5 65.5zM352 681
q-9 -8 -20 -19.5t-23 -24.5l-2 -2v-1q-20 -22 -36.5 -40t-20.5 -22q-11 -11 -21 -16t-18 -5q-11 0 -20.5 5.5t-19.5 15.5l-102 109q-5 6 -7.5 11t-3.5 10q0 7 6 9t20 -5l126 -56l118 47q10 7 17.5 10t11.5 3q9 0 7.5 -8t-12.5 -20v-1zM181 465v-221l102 63z" />
    <glyph glyph-name="Imacron" unicode="&#x12a;" horiz-adv-x="661" 
d="M605 399q-14 19 -29 30q-10 8 -20 11.5t-19 3.5q-15 0 -25 -9.5t-10 -29.5q0 -18 9.5 -42.5t31.5 -56.5q33 -46 47.5 -86.5t14.5 -75.5q0 -90 -75.5 -138t-167.5 -48q-77 0 -145 36.5t-91 114.5q-6 22 -12.5 38.5t-13.5 27.5q-8 16 -16.5 23t-16.5 7q-16 1 -27 -27
t-11 -74q0 -10 0.5 -20.5t1.5 -21.5l-15 1q-4 16 -5.5 31t-1.5 28q0 74 40.5 110.5t90.5 36.5h4q45 -1 84.5 -29.5t54.5 -83.5q1 -3 1.5 -5.5t1.5 -5.5q21 -80 45.5 -121.5t65.5 -41.5h10q5 0 10 2q24 4 35 16t11 32q0 29 -21 79t-56 124q-13 26 -18.5 49t-5.5 44
q0 65 44 103t99 39h5q42 -2 79 -28t56 -80l-15 -8q-11 27 -25 45zM268 465l8 -16q-28 -12 -53.5 -17t-48.5 -5q-61 -1 -97 31.5t-36 82.5q0 22 7 46.5t23 49.5q31 52 71.5 72.5t85.5 20.5q16 0 33 -2t34 -6q33 -7 66.5 -20t63.5 -27q17 -8 33 -15.5t30 -14.5q20 -9 35 -13
t26 -4q19 0 27.5 8.5t8.5 19.5q0 3 -0.5 6.5t-1.5 7.5q-4 11 -14.5 21.5t-25.5 16.5l8 24q38 -22 55.5 -50.5t18.5 -58.5q0 -47 -38.5 -85.5t-102.5 -38.5q-31 0 -68 11.5t-77 39.5q-48 34 -87.5 48t-70.5 15q-47 0 -74 -24t-35 -52q-1 -6 -2 -11.5t-1 -11.5q0 -16 6 -29.5
t19 -20.5q3 -2 8 -5t12 -6q10 -4 24 -8t33 -4t43 5t54 18v1zM646 362h-1l1 -1v1zM52 824h504v-59h-504v59z" />
    <glyph glyph-name="imacron" unicode="&#x12b;" horiz-adv-x="291" 
d="M16 417l-8 16q12 5 25 12.5t26 16.5q24 17 47.5 37t43.5 43q23 -29 53.5 -56.5t72.5 -45.5v-15h-11q-20 1 -30.5 -11t-13.5 -27q-1 -2 -1 -5v-232q0 -24 9 -38.5t22 -14.5q8 0 16 5t16 15l16 -7q-32 -26 -53 -45t-40 -34q-12 -10 -23.5 -19t-26.5 -16q-1 -1 -2.5 -2
t-3.5 -2q-47 28 -59 59t-12 66v277q0 19 -6.5 26.5t-15.5 7.5q-4 0 -8.5 -1t-9.5 -2q-2 -1 -4.5 -2t-5.5 -2t-6.5 -2.5t-6.5 -2.5v1zM28 693h236v-71h-236v71z" />
    <glyph glyph-name="dotlessi" unicode="&#x131;" horiz-adv-x="409" 
d="M71 370q0 25 -6 37t-17 12q-7 0 -15 -4.5t-17 -13.5l-8 16q41 35 75.5 64.5t58.5 52.5q10 -10 20.5 -21t22.5 -23q18 -16 38.5 -31.5t44.5 -26.5v-15q-30 -1 -39 -9t-9 -31v-235q0 -23 7.5 -33.5t19.5 -10.5q8 0 17 4.5t19 14.5l8 -15l-141 -118q-6 3 -12.5 7t-12.5 9
q-20 17 -37 45t-17 64v261z" />
    <glyph glyph-name="Lacute" unicode="&#x139;" horiz-adv-x="591" 
d="M24 63h-16v7q0 52 24.5 83.5t53.5 52.5q17 12 32.5 22t27.5 19q8 7 13 14.5t5 15.5t-5 17t-17 20q-5 4 -9.5 8.5t-9.5 8.5q-29 28 -54.5 63.5t-37.5 73.5q-3 11 -5 21.5t-2 21.5q3 98 85 148.5t179 50.5q74 0 140.5 -29.5t99.5 -90.5q11 -18 16 -35t5 -34
q0 -37 -19.5 -70.5t-42.5 -65.5q-10 -14 -20 -27.5t-18 -27.5q-5 -8 -7 -15t-3 -12q0 -11 8 -17.5t21 -6.5q10 0 22.5 4t24.5 12q12 9 23 21t21 29l16 -6q-5 -8 -11 -15t-11 -13q-28 -30 -55 -42.5t-52 -12.5q-43 0 -75.5 28t-44.5 61q-1 2 -1.5 4t-1.5 4q-3 9 -4 18t-1 17
q0 33 15.5 59t33.5 49q5 6 9.5 11.5t9.5 11.5q13 17 22 34t9 37q0 51 -40 75.5t-90 24.5h-3q-49 0 -90.5 -24t-42.5 -68q0 -21 13 -47t41 -56q5 -6 11 -13t12 -13q18 -22 33.5 -46.5t15.5 -52.5q0 -32 -29 -68t-106 -75q45 0 83.5 -16.5t68.5 -36.5q13 -9 24.5 -17.5
t20.5 -15.5q5 -4 11.5 -9t14.5 -10q15 -9 33 -17t37 -11q4 0 7.5 -0.5t6.5 -0.5q28 0 52 20t34 75l16 1q-14 -107 -70 -154.5t-120 -51.5h-11q-37 0 -70.5 12t-59.5 35q-61 56 -99 79t-60 23t-29.5 -20t-7.5 -49zM197 759q5 9 11.5 20t13.5 23q5 8 10.5 16t11.5 16
q13 18 25.5 33.5t21.5 24.5q12 12 24 17t23 5q23 1 39 -15t16 -36q0 -11 -5.5 -22t-17.5 -20q-8 -6 -17 -11.5t-20 -11.5q-21 -10 -51.5 -21t-76.5 -27z" />
    <glyph glyph-name="lacute" unicode="&#x13a;" horiz-adv-x="291" 
d="M71 598q17 70 85.5 92t150.5 33v-14q-59 -13 -73 -40.5t-14 -63.5v-448q0 -22 6 -37t29 -16q9 0 22 3t30 10v-15q-18 -8 -41.5 -23.5t-48.5 -34.5q-15 -12 -29 -24t-27 -24l-4 -4q-6 6 -12.5 12t-13.5 13q-25 24 -52 45.5t-55 30.5v17q5 -2 10 -3t9 -1q17 0 22 11t6 24
v387q0 11 -5.5 30t-14.5 40q-8 19 -18.5 37t-21.5 30l-3 3l8 17q1 -2 2 -3l2 -2q16 -17 28 -36t23 -47v1zM50 699q5 9 11.5 20t13.5 23q5 8 10.5 16t11.5 16q13 18 25.5 33.5t21.5 24.5q12 12 24 17t23 5q23 1 39 -15t16 -36q0 -11 -5.5 -22t-17.5 -20q-8 -6 -17 -11.5
t-20 -11.5q-21 -10 -51.5 -21t-76.5 -27z" />
    <glyph glyph-name="Lcaron" unicode="&#x13d;" horiz-adv-x="591" 
d="M24 63h-16v7q0 52 24.5 83.5t53.5 52.5q17 12 32.5 22t27.5 19q8 7 13 14.5t5 15.5t-5 17t-17 20q-5 4 -9.5 8.5t-9.5 8.5q-29 28 -54.5 63.5t-37.5 73.5q-3 11 -5 21.5t-2 21.5q3 98 85 148.5t179 50.5q74 0 140.5 -29.5t99.5 -90.5q11 -18 16 -35t5 -34
q0 -37 -19.5 -70.5t-42.5 -65.5q-10 -14 -20 -27.5t-18 -27.5q-5 -8 -7 -15t-3 -12q0 -11 8 -17.5t21 -6.5q10 0 22.5 4t24.5 12q12 9 23 21t21 29l16 -6q-5 -8 -11 -15t-11 -13q-28 -30 -55 -42.5t-52 -12.5q-43 0 -75.5 28t-44.5 61q-1 2 -1.5 4t-1.5 4q-3 9 -4 18t-1 17
q0 33 15.5 59t33.5 49q5 6 9.5 11.5t9.5 11.5q13 17 22 34t9 37q0 51 -40 75.5t-90 24.5h-3q-49 0 -90.5 -24t-42.5 -68q0 -21 13 -47t41 -56q5 -6 11 -13t12 -13q18 -22 33.5 -46.5t15.5 -52.5q0 -32 -29 -68t-106 -75q45 0 83.5 -16.5t68.5 -36.5q13 -9 24.5 -17.5
t20.5 -15.5q5 -4 11.5 -9t14.5 -10q15 -9 33 -17t37 -11q4 0 7.5 -0.5t6.5 -0.5q28 0 52 20t34 75l16 1q-14 -107 -70 -154.5t-120 -51.5h-11q-37 0 -70.5 12t-59.5 35q-61 56 -99 79t-60 23t-29.5 -20t-7.5 -49zM434 859q-9 -8 -20 -19.5t-23 -24.5l-2 -2v-1
q-20 -22 -36.5 -40t-20.5 -22q-11 -11 -21 -16t-18 -5q-11 0 -20.5 5.5t-19.5 15.5l-102 109q-5 6 -7.5 11t-3.5 10q0 7 6 9t20 -5l126 -56l118 47q10 7 17.5 10t11.5 3q9 0 7.5 -8t-12.5 -20v-1z" />
    <glyph glyph-name="lcaron" unicode="&#x13e;" horiz-adv-x="393" 
d="M71 598q17 70 85.5 92t150.5 33v-14q-59 -13 -73 -40.5t-14 -63.5v-448q0 -22 6 -37t29 -16q9 0 22 3t30 10v-15q-18 -8 -41.5 -23.5t-48.5 -34.5q-15 -12 -29 -24t-27 -24l-4 -4q-6 6 -12.5 12t-13.5 13q-25 24 -52 45.5t-55 30.5v17q5 -2 10 -3t9 -1q17 0 22 11t6 24
v387q0 11 -5.5 30t-14.5 40q-8 19 -18.5 37t-21.5 30l-3 3l8 17q1 -2 2 -3l2 -2q16 -17 28 -36t23 -47v1zM241 453v16q39 16 57.5 49t31.5 73q4 11 8.5 22.5t8.5 23.5q13 33 33.5 65t57.5 58v-15q-31 -28 -50.5 -66t-21.5 -78v-8q0 -35 17 -67.5t55 -57.5v-14
q-30 -13 -52.5 -37t-34.5 -59l-16 1q-11 30 -27 49t-33 30q-9 6 -17.5 9.5t-16.5 5.5z" />
    <glyph glyph-name="Ldot" unicode="&#x13f;" horiz-adv-x="732" 
d="M597 407q44 -1 68 -28.5t27 -60.5v-6q0 -33 -23 -60t-72 -27t-73 27q-10 10 -16 22l-10 -6q-27 -12 -52 -12q-43 0 -75.5 28t-44.5 61q-1 2 -1.5 4t-1.5 4q-3 9 -4 18t-1 17q0 33 15.5 59t33.5 49q5 6 9.5 11.5t9.5 11.5q13 17 22 34t9 37q0 51 -40 75.5t-90 24.5h-3
q-49 0 -90.5 -24t-42.5 -68q0 -21 13 -47t41 -56q5 -6 11 -13t12 -13q18 -22 33.5 -46.5t15.5 -52.5q0 -32 -29 -68t-106 -75q45 0 83.5 -16.5t68.5 -36.5q13 -9 24.5 -17.5t20.5 -15.5q5 -4 11.5 -9t14.5 -10q15 -9 33 -17t37 -11q4 0 7.5 -0.5t6.5 -0.5q28 0 52 20t34 75
l16 1q-14 -107 -70 -154.5t-120 -51.5h-11q-37 0 -70.5 12t-59.5 35q-61 56 -99 79t-60 23t-29.5 -20t-7.5 -49h-16v7q0 52 24.5 83.5t53.5 52.5q17 12 32.5 22t27.5 19q8 7 13 14.5t5 15.5t-5 17t-17 20q-5 4 -9.5 8.5t-9.5 8.5q-29 28 -54.5 63.5t-37.5 73.5
q-3 11 -5 21.5t-2 21.5q3 98 85 148.5t179 50.5q74 0 140.5 -29.5t99.5 -90.5q11 -18 16 -35t5 -34q0 -37 -19.5 -70.5t-42.5 -65.5q-10 -14 -20 -27.5t-18 -27.5q-5 -8 -7 -15t-3 -12q0 -11 8 -17.5t21 -6.5q10 0 22 4q6 2 13 5q-4 12 -4 25v3q1 34 26 62t72 28v1z" />
    <glyph glyph-name="ldot" unicode="&#x140;" horiz-adv-x="474" 
d="M71 598q17 70 85.5 92t150.5 33v-14q-59 -13 -73 -40.5t-14 -63.5v-448q0 -22 6 -37t29 -16q9 0 22 3t30 10v-15q-18 -8 -41.5 -23.5t-48.5 -34.5q-15 -12 -29 -24t-27 -24l-4 -4q-6 6 -12.5 12t-13.5 13q-25 24 -52 45.5t-55 30.5v17q5 -2 10 -3t9 -1q17 0 22 11t6 24
v387q0 11 -5.5 30t-14.5 40q-8 19 -18.5 37t-21.5 30l-3 3l8 17q1 -2 2 -3l2 -2q16 -17 28 -36t23 -47v1zM348 422q44 -1 68 -28.5t27 -60.5v-6q0 -33 -23 -60t-72 -27t-73 27t-25 61v3q1 34 26 62t72 28v1z" />
    <glyph glyph-name="Lslash" unicode="&#x141;" horiz-adv-x="591" 
d="M43 323l50 39q-13 16 -25 32q-25 36 -37 74q-3 11 -5 21.5t-2 21.5q3 98 85 148.5t179 50.5q74 0 140.5 -29.5t99.5 -90.5q11 -18 16 -35t5 -34q0 -37 -19.5 -70.5t-42.5 -65.5q-10 -14 -20 -27.5t-18 -27.5q-5 -8 -7 -15t-3 -12q0 -11 8 -17.5t21 -6.5q10 0 22.5 4
t24.5 12q12 9 23 21t21 29l16 -6q-5 -8 -11 -15t-11 -13q-28 -30 -55 -42.5t-52 -12.5q-43 0 -75.5 28t-44.5 61q-1 2 -1.5 4t-1.5 4q-3 9 -4 18t-1 17q0 33 15.5 59t33.5 49q5 6 9.5 11.5t9.5 11.5q13 17 22 34t9 37q0 51 -40 75.5t-90 24.5h-3q-49 0 -90.5 -24t-42.5 -68
q0 -21 13 -47t41 -56q5 -6 11 -13t12 -13l63 50v-50l-40 -31l10 -16q16 -24 16 -52q0 -32 -29 -68t-106 -75q45 0 83.5 -16.5t68.5 -36.5q13 -9 24.5 -17.5t20.5 -15.5q5 -4 11.5 -9t14.5 -10q15 -9 33 -17t37 -11q4 0 7.5 -0.5t6.5 -0.5q28 0 52 20t34 75l16 1
q-14 -107 -70 -154.5t-120 -51.5h-11q-37 0 -70.5 12t-59.5 35q-61 56 -99 79t-60 23t-29.5 -20t-7.5 -49h-16v7q0 52 24.5 83.5t53.5 52.5q17 12 32.5 22t27.5 19q8 7 13 14.5t5 15.5t-5 17t-17 20q-5 4 -9.5 8.5t-9.5 8.5l-3 3l-77 -61v50z" />
    <glyph glyph-name="lslash" unicode="&#x142;" horiz-adv-x="291" 
d="M18 246l53 45v237q0 11 -5.5 30t-14.5 40q-8 19 -18.5 37t-21.5 30l-3 3l8 17q1 -2 2 -3l2 -2q16 -17 28 -36t23 -47v1q17 70 85.5 92t150.5 33v-14q-59 -13 -73 -40.5t-14 -63.5v-185l53 46v-45l-53 -46v-218q0 -22 6 -37t29 -16q9 0 22 3t30 10v-15q-18 -8 -41.5 -23.5
t-48.5 -34.5q-15 -12 -29 -24t-27 -24l-4 -4q-6 6 -12.5 12t-13.5 13q-25 24 -52 45.5t-55 30.5v17q5 -2 10 -3t9 -1q17 0 22 11t6 24v105l-53 -45v45z" />
    <glyph glyph-name="Nacute" unicode="&#x143;" horiz-adv-x="772" 
d="M63 268q54 19 76 31.5t23 22.5q0 4 -2.5 7.5t-7.5 6.5q-10 7 -27.5 14.5t-35.5 17.5q-26 14 -48.5 34.5t-24.5 53.5v10q-1 2 -1 4v5q0 122 69.5 185t152.5 69q4 1 8 1h8q61 0 113.5 -31.5t74.5 -93.5q10 44 33.5 67t48.5 33q19 7 37 9t31 2q84 -6 107.5 -43.5t26.5 -82.5
q1 -7 1 -15v-15q1 -39 9 -67.5t52 -28.5h8v-15h-21q-41 1 -73 -24t-32 -87q-1 -18 -2 -38t-1 -40v-3q0 -58 10.5 -107t43.5 -49q12 0 26.5 7.5t33.5 24.5l15 -15l-181 -134q-25 15 -43 28t-31 27q-26 28 -32.5 58.5t-9.5 77.5q0 8 -0.5 17.5t-1.5 19.5q-1 12 -1.5 24
t-0.5 22q0 109 48.5 140t133.5 47q4 1 8.5 1.5t8.5 1.5q-77 3 -103 35.5t-32 71.5q-2 9 -3 18.5t-2 18.5q-2 29 -8.5 49.5t-32.5 20.5q-4 0 -7.5 -0.5t-8.5 -1.5q-23 -9 -31 -36t-8 -65q0 -19 1.5 -40.5t2.5 -44.5q1 -11 1.5 -22.5t1.5 -22.5q0 -12 0.5 -23.5t0.5 -22.5
q0 -22 -1.5 -43.5t-6.5 -41.5q-8 -26 -36.5 -65t-64.5 -80q-9 -11 -19 -22l-20 -22q-39 -41 -74.5 -75t-53.5 -50l-118 110l-47 -47l-16 16l157 157l126 -102q0 -1 0.5 8.5t1.5 25.5q0 17 0.5 40t0.5 50q0 37 -1 80t-5 87q-2 39 -7 77t-13 72q-7 36 -36 61t-63 30
q-4 1 -8.5 1.5t-8.5 0.5q-22 0 -42 -10.5t-31 -35.5q-1 -4 -2 -7.5t-1 -7.5q0 -15 11.5 -27t29.5 -24q7 -5 15 -9.5t15 -9.5q17 -11 32.5 -22.5t25.5 -26.5q11 -15 17 -33t6 -38v-10q0 -4 -1 -9q-6 -47 -46.5 -86.5t-117.5 -43.5v17zM410 746q5 9 11.5 20t13.5 23
q5 8 10.5 16t11.5 16q13 18 25.5 33.5t21.5 24.5q12 12 24 17t23 5q23 1 39 -15t16 -36q0 -11 -5.5 -22t-17.5 -20q-8 -6 -17 -11.5t-20 -11.5q-21 -10 -51.5 -21t-76.5 -27z" />
    <glyph glyph-name="nacute" unicode="&#x144;" horiz-adv-x="535" 
d="M244 417l165 118q8 -9 17 -18.5t18 -19.5q19 -19 41.5 -36t49.5 -21v-15q-29 -1 -46 -12t-17 -52v-212q0 -3 1 -7q1 -15 7.5 -27t22.5 -13q8 0 17.5 3.5t22.5 11.5l8 -7l-149 -126q-53 40 -66 72t-13 61v261q0 25 -7 35t-18 10q-7 0 -14.5 -3t-15.5 -8q-6 -4 -12 -9
l-12 -10v-261q0 -4 1 -9q1 -9 6 -17.5t17 -12.5v-14q-24 -7 -52.5 -25t-58.5 -70q-7 20 -25.5 38t-39.5 32q-15 9 -29 15.5t-24 8.5v16q24 -1 39.5 9t15.5 46v213q0 3 -0.5 7.5t-0.5 9.5q-3 14 -9.5 25.5t-18.5 11.5q-8 1 -18 -4.5t-23 -18.5l-8 16l134 126q47 -24 70 -51
t24 -67zM218 557q5 9 11.5 20t13.5 23q5 8 10.5 16t11.5 16q13 18 25.5 33.5t21.5 24.5q12 12 24 17t23 5q23 1 39 -15t16 -36q0 -11 -5.5 -22t-17.5 -20q-8 -6 -17 -11.5t-20 -11.5q-21 -10 -51.5 -21t-76.5 -27z" />
    <glyph glyph-name="Ncaron" unicode="&#x147;" horiz-adv-x="772" 
d="M63 268q54 19 76 31.5t23 22.5q0 4 -2.5 7.5t-7.5 6.5q-10 7 -27.5 14.5t-35.5 17.5q-26 14 -48.5 34.5t-24.5 53.5v10q-1 2 -1 4v5q0 122 69.5 185t152.5 69q4 1 8 1h8q61 0 113.5 -31.5t74.5 -93.5q10 44 33.5 67t48.5 33q19 7 37 9t31 2q84 -6 107.5 -43.5t26.5 -82.5
q1 -7 1 -15v-15q1 -39 9 -67.5t52 -28.5h8v-15h-21q-41 1 -73 -24t-32 -87q-1 -18 -2 -38t-1 -40v-3q0 -58 10.5 -107t43.5 -49q12 0 26.5 7.5t33.5 24.5l15 -15l-181 -134q-25 15 -43 28t-31 27q-26 28 -32.5 58.5t-9.5 77.5q0 8 -0.5 17.5t-1.5 19.5q-1 12 -1.5 24
t-0.5 22q0 109 48.5 140t133.5 47q4 1 8.5 1.5t8.5 1.5q-77 3 -103 35.5t-32 71.5q-2 9 -3 18.5t-2 18.5q-2 29 -8.5 49.5t-32.5 20.5q-4 0 -7.5 -0.5t-8.5 -1.5q-23 -9 -31 -36t-8 -65q0 -19 1.5 -40.5t2.5 -44.5q1 -11 1.5 -22.5t1.5 -22.5q0 -12 0.5 -23.5t0.5 -22.5
q0 -22 -1.5 -43.5t-6.5 -41.5q-8 -26 -36.5 -65t-64.5 -80q-9 -11 -19 -22l-20 -22q-39 -41 -74.5 -75t-53.5 -50l-118 110l-47 -47l-16 16l157 157l126 -102q0 -1 0.5 8.5t1.5 25.5q0 17 0.5 40t0.5 50q0 37 -1 80t-5 87q-2 39 -7 77t-13 72q-7 36 -36 61t-63 30
q-4 1 -8.5 1.5t-8.5 0.5q-22 0 -42 -10.5t-31 -35.5q-1 -4 -2 -7.5t-1 -7.5q0 -15 11.5 -27t29.5 -24q7 -5 15 -9.5t15 -9.5q17 -11 32.5 -22.5t25.5 -26.5q11 -15 17 -33t6 -38v-10q0 -4 -1 -9q-6 -47 -46.5 -86.5t-117.5 -43.5v17zM586 859q-9 -8 -20 -19.5t-23 -24.5
l-2 -2v-1q-20 -22 -36.5 -40t-20.5 -22q-11 -11 -21 -16t-18 -5q-11 0 -20.5 5.5t-19.5 15.5l-102 109q-5 6 -7.5 11t-3.5 10q0 7 6 9t20 -5l126 -56l118 47q10 7 17.5 10t11.5 3q9 0 7.5 -8t-12.5 -20v-1z" />
    <glyph glyph-name="ncaron" unicode="&#x148;" horiz-adv-x="535" 
d="M244 417l165 118q8 -9 17 -18.5t18 -19.5q19 -19 41.5 -36t49.5 -21v-15q-29 -1 -46 -12t-17 -52v-212q0 -3 1 -7q1 -15 7.5 -27t22.5 -13q8 0 17.5 3.5t22.5 11.5l8 -7l-149 -126q-53 40 -66 72t-13 61v261q0 25 -7 35t-18 10q-7 0 -14.5 -3t-15.5 -8q-6 -4 -12 -9
l-12 -10v-261q0 -4 1 -9q1 -9 6 -17.5t17 -12.5v-14q-24 -7 -52.5 -25t-58.5 -70q-7 20 -25.5 38t-39.5 32q-15 9 -29 15.5t-24 8.5v16q24 -1 39.5 9t15.5 46v213q0 3 -0.5 7.5t-0.5 9.5q-3 14 -9.5 25.5t-18.5 11.5q-8 1 -18 -4.5t-23 -18.5l-8 16l134 126q47 -24 70 -51
t24 -67zM407 681q-9 -8 -20 -19.5t-23 -24.5l-2 -2v-1q-20 -22 -36.5 -40t-20.5 -22q-11 -11 -21 -16t-18 -5q-11 0 -20.5 5.5t-19.5 15.5l-102 109q-5 6 -7.5 11t-3.5 10q0 7 6 9t20 -5l126 -56l118 47q10 7 17.5 10t11.5 3q9 0 7.5 -8t-12.5 -20v-1z" />
    <glyph glyph-name="OE" unicode="&#x152;" horiz-adv-x="1000" 
d="M496 646q42 39 80.5 56.5t69.5 17.5q35 0 61 -18t41 -49l118 79q3 -43 21.5 -61.5t40.5 -18.5h5q3 0 5 1q16 3 30.5 13t23.5 26v-15q-2 -9 -9 -23t-20 -29q-17 -22 -43.5 -40t-57.5 -18q-27 0 -56 17.5t-58 60.5q-6 -10 -8.5 -19t-2.5 -17q0 -4 0.5 -7.5t0.5 -6.5
q4 -19 16.5 -39t26.5 -44q8 -14 16 -29.5t14 -34.5q15 26 36.5 41t45.5 18q3 1 6 1h6q31 0 55.5 -19t31.5 -57q1 -4 1 -8v-6q0 -36 -20 -55t-43 -22h-8q-22 0 -40 12.5t-18 36.5q0 11 4 23.5t14 26.5q8 11 11.5 19t3.5 14q0 5 -3 7.5t-8 3.5q-5 0 -12 -3t-15 -9q-4 -3 -8 -7
t-8 -9q-5 -7 -7.5 -14.5t-2.5 -16.5q0 -11 3 -23.5t8 -25.5q2 -6 4.5 -12.5t5.5 -12.5q6 -15 12 -28.5t8 -24.5q2 -6 2.5 -12.5t0.5 -13.5t-1 -14t-2 -15q-9 -39 -39.5 -72.5t-78.5 -37.5h-6q-2 -1 -4 -1h-3q-53 0 -83 49t-30 149l16 1q2 -75 18.5 -115.5t36.5 -55.5
q6 -5 12 -7t12 -2q14 -1 23 9.5t9 28.5q1 4 0.5 7.5t-1.5 7.5q-4 20 -14 42t-23 44q-5 9 -10.5 17.5t-10.5 16.5q-21 34 -39 64t-21 52q-2 13 -3.5 24.5t-1.5 21.5q0 48 20 75t45 50l4 4q8 7 15.5 14.5t14.5 15.5q-8 19 -19.5 27t-24.5 8q-7 0 -14.5 -2t-15.5 -7
q-26 -15 -49.5 -49.5t-34.5 -72.5q-3 -12 -5 -23.5t-2 -22.5q14 -27 21.5 -57.5t10.5 -62.5q1 -11 1.5 -22.5t0.5 -22.5q0 -52 -8 -98.5t-18 -75.5q23 -70 68.5 -111t99.5 -41q8 0 16.5 1t16.5 3q39 10 76.5 44t68.5 96l16 1q-25 -83 -84.5 -123t-125.5 -46q-6 0 -12 -0.5
t-12 -0.5q-54 0 -101.5 20t-73.5 55q-38 -43 -74.5 -60.5t-70.5 -17.5q-40 0 -75 18.5t-64 43.5q-3 2 -5.5 4.5t-5.5 4.5q-41 35 -80 63.5t-70 29.5q-19 0 -34.5 -16t-24.5 -54l-16 1q12 83 63 123t110 42h7q26 0 50 -6t45 -19q16 -9 39 -27t48 -38q2 -1 4.5 -3t4.5 -4
q31 -24 60 -44t46 -20q4 0 6.5 1t4.5 2q-66 72 -90.5 141t-24.5 129q0 47 10 87.5t23 71.5q2 7 5 14t6 13q-4 -6 -18 -9.5t-32 -3.5q-9 0 -18.5 1t-19.5 3q-34 7 -62 27t-28 58q-1 17 6 37t23 45q-43 -16 -60 -38.5t-17 -48.5q0 -16 5 -32.5t13 -33.5q5 -10 10.5 -20.5
t10.5 -20.5q13 -23 24 -43.5t14 -38.5q2 -6 2 -12v-12q1 -56 -40 -96.5t-90 -46.5q-4 -1 -8 -1h-7q-41 0 -75 31.5t-42 105.5l15 1q1 -7 2.5 -13.5t3.5 -13.5q8 -29 23.5 -53t40.5 -25h4q3 0 5 1q12 4 17.5 10t5.5 15q0 15 -11.5 37t-24.5 49q-14 26 -25.5 56.5t-11.5 61.5
q0 9 1 18t3 18q3 8 6.5 17t8.5 18q34 57 81 86t97 37q12 3 24.5 4t24.5 1q65 0 118.5 -22.5t71.5 -50.5v1zM559 433q-6 -12 -10 -38t-4 -59q0 -15 1 -30.5t3 -31.5q2 -20 6.5 -40t11.5 -38q8 12 11 38.5t3 57.5v20q-1 39 -7 73.5t-15 46.5v1z" />
    <glyph glyph-name="oe" unicode="&#x153;" horiz-adv-x="677" 
d="M409 480l150 63l102 -181l-220 -134q13 -42 47 -76.5t83 -35.5q20 0 43 8t47 25l8 -15q-41 -25 -89.5 -60.5t-107.5 -81.5q-38 13 -63 30.5t-47 36.5q-6 5 -11.5 9.5t-11.5 9.5q-34 -11 -58.5 -29.5t-47.5 -48.5q-1 -2 -2.5 -4t-2.5 -4q-10 9 -22.5 20t-27.5 23
q-29 22 -66.5 42.5t-80.5 31.5v17q24 5 28 17t4 29v285q4 -1 8 -1.5t8 -0.5h15q10 0 19.5 0.5t19.5 1.5q61 5 118.5 25t94.5 52q24 -17 38 -30t25 -25v1zM299 362q0 39 -21.5 59.5t-47.5 24.5q-4 1 -8.5 1.5t-8.5 0.5v-275q14 -9 25 -16t21 -14q11 -8 21 -16t19 -18v253z
M528 307l-79 173q-5 -24 -8 -49t-5 -51q-2 -35 -2.5 -68.5t-0.5 -60.5z" />
    <glyph glyph-name="Rcaron" unicode="&#x158;" horiz-adv-x="827" 
d="M47 259v17q41 -1 68.5 6.5t28.5 24.5q0 5 -2.5 10.5t-7.5 12.5q-8 11 -24 25t-33 30l-23 22q-11 12 -19 24q-7 8 -11.5 16.5t-7.5 16.5q-4 15 -6.5 29t-2.5 27q-1 82 66.5 134t151.5 52h13q7 0 14 -1q51 -5 99.5 -35t81.5 -88q7 67 47.5 96.5t88.5 33.5h12
q28 0 53.5 -7.5t42.5 -20.5q28 -16 41.5 -41.5t18.5 -52.5q2 -14 3 -27.5t1 -25.5v-28q-1 -7 -1 -12v-10q0 -20 12 -34.5t31 -14.5q3 0 6 0.5t6 1.5v-15q-12 -5 -27 -8.5t-31 -3.5q-7 0 -14 1l-14 2l-32 -7q26 -1 37 -40t13 -86q1 -8 1 -16v-16q0 -21 -1 -39t-3 -32
q-1 -10 -2 -19.5t-1 -18.5q0 -20 5.5 -34.5t19.5 -15.5q8 0 20.5 6t28.5 19l16 -15l-181 -118q-66 25 -86 63t-20 78q0 7 0.5 14t0.5 14q1 6 1.5 13t1.5 14q0 11 1.5 25t3.5 29q1 7 1.5 13.5t1.5 13.5q1 9 1.5 18t0.5 17q0 31 -10 53t-41 23q-5 0 -10.5 -0.5t-11.5 -2.5v-15
q0 -11 -0.5 -21.5t-1.5 -21.5q-12 -123 -86 -225t-180 -102q-71 0 -108.5 28.5t-49.5 80.5q-2 11 -3.5 20.5t-1.5 17.5q0 47 26.5 72.5t58.5 29.5q3 1 6 1h6q28 0 50 -15.5t24 -46.5q1 -7 1.5 -13t0.5 -12q0 -37 -14 -49t-30 -14q-4 -1 -7.5 -1.5t-7.5 -0.5q-12 -1 -21 -4
t-9 -16q0 -26 22 -43.5t49 -17.5h5q20 2 38 14t28 39q14 38 19.5 90.5t5.5 110.5q0 18 -0.5 36.5t-1.5 37.5q-4 79 -16.5 153.5t-30.5 122.5q-9 23 -27.5 36.5t-38.5 18.5q-6 2 -11.5 2.5t-11.5 0.5q-11 0 -20 -2.5t-17 -7.5q-6 -5 -10.5 -10t-6.5 -10q-3 -5 -4.5 -10
t-1.5 -10v-6q3 -20 20 -40t37 -37q13 -10 25 -19t20 -16q18 -13 27.5 -37t9.5 -52q0 -5 -0.5 -10.5t-1.5 -11.5q-6 -47 -43 -86t-112 -40h-11q-5 0 -11 1zM465 394l212 31q-49 20 -76.5 45t-40.5 50q-11 23 -14 44.5t-3 40.5v35q-1 9 -10 16.5t-21 7.5q-3 0 -5.5 -0.5
t-5.5 -0.5q-15 -5 -28 -27t-16 -70zM553 876q-9 -8 -20 -19.5t-23 -24.5l-2 -2v-1q-20 -22 -36.5 -40t-20.5 -22q-11 -11 -21 -16t-18 -5q-11 0 -20.5 5.5t-19.5 15.5l-102 109q-5 6 -7.5 11t-3.5 10q0 7 6 9t20 -5l126 -56l118 47q10 7 17.5 10t11.5 3q9 0 7.5 -8
t-12.5 -20v-1z" />
    <glyph glyph-name="rcaron" unicode="&#x159;" horiz-adv-x="441" 
d="M236 409l126 119l87 -134l-103 -111l-78 126l-32 -23v-229q3 -23 16.5 -37t35.5 -14q19 0 43.5 11.5t54.5 38.5l8 -14l-189 -158q-11 9 -25.5 21t-31.5 26q-26 20 -56 38t-61 23q-2 0 -3.5 0.5t-3.5 0.5v17q5 -1 11 -0.5t13 2.5q14 3 26.5 13t12.5 31v198q0 27 -12 39
t-28 12h-4q-1 0 -3 -1q-9 -1 -17.5 -6t-14.5 -13l-8 17l142 133q35 -18 64 -52q29 -33 30 -74zM360 681q-9 -8 -20 -19.5t-23 -24.5l-2 -2v-1q-20 -22 -36.5 -40t-20.5 -22q-11 -11 -21 -16t-18 -5q-11 0 -20.5 5.5t-19.5 15.5l-102 109q-5 6 -7.5 11t-3.5 10q0 7 6 9t20 -5
l126 -56l118 47q10 7 17.5 10t11.5 3q9 0 7.5 -8t-12.5 -20v-1z" />
    <glyph glyph-name="Sacute" unicode="&#x15a;" horiz-adv-x="772" 
d="M748 661q-34 -101 -80.5 -137t-101.5 -36q-37 0 -76.5 11t-78.5 25l-6 2q-3 1 -5 2q-42 15 -83.5 27.5t-79.5 12.5q-49 1 -92 -30t-74 -114q-7 -19 -11 -38t-4 -36q0 -89 79.5 -137.5t179.5 -48.5q189 0 293.5 38t104.5 96q0 15 -7 31t-21 32q-8 10 -17 14.5t-20 4.5
q-27 0 -60 -24.5t-75 -53.5q-40 -29 -89 -53.5t-107 -24.5q-17 0 -35.5 2.5t-37.5 8.5q-49 16 -79.5 54t-38.5 81q-2 7 -2.5 14t-0.5 14q0 45 29 79t91 34q23 0 50.5 -5.5t60.5 -18.5l-8 -15q-25 10 -47 15t-40 5q-46 0 -68.5 -25t-25.5 -55q-1 -2 -1 -5v-5
q-1 -25 11.5 -44.5t34.5 -19.5q11 0 23.5 5t26.5 18q47 39 116.5 69.5t143.5 31.5h10q6 0 12 -1q33 -2 65 -13t62 -32q34 -25 52 -63t18 -82q0 -13 -1.5 -27t-5.5 -28q-21 -82 -107 -152t-247 -80h-9q-4 0 -8 -1q-146 0 -231.5 113t-93.5 249q-1 7 -1 13v14q0 129 78 232.5
t249 103.5q56 0 102 -15.5t84 -34.5t68 -34.5t54 -15.5q19 0 34 11.5t28 40.5zM288 759q5 9 11.5 20t13.5 23q5 8 10.5 16t11.5 16q13 18 25.5 33.5t21.5 24.5q12 12 24 17t23 5q23 1 39 -15t16 -36q0 -11 -5.5 -22t-17.5 -20q-8 -6 -17 -11.5t-20 -11.5q-21 -10 -51.5 -21
t-76.5 -27z" />
    <glyph glyph-name="sacute" unicode="&#x15b;" 
d="M258 552q5 9 11.5 20t13.5 23q5 8 10.5 16t11.5 16q8 11 16 21q-25 7 -51 7h-6q-53 -2 -98 -32t-48 -96l-16 1v6q0 69 51.5 103.5t114.5 34.5h7q30 -1 57 -9q12 14 20 22q12 12 24 17t23 5q23 1 39 -15t16 -36q0 -11 -5.5 -22t-17.5 -20q-4 -3 -9 -6q20 -25 27 -58
q3 -16 4.5 -29t1.5 -25q0 -39 -12 -61.5t-26 -35.5q-8 -8 -15.5 -13.5t-12.5 -11.5q-5 -5 -8 -10t-3 -11q44 -7 72.5 -41t28.5 -78q0 -11 -2 -22t-6 -22q-5 -14 -14.5 -28.5t-23.5 -28.5q-15 -15 -29 -28.5t-27 -26.5l-16 -16q-19 -18 -37.5 -39t-40.5 -47q-8 5 -20.5 12
t-28.5 14q-17 8 -36 15.5t-38 12.5q-12 3 -23 4.5t-22 1.5q-20 0 -38 -6.5t-30 -22.5l-16 1q8 10 16.5 23t17.5 26l20 28q13 21 24 41t17 38q-46 34 -65.5 63.5t-19.5 56.5q0 40 32.5 75.5t71.5 67.5q22 18 43 35.5t36 34.5q6 8 11.5 15.5t8.5 14.5q11 -20 34.5 -33
t48.5 -16q4 0 8 -0.5t8 -0.5q29 -1 51.5 14t22.5 48q0 10 -1.5 20.5t-6.5 22.5q-3 7 -7 13l-8 -4q-21 -10 -51.5 -21t-76.5 -27zM354 87q8 14 12 29t4 30q1 43 -28.5 73.5t-70.5 30.5q-14 0 -29.5 -4t-30.5 -14q-18 -11 -35.5 -30t-33.5 -46q68 -5 119.5 -24.5t86.5 -41.5
q2 -1 3.5 -2t2.5 -2v1zM165 425q-8 -14 -12 -27.5t-4 -26.5q0 -41 30.5 -71t70.5 -30q5 0 10.5 0.5t10.5 1.5q25 6 49 27t42 62q-12 -5 -24.5 -8t-25.5 -3q-31 0 -60 12.5t-50 27.5q-14 10 -23.5 19t-13.5 15v1z" />
    <glyph glyph-name="Scaron" unicode="&#x160;" horiz-adv-x="772" 
d="M748 661q-34 -101 -80.5 -137t-101.5 -36q-37 0 -76.5 11t-78.5 25l-6 2q-3 1 -5 2q-42 15 -83.5 27.5t-79.5 12.5q-49 1 -92 -30t-74 -114q-7 -19 -11 -38t-4 -36q0 -89 79.5 -137.5t179.5 -48.5q189 0 293.5 38t104.5 96q0 15 -7 31t-21 32q-8 10 -17 14.5t-20 4.5
q-27 0 -60 -24.5t-75 -53.5q-40 -29 -89 -53.5t-107 -24.5q-17 0 -35.5 2.5t-37.5 8.5q-49 16 -79.5 54t-38.5 81q-2 7 -2.5 14t-0.5 14q0 45 29 79t91 34q23 0 50.5 -5.5t60.5 -18.5l-8 -15q-25 10 -47 15t-40 5q-46 0 -68.5 -25t-25.5 -55q-1 -2 -1 -5v-5
q-1 -25 11.5 -44.5t34.5 -19.5q11 0 23.5 5t26.5 18q47 39 116.5 69.5t143.5 31.5h10q6 0 12 -1q33 -2 65 -13t62 -32q34 -25 52 -63t18 -82q0 -13 -1.5 -27t-5.5 -28q-21 -82 -107 -152t-247 -80h-9q-4 0 -8 -1q-146 0 -231.5 113t-93.5 249q-1 7 -1 13v14q0 129 78 232.5
t249 103.5q56 0 102 -15.5t84 -34.5t68 -34.5t54 -15.5q19 0 34 11.5t28 40.5zM526 876q-9 -8 -20 -19.5t-23 -24.5l-2 -2v-1q-20 -22 -36.5 -40t-20.5 -22q-11 -11 -21 -16t-18 -5q-11 0 -20.5 5.5t-19.5 15.5l-102 109q-5 6 -7.5 11t-3.5 10q0 7 6 9t20 -5l126 -56l118 47
q10 7 17.5 10t11.5 3q9 0 7.5 -8t-12.5 -20v-1z" />
    <glyph glyph-name="scaron" unicode="&#x161;" 
d="M391 699q-9 -8 -20 -20q-10 -10 -21 -22q18 -8 36 -18q52 -31 63 -89q3 -16 4.5 -29t1.5 -25q0 -39 -12 -61.5t-26 -35.5q-8 -8 -15.5 -13.5t-12.5 -11.5q-5 -5 -8 -10t-3 -11q44 -7 72.5 -41t28.5 -78q0 -11 -2 -22t-6 -22q-5 -14 -14.5 -28.5t-23.5 -28.5
q-15 -15 -29 -28.5t-27 -26.5l-16 -16q-19 -18 -37.5 -39t-40.5 -47q-8 5 -20.5 12t-28.5 14q-17 8 -36 15.5t-38 12.5q-12 3 -23 4.5t-22 1.5q-20 0 -38 -6.5t-30 -22.5l-16 1q8 10 16.5 23t17.5 26l20 28q13 21 24 41t17 38q-46 34 -65.5 63.5t-19.5 56.5q0 40 32.5 75.5
t71.5 67.5q22 18 43 35.5t36 34.5q6 8 11.5 15.5t8.5 14.5q11 -20 34.5 -33t48.5 -16q4 0 8 -0.5t8 -0.5q29 -1 51.5 14t22.5 48q0 10 -1.5 20.5t-6.5 22.5q-13 35 -53 54q-9 4 -18 7q-15 -17 -29 -31q-16 -18 -20 -22q-11 -11 -21 -16t-18 -5q-11 0 -20.5 5.5t-19.5 15.5
l-36 38q-4 -2 -8 -5q-45 -30 -48 -96l-16 1v6q0 69 51 103q4 3 8 5l-53 57q-5 6 -7.5 11t-3.5 10q0 7 6 9t20 -5l120 -54l16 2l108 43q10 7 17.5 10t11.5 3q9 0 7.5 -8t-12.5 -20v-1zM354 87q8 14 12 29t4 30q1 43 -28.5 73.5t-70.5 30.5q-14 0 -29.5 -4t-30.5 -14
q-18 -11 -35.5 -30t-33.5 -46q68 -5 119.5 -24.5t86.5 -41.5q2 -1 3.5 -2t2.5 -2v1zM165 425q-8 -14 -12 -27.5t-4 -26.5q0 -41 30.5 -71t70.5 -30q5 0 10.5 0.5t10.5 1.5q25 6 49 27t42 62q-12 -5 -24.5 -8t-25.5 -3q-31 0 -60 12.5t-50 27.5q-14 10 -23.5 19t-13.5 15v1z
" />
    <glyph glyph-name="Tcommaaccent" unicode="&#x162;" horiz-adv-x="701" 
d="M205 394q-22 -8 -41 -11.5t-36 -3.5q-65 0 -98 40.5t-33 94.5q0 9 1 19t2 19q8 37 31.5 72.5t62.5 59.5q38 23 74 33.5t70 10.5q68 0 128 -30t111 -66t92 -66t70 -30q9 0 16.5 3.5t13.5 10.5q2 2 2.5 4.5t1.5 6.5q0 8 -4.5 19.5t-12.5 23.5q-14 20 -38 36.5t-59 19.5v17
q70 -6 103 -43t33 -81q1 -46 -35.5 -84t-105.5 -38h-9q-3 0 -5.5 0.5t-4.5 0.5q-16 0 -40.5 7.5t-51.5 17.5l-16 6q-8 3 -16 7q-23 10 -42.5 19t-29.5 14q-1 -4 -2 -8.5t-1 -8.5q0 -20 16 -34.5t39 -27.5q5 -3 10.5 -6.5t11.5 -6.5q29 -17 53 -38.5t24 -55.5q0 -4 -0.5 -9
t-1.5 -10q-9 -29 -29.5 -52.5t-43.5 -40.5q-10 -7 -19 -13.5t-18 -11.5q5 -3 22 -14.5t41 -23.5q21 -11 46 -21t50 -15q9 -2 17.5 -3t17.5 -1q35 -1 65.5 18t47.5 68l16 1q-38 -119 -101.5 -163t-133.5 -44q-7 0 -14.5 0.5t-14.5 1.5q-52 5 -102 24.5t-90 42.5q-9 5 -17 9.5
t-15 9.5q-6 4 -13.5 9.5t-16.5 10.5q-11 7 -23.5 14t-25.5 12q-12 5 -23 8t-22 3q-22 1 -39 -16.5t-19 -64.5l-15 1q11 84 54 140t114 57h7q1 -1 3 -1h3q12 -1 25 -4.5t26 -7.5l16 -6q8 -3 15 -6q25 -9 46 -16.5t35 -7.5q8 0 13 4t5 14v6q-3 12 -24.5 26t-47.5 31
q-23 15 -43.5 32t-26.5 37q-1 3 -1.5 5.5t-0.5 5.5v4q0 2 -0.5 3.5t-0.5 3.5q0 38 23 70.5t51 55.5q6 5 12 9.5t12 8.5q-2 1 -4 2.5t-4 2.5q-25 15 -57 29t-66 23q-17 4 -34.5 6.5t-33.5 2.5q-40 0 -68.5 -19.5t-28.5 -69.5q0 -9 1 -19t3 -21q5 -21 34 -36.5t66 -16.5
q15 0 30 3t28 10zM265 -116v19q21 2 39 15.5t28 29.5q5 7 7.5 12.5t4.5 10.5l19 1q5 -24 24.5 -42t48.5 -28v-17q-2 -2 -3 -2h-3q-13 -5 -27.5 -19.5t-32.5 -60.5q-4 -11 -8 -21t-8 -18q-12 -33 -29 -56t-49 -45q-1 -1 -3 -1l-1 -2v19q21 12 33.5 31.5t18.5 40.5
q4 13 5.5 24.5t1.5 22.5q0 6 -1 12t-3 12q-4 18 -18.5 35t-43.5 27z" />
    <glyph glyph-name="tcommaaccent" unicode="&#x163;" horiz-adv-x="346" 
d="M87 394h-63v15q44 7 84.5 51.5t66.5 96.5q16 31 26 60t12 51l23 1v-204h103v-71h-103v-237q4 -21 13.5 -33t25.5 -12q12 0 28 7t36 22l7 -15q-33 -27 -55 -46t-41 -36l-2 -2l-1 -1q-15 -13 -30.5 -27t-35.5 -30q-13 22 -34 43t-44 35q-17 11 -34 17.5t-30 6.5v16
q30 -1 39 11t9 36v245zM87 -116v19q21 2 39 15.5t28 29.5q5 7 7.5 12.5t4.5 10.5l19 1q5 -24 24.5 -42t48.5 -28v-17q-2 -2 -3 -2h-3q-13 -5 -27.5 -19.5t-32.5 -60.5q-4 -11 -8 -21t-8 -18q-12 -33 -29 -56t-49 -45q-1 -1 -3 -1l-1 -2v19q21 12 33.5 31.5t18.5 40.5
q4 13 5.5 24.5t1.5 22.5q0 6 -1 12t-3 12q-4 18 -18.5 35t-43.5 27z" />
    <glyph glyph-name="Tcaron" unicode="&#x164;" horiz-adv-x="701" 
d="M205 394q-22 -8 -41 -11.5t-36 -3.5q-65 0 -98 40.5t-33 94.5q0 9 1 19t2 19q8 37 31.5 72.5t62.5 59.5q38 23 74 33.5t70 10.5q68 0 128 -30t111 -66t92 -66t70 -30q9 0 16.5 3.5t13.5 10.5q2 2 2.5 4.5t1.5 6.5q0 8 -4.5 19.5t-12.5 23.5q-14 20 -38 36.5t-59 19.5v17
q70 -6 103 -43t33 -81q1 -46 -35.5 -84t-105.5 -38h-9q-3 0 -5.5 0.5t-4.5 0.5q-16 0 -40.5 7.5t-51.5 17.5l-16 6q-8 3 -16 7q-23 10 -42.5 19t-29.5 14q-1 -4 -2 -8.5t-1 -8.5q0 -20 16 -34.5t39 -27.5q5 -3 10.5 -6.5t11.5 -6.5q29 -17 53 -38.5t24 -55.5q0 -4 -0.5 -9
t-1.5 -10q-9 -29 -29.5 -52.5t-43.5 -40.5q-10 -7 -19 -13.5t-18 -11.5q5 -3 22 -14.5t41 -23.5q21 -11 46 -21t50 -15q9 -2 17.5 -3t17.5 -1q35 -1 65.5 18t47.5 68l16 1q-38 -119 -101.5 -163t-133.5 -44q-7 0 -14.5 0.5t-14.5 1.5q-52 5 -102 24.5t-90 42.5q-9 5 -17 9.5
t-15 9.5q-6 4 -13.5 9.5t-16.5 10.5q-11 7 -23.5 14t-25.5 12q-12 5 -23 8t-22 3q-22 1 -39 -16.5t-19 -64.5l-15 1q11 84 54 140t114 57h7q1 -1 3 -1h3q12 -1 25 -4.5t26 -7.5l16 -6q8 -3 15 -6q25 -9 46 -16.5t35 -7.5q8 0 13 4t5 14v6q-3 12 -24.5 26t-47.5 31
q-23 15 -43.5 32t-26.5 37q-1 3 -1.5 5.5t-0.5 5.5v4q0 2 -0.5 3.5t-0.5 3.5q0 38 23 70.5t51 55.5q6 5 12 9.5t12 8.5q-2 1 -4 2.5t-4 2.5q-25 15 -57 29t-66 23q-17 4 -34.5 6.5t-33.5 2.5q-40 0 -68.5 -19.5t-28.5 -69.5q0 -9 1 -19t3 -21q5 -21 34 -36.5t66 -16.5
q15 0 30 3t28 10zM490 881q-9 -8 -20 -19.5t-23 -24.5l-2 -2v-1q-20 -22 -36.5 -40t-20.5 -22q-11 -11 -21 -16t-18 -5q-11 0 -20.5 5.5t-19.5 15.5l-102 109q-5 6 -7.5 11t-3.5 10q0 7 6 9t20 -5l126 -56l118 47q10 7 17.5 10t11.5 3q9 0 7.5 -8t-12.5 -20v-1z" />
    <glyph glyph-name="tcaron" unicode="&#x165;" horiz-adv-x="444" 
d="M87 394h-63v15q44 7 84.5 51.5t66.5 96.5q16 31 26 60t12 51l23 1v-204h103v-71h-103v-237q4 -21 13.5 -33t25.5 -12q12 0 28 7t36 22l7 -15q-33 -27 -55 -46t-41 -36l-2 -2l-1 -1q-15 -13 -30.5 -27t-35.5 -30q-13 22 -34 43t-44 35q-17 11 -34 17.5t-30 6.5v16
q30 -1 39 11t9 36v245zM285 538v16q39 16 57.5 49t31.5 73q4 11 8.5 22.5t8.5 23.5q13 33 33.5 65t57.5 58v-15q-31 -28 -50.5 -66t-21.5 -78v-8q0 -35 17 -67.5t55 -57.5v-14q-30 -13 -52.5 -37t-34.5 -59l-16 1q-11 30 -27 49t-33 30q-9 6 -17.5 9.5t-16.5 5.5z" />
    <glyph glyph-name="Uring" unicode="&#x16e;" horiz-adv-x="661" 
d="M71 219v284q-1 22 -10 40.5t-27 18.5q-10 1 -22 -5.5t-27 -22.5l-16 17l157 158q9 -7 20 -13.5t22 -13.5q29 -19 52.5 -46t24.5 -73v-6q-1 -2 -1 -4v-380l79 -39l71 63v299q0 28 -18 45t-53 17v17q1 -1 2 -1h2l1 -1h2q14 0 30 7.5t32 19.5q21 16 41 38t36 45q3 4 5.5 8.5
t5.5 8.5q4 -8 9.5 -15.5t11.5 -15.5q26 -36 62 -65.5t75 -29.5v-15q-47 -1 -59 -20.5t-12 -43.5v-290q0 -28 12.5 -49.5t34.5 -21.5q11 0 25 7t30 23l8 -14l-173 -158q-22 16 -39 29t-30 25q-21 20 -31 45t-10 73l-189 -172q-10 9 -29.5 26t-43.5 35q-15 11 -30 21.5
t-31 19.5q-18 11 -36.5 19t-34.5 12v17q53 -1 62 17.5t9 59.5zM324 932q2 -1 4 -1h5q58 1 89.5 -26t32.5 -59v-3q0 -32 -30.5 -58.5t-92.5 -26.5q-64 0 -94.5 26.5t-31.5 57.5v3q1 32 31.5 59t86.5 27v1zM332 885q-21 -1 -32.5 -13.5t-12.5 -27.5q0 -15 11 -27t34 -12
q20 0 30.5 12t10.5 27q1 15 -9.5 27.5t-31.5 12.5v1z" />
    <glyph glyph-name="uring" unicode="&#x16f;" horiz-adv-x="535" 
d="M16 394l-16 15l150 119q23 -6 43.5 -32t29.5 -56q2 -8 3.5 -16t1.5 -16v-274q2 -26 10.5 -35.5t18.5 -9.5q5 0 10.5 2t11.5 5t11.5 7.5t11.5 9.5q4 3 7 6l6 6v245q0 28 -6 41t-18 13v17q22 3 40 20t33 37q6 8 11.5 15t10.5 14q7 -7 16 -17.5t20 -20.5q17 -17 39.5 -31
t50.5 -18v-15q-24 -1 -39.5 -13t-15.5 -35v-235q0 -20 10.5 -32.5t24.5 -12.5q9 0 18 5t18 15l7 -15l-133 -118q-53 28 -71 53t-18 46q0 5 0.5 9.5t1.5 8.5l-165 -117q-24 29 -53.5 55.5t-65.5 38.5v16q30 -1 39 12t9 43v205q0 24 -8 42t-22 18q-7 0 -15.5 -5t-17.5 -16v1z
M261 732q2 -1 4 -1h5q58 1 89.5 -26t32.5 -59v-3q0 -32 -30.5 -58.5t-92.5 -26.5q-64 0 -94.5 26.5t-31.5 57.5v3q1 32 31.5 59t86.5 27v1zM269 685q-21 -1 -32.5 -13.5t-12.5 -27.5q0 -15 11 -27t34 -12q20 0 30.5 12t10.5 27q1 15 -9.5 27.5t-31.5 12.5v1z" />
    <glyph glyph-name="Uhungarumlaut" unicode="&#x170;" horiz-adv-x="661" 
d="M71 219v284q-1 22 -10 40.5t-27 18.5q-10 1 -22 -5.5t-27 -22.5l-16 17l157 158q9 -7 20 -13.5t22 -13.5q29 -19 52.5 -46t24.5 -73v-6q-1 -2 -1 -4v-380l79 -39l71 63v299q0 28 -18 45t-53 17v17q1 -1 2 -1h2l1 -1h2q14 0 30 7.5t32 19.5q21 16 41 38t36 45q3 4 5.5 8.5
t5.5 8.5q4 -8 9.5 -15.5t11.5 -15.5q26 -36 62 -65.5t75 -29.5v-15q-47 -1 -59 -20.5t-12 -43.5v-290q0 -28 12.5 -49.5t34.5 -21.5q11 0 25 7t30 23l8 -14l-173 -158q-22 16 -39 29t-30 25q-21 20 -31 45t-10 73l-189 -172q-10 9 -29.5 26t-43.5 35q-15 11 -30 21.5
t-31 19.5q-18 11 -36.5 19t-34.5 12v17q53 -1 62 17.5t9 59.5zM143 757q5 9 11.5 20t13.5 23q5 8 10.5 16t11.5 16q13 18 25.5 33.5t21.5 24.5q12 12 24 17t23 5q23 1 39 -15t16 -36q0 -11 -5.5 -22t-17.5 -20q-8 -6 -17 -11.5t-20 -11.5q-21 -10 -51.5 -21t-76.5 -27z
M321 757q5 9 11.5 20t13.5 23q5 8 10.5 16t11.5 16q13 18 25.5 33.5t21.5 24.5q12 12 24 17t23 5q23 1 39 -15t16 -36q0 -11 -5.5 -22t-17.5 -20q-8 -6 -17 -11.5t-20 -11.5q-21 -10 -51.5 -21t-76.5 -27z" />
    <glyph glyph-name="uhungarumlaut" unicode="&#x171;" horiz-adv-x="535" 
d="M16 394l-16 15l150 119q23 -6 43.5 -32t29.5 -56q2 -8 3.5 -16t1.5 -16v-274q2 -26 10.5 -35.5t18.5 -9.5q5 0 10.5 2t11.5 5t11.5 7.5t11.5 9.5q4 3 7 6l6 6v245q0 28 -6 41t-18 13v17q22 3 40 20t33 37q6 8 11.5 15t10.5 14q7 -7 16 -17.5t20 -20.5q17 -17 39.5 -31
t50.5 -18v-15q-24 -1 -39.5 -13t-15.5 -35v-235q0 -20 10.5 -32.5t24.5 -12.5q9 0 18 5t18 15l7 -15l-133 -118q-53 28 -71 53t-18 46q0 5 0.5 9.5t1.5 8.5l-165 -117q-24 29 -53.5 55.5t-65.5 38.5v16q30 -1 39 12t9 43v205q0 24 -8 42t-22 18q-7 0 -15.5 -5t-17.5 -16v1z
M80 557q5 9 11.5 20t13.5 23q5 8 10.5 16t11.5 16q13 18 25.5 33.5t21.5 24.5q12 12 24 17t23 5q23 1 39 -15t16 -36q0 -11 -5.5 -22t-17.5 -20q-8 -6 -17 -11.5t-20 -11.5q-21 -10 -51.5 -21t-76.5 -27zM258 557q5 9 11.5 20t13.5 23q5 8 10.5 16t11.5 16q13 18 25.5 33.5
t21.5 24.5q12 12 24 17t23 5q23 1 39 -15t16 -36q0 -11 -5.5 -22t-17.5 -20q-8 -6 -17 -11.5t-20 -11.5q-21 -10 -51.5 -21t-76.5 -27z" />
    <glyph glyph-name="Ydieresis" unicode="&#x178;" horiz-adv-x="772" 
d="M409 614q6 44 35 68t68 24q13 0 26.5 -2.5t26.5 -8.5q60 -25 110 -109t50 -240v-23q0 -12 -1 -25v-17q-3 -194 -82.5 -355t-296.5 -162h-14q-102 0 -152.5 31.5t-59.5 68.5q-1 4 -1.5 8.5t-0.5 8.5q0 31 27 55.5t76 24.5q58 0 83 -23t25 -51v-5q-3 -30 -28 -54.5
t-64 -24.5h-8q12 -10 37 -17t56 -7q12 0 24.5 1t24.5 4q52 11 96 51.5t54 125.5q5 91 8 173.5t3 158.5q0 47 -1 92l-2 90q-2 33 -3.5 65t-4.5 65q-5 27 -16 43.5t-24 19.5h-4q-16 0 -29.5 -25.5t-13.5 -84.5q1 -14 2 -27l2 -26q2 -25 3.5 -47t1.5 -43q1 -44 -14 -80.5
t-61 -70.5q-20 -15 -46.5 -30t-60.5 -30q53 -18 88.5 -41.5t53.5 -53.5l63 56l7 -15l-181 -166q-21 36 -46.5 62t-51.5 39q-13 7 -26 10.5t-26 3.5q-27 1 -49.5 -14t-36.5 -47l-16 1q30 82 85 120.5t120 44.5q2 7 3.5 17.5t3.5 23.5q6 33 10 80.5t4 97.5v8q-1 74 -15 139.5
t-53 89.5q-5 3 -11.5 5t-12.5 3q-3 1 -6 1.5t-6 0.5q-28 0 -52 -19t-25 -46q0 -12 5.5 -25t18.5 -27q7 -6 15.5 -12.5t18.5 -13.5q30 -19 49 -58t19 -83q0 -5 -0.5 -10t-0.5 -10q-5 -46 -37 -88.5t-101 -65.5l-8 16q48 19 67.5 34t20.5 27q0 5 -2 9.5t-7 9.5q-9 10 -26 21
t-35 25q-20 14 -38 33t-27 45q-4 14 -6.5 28.5t-2.5 28.5q0 89 70.5 155t158.5 66q6 0 11.5 -0.5t11.5 -0.5q40 -5 79 -28t71 -68v1zM471 767q-21 11 -36 28.5t-21 35.5q-3 7 -4 13.5t-1 12.5q0 21 14.5 36t47.5 15q38 0 55 -15t17 -36q0 -5 -1 -10.5t-3 -11.5
q-6 -21 -24 -40t-44 -29v1zM290 767q-32 23 -46 46.5t-14 42.5q-1 23 17.5 37.5t50.5 14.5q30 0 47 -16t17 -39q0 -7 -1.5 -15t-5.5 -15q-7 -16 -23 -30.5t-42 -26.5v1z" />
    <glyph glyph-name="Zacute" unicode="&#x179;" horiz-adv-x="630" 
d="M39 496h-15v12q0 107 77 156t172 50h18q97 -5 179.5 -55.5t88.5 -139.5v-5q0 -2 1 -4v-10q0 -81 -51 -134.5t-163 -59.5q113 -23 182.5 -86t69.5 -158q0 -144 -90 -217t-198 -81q-7 0 -14.5 -0.5t-14.5 -0.5q-95 -1 -172 46t-85 136q-3 29 -13.5 48t-21.5 23
q-13 5 -24.5 -15.5t-11.5 -76.5v-13q1 -3 1 -6v-7h-17q-1 10 -1.5 19.5t-0.5 18.5q0 68 31 101t68 34h7q3 0 6 -1q83 -9 107.5 -50t30.5 -90q1 -6 1.5 -12.5t1.5 -12.5q5 -47 19.5 -82.5t75.5 -35.5h8q51 0 72.5 49.5t27.5 108.5q3 33 3.5 63.5t-0.5 53.5v28q0 3 1 5v9
q-1 92 -49.5 140t-109.5 48h-9q-49 -3 -93.5 -40t-62.5 -111l-16 1q12 49 32 80.5t42 49.5q12 9 23 15.5t21 10.5q-40 15 -63.5 41t-31.5 55q-2 7 -3 13.5t-1 13.5q0 33 21 57.5t61 24.5h9q31 -3 47.5 -23.5t17.5 -44.5v-3q0 -21 -12 -39.5t-37 -23.5q-10 -3 -15.5 -9.5
t-6.5 -14.5v-4q2 -8 11 -16t27 -11l18 -2q9 -1 16 -1q73 0 103 42.5t36 94.5q1 9 1.5 18t0.5 18t-0.5 18t-1.5 17q-5 85 -50 123t-101 38h-8q-4 0 -8 -1q-61 -5 -112.5 -50.5t-51.5 -119.5v-13zM217 759q5 9 11.5 20t13.5 23q5 8 10.5 16t11.5 16q13 18 25.5 33.5t21.5 24.5
q12 12 24 17t23 5q23 1 39 -15t16 -36q0 -11 -5.5 -22t-17.5 -20q-8 -6 -17 -11.5t-20 -11.5q-21 -10 -51.5 -21t-76.5 -27z" />
    <glyph glyph-name="zacute" unicode="&#x17a;" horiz-adv-x="386" 
d="M31 394l182 134q35 -27 61 -60.5t30 -68.5q1 -3 1 -6v-5q0 -33 -26.5 -64.5t-89.5 -56.5q18 0 34.5 -5t28.5 -11q18 12 45.5 21.5t56.5 9.5v-14q-6 -3 -12.5 -4.5t-13.5 -3.5q-18 -4 -35 -10t-25 -15q52 -36 76 -91t25 -114v-6q-2 -92 -58.5 -170t-153.5 -82h-7
q-76 0 -115.5 55.5t-39.5 129.5q0 12 1 23.5t3 22.5q10 66 53 126t121 90q-11 6 -20 8.5t-17 2.5q-15 0 -24.5 -7.5t-17.5 -15.5q-6 -6 -11.5 -11t-11.5 -8q-3 -1 -6 -2.5t-6 -1.5q-2 -1 -3 -1h-3q-10 0 -16 6.5t-6 15.5q0 2 0.5 4.5t1.5 5.5q4 9 15 17.5t31 10.5
q48 8 68.5 31.5t20.5 50.5q0 29 -20 52.5t-51 24.5q-13 0 -27.5 -6t-30.5 -19zM181 205q-58 -21 -88 -79t-38 -124q-1 -10 -2 -21t-1 -22q0 -68 23 -120t64 -52h3q39 0 54.5 62.5t15.5 139.5v10q-1 70 -10 130.5t-21 74.5v1zM95 559q5 9 11.5 20t13.5 23q5 8 10.5 16
t11.5 16q13 18 25.5 33.5t21.5 24.5q12 12 24 17t23 5q23 1 39 -15t16 -36q0 -11 -5.5 -22t-17.5 -20q-8 -6 -17 -11.5t-20 -11.5q-21 -10 -51.5 -21t-76.5 -27z" />
    <glyph glyph-name="Zdotaccent" unicode="&#x17b;" horiz-adv-x="630" 
d="M39 496h-15v12q0 107 77 156t172 50h18q97 -5 179.5 -55.5t88.5 -139.5v-5q0 -2 1 -4v-10q0 -81 -51 -134.5t-163 -59.5q113 -23 182.5 -86t69.5 -158q0 -144 -90 -217t-198 -81q-7 0 -14.5 -0.5t-14.5 -0.5q-95 -1 -172 46t-85 136q-3 29 -13.5 48t-21.5 23
q-13 5 -24.5 -15.5t-11.5 -76.5v-13q1 -3 1 -6v-7h-17q-1 10 -1.5 19.5t-0.5 18.5q0 68 31 101t68 34h7q3 0 6 -1q83 -9 107.5 -50t30.5 -90q1 -6 1.5 -12.5t1.5 -12.5q5 -47 19.5 -82.5t75.5 -35.5h8q51 0 72.5 49.5t27.5 108.5q3 33 3.5 63.5t-0.5 53.5v28q0 3 1 5v9
q-1 92 -49.5 140t-109.5 48h-9q-49 -3 -93.5 -40t-62.5 -111l-16 1q12 49 32 80.5t42 49.5q12 9 23 15.5t21 10.5q-40 15 -63.5 41t-31.5 55q-2 7 -3 13.5t-1 13.5q0 33 21 57.5t61 24.5h9q31 -3 47.5 -23.5t17.5 -44.5v-3q0 -21 -12 -39.5t-37 -23.5q-10 -3 -15.5 -9.5
t-6.5 -14.5v-4q2 -8 11 -16t27 -11l18 -2q9 -1 16 -1q73 0 103 42.5t36 94.5q1 9 1.5 18t0.5 18t-0.5 18t-1.5 17q-5 85 -50 123t-101 38h-8q-4 0 -8 -1q-61 -5 -112.5 -50.5t-51.5 -119.5v-13zM238 836q0 28 18.5 47.5t44.5 19.5t44.5 -19.5t18.5 -47.5q0 -27 -18.5 -46.5
t-44.5 -19.5t-44.5 19.5t-18.5 46.5z" />
    <glyph glyph-name="zdotaccent" unicode="&#x17c;" horiz-adv-x="386" 
d="M31 394l182 134q35 -27 61 -60.5t30 -68.5q1 -3 1 -6v-5q0 -33 -26.5 -64.5t-89.5 -56.5q18 0 34.5 -5t28.5 -11q18 12 45.5 21.5t56.5 9.5v-14q-6 -3 -12.5 -4.5t-13.5 -3.5q-18 -4 -35 -10t-25 -15q52 -36 76 -91t25 -114v-6q-2 -92 -58.5 -170t-153.5 -82h-7
q-76 0 -115.5 55.5t-39.5 129.5q0 12 1 23.5t3 22.5q10 66 53 126t121 90q-11 6 -20 8.5t-17 2.5q-15 0 -24.5 -7.5t-17.5 -15.5q-6 -6 -11.5 -11t-11.5 -8q-3 -1 -6 -2.5t-6 -1.5q-2 -1 -3 -1h-3q-10 0 -16 6.5t-6 15.5q0 2 0.5 4.5t1.5 5.5q4 9 15 17.5t31 10.5
q48 8 68.5 31.5t20.5 50.5q0 29 -20 52.5t-51 24.5q-13 0 -27.5 -6t-30.5 -19zM181 205q-58 -21 -88 -79t-38 -124q-1 -10 -2 -21t-1 -22q0 -68 23 -120t64 -52h3q39 0 54.5 62.5t15.5 139.5v10q-1 70 -10 130.5t-21 74.5v1zM116 636q0 28 18.5 47.5t44.5 19.5t44.5 -19.5
t18.5 -47.5q0 -27 -18.5 -46.5t-44.5 -19.5t-44.5 19.5t-18.5 46.5z" />
    <glyph glyph-name="Zcaron" unicode="&#x17d;" horiz-adv-x="630" 
d="M39 496h-15v12q0 107 77 156t172 50h18q97 -5 179.5 -55.5t88.5 -139.5v-5q0 -2 1 -4v-10q0 -81 -51 -134.5t-163 -59.5q113 -23 182.5 -86t69.5 -158q0 -144 -90 -217t-198 -81q-7 0 -14.5 -0.5t-14.5 -0.5q-95 -1 -172 46t-85 136q-3 29 -13.5 48t-21.5 23
q-13 5 -24.5 -15.5t-11.5 -76.5v-13q1 -3 1 -6v-7h-17q-1 10 -1.5 19.5t-0.5 18.5q0 68 31 101t68 34h7q3 0 6 -1q83 -9 107.5 -50t30.5 -90q1 -6 1.5 -12.5t1.5 -12.5q5 -47 19.5 -82.5t75.5 -35.5h8q51 0 72.5 49.5t27.5 108.5q3 33 3.5 63.5t-0.5 53.5v28q0 3 1 5v9
q-1 92 -49.5 140t-109.5 48h-9q-49 -3 -93.5 -40t-62.5 -111l-16 1q12 49 32 80.5t42 49.5q12 9 23 15.5t21 10.5q-40 15 -63.5 41t-31.5 55q-2 7 -3 13.5t-1 13.5q0 33 21 57.5t61 24.5h9q31 -3 47.5 -23.5t17.5 -44.5v-3q0 -21 -12 -39.5t-37 -23.5q-10 -3 -15.5 -9.5
t-6.5 -14.5v-4q2 -8 11 -16t27 -11l18 -2q9 -1 16 -1q73 0 103 42.5t36 94.5q1 9 1.5 18t0.5 18t-0.5 18t-1.5 17q-5 85 -50 123t-101 38h-8q-4 0 -8 -1q-61 -5 -112.5 -50.5t-51.5 -119.5v-13zM455 881q-9 -8 -20 -19.5t-23 -24.5l-2 -2v-1q-20 -22 -36.5 -40t-20.5 -22
q-11 -11 -21 -16t-18 -5q-11 0 -20.5 5.5t-19.5 15.5l-102 109q-5 6 -7.5 11t-3.5 10q0 7 6 9t20 -5l126 -56l118 47q10 7 17.5 10t11.5 3q9 0 7.5 -8t-12.5 -20v-1z" />
    <glyph glyph-name="zcaron" unicode="&#x17e;" horiz-adv-x="386" 
d="M31 394l182 134q35 -27 61 -60.5t30 -68.5q1 -3 1 -6v-5q0 -33 -26.5 -64.5t-89.5 -56.5q18 0 34.5 -5t28.5 -11q18 12 45.5 21.5t56.5 9.5v-14q-6 -3 -12.5 -4.5t-13.5 -3.5q-18 -4 -35 -10t-25 -15q52 -36 76 -91t25 -114v-6q-2 -92 -58.5 -170t-153.5 -82h-7
q-76 0 -115.5 55.5t-39.5 129.5q0 12 1 23.5t3 22.5q10 66 53 126t121 90q-11 6 -20 8.5t-17 2.5q-15 0 -24.5 -7.5t-17.5 -15.5q-6 -6 -11.5 -11t-11.5 -8q-3 -1 -6 -2.5t-6 -1.5q-2 -1 -3 -1h-3q-10 0 -16 6.5t-6 15.5q0 2 0.5 4.5t1.5 5.5q4 9 15 17.5t31 10.5
q48 8 68.5 31.5t20.5 50.5q0 29 -20 52.5t-51 24.5q-13 0 -27.5 -6t-30.5 -19zM181 205q-58 -21 -88 -79t-38 -124q-1 -10 -2 -21t-1 -22q0 -68 23 -120t64 -52h3q39 0 54.5 62.5t15.5 139.5v10q-1 70 -10 130.5t-21 74.5v1zM333 681q-9 -8 -20 -19.5t-23 -24.5l-2 -2v-1
q-20 -22 -36.5 -40t-20.5 -22q-11 -11 -21 -16t-18 -5q-11 0 -20.5 5.5t-19.5 15.5l-102 109q-5 6 -7.5 11t-3.5 10q0 7 6 9t20 -5l126 -56l118 47q10 7 17.5 10t11.5 3q9 0 7.5 -8t-12.5 -20v-1z" />
    <glyph glyph-name="longs" unicode="&#x17f;" horiz-adv-x="272" 
d="M16 394v15q32 4 45 27t13 61q0 10 -0.5 21.5t-2.5 23.5q-1 9 -1 18v16q-1 79 24.5 107.5t56.5 28.5q20 1 39 -8t30 -20q18 -17 29.5 -26t18.5 -9q10 -1 12.5 16t2.5 51l16 1q2 -14 2.5 -26t0.5 -23q0 -76 -24.5 -103.5t-53.5 -28.5h-7q-16 0 -31 5.5t-27 12.5
q-6 3 -10 6.5t-7 5.5q-11 11 -20.5 16.5t-17.5 5.5q-7 0 -11 -4t-4 -12q0 -7 3 -16.5t10 -21.5q22 -37 74.5 -52t67.5 -88q0 -41 -8.5 -126.5t-20.5 -179.5q-6 -44 -12.5 -87t-13.5 -81q-8 -51 -16.5 -90t-15.5 -58h-15q-6 30 -14 79.5t-17 108.5q-4 30 -8.5 60.5t-8.5 61.5
q-10 81 -17 157.5t-7 125.5v15q0 7 1 13z" />
    <glyph glyph-name="florin" unicode="&#x192;" horiz-adv-x="331" 
d="M236 107v-22q0 -18 4 -28.5t13 -21.5q1 -1 1.5 -2t1.5 -2q3 -4 6.5 -8t6.5 -8q8 -12 12.5 -28t4.5 -35q0 -12 -2 -24.5t-6 -24.5q-16 -52 -88.5 -96t-135.5 -43q-66 1 -103 27.5t-43 58.5q0 3 -0.5 6t-0.5 6q0 30 21 53t55 23h7q33 -4 55 -23t22 -44q0 -3 -0.5 -6.5
t-1.5 -6.5q-4 -15 -18.5 -29.5t-41.5 -24.5v-1q-1 -8 14 -12t37 -4q31 0 64 19t38 44q2 8 3 16t1 15q0 23 -8 39t-19 31q-3 5 -6.5 9.5t-7.5 9.5q-15 21 -28 48q-9 19 -17 58q-6 240 -6 289v15q0 7 1 13l-55 1v15q32 4 45 27t13 61q0 10 -0.5 21.5t-2.5 23.5q-1 9 -1 18v16
q-1 79 24.5 107.5t56.5 28.5q20 1 39 -8t30 -20q18 -17 29.5 -26t18.5 -9q10 -1 12.5 16t2.5 51l16 1q2 -14 2.5 -26t0.5 -23q0 -76 -24.5 -103.5t-53.5 -28.5h-7q-16 0 -31 5.5t-27 12.5q-6 3 -10 6.5t-7 5.5q-11 11 -20.5 16.5t-17.5 5.5q-7 0 -11 -4t-4 -12q0 -7 3 -16.5
t10 -21.5q22 -37 74.5 -52t111.5 -18h27v-70h-71q0 -41 -9 -127z" />
    <glyph glyph-name="circumflex" unicode="&#x2c6;" horiz-adv-x="433" 
d="M0 583q9 8 20 19.5t23 24.5l1 1l1 2q20 22 36.5 40t20.5 22q11 11 21 16t18 5q11 0 20.5 -5.5t19.5 -15.5l102 -109q5 -6 7.5 -11t3.5 -10q0 -7 -6 -9t-20 5l-126 56l-118 -47q-10 -7 -17.5 -10t-11.5 -3q-9 0 -7.5 8t12.5 20v1z" />
    <glyph glyph-name="caron" unicode="&#x2c7;" horiz-adv-x="433" 
d="M280 681q-9 -8 -20 -19.5t-23 -24.5l-2 -2v-1q-20 -22 -36.5 -40t-20.5 -22q-11 -11 -21 -16t-18 -5q-11 0 -20.5 5.5t-19.5 15.5l-102 109q-5 6 -7.5 11t-3.5 10q0 7 6 9t20 -5l126 -56l118 47q10 7 17.5 10t11.5 3q9 0 7.5 -8t-12.5 -20v-1z" />
    <glyph glyph-name="breve" unicode="&#x2d8;" horiz-adv-x="449" 
d="M260 724h16q-9 -78 -50.5 -117.5t-90.5 -39.5h-4q-46 2 -86.5 40.5t-51.5 115.5l15 1q8 -35 41.5 -50.5t73.5 -15.5h9q46 2 85.5 20t42.5 45v1z" />
    <glyph glyph-name="dotaccent" unicode="&#x2d9;" horiz-adv-x="234" 
d="M46 636q0 28 18.5 47.5t44.5 19.5t44.5 -19.5t18.5 -47.5q0 -27 -18.5 -46.5t-44.5 -19.5t-44.5 19.5t-18.5 46.5z" />
    <glyph glyph-name="ring" unicode="&#x2da;" horiz-adv-x="276" 
d="M142 732q2 -1 4 -1h5q58 1 89.5 -26t32.5 -59v-3q0 -32 -30.5 -58.5t-92.5 -26.5q-64 0 -94.5 26.5t-31.5 57.5v3q1 32 31.5 59t86.5 27v1zM150 685q-21 -1 -32.5 -13.5t-12.5 -27.5q0 -15 11 -27t34 -12q20 0 30.5 12t10.5 27q1 15 -9.5 27.5t-31.5 12.5v1z" />
    </font>
</defs>
</svg>
